######## Panel parameters ########
type=propeller
n_blades=5

rotation_axis=[0, 0, 1]
n_span_all= 45
n_points=41
######## End of parameters ########
1	0.025500000	-0.019260662	-0.014862212
2	0.025500000	-0.017021442	-0.013262800
3	0.025500000	-0.014641380	-0.011906979
4	0.025500000	-0.012252747	-0.010647900
5	0.025500000	-0.009888795	-0.009455184
6	0.025500000	-0.007587319	-0.008293987
7	0.025500000	-0.005372233	-0.007145281
8	0.025500000	-0.003277050	-0.005980593
9	0.025500000	-0.001346021	-0.004760555
10	0.025500000	0.000387836	-0.003477075
11	0.025500000	0.001904763	-0.002147681
12	0.025500000	0.003183316	-0.000790726
13	0.025500000	0.004218946	0.000557761
14	0.025500000	0.005011600	0.001861356
15	0.025500000	0.005567205	0.003082644
16	0.025500000	0.005879556	0.004187928
17	0.025500000	0.005923314	0.005135016
18	0.025500000	0.005751920	0.005858553
19	0.025500000	0.005512208	0.006337034
20	0.025500000	0.005323331	0.006598751
21	0.025500000	0.005253423	0.006680896
22	0.025500000	0.005179596	0.006761954
23	0.025500000	0.004939313	0.006985268
24	0.025500000	0.004494045	0.007298444
25	0.025500000	0.003808946	0.007620049
26	0.025500000	0.002864905	0.007815475
27	0.025500000	0.001697775	0.007789417
28	0.025500000	0.000359643	0.007528816
29	0.025500000	-0.001102098	0.007012207
30	0.025500000	-0.002637346	0.006219667
31	0.025500000	-0.004205374	0.005155766
32	0.025500000	-0.005796112	0.003862663
33	0.025500000	-0.007391482	0.002358534
34	0.025500000	-0.008965327	0.000651640
35	0.025500000	-0.010506011	-0.001235800
36	0.025500000	-0.012018090	-0.003271883
37	0.025500000	-0.013507568	-0.005427443
38	0.025500000	-0.014988162	-0.007675214
39	0.025500000	-0.016470728	-0.009986363
40	0.025500000	-0.017931521	-0.012363659
41	0.025500000	-0.019260662	-0.014862212
1	0.028901296	-0.020708390	-0.014078665
2	0.028901296	-0.018348344	-0.012622838
3	0.028901296	-0.015901196	-0.011359498
4	0.028901296	-0.013464687	-0.010161071
5	0.028901296	-0.011074002	-0.008988398
6	0.028901296	-0.008765497	-0.007807443
7	0.028901296	-0.006549224	-0.006629275
8	0.028901296	-0.004443800	-0.005453618
9	0.028901296	-0.002489342	-0.004245373
10	0.028901296	-0.000713861	-0.002997388
11	0.028901296	0.000873813	-0.001733533
12	0.028901296	0.002265936	-0.000476363
13	0.028901296	0.003445879	0.000762201
14	0.028901296	0.004404800	0.001960812
15	0.028901296	0.005136898	0.003094813
16	0.028901296	0.005634864	0.004138093
17	0.028901296	0.005878761	0.005060939
18	0.028901296	0.005877896	0.005808698
19	0.028901296	0.005739419	0.006328616
20	0.028901296	0.005585452	0.006613808
21	0.028901296	0.005521011	0.006701092
22	0.028901296	0.005449190	0.006786051
23	0.028901296	0.005200649	0.007006929
24	0.028901296	0.004719228	0.007277122
25	0.028901296	0.003990518	0.007520082
26	0.028901296	0.003019211	0.007647276
27	0.028901296	0.001834369	0.007606952
28	0.028901296	0.000469537	0.007377388
29	0.028901296	-0.001041310	0.006936753
30	0.028901296	-0.002660691	0.006263399
31	0.028901296	-0.004345596	0.005336640
32	0.028901296	-0.006061539	0.004160024
33	0.028901296	-0.007783859	0.002751152
34	0.028901296	-0.009480980	0.001117011
35	0.028901296	-0.011127725	-0.000727139
36	0.028901296	-0.012738665	-0.002734461
37	0.028901296	-0.014340882	-0.004856497
38	0.028901296	-0.015938697	-0.007071694
39	0.028901296	-0.017560831	-0.009336560
40	0.028901296	-0.019186565	-0.011652166
41	0.028901296	-0.020708390	-0.014078665
1	0.032286807	-0.022087910	-0.013505946
2	0.032286807	-0.019628361	-0.012121889
3	0.032286807	-0.017112356	-0.010891745
4	0.032286807	-0.014618728	-0.009704305
5	0.032286807	-0.012179911	-0.008525393
6	0.032286807	-0.009827010	-0.007331645
7	0.032286807	-0.007568993	-0.006138445
8	0.032286807	-0.005423769	-0.004947507
9	0.032286807	-0.003421546	-0.003740109
10	0.032286807	-0.001585598	-0.002512934
11	0.032286807	0.000078252	-0.001289982
12	0.032286807	0.001565942	-0.000094038
13	0.032286807	0.002865577	0.001064159
14	0.032286807	0.003964366	0.002174462
15	0.032286807	0.004848281	0.003225908
16	0.032286807	0.005502051	0.004204077
17	0.032286807	0.005903979	0.005088797
18	0.032286807	0.006043791	0.005836669
19	0.032286807	0.005985751	0.006380305
20	0.032286807	0.005858141	0.006684002
21	0.032286807	0.005797428	0.006776177
22	0.032286807	0.005726515	0.006864854
23	0.032286807	0.005470400	0.007087130
24	0.032286807	0.004966928	0.007339741
25	0.032286807	0.004209784	0.007543865
26	0.032286807	0.003213602	0.007636046
27	0.032286807	0.002004342	0.007582077
28	0.032286807	0.000609861	0.007354252
29	0.032286807	-0.000939775	0.006929859
30	0.032286807	-0.002611229	0.006288000
31	0.032286807	-0.004367189	0.005410118
32	0.032286807	-0.006174546	0.004294482
33	0.032286807	-0.008004063	0.002948197
34	0.032286807	-0.009818799	0.001370059
35	0.032286807	-0.011585910	-0.000431798
36	0.032286807	-0.013314550	-0.002410323
37	0.032286807	-0.015042546	-0.004503578
38	0.032286807	-0.016789260	-0.006676257
39	0.032286807	-0.018577180	-0.008886592
40	0.032286807	-0.020379308	-0.011140603
41	0.032286807	-0.022087910	-0.013505946
1	0.035656233	-0.023463875	-0.013143858
2	0.035656233	-0.020907235	-0.011783964
3	0.035656233	-0.018317833	-0.010540008
4	0.035656233	-0.015759466	-0.009321507
5	0.035656233	-0.013259534	-0.008106484
6	0.035656233	-0.010839400	-0.006891859
7	0.035656233	-0.008512784	-0.005684820
8	0.035656233	-0.006305470	-0.004472898
9	0.035656233	-0.004239582	-0.003251925
10	0.035656233	-0.002327694	-0.002034668
11	0.035656233	-0.000579216	-0.000836996
12	0.035656233	0.001000498	0.000321694
13	0.035656233	0.002406269	0.001424565
14	0.035656233	0.003625334	0.002466006
15	0.035656233	0.004639737	0.003445269
16	0.035656233	0.005428772	0.004359605
17	0.035656233	0.005967910	0.005199094
18	0.035656233	0.006236274	0.005932569
19	0.035656233	0.006252702	0.006492178
20	0.035656233	0.006147923	0.006813488
21	0.035656233	0.006090218	0.006910928
22	0.035656233	0.006019266	0.007003289
23	0.035656233	0.005754874	0.007229223
24	0.035656233	0.005233892	0.007478922
25	0.035656233	0.004451434	0.007665987
26	0.035656233	0.003427148	0.007732415
27	0.035656233	0.002188378	0.007644272
28	0.035656233	0.000763916	0.007374989
29	0.035656233	-0.000817459	0.006909258
30	0.035656233	-0.002528392	0.006239990
31	0.035656233	-0.004342580	0.005364333
32	0.035656233	-0.006230091	0.004275207
33	0.035656233	-0.008155927	0.002962734
34	0.035656233	-0.010083903	0.001422825
35	0.035656233	-0.011980416	-0.000340099
36	0.035656233	-0.013838733	-0.002292461
37	0.035656233	-0.015703567	-0.004360761
38	0.035656233	-0.017617733	-0.006485290
39	0.035656233	-0.019584823	-0.008637678
40	0.035656233	-0.021568241	-0.010833087
41	0.035656233	-0.023463875	-0.013143858
1	0.039009262	-0.024841014	-0.012901012
2	0.039009262	-0.022175745	-0.011556523
3	0.039009262	-0.019499674	-0.010289251
4	0.039009262	-0.016862643	-0.009032448
5	0.039009262	-0.014286961	-0.007776496
6	0.039009262	-0.011789213	-0.006528964
7	0.039009262	-0.009382762	-0.005299055
8	0.039009262	-0.007098841	-0.004064378
9	0.039009262	-0.004959136	-0.002821791
10	0.039009262	-0.002964658	-0.001603808
11	0.039009262	-0.001129620	-0.000417298
12	0.039009262	0.000538222	0.000722303
13	0.039009262	0.002037364	0.001793171
14	0.039009262	0.003356716	0.002789441
15	0.039009262	0.004478176	0.003714734
16	0.039009262	0.005379729	0.004574021
17	0.039009262	0.006036171	0.005366539
18	0.039009262	0.006422378	0.006073664
19	0.039009262	0.006517132	0.006641685
20	0.039009262	0.006438660	0.006980918
21	0.039009262	0.006383453	0.007083748
22	0.039009262	0.006311719	0.007179551
23	0.039009262	0.006036843	0.007407838
24	0.039009262	0.005494719	0.007649796
25	0.039009262	0.004684289	0.007814038
26	0.039009262	0.003629694	0.007844445
27	0.039009262	0.002360695	0.007706127
28	0.039009262	0.000907721	0.007375411
29	0.039009262	-0.000701792	0.006845219
30	0.039009262	-0.002446823	0.006122999
31	0.039009262	-0.004312245	0.005223742
32	0.039009262	-0.006269990	0.004135126
33	0.039009262	-0.008282302	0.002835236
34	0.039009262	-0.010318115	0.001322321
35	0.039009262	-0.012348819	-0.000398356
36	0.039009262	-0.014347248	-0.002316851
37	0.039009262	-0.016360655	-0.004351545
38	0.039009262	-0.018450900	-0.006417629
39	0.039009262	-0.020599414	-0.008506394
40	0.039009262	-0.022761827	-0.010642698
41	0.039009262	-0.024841014	-0.012901012
1	0.042345566	-0.026175012	-0.012717728
2	0.042345566	-0.023393864	-0.011394594
3	0.042345566	-0.020623893	-0.010108314
4	0.042345566	-0.017900784	-0.008818330
5	0.042345566	-0.015241910	-0.007526856
6	0.042345566	-0.012662864	-0.006244667
7	0.042345566	-0.010174811	-0.004986818
8	0.042345566	-0.007809829	-0.003729780
9	0.042345566	-0.005591683	-0.002466718
10	0.042345566	-0.003515027	-0.001242121
11	0.042345566	-0.001597446	-0.000056930
12	0.042345566	0.000151017	0.001076760
13	0.042345566	0.001729449	0.002135391
14	0.042345566	0.003129527	0.003109372
15	0.042345566	0.004335891	0.004000731
16	0.042345566	0.005328153	0.004817219
17	0.042345566	0.006082527	0.005564637
18	0.042345566	0.006573073	0.006236290
19	0.042345566	0.006753378	0.006801668
20	0.042345566	0.006708143	0.007157298
21	0.042345566	0.006655356	0.007265439
22	0.042345566	0.006582395	0.007364419
23	0.042345566	0.006295283	0.007593035
24	0.042345566	0.005729686	0.007821585
25	0.042345566	0.004890818	0.007957852
26	0.042345566	0.003806542	0.007947655
27	0.042345566	0.002508737	0.007755466
28	0.042345566	0.001029125	0.007360048
29	0.042345566	-0.000606272	0.006760849
30	0.042345566	-0.002382281	0.005977392
31	0.042345566	-0.004293050	0.005039637
32	0.042345566	-0.006311035	0.003931194
33	0.042345566	-0.008400678	0.002628781
34	0.042345566	-0.010536869	0.001134390
35	0.042345566	-0.012696884	-0.000544445
36	0.042345566	-0.014840577	-0.002418034
37	0.042345566	-0.017014269	-0.004400421
38	0.042345566	-0.019276297	-0.006401848
39	0.042345566	-0.021595131	-0.008427890
40	0.042345566	-0.023923632	-0.010509317
41	0.042345566	-0.026175012	-0.012717728
1	0.045664803	-0.027387159	-0.012532174
2	0.045664803	-0.024494255	-0.011241600
3	0.045664803	-0.021633320	-0.009947540
4	0.045664803	-0.018826512	-0.008636332
5	0.045664803	-0.016086700	-0.007321102
6	0.045664803	-0.013430251	-0.006012236
7	0.045664803	-0.010866817	-0.004729322
8	0.045664803	-0.008425903	-0.003454308
9	0.045664803	-0.006131977	-0.002179159
10	0.045664803	-0.003980392	-0.000948211
11	0.045664803	-0.001989915	0.000239399
12	0.045664803	-0.000172399	0.001374010
13	0.045664803	0.001469561	0.002433576
14	0.045664803	0.002931162	0.003402589
15	0.045664803	0.004201887	0.004276620
16	0.045664803	0.005264506	0.005062029
17	0.045664803	0.006097474	0.005768402
18	0.045664803	0.006675134	0.006399659
19	0.045664803	0.006941812	0.006948981
20	0.045664803	0.006935623	0.007316246
21	0.045664803	0.006885482	0.007429272
22	0.045664803	0.006811321	0.007531142
23	0.045664803	0.006512038	0.007758683
24	0.045664803	0.005924248	0.007971965
25	0.045664803	0.005059942	0.008081711
26	0.045664803	0.003949309	0.008036135
27	0.045664803	0.002625500	0.007798835
28	0.045664803	0.001121194	0.007349410
29	0.045664803	-0.000538480	0.006691057
30	0.045664803	-0.002342764	0.005851768
31	0.045664803	-0.004291855	0.004870958
32	0.045664803	-0.006359791	0.003733160
33	0.045664803	-0.008516569	0.002421662
34	0.045664803	-0.010741954	0.000941657
35	0.045664803	-0.013017536	-0.000697547
36	0.045664803	-0.015302025	-0.002514123
37	0.045664803	-0.017633217	-0.004427337
38	0.045664803	-0.020048061	-0.006364717
39	0.045664803	-0.022513580	-0.008335278
40	0.045664803	-0.024984643	-0.010370048
41	0.045664803	-0.027387159	-0.012532174
1	0.048966614	-0.028405123	-0.012284227
2	0.048966614	-0.025415352	-0.011037684
3	0.048966614	-0.022474993	-0.009751029
4	0.048966614	-0.019594749	-0.008435389
5	0.048966614	-0.016783856	-0.007113060
6	0.048966614	-0.014060137	-0.005792439
7	0.048966614	-0.011432944	-0.004495132
8	0.048966614	-0.008927696	-0.003211551
9	0.048966614	-0.006567116	-0.001937065
10	0.048966614	-0.004352753	-0.000705641
11	0.048966614	-0.002302777	0.000482083
12	0.048966614	-0.000430276	0.001617898
13	0.048966614	0.001259199	0.002683463
14	0.048966614	0.002764464	0.003656718
15	0.048966614	0.004081079	0.004523804
16	0.048966614	0.005195527	0.005287004
17	0.048966614	0.006088218	0.005957633
18	0.048966614	0.006733421	0.006548697
19	0.048966614	0.007076245	0.007071557
20	0.048966614	0.007109127	0.007443815
21	0.048966614	0.007061777	0.007560909
22	0.048966614	0.006986773	0.007665246
23	0.048966614	0.006677286	0.007891331
24	0.048966614	0.006071675	0.008091762
25	0.048966614	0.005187449	0.008182754
26	0.048966614	0.004055446	0.008115029
27	0.048966614	0.002709109	0.007850656
28	0.048966614	0.001181902	0.007367968
29	0.048966614	-0.000500897	0.006670794
30	0.048966614	-0.002330751	0.005791645
31	0.048966614	-0.004310433	0.004773903
32	0.048966614	-0.006418091	0.003609396
33	0.048966614	-0.008630107	0.002290802
34	0.048966614	-0.010929482	0.000825517
35	0.048966614	-0.013300223	-0.000776247
36	0.048966614	-0.015709343	-0.002526581
37	0.048966614	-0.018177278	-0.004363670
38	0.048966614	-0.020715313	-0.006243195
39	0.048966614	-0.023296293	-0.008168014
40	0.048966614	-0.025879875	-0.010164721
41	0.048966614	-0.028405123	-0.012284227
1	0.052250624	-0.029189679	-0.011933623
2	0.052250624	-0.026125541	-0.010739068
3	0.052250624	-0.023122476	-0.009475563
4	0.052250624	-0.020183560	-0.008174031
5	0.052250624	-0.017315653	-0.006863359
6	0.052250624	-0.014538203	-0.005549221
7	0.052250624	-0.011860955	-0.004253680
8	0.052250624	-0.009305418	-0.002975299
9	0.052250624	-0.006891449	-0.001715091
10	0.052250624	-0.004628507	-0.000492783
11	0.052250624	-0.002533489	0.000688147
12	0.052250624	-0.000620212	0.001820170
13	0.052250624	0.001102580	0.002889268
14	0.052250624	0.002636770	0.003867523
15	0.052250624	0.003983955	0.004731224
16	0.052250624	0.005134086	0.005477696
17	0.052250624	0.006068809	0.006118835
18	0.052250624	0.006761761	0.006674865
19	0.052250624	0.007161919	0.007168714
20	0.052250624	0.007227131	0.007540669
21	0.052250624	0.007182454	0.007660767
22	0.052250624	0.007107200	0.007767093
23	0.052250624	0.006791039	0.007992762
24	0.052250624	0.006173760	0.008186388
25	0.052250624	0.005276207	0.008270270
26	0.052250624	0.004128533	0.008197190
27	0.052250624	0.002763649	0.007927214
28	0.052250624	0.001215624	0.007435816
29	0.052250624	-0.000489156	0.006724932
30	0.052250624	-0.002342150	0.005828150
31	0.052250624	-0.004346108	0.004789318
32	0.052250624	-0.006484579	0.003610577
33	0.052250624	-0.008739345	0.002293196
34	0.052250624	-0.011095313	0.000846111
35	0.052250624	-0.013537687	-0.000719948
36	0.052250624	-0.016044250	-0.002404141
37	0.052250624	-0.018615952	-0.004170410
38	0.052250624	-0.021243625	-0.006000920
39	0.052250624	-0.023907483	-0.007888435
40	0.052250624	-0.026572499	-0.009853162
41	0.052250624	-0.029189679	-0.011933623
1	0.055516437	-0.029756219	-0.011474961
2	0.055516437	-0.026641410	-0.010333578
3	0.055516437	-0.023593166	-0.009105870
4	0.055516437	-0.020610864	-0.007834728
5	0.055516437	-0.017700407	-0.006552559
6	0.055516437	-0.014882678	-0.005262243
7	0.055516437	-0.012167807	-0.003986080
8	0.055516437	-0.009574701	-0.002728210
9	0.055516437	-0.007121323	-0.001493476
10	0.055516437	-0.004822832	-0.000290849
11	0.055516437	-0.002695231	0.000874082
12	0.055516437	-0.000752750	0.001994060
13	0.055516437	0.000993385	0.003058513
14	0.055516437	0.002547078	0.004035264
15	0.055516437	0.003914311	0.004893090
16	0.055516437	0.005087485	0.005625370
17	0.055516437	0.006048837	0.006244157
18	0.055516437	0.006771421	0.006774360
19	0.055516437	0.007207089	0.007245406
20	0.055516437	0.007293954	0.007615073
21	0.055516437	0.007251648	0.007737145
22	0.055516437	0.007176888	0.007845104
23	0.055516437	0.006858302	0.008072702
24	0.055516437	0.006235664	0.008267329
25	0.055516437	0.005330994	0.008355830
26	0.055516437	0.004173194	0.008292146
27	0.055516437	0.002794206	0.008034513
28	0.055516437	0.001228312	0.007555350
29	0.055516437	-0.000496774	0.006853718
30	0.055516437	-0.002371188	0.005962248
31	0.055516437	-0.004396475	0.004924075
32	0.055516437	-0.006560103	0.003749193
33	0.055516437	-0.008847332	0.002444810
34	0.055516437	-0.011244130	0.001021052
35	0.055516437	-0.013736330	-0.000510804
36	0.055516437	-0.016308329	-0.002140538
37	0.055516437	-0.018948352	-0.003850877
38	0.055516437	-0.021635584	-0.005640882
39	0.055516437	-0.024354996	-0.007495755
40	0.055516437	-0.027075486	-0.009430584
41	0.055516437	-0.029756219	-0.011474961
1	0.058763640	-0.030190208	-0.010948040
2	0.058763640	-0.027042807	-0.009853390
3	0.058763640	-0.023962207	-0.008667079
4	0.058763640	-0.020947559	-0.007435257
5	0.058763640	-0.018004999	-0.006191072
6	0.058763640	-0.015156017	-0.004936045
7	0.058763640	-0.012411076	-0.003692583
8	0.058763640	-0.009788365	-0.002466474
9	0.058763640	-0.007305589	-0.001263142
10	0.058763640	-0.004979621	-0.000088239
11	0.058763640	-0.002826324	0.001052166
12	0.058763640	-0.000860274	0.002151217
13	0.058763640	0.000906421	0.003199462
14	0.058763640	0.002478042	0.004163112
15	0.058763640	0.003861834	0.005008087
16	0.058763640	0.005050989	0.005726324
17	0.058763640	0.006027930	0.006330134
18	0.058763640	0.006765817	0.006846018
19	0.058763640	0.007217377	0.007306146
20	0.058763640	0.007314559	0.007674655
21	0.058763640	0.007274125	0.007797952
22	0.058763640	0.007200453	0.007907363
23	0.058763640	0.006882939	0.008139418
24	0.058763640	0.006259638	0.008341744
25	0.058763640	0.005352099	0.008442473
26	0.058763640	0.004188253	0.008395463
27	0.058763640	0.002799248	0.008157859
28	0.058763640	0.001219183	0.007700436
29	0.058763640	-0.000523642	0.007020670
30	0.058763640	-0.002418321	0.006150467
31	0.058763640	-0.004465454	0.005132794
32	0.058763640	-0.006653427	0.003979874
33	0.058763640	-0.008968396	0.002700633
34	0.058763640	-0.011396528	0.001305576
35	0.058763640	-0.013923740	-0.000193835
36	0.058763640	-0.016535485	-0.001785646
37	0.058763640	-0.019216837	-0.003457402
38	0.058763640	-0.021944250	-0.005212595
39	0.058763640	-0.024703554	-0.007034672
40	0.058763640	-0.027464972	-0.008937309
41	0.058763640	-0.030190208	-0.010948040
1	0.061991796	-0.030603604	-0.010414038
2	0.061991796	-0.027430068	-0.009362053
3	0.061991796	-0.024322260	-0.008217084
4	0.061991796	-0.021279974	-0.007025438
5	0.061991796	-0.018309851	-0.005820275
6	0.061991796	-0.015433465	-0.004602824
7	0.061991796	-0.012661640	-0.003395415
8	0.061991796	-0.010012706	-0.002203590
9	0.061991796	-0.007504505	-0.001032535
10	0.061991796	-0.005154044	0.000112317
11	0.061991796	-0.002977324	0.001225106
12	0.061991796	-0.000989065	0.002299157
13	0.061991796	0.000798445	0.003325169
14	0.061991796	0.002389004	0.004269189
15	0.061991796	0.003789404	0.005096896
16	0.061991796	0.004992714	0.005800275
17	0.061991796	0.005981480	0.006391925
18	0.061991796	0.006729167	0.006898808
19	0.061991796	0.007188787	0.007353907
20	0.061991796	0.007291423	0.007722219
21	0.061991796	0.007252519	0.007846456
22	0.061991796	0.007180084	0.007957204
23	0.061991796	0.006864740	0.008194346
24	0.061991796	0.006242308	0.008406067
25	0.061991796	0.005333337	0.008520045
26	0.061991796	0.004165141	0.008489633
27	0.061991796	0.002768314	0.008271401
28	0.061991796	0.001176617	0.007835507
29	0.061991796	-0.000581585	0.007178938
30	0.061991796	-0.002494862	0.006333477
31	0.061991796	-0.004563204	0.005342276
32	0.061991796	-0.006774799	0.004217455
33	0.061991796	-0.009115638	0.002967790
34	0.061991796	-0.011571694	0.001603613
35	0.061991796	-0.014128679	0.000136230
36	0.061991796	-0.016771836	-0.001422568
37	0.061991796	-0.019486015	-0.003060496
38	0.061991796	-0.022247654	-0.004781394
39	0.061991796	-0.025042304	-0.006568849
40	0.061991796	-0.027840300	-0.008437008
41	0.061991796	-0.030603604	-0.010414038
1	0.065200443	-0.031011571	-0.009882425
2	0.065200443	-0.027816015	-0.008873551
3	0.065200443	-0.024684846	-0.007770329
4	0.065200443	-0.021618718	-0.006619311
5	0.065200443	-0.018624748	-0.005453660
6	0.065200443	-0.015724575	-0.004274310
7	0.065200443	-0.012929352	-0.003103512
8	0.065200443	-0.010257532	-0.001946561
9	0.065200443	-0.007727071	-0.000808402
10	0.065200443	-0.005355088	0.000305752
11	0.065200443	-0.003157704	0.001390257
12	0.065200443	-0.001149768	0.002438626
13	0.065200443	0.000656263	0.003441727
14	0.065200443	0.002263700	0.004365503
15	0.065200443	0.003678888	0.005175418
16	0.065200443	0.004894792	0.005863496
17	0.065200443	0.005894100	0.006442602
18	0.065200443	0.006650604	0.006940119
19	0.065200443	0.007117628	0.007389815
20	0.065200443	0.007225435	0.007757561
21	0.065200443	0.007188028	0.007882577
22	0.065200443	0.007116841	0.007994493
23	0.065200443	0.006803890	0.008236283
24	0.065200443	0.006182933	0.008456873
25	0.065200443	0.005273523	0.008583624
26	0.065200443	0.004102325	0.008569480
27	0.065200443	0.002699335	0.008370513
28	0.065200443	0.001097936	0.007956296
29	0.065200443	-0.000673478	0.007323299
30	0.065200443	-0.002602950	0.006503094
31	0.065200443	-0.004689874	0.005538982
32	0.065200443	-0.006922257	0.004442984
33	0.065200443	-0.009285945	0.003223712
34	0.065200443	-0.011766727	0.001891313
35	0.065200443	-0.014350134	0.000456930
36	0.065200443	-0.017021212	-0.001067822
37	0.065200443	-0.019764614	-0.002670831
38	0.065200443	-0.022556782	-0.004356282
39	0.065200443	-0.025383014	-0.006107913
40	0.065200443	-0.028213783	-0.007940322
41	0.065200443	-0.031011571	-0.009882425
1	0.068389096	-0.031222784	-0.009298885
2	0.068389096	-0.028025468	-0.008335702
3	0.068389096	-0.024890131	-0.007277250
4	0.068389096	-0.021818995	-0.006170301
5	0.068389096	-0.018819588	-0.005047815
6	0.068389096	-0.015913491	-0.003910443
7	0.068389096	-0.013112114	-0.002780207
8	0.068389096	-0.010433920	-0.001662139
9	0.068389096	-0.007896875	-0.000560923
10	0.068389096	-0.005518110	0.000518469
11	0.068389096	-0.003313770	0.001570623
12	0.068389096	-0.001298739	0.002589267
13	0.068389096	0.000514463	0.003565429
14	0.068389096	0.002128746	0.004465020
15	0.068389096	0.003549938	0.005253618
16	0.068389096	0.004770886	0.005923426
17	0.068389096	0.005774483	0.006487536
18	0.068389096	0.006534954	0.006973588
19	0.068389096	0.007006154	0.007415858
20	0.068389096	0.007118049	0.007781080
21	0.068389096	0.007082259	0.007906133
22	0.068389096	0.007012675	0.008018542
23	0.068389096	0.006703820	0.008263474
24	0.068389096	0.006087803	0.008491358
25	0.068389096	0.005183110	0.008629593
26	0.068389096	0.004015664	0.008630970
27	0.068389096	0.002614753	0.008451309
28	0.068389096	0.001013235	0.008059783
29	0.068389096	-0.000760600	0.007452376
30	0.068389096	-0.002694348	0.006660261
31	0.068389096	-0.004786862	0.005726683
32	0.068389096	-0.007026056	0.004663534
33	0.068389096	-0.009397719	0.003479233
34	0.068389096	-0.011887554	0.002183700
35	0.068389096	-0.014481000	0.000787869
36	0.068389096	-0.017163010	-0.000696871
37	0.068389096	-0.019918136	-0.002258635
38	0.068389096	-0.022722965	-0.003901885
39	0.068389096	-0.025562642	-0.005610593
40	0.068389096	-0.028407944	-0.007399670
41	0.068389096	-0.031222784	-0.009298885
1	0.071557240	-0.031186860	-0.008652398
2	0.071557240	-0.028011475	-0.007737836
3	0.071557240	-0.024894898	-0.006727775
4	0.071557240	-0.021841283	-0.005668954
5	0.071557240	-0.018858492	-0.004593883
6	0.071557240	-0.015967891	-0.003502951
7	0.071557240	-0.013181053	-0.002417802
8	0.071557240	-0.010516318	-0.001343188
9	0.071557240	-0.007991530	-0.000283526
10	0.071557240	-0.005623708	0.000756465
11	0.071557240	-0.003428900	0.001771617
12	0.071557240	-0.001421914	0.002755893
13	0.071557240	0.000384765	0.003700525
14	0.071557240	0.001993664	0.004571632
15	0.071557240	0.003410097	0.005335147
16	0.071557240	0.004626854	0.005983502
17	0.071557240	0.005627137	0.006529898
18	0.071557240	0.006385761	0.007002003
19	0.071557240	0.006857409	0.007434304
20	0.071557240	0.006972321	0.007794582
21	0.071557240	0.006938302	0.007918785
22	0.071557240	0.006870712	0.008030856
23	0.071557240	0.006567863	0.008276946
24	0.071557240	0.005960811	0.008509900
25	0.071557240	0.005066945	0.008657643
26	0.071557240	0.003911338	0.008673147
27	0.071557240	0.002522432	0.008512318
28	0.071557240	0.000932381	0.008144198
29	0.071557240	-0.000830833	0.007564389
30	0.071557240	-0.002754510	0.006803511
31	0.071557240	-0.004837012	0.005904435
32	0.071557240	-0.007066251	0.004878836
33	0.071557240	-0.009428068	0.003734898
34	0.071557240	-0.011908190	0.002482267
35	0.071557240	-0.014492080	0.001131604
36	0.071557240	-0.017164709	-0.000305993
37	0.071557240	-0.019910650	-0.001818934
38	0.071557240	-0.022706795	-0.003411886
39	0.071557240	-0.025538246	-0.005069164
40	0.071557240	-0.028376282	-0.006805830
41	0.071557240	-0.031186860	-0.008652398
1	0.074704330	-0.031013357	-0.007980014
2	0.074704330	-0.027872843	-0.007114558
3	0.074704330	-0.024788845	-0.006154233
4	0.074704330	-0.021766351	-0.005145150
5	0.074704330	-0.018813495	-0.004119238
6	0.074704330	-0.015951343	-0.003076644
7	0.074704330	-0.013191560	-0.002038552
8	0.074704330	-0.010552281	-0.001009433
9	0.074704330	-0.008051152	0.000006564
10	0.074704330	-0.005705005	0.001004977
11	0.074704330	-0.003529717	0.001980890
12	0.074704330	-0.001539958	0.002928516
13	0.074704330	0.000251879	0.003839326
14	0.074704330	0.001847937	0.004679820
15	0.074704330	0.003253038	0.005416408
16	0.074704330	0.004459969	0.006041750
17	0.074704330	0.005452306	0.006569078
18	0.074704330	0.006205532	0.007025945
19	0.074704330	0.006675342	0.007446860
20	0.074704330	0.006792558	0.007800787
21	0.074704330	0.006760364	0.007923602
22	0.074704330	0.006694955	0.008034825
23	0.074704330	0.006399132	0.008280803
24	0.074704330	0.005803307	0.008517313
25	0.074704330	0.004923781	0.008673118
26	0.074704330	0.003784721	0.008701583
27	0.074704330	0.002413652	0.008558907
28	0.074704330	0.000841920	0.008214172
29	0.074704330	-0.000902925	0.007662669
30	0.074704330	-0.002807981	0.006934385
31	0.074704330	-0.004871162	0.006071615
32	0.074704330	-0.007080428	0.005085764
33	0.074704330	-0.009421738	0.003984763
34	0.074704330	-0.011880909	0.002777949
35	0.074704330	-0.014443496	0.001475682
36	0.074704330	-0.017094559	0.000088735
37	0.074704330	-0.019818761	-0.001371634
38	0.074704330	-0.022593387	-0.002910266
39	0.074704330	-0.025403571	-0.004511870
40	0.074704330	-0.028221184	-0.006191588
41	0.074704330	-0.031013357	-0.007980014
1	0.077829786	-0.030787595	-0.007311318
2	0.077829786	-0.027688185	-0.006494090
3	0.077829786	-0.024643236	-0.005582921
4	0.077829786	-0.021658258	-0.004623134
5	0.077829786	-0.018741612	-0.003646030
6	0.077829786	-0.015914029	-0.002651526
7	0.077829786	-0.013187221	-0.001660323
8	0.077829786	-0.010579083	-0.000676621
9	0.077829786	-0.008107026	0.000295698
10	0.077829786	-0.005787659	0.001252426
11	0.077829786	-0.003636659	0.002188898
12	0.077829786	-0.001668522	0.003099578
13	0.077829786	0.000104470	0.003976195
14	0.077829786	0.001684079	0.004785727
15	0.077829786	0.003074668	0.005495100
16	0.077829786	0.004269050	0.006097192
17	0.077829786	0.005251200	0.006605214
18	0.077829786	0.005997302	0.007046536
19	0.077829786	0.006464116	0.007455606
20	0.077829786	0.006583199	0.007802599
21	0.077829786	0.006552804	0.007923778
22	0.077829786	0.006489615	0.008033901
23	0.077829786	0.006201173	0.008279085
24	0.077829786	0.005617487	0.008518242
25	0.077829786	0.004753801	0.008681128
26	0.077829786	0.003633367	0.008721606
27	0.077829786	0.002282779	0.008596273
28	0.077829786	0.000732534	0.008274343
29	0.077829786	-0.000990298	0.007750835
30	0.077829786	-0.002872675	0.007055066
31	0.077829786	-0.004912089	0.006228667
32	0.077829786	-0.007096576	0.005282747
33	0.077829786	-0.009412246	0.004224980
34	0.077829786	-0.011845034	0.003064387
35	0.077829786	-0.014380623	0.001811016
36	0.077829786	-0.017004195	0.000475304
37	0.077829786	-0.019700542	-0.000931833
38	0.077829786	-0.022447373	-0.002415388
39	0.077829786	-0.025229895	-0.003960484
40	0.077829786	-0.028020607	-0.005582300
41	0.077829786	-0.030787595	-0.007311318
1	0.080932993	-0.030530276	-0.006654722
2	0.080932993	-0.027476610	-0.005884447
3	0.080932993	-0.024475105	-0.005021200
4	0.080932993	-0.021532010	-0.004109568
5	0.080932993	-0.018655871	-0.003180208
6	0.080932993	-0.015867058	-0.002232822
7	0.080932993	-0.013177297	-0.001287621
8	0.080932993	-0.010604220	-0.000348539
9	0.080932993	-0.008164975	0.000580799
10	0.080932993	-0.005875927	0.001496430
11	0.080932993	-0.003752531	0.002393941
12	0.080932993	-0.001809087	0.003268042
13	0.080932993	-0.000057750	0.004110731
14	0.080932993	0.001502881	0.004889509
15	0.080932993	0.002876732	0.005571859
16	0.080932993	0.004056658	0.006150872
17	0.080932993	0.005027048	0.006639712
18	0.080932993	0.005764788	0.007065514
19	0.080932993	0.006227729	0.007462597
20	0.080932993	0.006348257	0.007802331
21	0.080932993	0.006319600	0.007921705
22	0.080932993	0.006258621	0.008030543
23	0.080932993	0.005977720	0.008274409
24	0.080932993	0.005406704	0.008515473
25	0.080932993	0.004559793	0.008684584
26	0.080932993	0.003459331	0.008736187
27	0.080932993	0.002130974	0.008627358
28	0.080932993	0.000604356	0.008327500
29	0.080932993	-0.001093967	0.007831376
30	0.080932993	-0.002950844	0.007167589
31	0.080932993	-0.004963375	0.006377058
32	0.080932993	-0.007119700	0.005470601
33	0.080932993	-0.009406095	0.004455627
34	0.080932993	-0.011808641	0.003340840
35	0.080932993	-0.014313169	0.002135974
36	0.080932993	-0.016905011	0.000851128
37	0.080932993	-0.019569114	-0.000503124
38	0.080932993	-0.022283631	-0.001931914
39	0.080932993	-0.025033874	-0.003420775
40	0.080932993	-0.027792989	-0.004984899
41	0.080932993	-0.030530276	-0.006654722
1	0.084013294	-0.030221985	-0.006005547
2	0.084013294	-0.027219486	-0.005280813
3	0.084013294	-0.024267144	-0.004464389
4	0.084013294	-0.021371590	-0.003599949
5	0.084013294	-0.018541520	-0.002717464
6	0.084013294	-0.015796905	-0.001816433
7	0.084013294	-0.013149454	-0.000916554
8	0.084013294	-0.010616499	-0.000021503
9	0.084013294	-0.008214896	0.000865345
10	0.084013294	-0.005960736	0.001740267
11	0.084013294	-0.003869220	0.002599094
12	0.084013294	-0.001954429	0.003436783
13	0.084013294	-0.000228356	0.004245596
14	0.084013294	0.001310064	0.004993604
15	0.084013294	0.002664337	0.005648917
16	0.084013294	0.003827373	0.006204851
17	0.084013294	0.004783988	0.006674492
18	0.084013294	0.005511784	0.007084685
19	0.084013294	0.005969740	0.007469521
20	0.084013294	0.006091220	0.007801541
21	0.084013294	0.006064255	0.007918889
22	0.084013294	0.006005504	0.008026220
23	0.084013294	0.005732421	0.008268157
24	0.084013294	0.005174825	0.008510291
25	0.084013294	0.004345945	0.008684683
26	0.084013294	0.003267222	0.008746449
27	0.084013294	0.001963367	0.008653234
28	0.084013294	0.000463128	0.008374702
29	0.084013294	-0.001207491	0.007905389
30	0.084013294	-0.003035270	0.007273144
31	0.084013294	-0.005016962	0.006518113
32	0.084013294	-0.007140832	0.005650813
33	0.084013294	-0.009393353	0.004678390
34	0.084013294	-0.011760781	0.003609227
35	0.084013294	-0.014229126	0.002452738
36	0.084013294	-0.016783902	0.001218680
37	0.084013294	-0.019410241	-0.000082720
38	0.084013294	-0.022086777	-0.001456705
39	0.084013294	-0.024798959	-0.002889232
40	0.084013294	-0.027520611	-0.004395455
41	0.084013294	-0.030221985	-0.006005547
1	0.087069985	-0.029842404	-0.005358158
2	0.087069985	-0.026898363	-0.004677957
3	0.087069985	-0.024002196	-0.003907509
4	0.087069985	-0.021161117	-0.003089568
5	0.087069985	-0.018383925	-0.002253360
6	0.087069985	-0.015690154	-0.001398200
7	0.087069985	-0.013091450	-0.000543241
8	0.087069985	-0.010604805	0.000308094
9	0.087069985	-0.008246747	0.001152668
10	0.087069985	-0.006033052	0.001986997
11	0.087069985	-0.003978634	0.002807148
12	0.087069985	-0.002097315	0.003608321
13	0.087069985	-0.000400897	0.004383046
14	0.087069985	0.001111381	0.005100022
15	0.087069985	0.002442621	0.005728063
16	0.087069985	0.003585807	0.006260735
17	0.087069985	0.004526199	0.006711004
18	0.087069985	0.005242140	0.007105350
19	0.087069985	0.005693798	0.007477524
20	0.087069985	0.005815699	0.007801226
21	0.087069985	0.005790399	0.007916280
22	0.087069985	0.005733925	0.008021832
23	0.087069985	0.005469068	0.008261124
24	0.087069985	0.004925897	0.008503374
25	0.087069985	0.004116683	0.008681997
26	0.087069985	0.003061958	0.008752886
27	0.087069985	0.001785480	0.008674363
28	0.087069985	0.000315078	0.008416447
29	0.087069985	-0.001323845	0.007973486
30	0.087069985	-0.003118059	0.007372536
31	0.087069985	-0.005064007	0.006652886
32	0.087069985	-0.007150116	0.005824739
33	0.087069985	-0.009363089	0.004894975
34	0.087069985	-0.011689393	0.003871648
35	0.087069985	-0.014115257	0.002763844
36	0.087069985	-0.016626413	0.001580972
37	0.087069985	-0.019208223	0.000332897
38	0.087069985	-0.021839837	-0.000985701
39	0.087069985	-0.024506887	-0.002361224
40	0.087069985	-0.027183916	-0.003808735
41	0.087069985	-0.029842404	-0.005358158
1	0.090102315	-0.029398275	-0.004715671
2	0.090102315	-0.026518804	-0.004078646
3	0.090102315	-0.023685011	-0.003353087
4	0.090102315	-0.020904540	-0.002580705
5	0.090102315	-0.018186251	-0.001789931
6	0.090102315	-0.015549205	-0.000979916
7	0.090102315	-0.013004945	-0.000169237
8	0.090102315	-0.010570092	0.000638924
9	0.090102315	-0.008260805	0.001441665
10	0.090102315	-0.006092516	0.002235728
11	0.090102315	-0.004079819	0.003017416
12	0.090102315	-0.002236249	0.003782171
13	0.090102315	-0.000573387	0.004522796
14	0.090102315	0.000909243	0.005208688
15	0.090102315	0.002214364	0.005809423
16	0.090102315	0.003335056	0.006318812
17	0.090102315	0.004257043	0.006749666
18	0.090102315	0.004959428	0.007128024
19	0.090102315	0.005403619	0.007487204
20	0.090102315	0.005525456	0.007802071
21	0.090102315	0.005501779	0.007914593
22	0.090102315	0.005447605	0.008018121
23	0.090102315	0.005191275	0.008254090
24	0.090102315	0.004663350	0.008495523
25	0.090102315	0.003875181	0.008677324
26	0.090102315	0.002846395	0.008756265
27	0.090102315	0.001599791	0.008691446
28	0.090102315	0.000162252	0.008453326
29	0.090102315	-0.001441470	0.008036111
30	0.090102315	-0.003198187	0.007466031
31	0.090102315	-0.005104071	0.006781436
32	0.090102315	-0.007147740	0.005992204
33	0.090102315	-0.009316157	0.005104943
34	0.090102315	-0.011596034	0.004127375
35	0.090102315	-0.013973851	0.003068255
36	0.090102315	-0.016435594	0.001936630
37	0.090102315	-0.018966889	0.000742005
38	0.090102315	-0.021547441	-0.000520992
39	0.090102315	-0.024163100	-0.001839221
40	0.090102315	-0.026789164	-0.003227600
41	0.090102315	-0.029398275	-0.004715671
1	0.093109474	-0.028914503	-0.004086336
2	0.093109474	-0.026103309	-0.003490699
3	0.093109474	-0.023335754	-0.002808437
4	0.093109474	-0.020619733	-0.002080129
5	0.093109474	-0.017964131	-0.001333386
6	0.093109474	-0.015387515	-0.000567210
7	0.093109474	-0.012901299	0.000200407
8	0.093109474	-0.010521706	0.000966519
9	0.093109474	-0.008264509	0.001728444
10	0.093109474	-0.006144773	0.002483144
11	0.093109474	-0.004176753	0.003227151
12	0.093109474	-0.002373678	0.003956141
13	0.093109474	-0.000746893	0.004663197
14	0.093109474	0.000703813	0.005318469
15	0.093109474	0.001980809	0.005892316
16	0.093109474	0.003077292	0.006378787
17	0.093109474	0.003979458	0.006790501
18	0.093109474	0.004667174	0.007153014
19	0.093109474	0.005103109	0.007499137
20	0.093109474	0.005224515	0.007804899
21	0.093109474	0.005202405	0.007914742
22	0.093109474	0.005150511	0.008016087
23	0.093109474	0.004902806	0.008248254
24	0.093109474	0.004390523	0.008488148
25	0.093109474	0.003624141	0.008672246
26	0.093109474	0.002622398	0.008758257
27	0.093109474	0.001407143	0.008706128
28	0.093109474	0.000004310	0.008486822
29	0.093109474	-0.001562025	0.008094441
30	0.093109474	-0.003278764	0.007554388
31	0.093109474	-0.005141843	0.006904025
32	0.093109474	-0.007140086	0.006152888
33	0.093109474	-0.009260740	0.005307321
34	0.093109474	-0.011490782	0.004374716
35	0.093109474	-0.013816965	0.003363494
36	0.093109474	-0.016225554	0.002282347
37	0.093109474	-0.018702462	0.001140415
38	0.093109474	-0.021227964	-0.000067701
39	0.093109474	-0.023788159	-0.001329325
40	0.093109474	-0.026359113	-0.002659189
41	0.093109474	-0.028914503	-0.004086336
1	0.096090590	-0.028415711	-0.003477312
2	0.096090590	-0.025674180	-0.002920932
3	0.096090590	-0.022974400	-0.002279925
4	0.096090590	-0.020324384	-0.001593714
5	0.096090590	-0.017733019	-0.000889082
6	0.096090590	-0.015218370	-0.000164902
7	0.096090590	-0.012791703	0.000561422
8	0.096090590	-0.010468836	0.001287159
9	0.096090590	-0.008265147	0.002009840
10	0.096090590	-0.006195327	0.002726637
11	0.096090590	-0.004273283	0.003434298
12	0.096090590	-0.002511930	0.004128728
13	0.096090590	-0.000922368	0.004803286
14	0.096090590	0.000495363	0.005428892
15	0.096090590	0.001743312	0.005976697
16	0.096090590	0.002814800	0.006440976
17	0.096090590	0.003696493	0.006834137
18	0.096090590	0.004369007	0.007181228
19	0.096090590	0.004796264	0.007514511
20	0.096090590	0.004916983	0.007811148
21	0.096090590	0.004896373	0.007918259
22	0.096090590	0.004846707	0.008017350
23	0.096090590	0.004607540	0.008245451
24	0.096090590	0.004110890	0.008483324
25	0.096090590	0.003366412	0.008669040
26	0.096090590	0.002391988	0.008761271
27	0.096090590	0.001208547	0.008720836
28	0.096090590	-0.000158910	0.008519238
29	0.096090590	-0.001686989	0.008150516
30	0.096090590	-0.003362712	0.007639263
31	0.096090590	-0.005181812	0.007021834
32	0.096090590	-0.007133330	0.006307423
33	0.096090590	-0.009204801	0.005502114
34	0.096090590	-0.011383482	0.004612979
35	0.096090590	-0.013656408	0.003648115
36	0.096090590	-0.016010136	0.002615862
37	0.096090590	-0.018430877	0.001525006
38	0.096090590	-0.020899479	0.000370134
39	0.096090590	-0.023402302	-0.000836533
40	0.096090590	-0.025916177	-0.002109523
41	0.096090590	-0.028415711	-0.003477312
1	0.099044719	-0.027915194	-0.002890980
2	0.099044719	-0.025243342	-0.002371594
3	0.099044719	-0.022611453	-0.001769593
4	0.099044719	-0.020027606	-0.001123256
5	0.099044719	-0.017500667	-0.000458556
6	0.099044719	-0.015048202	0.000225751
7	0.099044719	-0.012681314	0.000912828
8	0.099044719	-0.010415416	0.001600154
9	0.099044719	-0.008265494	0.002285455
10	0.099044719	-0.006245862	0.002966102
11	0.099044719	-0.004370080	0.003639049
12	0.099044719	-0.002650747	0.004300420
13	0.099044719	-0.001098717	0.004943843
14	0.099044719	0.000285741	0.005541016
15	0.099044719	0.001504380	0.006063866
16	0.099044719	0.002550653	0.006506882
17	0.099044719	0.003411684	0.006882254
18	0.099044719	0.004068816	0.007214508
19	0.099044719	0.004487195	0.007535338
20	0.099044719	0.004607014	0.007822988
21	0.099044719	0.004587820	0.007927368
22	0.099044719	0.004540300	0.008024181
23	0.099044719	0.004309463	0.008248067
24	0.099044719	0.003828188	0.008483569
25	0.099044719	0.003105360	0.008670344
26	0.099044719	0.002158039	0.008768033
27	0.099044719	0.001006271	0.008738339
28	0.099044719	-0.000325848	0.008553324
29	0.099044719	-0.001815599	0.008206983
30	0.099044719	-0.003450147	0.007723122
31	0.099044719	-0.005225046	0.007137091
32	0.099044719	-0.007129557	0.006457751
33	0.099044719	-0.009151512	0.005690934
34	0.099044719	-0.011278445	0.004843404
35	0.099044719	-0.013497682	0.003922943
36	0.099044719	-0.015796073	0.002937554
37	0.099044719	-0.018160134	0.001895679
38	0.099044719	-0.020571276	0.000791903
39	0.099044719	-0.023016129	-0.000361994
40	0.099044719	-0.025472273	-0.001580325
41	0.099044719	-0.027915194	-0.002890980
1	0.101970838	-0.027419219	-0.002327562
2	0.101970838	-0.024816244	-0.001842864
3	0.101970838	-0.022251537	-0.001277545
4	0.101970838	-0.019733208	-0.000668767
5	0.101970838	-0.017270083	-0.000041721
6	0.101970838	-0.014879242	0.000604945
7	0.101970838	-0.012571614	0.001254942
8	0.101970838	-0.010362212	0.001905941
9	0.101970838	-0.008265632	0.002555854
10	0.101970838	-0.006295819	0.003202237
11	0.101970838	-0.004465987	0.003842239
12	0.101970838	-0.002788423	0.004472190
13	0.101970838	-0.001273735	0.005085980
14	0.101970838	0.000077599	0.005656074
15	0.101970838	0.001267060	0.006155163
16	0.101970838	0.002288236	0.006577938
17	0.101970838	0.003128697	0.006936363
18	0.101970838	0.003770482	0.007254441
19	0.101970838	0.004179923	0.007563284
20	0.101970838	0.004298684	0.007842165
21	0.101970838	0.004280825	0.007943846
22	0.101970838	0.004235361	0.008038392
23	0.101970838	0.004012587	0.008257994
24	0.101970838	0.003546295	0.008490864
25	0.101970838	0.002844649	0.008678225
26	0.101970838	0.001923931	0.008780677
27	0.101970838	0.000803344	0.008760802
28	0.101970838	-0.000493886	0.008591230
29	0.101970838	-0.001945703	0.008265935
30	0.101970838	-0.003539430	0.007807966
31	0.101970838	-0.005270466	0.007251683
32	0.101970838	-0.007128297	0.006605621
33	0.101970838	-0.009101044	0.005875374
34	0.101970838	-0.011176524	0.005067410
35	0.101970838	-0.013342352	0.004189209
36	0.101970838	-0.015585672	0.003248451
37	0.101970838	-0.017893302	0.002253247
38	0.101970838	-0.020247207	0.001198189
39	0.101970838	-0.022634289	0.000094632
40	0.101970838	-0.025032850	-0.001071516
41	0.101970838	-0.027419219	-0.002327562
1	0.104867830	-0.026935238	-0.001789158
2	0.104867830	-0.024399401	-0.001336749
3	0.104867830	-0.021900265	-0.000805686
4	0.104867830	-0.019445914	-0.000232043
5	0.104867830	-0.017045122	0.000359744
6	0.104867830	-0.014714495	0.000971123
7	0.104867830	-0.012464787	0.001586330
8	0.104867830	-0.010310620	0.002203218
9	0.104867830	-0.008266209	0.002819868
10	0.104867830	-0.006345141	0.003434011
11	0.104867830	-0.004560291	0.004042977
12	0.104867830	-0.002923641	0.004643291
13	0.104867830	-0.001445555	0.005229090
14	0.104867830	-0.000126706	0.005773594
15	0.104867830	0.001034142	0.006250229
16	0.104867830	0.002030712	0.006653881
17	0.104867830	0.002850998	0.006996284
18	0.104867830	0.003477709	0.007300922
19	0.104867830	0.003878316	0.007598320
20	0.104867830	0.003995936	0.007868732
21	0.104867830	0.003979334	0.007967783
22	0.104867830	0.003935827	0.008060107
23	0.104867830	0.003720780	0.008275438
24	0.104867830	0.003268922	0.008505510
25	0.104867830	0.002587753	0.008693062
26	0.104867830	0.001692822	0.008799631
27	0.104867830	0.000602537	0.008788664
28	0.104867830	-0.000660707	0.008633361
29	0.104867830	-0.002075493	0.008327701
30	0.104867830	-0.003629316	0.007894019
31	0.104867830	-0.005317447	0.007365708
32	0.104867830	-0.007129589	0.006750984
33	0.104867830	-0.009054149	0.006055216
34	0.104867830	-0.011079222	0.005284592
35	0.104867830	-0.013192707	0.004446305
36	0.104867830	-0.015382038	0.003547726
37	0.104867830	-0.017634334	0.002596653
38	0.104867830	-0.019932089	0.001587690
39	0.104867830	-0.022262475	0.000531788
40	0.104867830	-0.024604493	-0.000584922
41	0.104867830	-0.026935238	-0.001789158
1	0.107734475	-0.026476065	-0.001280756
2	0.107734475	-0.024004258	-0.000858126
3	0.107734475	-0.021567758	-0.000358765
4	0.107734475	-0.019174540	0.000182310
5	0.107734475	-0.016833321	0.000741387
6	0.107734475	-0.014560254	0.001319996
7	0.107734475	-0.012365921	0.001902873
8	0.107734475	-0.010264572	0.002488036
9	0.107734475	-0.008270060	0.003073727
10	0.107734475	-0.006395624	0.003657834
11	0.107734475	-0.004653821	0.004237858
12	0.107734475	-0.003056338	0.004810506
13	0.107734475	-0.001613311	0.005370154
14	0.107734475	-0.000325589	0.005890753
15	0.107734475	0.000807839	0.006346422
16	0.107734475	0.001780832	0.006732218
17	0.107734475	0.002581786	0.007059648
18	0.107734475	0.003194041	0.007351693
19	0.107734475	0.003586149	0.007638309
20	0.107734475	0.003702617	0.007900683
21	0.107734475	0.003687184	0.007997224
22	0.107734475	0.003645508	0.008087417
23	0.107734475	0.003437734	0.008298595
24	0.107734475	0.002999525	0.008525815
25	0.107734475	0.002337778	0.008713269
26	0.107734475	0.001467360	0.008823394
27	0.107734475	0.000405932	0.008820473
28	0.107734475	-0.000824889	0.008678265
29	0.107734475	-0.002204299	0.008390770
30	0.107734475	-0.003719971	0.007979653
31	0.107734475	-0.005367061	0.007477380
32	0.107734475	-0.007135482	0.006891861
33	0.107734475	-0.009013916	0.006228252
34	0.107734475	-0.010990725	0.005492481
35	0.107734475	-0.013054079	0.004691468
36	0.107734475	-0.015191694	0.003832299
37	0.107734475	-0.017390974	0.002922473
38	0.107734475	-0.019634918	0.001956618
39	0.107734475	-0.021910961	0.000945301
40	0.107734475	-0.024198762	-0.000125120
41	0.107734475	-0.026476065	-0.001280756
1	0.110569430	-0.026056386	-0.000806168
2	0.110569430	-0.023643996	-0.000410799
3	0.110569430	-0.021265715	0.000059472
4	0.110569430	-0.018929321	0.000570633
5	0.110569430	-0.016643478	0.001099654
6	0.110569430	-0.014423921	0.001648134
7	0.110569430	-0.012281070	0.002201277
8	0.110569430	-0.010228829	0.002757253
9	0.110569430	-0.008280712	0.003314450
10	0.110569430	-0.006449640	0.003870902
11	0.110569430	-0.004747871	0.004424268
12	0.110569430	-0.003186818	0.004971420
13	0.110569430	-0.001776405	0.005506963
14	0.110569430	-0.000517649	0.006005537
15	0.110569430	0.000590262	0.006441895
16	0.110569430	0.001541315	0.006811243
17	0.110569430	0.002324281	0.007124873
18	0.110569430	0.002923082	0.007405295
19	0.110569430	0.003307275	0.007681935
20	0.110569430	0.003422665	0.007936852
21	0.110569430	0.003408311	0.008031065
22	0.110569430	0.003368330	0.008119275
23	0.110569430	0.003167285	0.008326577
24	0.110569430	0.002741718	0.008551096
25	0.110569430	0.002097972	0.008738368
26	0.110569430	0.001250287	0.008851666
27	0.110569430	0.000215643	0.008856050
28	0.110569430	-0.000985064	0.008725803
29	0.110569430	-0.002331599	0.008454959
30	0.110569430	-0.003811805	0.008064579
31	0.110569430	-0.005420738	0.007586257
32	0.110569430	-0.007148506	0.007027616
33	0.110569430	-0.008984044	0.006393617
34	0.110569430	-0.010915966	0.005689945
35	0.110569430	-0.012932694	0.004923273
36	0.110569430	-0.015022204	0.004100417
37	0.110569430	-0.017172169	0.003228605
38	0.110569430	-0.019366055	0.002302493
39	0.110569430	-0.021591542	0.001332289
40	0.110569430	-0.023828898	0.000304572
41	0.110569430	-0.026056386	-0.000806168
1	0.113371211	-0.025688453	-0.000364158
2	0.113371211	-0.023329569	0.000006363
3	0.113371211	-0.021003763	0.000450129
4	0.113371211	-0.018718583	0.000934050
5	0.113371211	-0.016482648	0.001435703
6	0.113371211	-0.014311312	0.001956758
7	0.113371211	-0.012214851	0.002482840
8	0.113371211	-0.010206858	0.003012257
9	0.113371211	-0.008300543	0.003543530
10	0.113371211	-0.006508538	0.004074829
11	0.113371211	-0.004842830	0.004603955
12	0.113371211	-0.003314589	0.005127934
13	0.113371211	-0.001933547	0.005641579
14	0.113371211	-0.000700880	0.006120158
15	0.113371211	0.000384048	0.006538988
16	0.113371211	0.001315340	0.006893404
17	0.113371211	0.002082107	0.007194503
18	0.113371211	0.002668797	0.007464378
19	0.113371211	0.003045872	0.007731983
20	0.113371211	0.003160317	0.007980159
21	0.113371211	0.003146959	0.008072263
22	0.113371211	0.003108529	0.008158697
23	0.113371211	0.002913608	0.008362554
24	0.113371211	0.002499494	0.008584730
25	0.113371211	0.001872020	0.008771960
26	0.113371211	0.001044858	0.008888251
27	0.113371211	0.000034372	0.008899354
28	0.113371211	-0.001139188	0.008780022
29	0.113371211	-0.002456098	0.008524328
30	0.113371211	-0.003904357	0.008152805
31	0.113371211	-0.005478926	0.007696259
32	0.113371211	-0.007170086	0.007162043
33	0.113371211	-0.008967003	0.006554944
34	0.113371211	-0.010858513	0.005880427
35	0.113371211	-0.012833268	0.005144940
36	0.113371211	-0.014879477	0.004355059
37	0.113371211	-0.016985054	0.003517760
38	0.113371211	-0.019133888	0.002627721
39	0.113371211	-0.021313876	0.001694831
40	0.113371211	-0.023505840	0.000705855
41	0.113371211	-0.025688453	-0.000364158
1	0.116138168	-0.025381416	0.000049651
2	0.116138168	-0.023069078	0.000397701
3	0.116138168	-0.020788917	0.000817599
4	0.116138168	-0.018548276	0.001277034
5	0.116138168	-0.016355733	0.001754108
6	0.116138168	-0.014226314	0.002250556
7	0.116138168	-0.012170171	0.002752367
8	0.116138168	-0.010200623	0.003257971
9	0.116138168	-0.008330618	0.003766016
10	0.116138168	-0.006572534	0.004274791
11	0.116138168	-0.004938127	0.004782229
12	0.116138168	-0.003438352	0.005285496
13	0.116138168	-0.002082779	0.005779592
14	0.116138168	-0.000872732	0.006240347
15	0.116138168	0.000192267	0.006643555
16	0.116138168	0.001106422	0.006984659
17	0.116138168	0.001859145	0.007274585
18	0.116138168	0.002435350	0.007535072
19	0.116138168	0.002806296	0.007794675
20	0.116138168	0.002920001	0.008036931
21	0.116138168	0.002907548	0.008127207
22	0.116138168	0.002870510	0.008212107
23	0.116138168	0.002681027	0.008413048
24	0.116138168	0.002277003	0.008633361
25	0.116138168	0.001663801	0.008820805
26	0.116138168	0.000854587	0.008940018
27	0.116138168	-0.000134820	0.008957332
28	0.116138168	-0.001284738	0.008847906
29	0.116138168	-0.002575886	0.008605848
30	0.116138168	-0.003996396	0.008251242
31	0.116138168	-0.005541134	0.007814202
32	0.116138168	-0.007200530	0.007301837
33	0.116138168	-0.008963949	0.006718778
34	0.116138168	-0.010820419	0.006070296
35	0.116138168	-0.012758791	0.005362640
36	0.116138168	-0.014767476	0.004602169
37	0.116138168	-0.016834594	0.003795641
38	0.116138168	-0.018944402	0.002937738
39	0.116138168	-0.021084987	0.002038065
40	0.116138168	-0.023237651	0.001083535
41	0.116138168	-0.025381416	0.000049651
1	0.118868452	-0.025144988	0.000434098
2	0.118868452	-0.022871145	0.000762230
3	0.118868452	-0.020628731	0.001161085
4	0.118868452	-0.018424896	0.001598989
5	0.118868452	-0.016268198	0.002054472
6	0.118868452	-0.014173386	0.002529337
7	0.118868452	-0.012150514	0.003009870
8	0.118868452	-0.010212676	0.003494615
9	0.118868452	-0.008372600	0.003982330
10	0.118868452	-0.006642457	0.004471411
11	0.118868452	-0.005033808	0.004959911
12	0.118868452	-0.003557434	0.005445117
13	0.118868452	-0.002222774	0.005922200
14	0.118868452	-0.001031292	0.006367470
15	0.118868452	0.000017345	0.006757109
16	0.118868452	0.000917430	0.007086644
17	0.118868452	0.001658632	0.007366861
18	0.118868452	0.002226263	0.007619210
19	0.118868452	0.002592267	0.007871933
20	0.118868452	0.002705520	0.008109188
21	0.118868452	0.002693888	0.008197963
22	0.118868452	0.002658066	0.008281613
23	0.118868452	0.002473230	0.008480242
24	0.118868452	0.002077721	0.008699230
25	0.118868452	0.001476490	0.008887179
26	0.118868452	0.000682264	0.009009232
27	0.118868452	-0.000289604	0.009032201
28	0.118868452	-0.001419915	0.008931576
29	0.118868452	-0.002689761	0.008701506
30	0.118868452	-0.004087380	0.008361717
31	0.118868452	-0.005607545	0.007941731
32	0.118868452	-0.007240802	0.007448435
33	0.118868452	-0.008976680	0.006886331
34	0.118868452	-0.010804366	0.006260519
35	0.118868452	-0.012712870	0.005577076
36	0.118868452	-0.014690769	0.004842177
37	0.118868452	-0.016726351	0.004062388
38	0.118868452	-0.018804180	0.003232378
39	0.118868452	-0.020912494	0.002361512
40	0.118868452	-0.023032999	0.001436801
41	0.118868452	-0.025144988	0.000434098
1	0.121559980	-0.024991689	0.000777970
2	0.121559980	-0.022747033	0.001088943
3	0.121559980	-0.020533301	0.001469719
4	0.121559980	-0.018357386	0.001889173
5	0.121559980	-0.016227847	0.002326182
6	0.121559980	-0.014159222	0.002782613
7	0.121559980	-0.012161503	0.003244997
8	0.121559980	-0.010247611	0.003711974
9	0.121559980	-0.008430105	0.004182400
10	0.121559980	-0.006720997	0.004654766
11	0.121559980	-0.005131703	0.005127227
12	0.121559980	-0.003672869	0.005597174
13	0.121559980	-0.002353840	0.006059927
14	0.121559980	-0.001176222	0.006492197
15	0.121559980	-0.000139809	0.006870451
16	0.121559980	0.000749759	0.007190270
17	0.121559980	0.001482364	0.007462332
18	0.121559980	0.002043653	0.007707865
19	0.121559980	0.002406142	0.007954890
20	0.121559980	0.002519371	0.008188145
21	0.121559980	0.002508476	0.008275773
22	0.121559980	0.002473673	0.008358498
23	0.121559980	0.002292571	0.008555500
24	0.121559980	0.001903769	0.008773760
25	0.121559980	0.001311874	0.008962533
26	0.121559980	0.000529254	0.009087347
27	0.121559980	-0.000429121	0.009115377
28	0.121559980	-0.001544443	0.009022378
29	0.121559980	-0.002798106	0.008802543
30	0.121559980	-0.004178428	0.008475342
31	0.121559980	-0.005680082	0.008069807
32	0.121559980	-0.007293695	0.007592631
33	0.121559980	-0.009008918	0.007048205
34	0.121559980	-0.010815057	0.006441487
35	0.121559980	-0.012701241	0.005778415
36	0.121559980	-0.014656165	0.005065008
37	0.121559980	-0.016668242	0.004307674
38	0.121559980	-0.018722279	0.003501062
39	0.121559980	-0.020806620	0.002654340
40	0.121559980	-0.022903295	0.001754587
41	0.121559980	-0.024991689	0.000777970
1	0.124210381	-0.024931860	0.001072194
2	0.124210381	-0.022706128	0.001368452
3	0.124210381	-0.020511092	0.001733800
4	0.124210381	-0.018353287	0.002137580
5	0.124210381	-0.016241317	0.002558949
6	0.124210381	-0.014189570	0.002999830
7	0.124210381	-0.012208024	0.003446953
8	0.124210381	-0.010309484	0.003899041
9	0.124210381	-0.008506399	0.004355035
10	0.124210381	-0.006810676	0.004813509
11	0.124210381	-0.005233634	0.005272704
12	0.124210381	-0.003785834	0.005730103
13	0.124210381	-0.002476568	0.006181150
14	0.124210381	-0.001307587	0.006602865
15	0.124210381	-0.000278799	0.006971883
16	0.124210381	0.000604202	0.007283810
17	0.124210381	0.001331461	0.007549250
18	0.124210381	0.001888887	0.007789300
19	0.124210381	0.002249444	0.008031874
20	0.124210381	0.002363099	0.008262227
21	0.124210381	0.002352859	0.008349103
22	0.124210381	0.002318877	0.008431263
23	0.124210381	0.002140572	0.008627442
24	0.124210381	0.001756573	0.008845763
25	0.124210381	0.001171200	0.009035915
26	0.124210381	0.000396533	0.009163669
27	0.124210381	-0.000552760	0.009196429
28	0.124210381	-0.001658166	0.009110120
29	0.124210381	-0.002901303	0.008898969
30	0.124210381	-0.004270521	0.008582283
31	0.124210381	-0.005760385	0.008188732
32	0.124210381	-0.007361563	0.007724842
33	0.124210381	-0.009063782	0.007194922
34	0.124210381	-0.010856418	0.006603812
35	0.124210381	-0.012728671	0.005957341
36	0.124210381	-0.014669309	0.005261403
37	0.124210381	-0.016666818	0.004522284
38	0.124210381	-0.018706178	0.003734613
39	0.124210381	-0.020775791	0.002907401
40	0.124210381	-0.022857932	0.002027773
41	0.124210381	-0.024931860	0.001072194
1	0.126816929	-0.024964836	0.001329235
2	0.126816929	-0.022747859	0.001612378
3	0.126816929	-0.020561419	0.001964262
4	0.126816929	-0.018411808	0.002354524
5	0.126816929	-0.016307708	0.002762497
6	0.126816929	-0.014263427	0.003190169
7	0.126816929	-0.012288969	0.003624402
8	0.126816929	-0.010397084	0.004063995
9	0.126816929	-0.008600169	0.004507966
10	0.126816929	-0.006910078	0.004954963
11	0.126816929	-0.005338089	0.005403307
12	0.126816929	-0.003894727	0.005850554
13	0.126816929	-0.002589273	0.006292255
14	0.126816929	-0.001423621	0.006705619
15	0.126816929	-0.000397787	0.007067336
16	0.126816929	0.000482656	0.007373006
17	0.126816929	0.001207867	0.007633216
18	0.126816929	0.001763940	0.007869044
19	0.126816929	0.002124121	0.008108440
20	0.126816929	0.002238567	0.008337033
21	0.126816929	0.002228899	0.008423549
22	0.126816929	0.002195571	0.008505521
23	0.126816929	0.002019258	0.008701801
24	0.126816929	0.001638318	0.008921243
25	0.126816929	0.001056778	0.009113712
26	0.126816929	0.000286490	0.009245038
27	0.126816929	-0.000658109	0.009282687
28	0.126816929	-0.001758709	0.009202617
29	0.126816929	-0.002997045	0.008999046
30	0.126816929	-0.004361446	0.008691214
31	0.126816929	-0.005846342	0.008307581
32	0.126816929	-0.007442402	0.007854548
33	0.126816929	-0.009139385	0.007336360
34	0.126816929	-0.010926687	0.006757767
35	0.126816929	-0.012793530	0.006124519
36	0.126816929	-0.014728703	0.005442416
37	0.126816929	-0.016720713	0.004717655
38	0.126816929	-0.018754644	0.003944822
39	0.126816929	-0.020818905	0.003132816
40	0.126816929	-0.022895929	0.002268749
41	0.126816929	-0.024964836	0.001329235
1	0.129376455	-0.025077956	0.001576373
2	0.129376455	-0.022860365	0.001847813
3	0.129376455	-0.020673306	0.002188087
4	0.129376455	-0.018522857	0.002566909
5	0.129376455	-0.016417798	0.002963642
6	0.129376455	-0.014372420	0.003380365
7	0.129376455	-0.012396785	0.003803982
8	0.129376455	-0.010503642	0.004233360
9	0.129376455	-0.008705387	0.004667596
10	0.129376455	-0.007013878	0.005105403
11	0.129376455	-0.005440395	0.005545174
12	0.129376455	-0.003995472	0.005984528
13	0.129376455	-0.002688417	0.006419093
14	0.129376455	-0.001521261	0.006826147
15	0.129376455	-0.000494123	0.007182335
16	0.129376455	0.000387420	0.007483248
17	0.129376455	0.001113590	0.007739512
18	0.129376455	0.001670590	0.007972287
19	0.129376455	0.002031807	0.008209684
20	0.129376455	0.002147405	0.008437551
21	0.129376455	0.002138244	0.008524079
22	0.129376455	0.002105435	0.008606215
23	0.129376455	0.001930430	0.008803490
24	0.129376455	0.001551003	0.009025113
25	0.129376455	0.000970872	0.009220858
26	0.129376455	0.000201704	0.009356430
27	0.129376455	-0.000742220	0.009399172
28	0.129376455	-0.001842695	0.009324950
29	0.129376455	-0.003081479	0.009127944
30	0.129376455	-0.004446818	0.008827422
31	0.129376455	-0.005932993	0.008451784
32	0.129376455	-0.007530635	0.008007337
33	0.129376455	-0.009229488	0.007498289
34	0.129376455	-0.011018925	0.006929321
35	0.129376455	-0.012888148	0.006306135
36	0.129376455	-0.014825919	0.005634466
37	0.129376455	-0.016820719	0.004920449
38	0.129376455	-0.018857663	0.004158575
39	0.129376455	-0.020925118	0.003357680
40	0.129376455	-0.023005585	0.002504756
41	0.129376455	-0.025077956	0.001576373
1	0.131885224	-0.025256484	0.001809931
2	0.131885224	-0.023030638	0.002072055
3	0.131885224	-0.020835203	0.002403446
4	0.131885224	-0.018676324	0.002773677
5	0.131885224	-0.016562886	0.003162033
6	0.131885224	-0.014509222	0.003570691
7	0.131885224	-0.012525474	0.003986524
8	0.131885224	-0.010624436	0.004408460
9	0.131885224	-0.008818548	0.004835660
10	0.131885224	-0.007119711	0.005266896
11	0.131885224	-0.005539249	0.005700623
12	0.131885224	-0.004087743	0.006134511
13	0.131885224	-0.002774556	0.006564243
14	0.131885224	-0.001601852	0.006967092
15	0.131885224	-0.000569847	0.007319593
16	0.131885224	0.000315854	0.007617316
17	0.131885224	0.001045499	0.007870947
18	0.131885224	0.001605348	0.008101785
19	0.131885224	0.001968844	0.008338171
20	0.131885224	0.002085965	0.008566164
21	0.131885224	0.002077234	0.008653010
22	0.131885224	0.002044759	0.008735579
23	0.131885224	0.001870225	0.008934377
24	0.131885224	0.001490709	0.009158584
25	0.131885224	0.000909701	0.009357748
26	0.131885224	0.000138753	0.009497367
27	0.131885224	-0.000807942	0.009544597
28	0.131885224	-0.001912218	0.009475161
29	0.131885224	-0.003155801	0.009283200
30	0.131885224	-0.004526828	0.008988068
31	0.131885224	-0.006019432	0.008618183
32	0.131885224	-0.007624171	0.008179787
33	0.131885224	-0.009330744	0.007677070
34	0.131885224	-0.011128465	0.007114664
35	0.131885224	-0.013006478	0.006498245
36	0.131885224	-0.014953480	0.005833509
37	0.131885224	-0.016957887	0.005126558
38	0.131885224	-0.019004785	0.004371757
39	0.131885224	-0.021082465	0.003577928
40	0.131885224	-0.023173417	0.002731877
41	0.131885224	-0.025256484	0.001809931
1	0.134338756	-0.025485647	0.001967115
2	0.134338756	-0.023246074	0.002223624
3	0.134338756	-0.021036944	0.002549573
4	0.134338756	-0.018864399	0.002914519
5	0.134338756	-0.016737469	0.003297725
6	0.134338756	-0.014670555	0.003701434
7	0.134338756	-0.012673915	0.004112519
8	0.134338756	-0.010760419	0.004529947
9	0.134338756	-0.008942579	0.004952926
10	0.134338756	-0.007232365	0.005380265
11	0.134338756	-0.005641172	0.005810459
12	0.134338756	-0.004179647	0.006241211
13	0.134338756	-0.002857220	0.006668223
14	0.134338756	-0.001676175	0.007068711
15	0.134338756	-0.000636843	0.007419135
16	0.134338756	0.000255125	0.007715055
17	0.134338756	0.000989978	0.007967217
18	0.134338756	0.001554013	0.008197031
19	0.134338756	0.001920742	0.008433030
20	0.134338756	0.002039849	0.008661653
21	0.134338756	0.002031473	0.008749036
22	0.134338756	0.001999112	0.008832193
23	0.134338756	0.001824112	0.009032589
24	0.134338756	0.001442962	0.009258992
25	0.134338756	0.000859129	0.009460762
26	0.134338756	0.000084143	0.009603254
27	0.134338756	-0.000867836	0.009653502
28	0.134338756	-0.001978651	0.009587144
29	0.134338756	-0.003230002	0.009398302
30	0.134338756	-0.004609928	0.009106377
31	0.134338756	-0.006112419	0.008739821
32	0.134338756	-0.007727960	0.008304855
33	0.134338756	-0.009446180	0.007805661
34	0.134338756	-0.011256313	0.007246841
35	0.134338756	-0.013147420	0.006634060
36	0.134338756	-0.015108109	0.005972993
37	0.134338756	-0.017126708	0.005269729
38	0.134338756	-0.019188243	0.004518575
39	0.134338756	-0.021280907	0.003728351
40	0.134338756	-0.023387152	0.002885777
41	0.134338756	-0.025485647	0.001967115
1	0.136731569	-0.025710265	0.001975341
2	0.136731569	-0.023458294	0.002229095
3	0.136731569	-0.021236606	0.002551955
4	0.136731569	-0.019051503	0.002913684
5	0.136731569	-0.016912169	0.003293674
6	0.136731569	-0.014833068	0.003694196
7	0.136731569	-0.012824579	0.004102214
8	0.136731569	-0.010899644	0.004516728
9	0.136731569	-0.009070840	0.004936969
10	0.136731569	-0.007350200	0.005361770
11	0.136731569	-0.005749178	0.005789640
12	0.136731569	-0.004278478	0.006218308
13	0.136731569	-0.002947568	0.006643416
14	0.136731569	-0.001758796	0.007042036
15	0.136731569	-0.000712654	0.007390756
16	0.136731569	0.000185126	0.007685239
17	0.136731569	0.000924784	0.007936290
18	0.136731569	0.001492668	0.008165357
19	0.136731569	0.001862410	0.008401044
20	0.136731569	0.001983422	0.008630227
21	0.136731569	0.001975315	0.008718107
22	0.136731569	0.001942933	0.008801762
23	0.136731569	0.001767071	0.009003268
24	0.136731569	0.001383914	0.009230909
25	0.136731569	0.000797072	0.009434036
26	0.136731569	0.000018105	0.009578058
27	0.136731569	-0.000938857	0.009630072
28	0.136731569	-0.002055719	0.009565724
29	0.136731569	-0.003314194	0.009379037
30	0.136731569	-0.004702219	0.009089210
31	0.136731569	-0.006213671	0.008724734
32	0.136731569	-0.007838993	0.008291925
33	0.136731569	-0.009567754	0.007794957
34	0.136731569	-0.011389113	0.007238400
35	0.136731569	-0.013292050	0.006627891
36	0.136731569	-0.015265099	0.005969096
37	0.136731569	-0.017296504	0.005268092
38	0.136731569	-0.019371258	0.004519240
39	0.136731569	-0.021477465	0.003731350
40	0.136731569	-0.023597571	0.002891233
41	0.136731569	-0.025710265	0.001975341
1	0.139056779	-0.025798398	0.001825456
2	0.139056779	-0.023549448	0.002075576
3	0.139056779	-0.021329419	0.002394507
4	0.139056779	-0.019145811	0.002752075
5	0.139056779	-0.017007865	0.003127835
6	0.139056779	-0.014930026	0.003524095
7	0.139056779	-0.012922709	0.003927926
8	0.139056779	-0.010998842	0.004338362
9	0.139056779	-0.009170989	0.004754641
10	0.139056779	-0.007451167	0.005175607
11	0.139056779	-0.005850811	0.005599766
12	0.139056779	-0.004380615	0.006024868
13	0.139056779	-0.003049978	0.006446391
14	0.139056779	-0.001861203	0.006841182
15	0.139056779	-0.000815010	0.007186370
16	0.139056779	0.000082766	0.007477927
17	0.139056779	0.000822390	0.007726724
18	0.139056779	0.001390316	0.007954103
19	0.139056779	0.001760401	0.008188479
20	0.139056779	0.001882093	0.008417005
21	0.139056779	0.001874152	0.008504808
22	0.139056779	0.001841840	0.008588380
23	0.139056779	0.001666037	0.008789530
24	0.139056779	0.001283151	0.009016655
25	0.139056779	0.000696940	0.009219485
26	0.139056779	-0.000081073	0.009363814
27	0.139056779	-0.001036894	0.009417082
28	0.139056779	-0.002152633	0.009355054
29	0.139056779	-0.003410123	0.009171492
30	0.139056779	-0.004797201	0.008884951
31	0.139056779	-0.006307684	0.008523918
32	0.139056779	-0.007932072	0.008094962
33	0.139056779	-0.009659941	0.007602221
34	0.139056779	-0.011480448	0.007050216
35	0.139056779	-0.013382562	0.006444508
36	0.139056779	-0.015354819	0.005790738
37	0.139056779	-0.017385460	0.005094941
38	0.139056779	-0.019459527	0.004351527
39	0.139056779	-0.021565125	0.003569291
40	0.139056779	-0.023684782	0.002735142
41	0.139056779	-0.025798398	0.001825456
1	0.141305443	-0.025585136	0.001574748
2	0.141305443	-0.023371787	0.001816774
3	0.141305443	-0.021184369	0.002127252
4	0.141305443	-0.019032800	0.002475995
5	0.141305443	-0.016926196	0.002842788
6	0.141305443	-0.014878798	0.003230002
7	0.141305443	-0.012900870	0.003624850
8	0.141305443	-0.011005155	0.004026413
9	0.141305443	-0.009204023	0.004433924
10	0.141305443	-0.007509311	0.004846236
11	0.141305443	-0.005932272	0.005261841
12	0.141305443	-0.004483435	0.005678516
13	0.141305443	-0.003171952	0.006091470
14	0.141305443	-0.001999946	0.006477383
15	0.141305443	-0.000968422	0.006814501
16	0.141305443	-0.000083297	0.007099357
17	0.141305443	0.000645816	0.007342839
18	0.141305443	0.001205625	0.007565897
19	0.141305443	0.001570464	0.007796323
20	0.141305443	0.001690464	0.008021347
21	0.141305443	0.001682603	0.008107833
22	0.141305443	0.001650707	0.008190106
23	0.141305443	0.001477360	0.008388016
24	0.141305443	0.001100147	0.008611461
25	0.141305443	0.000522851	0.008811268
26	0.141305443	-0.000243215	0.008954152
27	0.141305443	-0.001184427	0.009008383
28	0.141305443	-0.002283377	0.008950087
29	0.141305443	-0.003522243	0.008772604
30	0.141305443	-0.004888831	0.008493241
31	0.141305443	-0.006376982	0.008140247
32	0.141305443	-0.007977432	0.007720587
33	0.141305443	-0.009679903	0.007238299
34	0.141305443	-0.011473705	0.006697803
35	0.141305443	-0.013347948	0.006104496
36	0.141305443	-0.015291334	0.005463933
37	0.141305443	-0.017292274	0.004782036
38	0.141305443	-0.019336036	0.004053234
39	0.141305443	-0.021410917	0.003286251
40	0.141305443	-0.023499720	0.002468103
41	0.141305443	-0.025585136	0.001574748
1	0.143465410	-0.024901320	0.001296426
2	0.143465410	-0.022774400	0.001525640
3	0.143465410	-0.020669462	0.001820793
4	0.143465410	-0.018598932	0.002152768
5	0.143465410	-0.016571644	0.002502269
6	0.143465410	-0.014601298	0.002871612
7	0.143465410	-0.012697812	0.003248595
8	0.143465410	-0.010873456	0.003632369
9	0.143465410	-0.009140126	0.004022162
10	0.143465410	-0.007509206	0.004416846
11	0.143465410	-0.005991513	0.004814916
12	0.143465410	-0.004597172	0.005214204
13	0.143465410	-0.003334829	0.005609592
14	0.143465410	-0.002206310	0.005977931
15	0.143465410	-0.001212948	0.006299308
16	0.143465410	-0.000360651	0.006571042
17	0.143465410	0.000341280	0.006803871
18	0.143465410	0.000880082	0.007017888
19	0.143465410	0.001231038	0.007239618
20	0.143465410	0.001345934	0.007456357
21	0.143465410	0.001338088	0.007539533
22	0.143465410	0.001307162	0.007618567
23	0.143465410	0.001140034	0.007808573
24	0.143465410	0.000777041	0.008023172
25	0.143465410	0.000221840	0.008215481
26	0.143465410	-0.000514765	0.008353972
27	0.143465410	-0.001419884	0.008408500
28	0.143465410	-0.002477028	0.008355980
29	0.143465410	-0.003669111	0.008189213
30	0.143465410	-0.004984083	0.007923517
31	0.143465410	-0.006415925	0.007586349
32	0.143465410	-0.007955859	0.007185164
33	0.143465410	-0.009593982	0.006723796
34	0.143465410	-0.011319999	0.006206467
35	0.143465410	-0.013123399	0.005638274
36	0.143465410	-0.014993315	0.005024577
37	0.143465410	-0.016918590	0.004371059
38	0.143465410	-0.018885097	0.003672476
39	0.143465410	-0.020881592	0.002937261
40	0.143465410	-0.022891608	0.002153099
41	0.143465410	-0.024901320	0.001296426
1	0.145519049	-0.023548025	0.001054798
2	0.145519049	-0.021579937	0.001266494
3	0.145519049	-0.019628995	0.001537916
4	0.145519049	-0.017709713	0.001842822
5	0.145519049	-0.015830452	0.002163966
6	0.145519049	-0.014003882	0.002503410
7	0.145519049	-0.012239313	0.002850272
8	0.145519049	-0.010548122	0.003203792
9	0.145519049	-0.008941332	0.003563215
10	0.145519049	-0.007429490	0.003927456
11	0.145519049	-0.006022607	0.004295051
12	0.145519049	-0.004730062	0.004663957
13	0.145519049	-0.003559648	0.005028721
14	0.145519049	-0.002512814	0.005367105
15	0.145519049	-0.001591219	0.005661878
16	0.145519049	-0.000800589	0.005911330
17	0.145519049	-0.000149622	0.006125752
18	0.145519049	0.000349857	0.006323726
19	0.145519049	0.000674805	0.006529640
20	0.145519049	0.000780118	0.006731048
21	0.145519049	0.000772306	0.006808070
22	0.145519049	0.000743249	0.006881138
23	0.145519049	0.000587836	0.007056699
24	0.145519049	0.000251286	0.007255138
25	0.145519049	-0.000263059	0.007433463
26	0.145519049	-0.000945294	0.007563005
27	0.145519049	-0.001783718	0.007616212
28	0.145519049	-0.002763340	0.007571498
29	0.145519049	-0.003868363	0.007421187
30	0.145519049	-0.005087227	0.007177854
31	0.145519049	-0.006414213	0.006867193
32	0.145519049	-0.007841372	0.006497154
33	0.145519049	-0.009359501	0.006071228
34	0.145519049	-0.010959047	0.005593311
35	0.145519049	-0.012630234	0.005068034
36	0.145519049	-0.014362995	0.004500392
37	0.145519049	-0.016146991	0.003895663
38	0.145519049	-0.017969252	0.003249435
39	0.145519049	-0.019819358	0.002569490
40	0.145519049	-0.021682241	0.001845101
41	0.145519049	-0.023548025	0.001054798
1	0.147438017	-0.021421716	0.000898422
2	0.147438017	-0.019696392	0.001078868
3	0.147438017	-0.017981021	0.001314376
4	0.147438017	-0.016293742	0.001580559
5	0.147438017	-0.014641725	0.001861461
6	0.147438017	-0.013036166	0.002159162
7	0.147438017	-0.011485134	0.002463586
8	0.147438017	-0.009998638	0.002774085
9	0.147438017	-0.008586364	0.003089963
10	0.147438017	-0.007257579	0.003410221
11	0.147438017	-0.006021070	0.003733511
12	0.147438017	-0.004885074	0.004057999
13	0.147438017	-0.003856176	0.004378043
14	0.147438017	-0.002935427	0.004673447
15	0.147438017	-0.002124702	0.004930329
16	0.147438017	-0.001429276	0.005147952
17	0.147438017	-0.000856886	0.005335705
18	0.147438017	-0.000417949	0.005509874
19	0.147438017	-0.000132906	0.005691688
20	0.147438017	-0.000041844	0.005869419
21	0.147438017	-0.000049375	0.005937052
22	0.147438017	-0.000075371	0.006001051
23	0.147438017	-0.000212505	0.006154749
24	0.147438017	-0.000508376	0.006328685
25	0.147438017	-0.000960133	0.006485521
26	0.147438017	-0.001559190	0.006600593
27	0.147438017	-0.002295512	0.006650067
28	0.147438017	-0.003156208	0.006614774
29	0.147438017	-0.004127444	0.006486966
30	0.147438017	-0.005198676	0.006276072
31	0.147438017	-0.006364690	0.006004728
32	0.147438017	-0.007618711	0.005681124
33	0.147438017	-0.008952628	0.005308268
34	0.147438017	-0.010358041	0.004889586
35	0.147438017	-0.011826329	0.004429069
36	0.147438017	-0.013348656	0.003931149
37	0.147438017	-0.014915942	0.003400492
38	0.147438017	-0.016516707	0.002832801
39	0.147438017	-0.018141876	0.002235200
40	0.147438017	-0.019778065	0.001597563
41	0.147438017	-0.021421716	0.000898422
1	0.149167194	-0.018742884	0.000839661
2	0.149167194	-0.017320833	0.000966433
3	0.149167194	-0.015900688	0.001151536
4	0.149167194	-0.014505283	0.001368467
5	0.149167194	-0.013139484	0.001599477
6	0.149167194	-0.011812817	0.001847465
7	0.149167194	-0.010531259	0.002101113
8	0.149167194	-0.009303089	0.002359889
9	0.149167194	-0.008136316	0.002623190
10	0.149167194	-0.007038591	0.002890133
11	0.149167194	-0.006017170	0.003159543
12	0.149167194	-0.005078851	0.003429846
13	0.149167194	-0.004228818	0.003695569
14	0.149167194	-0.003467769	0.003939629
15	0.149167194	-0.002797569	0.004151571
16	0.149167194	-0.002222761	0.004331363
17	0.149167194	-0.001749826	0.004487015
18	0.149167194	-0.001387415	0.004631905
19	0.149167194	-0.001152604	0.004783351
20	0.149167194	-0.001078818	0.004930947
21	0.149167194	-0.001085587	0.004986773
22	0.149167194	-0.001107468	0.005039436
23	0.149167194	-0.001221237	0.005165846
24	0.149167194	-0.001465663	0.005309161
25	0.149167194	-0.001838484	0.005439004
26	0.149167194	-0.002332743	0.005535503
27	0.149167194	-0.002940398	0.005579340
28	0.149167194	-0.003651097	0.005554570
29	0.149167194	-0.004453508	0.005453983
30	0.149167194	-0.005338637	0.005284019
31	0.149167194	-0.006301950	0.005063206
32	0.149167194	-0.007338041	0.004799420
33	0.149167194	-0.008440194	0.004495098
34	0.149167194	-0.009601467	0.004153062
35	0.149167194	-0.010814715	0.003776527
36	0.149167194	-0.012072635	0.003369158
37	0.149167194	-0.013367724	0.002934794
38	0.149167194	-0.014689853	0.002467100
39	0.149167194	-0.016031764	0.001972955
40	0.149167194	-0.017381384	0.001439591
41	0.149167194	-0.018742884	0.000839661
1	0.150500000	-0.016215231	0.000840357
2	0.150500000	-0.015082742	0.000921374
3	0.150500000	-0.013948316	0.001059867
4	0.150500000	-0.012834865	0.001229521
5	0.150500000	-0.011745398	0.001412125
6	0.150500000	-0.010687760	0.001611137
7	0.150500000	-0.009666125	0.001814756
8	0.150500000	-0.008687092	0.002022527
9	0.150500000	-0.007757042	0.002233924
10	0.150500000	-0.006882061	0.002448164
11	0.150500000	-0.006067915	0.002664232
12	0.150500000	-0.005319999	0.002880785
13	0.150500000	-0.004642407	0.003093371
14	0.150500000	-0.004035734	0.003288551
15	0.150500000	-0.003501510	0.003458149
16	0.150500000	-0.003043283	0.003601900
17	0.150500000	-0.002665923	0.003725284
18	0.150500000	-0.002375802	0.003837973
19	0.150500000	-0.002182323	0.003949682
20	0.150500000	-0.002093480	0.004049154
21	0.150500000	-0.002082283	0.004092563
22	0.150500000	-0.002085881	0.004138094
23	0.150500000	-0.002157583	0.004253136
24	0.150500000	-0.002345847	0.004380007
25	0.150500000	-0.002641808	0.004492711
26	0.150500000	-0.003036802	0.004577776
27	0.150500000	-0.003523734	0.004620789
28	0.150500000	-0.004094199	0.004608966
29	0.150500000	-0.004738918	0.004535732
30	0.150500000	-0.005450195	0.004405106
31	0.150500000	-0.006224052	0.004231967
32	0.150500000	-0.007056388	0.004024270
33	0.150500000	-0.007941802	0.003783990
34	0.150500000	-0.008874715	0.003513412
35	0.150500000	-0.009849364	0.003215063
36	0.150500000	-0.010859877	0.002891871
37	0.150500000	-0.011900216	0.002546899
38	0.150500000	-0.012961756	0.002172766
39	0.150500000	-0.014038806	0.001775653
40	0.150500000	-0.015120858	0.001341507
41	0.150500000	-0.016215231	0.000840357
