######## Panel parameters ########
n_blades=5

n_span_all= 41
n_points=45
######## End of parameters ########
1	0.026000000	-0.015331071	-0.019004193
2	0.026000000	-0.013700403	-0.017106473
3	0.026000000	-0.011894251	-0.015386233
4	0.026000000	-0.010056836	-0.013744276
5	0.026000000	-0.008225475	-0.012157559
6	0.026000000	-0.006424463	-0.010614101
7	0.026000000	-0.004683616	-0.009098922
8	0.026000000	-0.003023906	-0.007603905
9	0.026000000	-0.001475234	-0.006115188
10	0.026000000	-0.000075849	-0.004614909
11	0.026000000	0.001152086	-0.003106954
12	0.026000000	0.002200420	-0.001609584
13	0.026000000	0.003058328	-0.000139943
14	0.026000000	0.003726435	0.001277377
15	0.026000000	0.004209732	0.002616977
16	0.026000000	0.004515136	0.003853887
17	0.026000000	0.004654642	0.004962437
18	0.026000000	0.004612229	0.005915814
19	0.026000000	0.004396983	0.006672493
20	0.026000000	0.004088096	0.007205988
21	0.026000000	0.003795186	0.007538282
22	0.026000000	0.003591528	0.007710777
23	0.026000000	0.003519460	0.007763274
24	0.026000000	0.003444524	0.007814360
25	0.026000000	0.003209125	0.007949566
26	0.026000000	0.002791488	0.008119348
27	0.026000000	0.002180356	0.008262567
28	0.026000000	0.001380040	0.008291103
29	0.026000000	0.000425374	0.008115097
30	0.026000000	-0.000640038	0.007719791
31	0.026000000	-0.001784131	0.007111388
32	0.026000000	-0.002975137	0.006287018
33	0.026000000	-0.004178904	0.005242578
34	0.026000000	-0.005368881	0.003985603
35	0.026000000	-0.006526158	0.002530523
36	0.026000000	-0.007631377	0.000889906
37	0.026000000	-0.008676983	-0.000916184
38	0.026000000	-0.009655175	-0.002870058
39	0.026000000	-0.010571393	-0.004949272
40	0.026000000	-0.011443510	-0.007128789
41	0.026000000	-0.012277030	-0.009392968
42	0.026000000	-0.013102586	-0.011715716
43	0.026000000	-0.013914730	-0.014088463
44	0.026000000	-0.014693827	-0.016509190
45	0.026000000	-0.015331071	-0.019004193
1	0.029720000	-0.017047982	-0.018593891
2	0.029720000	-0.015269347	-0.016798234
3	0.029720000	-0.013375882	-0.015142243
4	0.029720000	-0.011471957	-0.013544311
5	0.029720000	-0.009597960	-0.011974447
6	0.029720000	-0.007778638	-0.010419822
7	0.029720000	-0.006034388	-0.008876645
8	0.029720000	-0.004371618	-0.007354695
9	0.029720000	-0.002803658	-0.005857708
10	0.029720000	-0.001372840	-0.004361244
11	0.029720000	-0.000090829	-0.002875240
12	0.029720000	0.001042393	-0.001419558
13	0.029720000	0.002026485	-0.000011948
14	0.029720000	0.002850896	0.001337606
15	0.029720000	0.003510893	0.002614439
16	0.029720000	0.004004508	0.003801764
17	0.029720000	0.004329768	0.004881594
18	0.029720000	0.004479922	0.005833419
19	0.029720000	0.004447757	0.006627047
20	0.029720000	0.004270540	0.007222954
21	0.029720000	0.004047913	0.007610206
22	0.029720000	0.003864656	0.007807071
23	0.029720000	0.003795753	0.007864912
24	0.029720000	0.003721602	0.007919969
25	0.029720000	0.003480704	0.008055135
26	0.029720000	0.003042553	0.008190992
27	0.029720000	0.002407994	0.008267989
28	0.029720000	0.001592779	0.008225975
29	0.029720000	0.000624127	0.008023580
30	0.029720000	-0.000469755	0.007644264
31	0.029720000	-0.001661999	0.007077785
32	0.029720000	-0.002923882	0.006313298
33	0.029720000	-0.004223537	0.005340771
34	0.029720000	-0.005525741	0.004152567
35	0.029720000	-0.006806551	0.002757778
36	0.029720000	-0.008051289	0.001173665
37	0.029720000	-0.009236335	-0.000590646
38	0.029720000	-0.010340467	-0.002522666
39	0.029720000	-0.011365008	-0.004597520
40	0.029720000	-0.012355590	-0.006773591
41	0.029720000	-0.013314054	-0.009036112
42	0.029720000	-0.014273770	-0.011355759
43	0.029720000	-0.015245411	-0.013716902
44	0.029720000	-0.016206746	-0.016119010
45	0.029720000	-0.017047982	-0.018593891
1	0.033440000	-0.018654276	-0.018420183
2	0.033440000	-0.016765465	-0.016656751
3	0.033440000	-0.014797579	-0.015003391
4	0.033440000	-0.012834451	-0.013390945
5	0.033440000	-0.010911441	-0.011794832
6	0.033440000	-0.009045950	-0.010211886
7	0.033440000	-0.007254907	-0.008642593
8	0.033440000	-0.005547383	-0.007094496
9	0.033440000	-0.003938314	-0.005569937
10	0.033440000	-0.002452956	-0.004061373
11	0.033440000	-0.001100722	-0.002578528
12	0.033440000	0.000118534	-0.001139158
13	0.033440000	0.001205844	0.000240048
14	0.033440000	0.002156667	0.001548182
15	0.033440000	0.002963230	0.002776947
16	0.033440000	0.003615775	0.003918553
17	0.033440000	0.004103271	0.004963747
18	0.033440000	0.004413369	0.005899243
19	0.033440000	0.004533686	0.006702782
20	0.033440000	0.004474372	0.007335432
21	0.033440000	0.004306607	0.007759500
22	0.033440000	0.004139222	0.007977456
23	0.033440000	0.004072087	0.008040317
24	0.033440000	0.003997809	0.008098968
25	0.033440000	0.003750359	0.008236084
26	0.033440000	0.003297153	0.008360445
27	0.033440000	0.002643729	0.008406440
28	0.033440000	0.001810828	0.008325751
29	0.033440000	0.000823425	0.008093272
30	0.033440000	-0.000293132	0.007691320
31	0.033440000	-0.001513584	0.007107445
32	0.033440000	-0.002812603	0.006333229
33	0.033440000	-0.004163863	0.005362474
34	0.033440000	-0.005540071	0.004191587
35	0.033440000	-0.006917517	0.002824287
36	0.033440000	-0.008274124	0.001267650
37	0.033440000	-0.009582629	-0.000473779
38	0.033440000	-0.010815401	-0.002392499
39	0.033440000	-0.011969005	-0.004464578
40	0.033440000	-0.013081833	-0.006647754
41	0.033440000	-0.014185569	-0.008911124
42	0.033440000	-0.015313451	-0.011223070
43	0.033440000	-0.016466827	-0.013570750
44	0.033440000	-0.017616827	-0.015957330
45	0.033440000	-0.018654276	-0.018420183
1	0.037160000	-0.020213644	-0.018461355
2	0.037160000	-0.018220339	-0.016691872
3	0.037160000	-0.016178692	-0.015001996
4	0.037160000	-0.014154429	-0.013338405
5	0.037160000	-0.012175580	-0.011686081
6	0.037160000	-0.010250617	-0.010053579
7	0.037160000	-0.008392401	-0.008446364
8	0.037160000	-0.006615740	-0.006865789
9	0.037160000	-0.004949904	-0.005298938
10	0.037160000	-0.003397917	-0.003761834
11	0.037160000	-0.001965113	-0.002267071
12	0.037160000	-0.000656713	-0.000826229
13	0.037160000	0.000525820	0.000546755
14	0.037160000	0.001584353	0.001836585
15	0.037160000	0.002512142	0.003036259
16	0.037160000	0.003296382	0.004143455
17	0.037160000	0.003921176	0.005156294
18	0.037160000	0.004369478	0.006069224
19	0.037160000	0.004625438	0.006867861
20	0.037160000	0.004681466	0.007521019
21	0.037160000	0.004566270	0.007976111
22	0.037160000	0.004414135	0.008215206
23	0.037160000	0.004347995	0.008283213
24	0.037160000	0.004272764	0.008345161
25	0.037160000	0.004016929	0.008484278
26	0.037160000	0.003548017	0.008603805
27	0.037160000	0.002873988	0.008630507
28	0.037160000	0.002019411	0.008518970
29	0.037160000	0.001011356	0.008244646
30	0.037160000	-0.000123210	0.007790215
31	0.037160000	-0.001359264	0.007146926
32	0.037160000	-0.002675644	0.006314352
33	0.037160000	-0.004055452	0.005297922
34	0.037160000	-0.005484493	0.004105493
35	0.037160000	-0.006939340	0.002734618
36	0.037160000	-0.008389371	0.001178948
37	0.037160000	-0.009809542	-0.000557819
38	0.037160000	-0.011174107	-0.002469724
39	0.037160000	-0.012474102	-0.004537483
40	0.037160000	-0.013714746	-0.006735193
41	0.037160000	-0.014980829	-0.008998387
42	0.037160000	-0.016294990	-0.011298329
43	0.037160000	-0.017640433	-0.013631093
44	0.037160000	-0.018981223	-0.016004962
45	0.037160000	-0.020213644	-0.018461355
1	0.040880000	-0.021741134	-0.018605948
2	0.040880000	-0.019629976	-0.016827521
3	0.040880000	-0.017501521	-0.015096380
4	0.040880000	-0.015402625	-0.013378021
5	0.040880000	-0.013353718	-0.011667307
6	0.040880000	-0.011359195	-0.009978642
7	0.040880000	-0.009429416	-0.008320982
8	0.040880000	-0.007576446	-0.006699398
9	0.040880000	-0.005841989	-0.005087230
10	0.040880000	-0.004217009	-0.003513890
11	0.040880000	-0.002702702	-0.001996081
12	0.040880000	-0.001309200	-0.000540189
13	0.040880000	-0.000040622	0.000842301
14	0.040880000	0.001107213	0.002133700
15	0.040880000	0.002130123	0.003325276
16	0.040880000	0.003016481	0.004415424
17	0.040880000	0.003750106	0.005405665
18	0.040880000	0.004312751	0.006296175
19	0.040880000	0.004687131	0.007080155
20	0.040880000	0.004855658	0.007738029
21	0.040880000	0.004805019	0.008220492
22	0.040880000	0.004672550	0.008481847
23	0.040880000	0.004607017	0.008554973
24	0.040880000	0.004530276	0.008619834
25	0.040880000	0.004264271	0.008758858
26	0.040880000	0.003777032	0.008866111
27	0.040880000	0.003081406	0.008864921
28	0.040880000	0.002205740	0.008712752
29	0.040880000	0.001179339	0.008385269
30	0.040880000	0.000030770	0.007866173
31	0.040880000	-0.001215356	0.007150413
32	0.040880000	-0.002541975	0.006244564
33	0.040880000	-0.003941236	0.005164665
34	0.040880000	-0.005411010	0.003929953
35	0.040880000	-0.006926404	0.002532177
36	0.040880000	-0.008454672	0.000958970
37	0.040880000	-0.009975980	-0.000784402
38	0.040880000	-0.011470623	-0.002690916
39	0.040880000	-0.012925482	-0.004747156
40	0.040880000	-0.014313030	-0.006949101
41	0.040880000	-0.015756200	-0.009200477
42	0.040880000	-0.017260531	-0.011480395
43	0.040880000	-0.018794821	-0.013794520
44	0.040880000	-0.020319472	-0.016155334
45	0.040880000	-0.021741134	-0.018605948
1	0.044600000	-0.023164892	-0.018756333
2	0.044600000	-0.020931574	-0.016979189
3	0.044600000	-0.018711896	-0.015215376
4	0.044600000	-0.016533524	-0.013451313
5	0.044600000	-0.014409481	-0.011691513
6	0.044600000	-0.012342341	-0.009953491
7	0.044600000	-0.010342147	-0.008247236
8	0.044600000	-0.008417312	-0.006582765
9	0.044600000	-0.006610530	-0.004932190
10	0.044600000	-0.004912179	-0.003326085
11	0.044600000	-0.003322109	-0.001782951
12	0.044600000	-0.001853004	-0.000306645
13	0.044600000	-0.000511145	0.001093162
14	0.044600000	0.000706486	0.002399178
15	0.044600000	0.001799089	0.003599267
16	0.044600000	0.002759734	0.004688126
17	0.044600000	0.003575114	0.005666643
18	0.044600000	0.004228262	0.006537771
19	0.044600000	0.004701567	0.007301123
20	0.044600000	0.004972431	0.007949113
21	0.044600000	0.005000894	0.008449345
22	0.044600000	0.004893991	0.008731700
23	0.044600000	0.004829225	0.008809764
24	0.044600000	0.004750864	0.008877257
25	0.044600000	0.004474261	0.009014533
26	0.044600000	0.003968774	0.009105149
27	0.044600000	0.003253252	0.009073640
28	0.044600000	0.002358635	0.008881100
29	0.044600000	0.001315726	0.008503270
30	0.044600000	0.000154288	0.007924397
31	0.044600000	-0.001101259	0.007141606
32	0.044600000	-0.002436911	0.006166129
33	0.044600000	-0.003852072	0.005021931
34	0.044600000	-0.005352832	0.003735917
35	0.044600000	-0.006913841	0.002297535
36	0.044600000	-0.008507146	0.000697178
37	0.044600000	-0.010117852	-0.001058161
38	0.044600000	-0.011731701	-0.002960018
39	0.044600000	-0.013333296	-0.004999803
40	0.044600000	-0.014886029	-0.007183725
41	0.044600000	-0.016505462	-0.009410215
42	0.044600000	-0.018183775	-0.011666499
43	0.044600000	-0.019885511	-0.013962890
44	0.044600000	-0.021572138	-0.016312914
45	0.044600000	-0.023164892	-0.018756333
1	0.048320000	-0.024398593	-0.018800528
2	0.048320000	-0.022052364	-0.017040994
3	0.048320000	-0.019747357	-0.015262399
4	0.048320000	-0.017493870	-0.013471701
5	0.048320000	-0.015298538	-0.011681944
6	0.048320000	-0.013163230	-0.009912352
7	0.048320000	-0.011099214	-0.008172062
8	0.048320000	-0.009113265	-0.006473717
9	0.048320000	-0.007239001	-0.004799614
10	0.048320000	-0.005473321	-0.003173540
11	0.048320000	-0.003818442	-0.001611956
12	0.048320000	-0.002287090	-0.000118931
13	0.048320000	-0.000887019	0.001296964
14	0.048320000	0.000381482	0.002620954
15	0.048320000	0.001520937	0.003837180
16	0.048320000	0.002531522	0.004933602
17	0.048320000	0.003404584	0.005907594
18	0.048320000	0.004125444	0.006762418
19	0.048320000	0.004676109	0.007502613
20	0.048320000	0.005031087	0.008130936
21	0.048320000	0.005141216	0.008633963
22	0.048320000	0.005062816	0.008932540
23	0.048320000	0.004999206	0.009014957
24	0.048320000	0.004919571	0.009084770
25	0.048320000	0.004633828	0.009219860
26	0.048320000	0.004113191	0.009294746
27	0.048320000	0.003381624	0.009238780
28	0.048320000	0.002470830	0.009016918
29	0.048320000	0.001412072	0.008604483
30	0.048320000	0.000235979	0.007984965
31	0.048320000	-0.001032446	0.007155440
32	0.048320000	-0.002380332	0.006129022
33	0.048320000	-0.003811364	0.004934345
34	0.048320000	-0.005335040	0.003601315
35	0.048320000	-0.006930140	0.002123606
36	0.048320000	-0.008576278	0.000498327
37	0.048320000	-0.010261988	-0.001266301
38	0.048320000	-0.011976347	-0.003160862
39	0.048320000	-0.013704984	-0.005178171
40	0.048320000	-0.015420122	-0.007321207
41	0.048320000	-0.017193500	-0.009513820
42	0.048320000	-0.019013413	-0.011746298
43	0.048320000	-0.020848306	-0.014027342
44	0.048320000	-0.022664152	-0.016368144
45	0.048320000	-0.024398593	-0.018800528
1	0.052040000	-0.025387030	-0.018655247
2	0.052040000	-0.022948807	-0.016928660
3	0.052040000	-0.020572069	-0.015156950
4	0.052040000	-0.018254125	-0.013363883
5	0.052040000	-0.015997075	-0.011568884
6	0.052040000	-0.013802939	-0.009791754
7	0.052040000	-0.011684805	-0.008039857
8	0.052040000	-0.009649310	-0.006326634
9	0.052040000	-0.007717940	-0.004648309
10	0.052040000	-0.005895587	-0.003019901
11	0.052040000	-0.004188977	-0.001453310
12	0.052040000	-0.002609557	0.000045711
13	0.052040000	-0.001165915	0.001469094
14	0.052040000	0.000137835	0.002805258
15	0.052040000	0.001306717	0.004035292
16	0.052040000	0.002348513	0.005139606
17	0.052040000	0.003259574	0.006110979
18	0.052040000	0.004027430	0.006951625
19	0.052040000	0.004633207	0.007669656
20	0.052040000	0.005049308	0.008275621
21	0.052040000	0.005226386	0.008769697
22	0.052040000	0.005173372	0.009078085
23	0.052040000	0.005111185	0.009163868
24	0.052040000	0.005030916	0.009235611
25	0.052040000	0.004739053	0.009369691
26	0.052040000	0.004208180	0.009434906
27	0.052040000	0.003465176	0.009366655
28	0.052040000	0.002540969	0.009133072
29	0.052040000	0.001466384	0.008708536
30	0.052040000	0.000272627	0.008074562
31	0.052040000	-0.001013950	0.007226233
32	0.052040000	-0.002379613	0.006176141
33	0.052040000	-0.003829090	0.004954634
34	0.052040000	-0.005371836	0.003591701
35	0.052040000	-0.006994009	0.002089306
36	0.052040000	-0.008681999	0.000451068
37	0.052040000	-0.010426348	-0.001313901
38	0.052040000	-0.012217830	-0.003195589
39	0.052040000	-0.014045506	-0.005184905
40	0.052040000	-0.015893733	-0.007276349
41	0.052040000	-0.017783606	-0.009432740
42	0.052040000	-0.019705912	-0.011642198
43	0.052040000	-0.021635884	-0.013908310
44	0.052040000	-0.023545067	-0.016238207
45	0.052040000	-0.025387030	-0.018655247
1	0.055760000	-0.026140272	-0.018304960
2	0.055760000	-0.023636704	-0.016619522
3	0.055760000	-0.021204890	-0.014873569
4	0.055760000	-0.018835335	-0.013100816
5	0.055760000	-0.016527985	-0.011324164
6	0.055760000	-0.014285675	-0.009562998
7	0.055760000	-0.012123012	-0.007823001
8	0.055760000	-0.010046462	-0.006118314
9	0.055760000	-0.008069497	-0.004454624
10	0.055760000	-0.006202518	-0.002840657
11	0.055760000	-0.004455807	-0.001284508
12	0.055760000	-0.002839793	0.000206691
13	0.055760000	-0.001363489	0.001625044
14	0.055760000	-0.000033914	0.002961471
15	0.055760000	0.001155414	0.004194992
16	0.055760000	0.002217823	0.005300258
17	0.055760000	0.003153307	0.006266418
18	0.055760000	0.003950858	0.007094564
19	0.055760000	0.004590721	0.007795016
20	0.055760000	0.005044119	0.008382956
21	0.055760000	0.005262628	0.008866166
22	0.055760000	0.005227073	0.009179215
23	0.055760000	0.005166399	0.009267304
24	0.055760000	0.005086298	0.009340721
25	0.055760000	0.004792051	0.009476607
26	0.055760000	0.004256005	0.009541318
27	0.055760000	0.003505734	0.009474652
28	0.055760000	0.002570879	0.009246462
29	0.055760000	0.001481410	0.008830099
30	0.055760000	0.000268676	0.008204917
31	0.055760000	-0.001039671	0.007363435
32	0.055760000	-0.002428158	0.006316551
33	0.055760000	-0.003900469	0.005094514
34	0.055760000	-0.005464772	0.003726738
35	0.055760000	-0.007112844	0.002221693
36	0.055760000	-0.008835360	0.000587395
37	0.055760000	-0.010623967	-0.001166302
38	0.055760000	-0.012470368	-0.003028789
39	0.055760000	-0.014366029	-0.004989055
40	0.055760000	-0.016301920	-0.007035983
41	0.055760000	-0.018268214	-0.009159800
42	0.055760000	-0.020257979	-0.011346109
43	0.055760000	-0.022251339	-0.013594271
44	0.055760000	-0.024224000	-0.015908102
45	0.055760000	-0.026140272	-0.018304960
1	0.059480000	-0.026763143	-0.017834241
2	0.059480000	-0.024216267	-0.016187194
3	0.059480000	-0.021742241	-0.014475596
4	0.059480000	-0.019330801	-0.012735329
5	0.059480000	-0.016981929	-0.010989897
6	0.059480000	-0.014699003	-0.009258478
7	0.059480000	-0.012497211	-0.007546012
8	0.059480000	-0.010382926	-0.005867094
9	0.059480000	-0.008368248	-0.004229118
10	0.059480000	-0.006464910	-0.002639258
11	0.059480000	-0.004684132	-0.001104587
12	0.059480000	-0.003036225	0.000367521
13	0.059480000	-0.001530580	0.001769455
14	0.059480000	-0.000174975	0.003092731
15	0.059480000	0.001037187	0.004315677
16	0.059480000	0.002120434	0.005411123
17	0.059480000	0.003075667	0.006367104
18	0.059480000	0.003892125	0.007184606
19	0.059480000	0.004549983	0.007874644
20	0.059480000	0.005020352	0.008453838
21	0.059480000	0.005254786	0.008932495
22	0.059480000	0.005227070	0.009247675
23	0.059480000	0.005167705	0.009337265
24	0.059480000	0.005088358	0.009412264
25	0.059480000	0.004794577	0.009552822
26	0.059480000	0.004256812	0.009624976
27	0.059480000	0.003501948	0.009569221
28	0.059480000	0.002558898	0.009355293
29	0.059480000	0.001457076	0.008955779
30	0.059480000	0.000227643	0.008348919
31	0.059480000	-0.001101397	0.007526018
32	0.059480000	-0.002513781	0.006497141
33	0.059480000	-0.004012327	0.005292472
34	0.059480000	-0.005604490	0.003941506
35	0.059480000	-0.007283064	0.002454083
36	0.059480000	-0.009039527	0.000839156
37	0.059480000	-0.010865646	-0.000893255
38	0.059480000	-0.012753224	-0.002732385
39	0.059480000	-0.014693873	-0.004667019
40	0.059480000	-0.016679100	-0.006685461
41	0.059480000	-0.018693964	-0.008782861
42	0.059480000	-0.020731509	-0.010944567
43	0.059480000	-0.022772760	-0.013169275
44	0.059480000	-0.024794383	-0.015460278
45	0.059480000	-0.026763143	-0.017834241
1	0.063200000	-0.027374244	-0.017352388
2	0.063200000	-0.024791074	-0.015742629
3	0.063200000	-0.022279978	-0.014066806
4	0.063200000	-0.019831244	-0.012361112
5	0.063200000	-0.017445244	-0.010649133
6	0.063200000	-0.015125672	-0.008950074
7	0.063200000	-0.012887862	-0.007268627
8	0.063200000	-0.010738429	-0.005619361
9	0.063200000	-0.008689650	-0.004009474
10	0.063200000	-0.006753411	-0.002445979
11	0.063200000	-0.004941085	-0.000935792
12	0.063200000	-0.003263143	0.000513860
13	0.063200000	-0.001729128	0.001895491
14	0.063200000	-0.000346993	0.003200720
15	0.063200000	0.000889500	0.004407715
16	0.063200000	0.001994501	0.005488947
17	0.063200000	0.002968741	0.006432371
18	0.063200000	0.003801455	0.007239139
19	0.063200000	0.004472925	0.007920637
20	0.063200000	0.004954460	0.008494001
21	0.063200000	0.005197544	0.008970415
22	0.063200000	0.005174717	0.009287082
23	0.063200000	0.005116519	0.009377881
24	0.063200000	0.005038049	0.009454340
25	0.063200000	0.004745461	0.009599921
26	0.063200000	0.004207050	0.009680877
27	0.063200000	0.003448770	0.009637167
28	0.063200000	0.002499078	0.009437986
29	0.063200000	0.001386990	0.009055366
30	0.063200000	0.000143378	0.008466950
31	0.063200000	-0.001203800	0.007663491
32	0.063200000	-0.002638025	0.006654751
33	0.063200000	-0.004161578	0.005471007
34	0.063200000	-0.005781485	0.004142027
35	0.063200000	-0.007490363	0.002677580
36	0.063200000	-0.009279529	0.001086524
37	0.063200000	-0.011140552	-0.000621230
38	0.063200000	-0.013065037	-0.002435011
39	0.063200000	-0.015044390	-0.004343698
40	0.063200000	-0.017069901	-0.006335691
41	0.063200000	-0.019126506	-0.008406371
42	0.063200000	-0.021206989	-0.010541143
43	0.063200000	-0.023292299	-0.012739014
44	0.063200000	-0.025359083	-0.015003672
45	0.063200000	-0.027374244	-0.017352388
1	0.066920000	-0.027921048	-0.016833717
2	0.066920000	-0.025310637	-0.015264796
3	0.066920000	-0.022771316	-0.013628565
4	0.066920000	-0.020293938	-0.011961409
5	0.066920000	-0.017879243	-0.010286931
6	0.066920000	-0.015531226	-0.008624300
7	0.066920000	-0.013265315	-0.006977948
8	0.066920000	-0.011088341	-0.005362373
9	0.066920000	-0.009012720	-0.003784559
10	0.066920000	-0.007050453	-0.002251338
11	0.066920000	-0.005213028	-0.000769448
12	0.066920000	-0.003511038	0.000654049
13	0.066920000	-0.001954154	0.002011816
14	0.066920000	-0.000550464	0.003295592
15	0.066920000	0.000705943	0.004483412
16	0.066920000	0.001828776	0.005547516
17	0.066920000	0.002818575	0.006475840
18	0.066920000	0.003664580	0.007269715
19	0.066920000	0.004347233	0.007940862
20	0.066920000	0.004838106	0.008506868
21	0.066920000	0.005088736	0.008979724
22	0.066920000	0.005070590	0.009296876
23	0.066920000	0.005013670	0.009388561
24	0.066920000	0.004936277	0.009466192
25	0.066920000	0.004645732	0.009616199
26	0.066920000	0.004108341	0.009705476
27	0.066920000	0.003349065	0.009673639
28	0.066920000	0.002395823	0.009489463
29	0.066920000	0.001277147	0.009124536
30	0.066920000	0.000023531	0.008555976
31	0.066920000	-0.001337187	0.007773998
32	0.066920000	-0.002788264	0.006788001
33	0.066920000	-0.004331413	0.005628216
34	0.066920000	-0.005973245	0.004324633
35	0.066920000	-0.007706237	0.002886935
36	0.066920000	-0.009521576	0.001323862
37	0.066920000	-0.011410663	-0.000354812
38	0.066920000	-0.013364935	-0.002138538
39	0.066920000	-0.015375627	-0.004016319
40	0.066920000	-0.017433846	-0.005976682
41	0.066920000	-0.019524459	-0.008015237
42	0.066920000	-0.021640025	-0.010117489
43	0.066920000	-0.023761482	-0.012282737
44	0.066920000	-0.025865541	-0.014515034
45	0.066920000	-0.027921048	-0.016833717
1	0.070640000	-0.028152183	-0.016135683
2	0.070640000	-0.025542886	-0.014618860
3	0.070640000	-0.023003005	-0.013034370
4	0.070640000	-0.020524036	-0.011418359
5	0.070640000	-0.018107066	-0.009794191
6	0.070640000	-0.015756339	-0.008180793
7	0.070640000	-0.013487216	-0.006582318
8	0.070640000	-0.011306669	-0.005013045
9	0.070640000	-0.009227122	-0.003479688
10	0.070640000	-0.007260558	-0.001988850
11	0.070640000	-0.005418461	-0.000547043
12	0.070640000	-0.003711430	0.000838888
13	0.070640000	-0.002149149	0.002161807
14	0.070640000	-0.000739739	0.003413626
15	0.070640000	0.000522434	0.004572395
16	0.070640000	0.001650506	0.005610459
17	0.070640000	0.002644781	0.006515918
18	0.070640000	0.003494588	0.007290279
19	0.070640000	0.004180689	0.007945466
20	0.070640000	0.004675175	0.008499295
21	0.070640000	0.004930125	0.008964333
22	0.070640000	0.004916420	0.009278836
23	0.070640000	0.004861255	0.009370456
24	0.070640000	0.004785636	0.009448434
25	0.070640000	0.004499868	0.009601150
26	0.070640000	0.003968699	0.009697323
27	0.070640000	0.003215945	0.009676781
28	0.070640000	0.002268788	0.009508187
29	0.070640000	0.001155066	0.009162983
30	0.070640000	-0.000095349	0.008618029
31	0.070640000	-0.001454990	0.007863158
32	0.070640000	-0.002907077	0.006907365
33	0.070640000	-0.004452802	0.005780562
34	0.070640000	-0.006098337	0.004512652
35	0.070640000	-0.007836112	0.003113156
36	0.070640000	-0.009657283	0.001590623
37	0.070640000	-0.011553186	-0.000045388
38	0.070640000	-0.013515191	-0.001784544
39	0.070640000	-0.015534461	-0.003616066
40	0.070640000	-0.017602028	-0.005528709
41	0.070640000	-0.019702849	-0.007518323
42	0.070640000	-0.021829344	-0.009570655
43	0.070640000	-0.023962638	-0.011685260
44	0.070640000	-0.026079741	-0.013866463
45	0.070640000	-0.028152183	-0.016135683
1	0.074360000	-0.028168634	-0.015325338
2	0.074360000	-0.025580445	-0.013867886
3	0.074360000	-0.023059595	-0.012342980
4	0.074360000	-0.020598237	-0.010786261
5	0.074360000	-0.018197770	-0.009220686
6	0.074360000	-0.015862640	-0.007664809
7	0.074360000	-0.013608025	-0.006122497
8	0.074360000	-0.011440976	-0.004607717
9	0.074360000	-0.009373824	-0.003126886
10	0.074360000	-0.007418449	-0.001686346
11	0.074360000	-0.005586238	-0.000292351
12	0.074360000	-0.003887713	0.001048501
13	0.074360000	-0.002332499	0.002329314
14	0.074360000	-0.000928683	0.003542226
15	0.074360000	0.000329047	0.004665484
16	0.074360000	0.001453211	0.005671738
17	0.074360000	0.002443915	0.006549309
18	0.074360000	0.003290654	0.007299852
19	0.074360000	0.003974642	0.007935376
20	0.074360000	0.004468665	0.008473766
21	0.074360000	0.004725692	0.008928030
22	0.074360000	0.004716256	0.009237699
23	0.074360000	0.004663146	0.009328569
24	0.074360000	0.004589744	0.009406283
25	0.074360000	0.004310549	0.009560335
26	0.074360000	0.003789146	0.009662094
27	0.074360000	0.003048130	0.009652042
28	0.074360000	0.002113808	0.009498976
29	0.074360000	0.001013174	0.009174417
30	0.074360000	-0.000224694	0.008655176
31	0.074360000	-0.001572886	0.007930829
32	0.074360000	-0.003014734	0.007009957
33	0.074360000	-0.004550970	0.005921971
34	0.074360000	-0.006187300	0.004696443
35	0.074360000	-0.007916159	0.003342657
36	0.074360000	-0.009728745	0.001868929
37	0.074360000	-0.011616397	0.000284542
38	0.074360000	-0.013570492	-0.001400446
39	0.074360000	-0.015582194	-0.003175540
40	0.074360000	-0.017642530	-0.005029793
41	0.074360000	-0.019736654	-0.006959308
42	0.074360000	-0.021856914	-0.008950165
43	0.074360000	-0.023984747	-0.011002161
44	0.074360000	-0.026097609	-0.013119836
45	0.074360000	-0.028168634	-0.015325338
1	0.078080000	-0.028101433	-0.014488329
2	0.078080000	-0.025543727	-0.013092217
3	0.078080000	-0.023051161	-0.011629114
4	0.078080000	-0.020616519	-0.010134058
5	0.078080000	-0.018241484	-0.008629539
6	0.078080000	-0.015930662	-0.007133685
7	0.078080000	-0.013699002	-0.005650083
8	0.078080000	-0.011553593	-0.004192353
9	0.078080000	-0.009506629	-0.002766609
10	0.078080000	-0.007569843	-0.001378923
11	0.078080000	-0.005754486	-0.000035285
12	0.078080000	-0.004070966	0.001257973
13	0.078080000	-0.002528810	0.002494207
14	0.078080000	-0.001136051	0.003665801
15	0.078080000	0.000112274	0.004751313
16	0.078080000	0.001228075	0.005723771
17	0.078080000	0.002211289	0.006571734
18	0.078080000	0.003051620	0.007296975
19	0.078080000	0.003730790	0.007911528
20	0.078080000	0.004222346	0.008433270
21	0.078080000	0.004480284	0.008875579
22	0.078080000	0.004474908	0.009179457
23	0.078080000	0.004423937	0.009269254
24	0.078080000	0.004352904	0.009346401
25	0.078080000	0.004080982	0.009501043
26	0.078080000	0.003570833	0.009607545
27	0.078080000	0.002843830	0.009607257
28	0.078080000	0.001925354	0.009469235
29	0.078080000	0.000841503	0.009165198
30	0.078080000	-0.000379508	0.008672008
31	0.078080000	-0.001711407	0.007979058
32	0.078080000	-0.003137709	0.007094513
33	0.078080000	-0.004658723	0.006047200
34	0.078080000	-0.006279685	0.004866243
35	0.078080000	-0.007993062	0.003560665
36	0.078080000	-0.009790129	0.002138527
37	0.078080000	-0.011662262	0.000608813
38	0.078080000	-0.013600877	-0.001018713
39	0.078080000	-0.015597177	-0.002733870
40	0.078080000	-0.017642218	-0.004526030
41	0.078080000	-0.019721399	-0.006391556
42	0.078080000	-0.021827031	-0.008316892
43	0.078080000	-0.023940916	-0.010302066
44	0.078080000	-0.026041008	-0.012351810
45	0.078080000	-0.028101433	-0.014488329
1	0.081800000	-0.027983201	-0.013648809
2	0.081800000	-0.025462395	-0.012314264
3	0.081800000	-0.023004490	-0.010913367
4	0.081800000	-0.020602869	-0.009480485
5	0.081800000	-0.018259461	-0.008037610
6	0.081800000	-0.015979006	-0.006602423
7	0.081800000	-0.013776187	-0.005178236
8	0.081800000	-0.011658102	-0.003778304
9	0.081800000	-0.009636776	-0.002408442
10	0.081800000	-0.007723766	-0.001074448
11	0.081800000	-0.005930161	0.000217957
12	0.081800000	-0.004266227	0.001462707
13	0.081800000	-0.002741374	0.002653418
14	0.081800000	-0.001363556	0.003782732
15	0.081800000	-0.000128158	0.004829571
16	0.081800000	0.000976124	0.005767404
17	0.081800000	0.001949076	0.006585047
18	0.081800000	0.002780633	0.007284374
19	0.081800000	0.003453047	0.007877403
20	0.081800000	0.003940657	0.008381948
21	0.081800000	0.004198555	0.008811690
22	0.081800000	0.004196931	0.009109174
23	0.081800000	0.004148105	0.009197668
24	0.081800000	0.004079503	0.009274022
25	0.081800000	0.003815237	0.009428676
26	0.081800000	0.003317251	0.009539205
27	0.081800000	0.002605705	0.009547969
28	0.081800000	0.001705038	0.009424377
29	0.081800000	0.000640419	0.009140432
30	0.081800000	-0.000560836	0.008673125
31	0.081800000	-0.001873137	0.008011703
32	0.081800000	-0.003280219	0.007163902
33	0.081800000	-0.004781982	0.006157895
34	0.081800000	-0.006383215	0.005022302
35	0.081800000	-0.008076440	0.003765873
36	0.081800000	-0.009853029	0.002396408
37	0.081800000	-0.011704422	0.000922583
38	0.081800000	-0.013622098	-0.000646151
39	0.081800000	-0.015597324	-0.002299933
40	0.081800000	-0.017621218	-0.004028471
41	0.081800000	-0.019679448	-0.005828377
42	0.081800000	-0.021764323	-0.007686480
43	0.081800000	-0.023858041	-0.009603024
44	0.081800000	-0.025939090	-0.011582908
45	0.081800000	-0.027983201	-0.013648809
1	0.085520000	-0.027779625	-0.012788774
2	0.085520000	-0.025304451	-0.011516756
3	0.085520000	-0.022889830	-0.010179285
4	0.085520000	-0.020529724	-0.008809963
5	0.085520000	-0.018226279	-0.007430220
6	0.085520000	-0.015984335	-0.006057237
7	0.085520000	-0.013818263	-0.004694062
8	0.085520000	-0.011735140	-0.003353552
9	0.085520000	-0.009746778	-0.002041218
10	0.085520000	-0.007864521	-0.000762582
11	0.085520000	-0.006099254	0.000476907
12	0.085520000	-0.004461069	0.001671458
13	0.085520000	-0.002959222	0.002814952
14	0.085520000	-0.001601555	0.003900301
15	0.085520000	-0.000383779	0.004906836
16	0.085520000	0.000704797	0.005808569
17	0.085520000	0.001663806	0.006594615
18	0.085520000	0.002483441	0.007266941
19	0.085520000	0.003146515	0.007837496
20	0.085520000	0.003628210	0.008323955
21	0.085520000	0.003884829	0.008740202
22	0.085520000	0.003886629	0.009030446
23	0.085520000	0.003839999	0.009117338
24	0.085520000	0.003773949	0.009192619
25	0.085520000	0.003517938	0.009346594
26	0.085520000	0.003033413	0.009460338
27	0.085520000	0.002339334	0.009477393
28	0.085520000	0.001459159	0.009367628
29	0.085520000	0.000417097	0.009103434
30	0.085520000	-0.000760484	0.008662024
31	0.085520000	-0.002048737	0.008032562
32	0.085520000	-0.003431667	0.007222348
33	0.085520000	-0.004908801	0.006258822
34	0.085520000	-0.006484497	0.005170017
35	0.085520000	-0.008151364	0.003964399
36	0.085520000	-0.009900901	0.002649488
37	0.085520000	-0.011724647	0.001233638
38	0.085520000	-0.013614179	-0.000274029
39	0.085520000	-0.015560862	-0.001863991
40	0.085520000	-0.017555909	-0.003526310
41	0.085520000	-0.019585307	-0.005257845
42	0.085520000	-0.021641395	-0.007045836
43	0.085520000	-0.023706816	-0.008890722
44	0.085520000	-0.025760648	-0.010797532
45	0.085520000	-0.027779625	-0.012788774
1	0.089240000	-0.027471762	-0.011899004
2	0.089240000	-0.025052014	-0.010690794
3	0.089240000	-0.022690339	-0.009418337
4	0.089240000	-0.020381264	-0.008114338
5	0.089240000	-0.018127116	-0.006799596
6	0.089240000	-0.015932805	-0.005490741
7	0.089240000	-0.013812335	-0.004190561
8	0.089240000	-0.011772724	-0.002911481
9	0.089240000	-0.009825524	-0.001658703
10	0.089240000	-0.007981822	-0.000437468
11	0.089240000	-0.006252258	0.000747055
12	0.089240000	-0.004646708	0.001889354
13	0.089240000	-0.003174234	0.002983586
14	0.089240000	-0.001842535	0.004022945
15	0.089240000	-0.000647634	0.004987246
16	0.089240000	0.000420538	0.005851142
17	0.089240000	0.001361479	0.006604089
18	0.089240000	0.002165662	0.007248130
19	0.089240000	0.002816514	0.007795081
20	0.089240000	0.003290114	0.008262395
21	0.089240000	0.003544120	0.008664056
22	0.089240000	0.003549030	0.008946097
23	0.089240000	0.003504665	0.009031051
24	0.089240000	0.003441311	0.009104941
25	0.089240000	0.003194253	0.009257456
26	0.089240000	0.002724687	0.009373505
27	0.089240000	0.002050379	0.009398005
28	0.089240000	0.001193773	0.009301414
29	0.089240000	0.000178072	0.009056630
30	0.089240000	-0.000971364	0.008641195
31	0.089240000	-0.002230498	0.008044261
32	0.089240000	-0.003583680	0.007272702
33	0.089240000	-0.005030098	0.006353132
34	0.089240000	-0.006573695	0.005312899
35	0.089240000	-0.008207198	0.004160155
36	0.089240000	-0.009922273	0.002902132
37	0.089240000	-0.011710594	0.001546839
38	0.089240000	-0.013563873	0.000103050
39	0.089240000	-0.015473615	-0.001420075
40	0.089240000	-0.017431170	-0.003012977
41	0.089240000	-0.019422889	-0.004672753
42	0.089240000	-0.021441184	-0.006387089
43	0.089240000	-0.023469201	-0.008156599
44	0.089240000	-0.025486673	-0.009986396
45	0.089240000	-0.027471762	-0.011899004
1	0.092960000	-0.027087145	-0.010998496
2	0.092960000	-0.024730035	-0.009854092
3	0.092960000	-0.022428451	-0.008646878
4	0.092960000	-0.020177456	-0.007408581
5	0.092960000	-0.017979536	-0.006159317
6	0.092960000	-0.015839632	-0.004915129
7	0.092960000	-0.013771347	-0.003678559
8	0.092960000	-0.011781610	-0.002461573
9	0.092960000	-0.009881680	-0.001269070
10	0.092960000	-0.008082350	-0.000106007
11	0.092960000	-0.006393987	0.001022726
12	0.092960000	-0.004826220	0.002111900
13	0.092960000	-0.003387892	0.003155954
14	0.092960000	-0.002086531	0.004148374
15	0.092960000	-0.000918481	0.005069532
16	0.092960000	0.000125721	0.005894786
17	0.092960000	0.001045461	0.006613943
18	0.092960000	0.001831523	0.007229098
19	0.092960000	0.002467970	0.007751890
20	0.092960000	0.002931822	0.008199477
21	0.092960000	0.003182181	0.008585867
22	0.092960000	0.003189906	0.008859041
23	0.092960000	0.003147823	0.008941808
24	0.092960000	0.003087236	0.009014063
25	0.092960000	0.002849543	0.009164475
26	0.092960000	0.002395915	0.009281997
27	0.092960000	0.001742950	0.009313082
28	0.092960000	0.000912064	0.009228866
29	0.092960000	-0.000074566	0.009002844
30	0.092960000	-0.001192622	0.008612980
31	0.092960000	-0.002418928	0.008048476
32	0.092960000	-0.003738227	0.007315789
33	0.092960000	-0.005149417	0.006440665
34	0.092960000	-0.006656039	0.005449672
35	0.092960000	-0.008250961	0.004350638
36	0.092960000	-0.009926043	0.003150494
37	0.092960000	-0.011673121	0.001856898
38	0.092960000	-0.013484076	0.000478262
39	0.092960000	-0.015350579	-0.000976627
40	0.092960000	-0.017264149	-0.002498604
41	0.092960000	-0.019211538	-0.004084995
42	0.092960000	-0.021185263	-0.005723951
43	0.092960000	-0.023169010	-0.007416242
44	0.092960000	-0.025143207	-0.009167028
45	0.092960000	-0.027087145	-0.010998496
1	0.096680000	-0.026665943	-0.010111797
2	0.096680000	-0.024375070	-0.009029588
3	0.096680000	-0.022137198	-0.007886131
4	0.096680000	-0.019947891	-0.006712138
5	0.096680000	-0.017809764	-0.005527031
6	0.096680000	-0.015727771	-0.004346256
7	0.096680000	-0.013715094	-0.003172120
8	0.096680000	-0.011778555	-0.002016129
9	0.096680000	-0.009929097	-0.000882886
10	0.096680000	-0.008177209	0.000222930
11	0.096680000	-0.006532968	0.001296699
12	0.096680000	-0.005005740	0.002333471
13	0.096680000	-0.003604135	0.003327963
14	0.096680000	-0.002335497	0.004273954
15	0.096680000	-0.001196482	0.005152409
16	0.096680000	-0.000178211	0.005939419
17	0.096680000	0.000718610	0.006625144
18	0.096680000	0.001485085	0.007211715
19	0.096680000	0.002105921	0.007710559
20	0.096680000	0.002559079	0.008138499
21	0.096680000	0.002805139	0.008509512
22	0.096680000	0.002815409	0.008773564
23	0.096680000	0.002775571	0.008854025
24	0.096680000	0.002717738	0.008924517
25	0.096680000	0.002489484	0.009072438
26	0.096680000	0.002052101	0.009190831
27	0.096680000	0.001421072	0.009227743
28	0.096680000	0.000616799	0.009155036
29	0.096680000	-0.000339553	0.008946849
30	0.096680000	-0.001424698	0.008581615
31	0.096680000	-0.002616333	0.008048636
32	0.096680000	-0.003899627	0.007353982
33	0.096680000	-0.005273233	0.006522519
34	0.096680000	-0.006740306	0.005579994
35	0.096680000	-0.008293869	0.004533903
36	0.096680000	-0.009925987	0.003390879
37	0.096680000	-0.011628681	0.002158230
38	0.096680000	-0.013394012	0.000844009
39	0.096680000	-0.015213840	-0.000543374
40	0.096680000	-0.017079868	-0.001995142
41	0.096680000	-0.018979262	-0.003508842
42	0.096680000	-0.020904666	-0.005073096
43	0.096680000	-0.022840317	-0.006688809
44	0.096680000	-0.024767352	-0.008361166
45	0.096680000	-0.026665943	-0.010111797
1	0.100400000	-0.026230481	-0.009249601
2	0.100400000	-0.024007205	-0.008227086
3	0.100400000	-0.021834486	-0.007144928
4	0.100400000	-0.019708346	-0.006032833
5	0.100400000	-0.017631505	-0.004909532
6	0.100400000	-0.015608906	-0.003789884
7	0.100400000	-0.013653310	-0.002675974
8	0.100400000	-0.011771412	-0.001578859
9	0.100400000	-0.009973838	-0.000502857
10	0.100400000	-0.008270765	0.000547617
11	0.100400000	-0.006671972	0.001568206
12	0.100400000	-0.005186558	0.002554228
13	0.100400000	-0.003822893	0.003500669
14	0.100400000	-0.002588133	0.004401597
15	0.100400000	-0.001479234	0.005238586
16	0.100400000	-0.000487865	0.005988463
17	0.100400000	0.000385190	0.006641735
18	0.100400000	0.001131356	0.007200555
19	0.100400000	0.001735972	0.007676119
20	0.100400000	0.002177923	0.008084894
21	0.100400000	0.002419253	0.008440782
22	0.100400000	0.002431780	0.008695706
23	0.100400000	0.002394105	0.008773814
24	0.100400000	0.002338956	0.008842478
25	0.100400000	0.002119997	0.008987653
26	0.100400000	0.001698759	0.009106431
27	0.100400000	0.001089667	0.009148467
28	0.100400000	0.000312143	0.009086373
29	0.100400000	-0.000613630	0.008894954
30	0.100400000	-0.001665377	0.008553142
31	0.100400000	-0.002821656	0.008050368
32	0.100400000	-0.004068074	0.007392336
33	0.100400000	-0.005403070	0.006603040
34	0.100400000	-0.006829437	0.005707392
35	0.100400000	-0.008340362	0.004712563
36	0.100400000	-0.009928123	0.003624892
37	0.100400000	-0.011584933	0.002451349
38	0.100400000	-0.013303044	0.001199633
39	0.100400000	-0.015074512	-0.000122211
40	0.100400000	-0.016891236	-0.001505788
41	0.100400000	-0.018740800	-0.002948854
42	0.100400000	-0.020615983	-0.004440492
43	0.100400000	-0.022501577	-0.005981728
44	0.100400000	-0.024379415	-0.007577756
45	0.100400000	-0.026230481	-0.009249601
1	0.104120000	-0.025792391	-0.008416982
2	0.104120000	-0.023636670	-0.007451117
3	0.104120000	-0.021529161	-0.006427232
4	0.104120000	-0.019466309	-0.005374040
5	0.104120000	-0.017450915	-0.004309597
6	0.104120000	-0.015487898	-0.003248192
7	0.104120000	-0.013589598	-0.002191705
8	0.104120000	-0.011762580	-0.001150753
9	0.104120000	-0.010017148	-0.000129390
10	0.104120000	-0.008363168	0.000868223
11	0.104120000	-0.006810122	0.001837978
12	0.104120000	-0.005366843	0.002775447
13	0.104120000	-0.004041456	0.003675874
14	0.104120000	-0.002840930	0.004533605
15	0.104120000	-0.001762500	0.005330822
16	0.104120000	-0.000798353	0.006045084
17	0.104120000	0.000050662	0.006667235
18	0.104120000	0.000776288	0.007199441
19	0.104120000	0.001364474	0.007652655
20	0.104120000	0.001795001	0.008042971
21	0.104120000	0.002031349	0.008384182
22	0.104120000	0.002045891	0.008630128
23	0.104120000	0.002010285	0.008705888
24	0.104120000	0.001957725	0.008772708
25	0.104120000	0.001747797	0.008914990
26	0.104120000	0.001342353	0.009033763
27	0.104120000	0.000754826	0.009080273
28	0.104120000	0.000003705	0.009027882
29	0.104120000	-0.000891765	0.008852068
30	0.104120000	-0.001910280	0.008532275
31	0.104120000	-0.003031240	0.008058095
32	0.104120000	-0.004240691	0.007434898
33	0.104120000	-0.005536897	0.006685830
34	0.104120000	-0.006922314	0.005834969
35	0.104120000	-0.008390292	0.004889166
36	0.104120000	-0.009933326	0.003854481
37	0.104120000	-0.011543825	0.002737555
38	0.104120000	-0.013214238	0.001545749
39	0.104120000	-0.014936820	0.000286754
40	0.104120000	-0.016703672	-0.001031404
41	0.104120000	-0.018502788	-0.002406677
42	0.104120000	-0.020327094	-0.003828595
43	0.104120000	-0.022161921	-0.005298292
44	0.104120000	-0.023989781	-0.006820957
45	0.104120000	-0.025792391	-0.008416982
1	0.107840000	-0.025371309	-0.007628104
2	0.107840000	-0.023280999	-0.006715035
3	0.107840000	-0.021236685	-0.005745549
4	0.107840000	-0.019235198	-0.004747403
5	0.107840000	-0.017279411	-0.003738003
6	0.107840000	-0.015374207	-0.002731091
7	0.107840000	-0.013531525	-0.001728363
8	0.107840000	-0.011757794	-0.000740017
9	0.107840000	-0.010063010	0.000230141
10	0.107840000	-0.008456738	0.001178187
11	0.107840000	-0.006948172	0.002100243
12	0.107840000	-0.005545884	0.002992124
13	0.107840000	-0.004257767	0.003849312
14	0.107840000	-0.003090604	0.004666421
15	0.107840000	-0.002041900	0.005426233
16	0.107840000	-0.001104320	0.006107007
17	0.107840000	-0.000278760	0.006699902
18	0.107840000	0.000426826	0.007207080
19	0.107840000	0.000998974	0.007639256
20	0.107840000	0.001418311	0.008012147
21	0.107840000	0.001649701	0.008339421
22	0.107840000	0.001666062	0.008576769
23	0.107840000	0.001632400	0.008650259
24	0.107840000	0.001582280	0.008715279
25	0.107840000	0.001380910	0.008854645
26	0.107840000	0.000990514	0.008973117
27	0.107840000	0.000423618	0.009023479
28	0.107840000	-0.000302163	0.008979830
29	0.107840000	-0.001168466	0.008818305
30	0.107840000	-0.002154903	0.008518866
31	0.107840000	-0.003241677	0.008071279
32	0.107840000	-0.004415271	0.007480613
33	0.107840000	-0.005673802	0.006769217
34	0.107840000	-0.007019414	0.005960350
35	0.107840000	-0.008445615	0.005060552
36	0.107840000	-0.009945111	0.004075622
37	0.107840000	-0.011510503	0.003011893
38	0.107840000	-0.013134435	0.001876403
39	0.107840000	-0.014809356	0.000676510
40	0.107840000	-0.016527567	-0.000580109
41	0.107840000	-0.018277455	-0.001891584
42	0.107840000	-0.020052094	-0.003247872
43	0.107840000	-0.021837332	-0.004650197
44	0.107840000	-0.023616332	-0.006103731
45	0.107840000	-0.025371309	-0.007628104
1	0.111560000	-0.024996544	-0.006900110
2	0.111560000	-0.022966577	-0.006035109
3	0.111560000	-0.020980569	-0.005115196
4	0.111560000	-0.019035703	-0.004167241
5	0.111560000	-0.017134918	-0.003208047
6	0.111560000	-0.015283067	-0.002250850
7	0.111560000	-0.013491714	-0.001297180
8	0.111560000	-0.011767166	-0.000356851
9	0.111560000	-0.010119133	0.000566559
10	0.111560000	-0.008556902	0.001469341
11	0.111560000	-0.007089402	0.002347827
12	0.111560000	-0.005724967	0.003198054
13	0.111560000	-0.004471271	0.004015725
14	0.111560000	-0.003334932	0.004795699
15	0.111560000	-0.002313709	0.005521330
16	0.111560000	-0.001400697	0.006171513
17	0.111560000	-0.000596825	0.006737682
18	0.111560000	0.000090236	0.007221994
19	0.111560000	0.000647557	0.007634933
20	0.111560000	0.001056547	0.007991872
21	0.111560000	0.001283337	0.008306362
22	0.111560000	0.001301358	0.008535806
23	0.111560000	0.001269480	0.008607206
24	0.111560000	0.001221598	0.008670569
25	0.111560000	0.001028076	0.008807227
26	0.111560000	0.000651491	0.008925355
27	0.111560000	0.000103548	0.008979149
28	0.111560000	-0.000598935	0.008943379
29	0.111560000	-0.001438394	0.008794790
30	0.111560000	-0.002395279	0.008513821
31	0.111560000	-0.003450528	0.008090411
32	0.111560000	-0.004591033	0.007529375
33	0.111560000	-0.005814790	0.006852339
34	0.111560000	-0.007123657	0.006081796
35	0.111560000	-0.008511284	0.005223997
36	0.111560000	-0.009970573	0.004284502
37	0.111560000	-0.011494305	0.003269359
38	0.111560000	-0.013075300	0.002185316
39	0.111560000	-0.014706192	0.001039421
40	0.111560000	-0.016379461	-0.000160964
41	0.111560000	-0.018083864	-0.001414130
42	0.111560000	-0.019812606	-0.002710427
43	0.111560000	-0.021552015	-0.004051157
44	0.111560000	-0.023285852	-0.005441465
45	0.111560000	-0.024996544	-0.006900110
1	0.115280000	-0.024697199	-0.006237180
2	0.115280000	-0.022719637	-0.005414841
3	0.115280000	-0.020784251	-0.004538871
4	0.115280000	-0.018888536	-0.003635375
5	0.115280000	-0.017035486	-0.002720638
6	0.115280000	-0.015229928	-0.001807458
7	0.115280000	-0.013483104	-0.000897211
8	0.115280000	-0.011801214	0.000000622
9	0.115280000	-0.010193717	0.000882666
10	0.115280000	-0.008669663	0.001745404
11	0.115280000	-0.007237748	0.002585355
12	0.115280000	-0.005906101	0.003398754
13	0.115280000	-0.004682208	0.004181501
14	0.115280000	-0.003572543	0.004928676
15	0.115280000	-0.002575106	0.005624141
16	0.115280000	-0.001683361	0.006247335
17	0.115280000	-0.000898267	0.006789922
18	0.115280000	-0.000227240	0.007254053
19	0.115280000	0.000317257	0.007650017
20	0.115280000	0.000717316	0.007992897
21	0.115280000	0.000940173	0.008296157
22	0.115280000	0.000959730	0.008518690
23	0.115280000	0.000929439	0.008588285
24	0.115280000	0.000883545	0.008650225
25	0.115280000	0.000696954	0.008784629
26	0.115280000	0.000332493	0.008902660
27	0.115280000	-0.000198874	0.008959717
28	0.115280000	-0.000881030	0.008931135
29	0.115280000	-0.001697111	0.008794166
30	0.115280000	-0.002628294	0.008529656
31	0.115280000	-0.003656158	0.008127696
32	0.115280000	-0.004767951	0.007592885
33	0.115280000	-0.005961569	0.006946245
34	0.115280000	-0.007238606	0.006209586
35	0.115280000	-0.008592832	0.005388901
36	0.115280000	-0.010017319	0.004489539
37	0.115280000	-0.011505001	0.003517300
38	0.115280000	-0.013048855	0.002478674
39	0.115280000	-0.014641669	0.001380440
40	0.115280000	-0.016276082	0.000229678
41	0.115280000	-0.017941165	-0.000972049
42	0.115280000	-0.019630241	-0.002215435
43	0.115280000	-0.021330050	-0.003501859
44	0.115280000	-0.023024873	-0.004836456
45	0.115280000	-0.024697199	-0.006237180
1	0.119000000	-0.024500102	-0.005643520
2	0.119000000	-0.022564344	-0.004857453
3	0.119000000	-0.020669299	-0.004018715
4	0.119000000	-0.018812719	-0.003152825
5	0.119000000	-0.016997650	-0.002275656
6	0.119000000	-0.015228903	-0.001399656
7	0.119000000	-0.013517458	-0.000526065
8	0.119000000	-0.011869432	0.000335905
9	0.119000000	-0.010294088	0.001183051
10	0.119000000	-0.008800281	0.002012022
11	0.119000000	-0.007396526	0.002819500
12	0.119000000	-0.006090786	0.003601887
13	0.119000000	-0.004890402	0.004355252
14	0.119000000	-0.003801738	0.005074863
15	0.119000000	-0.002823013	0.005745018
16	0.119000000	-0.001948007	0.006345579
17	0.119000000	-0.001177696	0.006868385
18	0.119000000	-0.000519289	0.007315580
19	0.119000000	0.000015143	0.007697306
20	0.119000000	0.000408259	0.008028427
21	0.119000000	0.000628212	0.008322367
22	0.119000000	0.000649237	0.008539276
23	0.119000000	0.000620321	0.008607437
24	0.119000000	0.000576112	0.008668275
25	0.119000000	0.000395287	0.008801048
26	0.119000000	0.000040774	0.008919348
27	0.119000000	-0.000477097	0.008979530
28	0.119000000	-0.001142792	0.008957361
29	0.119000000	-0.001940025	0.008830486
30	0.119000000	-0.002850574	0.008580064
31	0.119000000	-0.003856547	0.008196307
32	0.119000000	-0.004945485	0.007683654
33	0.119000000	-0.006115199	0.007062656
34	0.119000000	-0.007367042	0.006354552
35	0.119000000	-0.008694872	0.005565106
36	0.119000000	-0.010091897	0.004699497
37	0.119000000	-0.011551169	0.003763314
38	0.119000000	-0.013065787	0.002762834
39	0.119000000	-0.014628656	0.001704610
40	0.119000000	-0.016232543	0.000595489
41	0.119000000	-0.017866764	-0.000563104
42	0.119000000	-0.019524730	-0.001762143
43	0.119000000	-0.021193514	-0.003003092
44	0.119000000	-0.022857811	-0.004291111
45	0.119000000	-0.024500102	-0.005643520
1	0.122720000	-0.024434691	-0.005152582
2	0.122720000	-0.022527100	-0.004395110
3	0.122720000	-0.020659067	-0.003585646
4	0.122720000	-0.018828580	-0.002749273
5	0.122720000	-0.017038757	-0.001901557
6	0.122720000	-0.015294424	-0.001054682
7	0.122720000	-0.013606379	-0.000209771
8	0.122720000	-0.011980698	0.000624163
9	0.122720000	-0.010426510	0.001444057
10	0.122720000	-0.008952541	0.002246692
11	0.122720000	-0.007567181	0.003028878
12	0.122720000	-0.006278286	0.003787153
13	0.122720000	-0.005093098	0.004517718
14	0.122720000	-0.004017917	0.005215995
15	0.122720000	-0.003051172	0.005866623
16	0.122720000	-0.002186892	0.006449743
17	0.122720000	-0.001426071	0.006957298
18	0.122720000	-0.000775755	0.007391426
19	0.122720000	-0.000247713	0.007762173
20	0.122720000	0.000141155	0.008084269
21	0.122720000	0.000359708	0.008371177
22	0.122720000	0.000382314	0.008584072
23	0.122720000	0.000354513	0.008651290
24	0.122720000	0.000311605	0.008711438
25	0.122720000	0.000135049	0.008843352
26	0.122720000	-0.000212297	0.008962357
27	0.122720000	-0.000720596	0.009025475
28	0.122720000	-0.001374753	0.009008763
29	0.122720000	-0.002158922	0.008890121
30	0.122720000	-0.003055336	0.008650925
31	0.122720000	-0.004046505	0.008281475
32	0.122720000	-0.005120192	0.007786115
33	0.122720000	-0.006274140	0.007185086
34	0.122720000	-0.007509479	0.006499178
35	0.122720000	-0.008820112	0.005733967
36	0.122720000	-0.010199336	0.004894503
37	0.122720000	-0.011640276	0.003986212
38	0.122720000	-0.013136105	0.003015209
39	0.122720000	-0.014679802	0.001987873
40	0.122720000	-0.016264207	0.000910877
41	0.122720000	-0.017878812	-0.000214468
42	0.122720000	-0.019517072	-0.001379349
43	0.122720000	-0.021166299	-0.002585303
44	0.122720000	-0.022811495	-0.003837523
45	0.122720000	-0.024434691	-0.005152582
1	0.125571536	-0.024490650	-0.004860851
2	0.125571536	-0.022593586	-0.004120171
3	0.125571536	-0.020735411	-0.003327779
4	0.125571536	-0.018914294	-0.002508539
5	0.125571536	-0.017133432	-0.001677860
6	0.125571536	-0.015397694	-0.000847781
7	0.125571536	-0.013717800	-0.000019358
8	0.125571536	-0.012099833	0.000798504
9	0.125571536	-0.010552870	0.001602829
10	0.125571536	-0.009085589	0.002390475
11	0.125571536	-0.007706334	0.003158327
12	0.125571536	-0.006422923	0.003903006
13	0.125571536	-0.005242566	0.004620788
14	0.125571536	-0.004171550	0.005307185
15	0.125571536	-0.003208455	0.005947019
16	0.125571536	-0.002347459	0.006520520
17	0.125571536	-0.001589564	0.007019654
18	0.125571536	-0.000941731	0.007446559
19	0.125571536	-0.000415572	0.007811263
20	0.125571536	-0.000027759	0.008128480
21	0.125571536	0.000190905	0.008411782
22	0.125571536	0.000214762	0.008622870
23	0.125571536	0.000187626	0.008689747
24	0.125571536	0.000145439	0.008749707
25	0.125571536	-0.000028939	0.008881686
26	0.125571536	-0.000372897	0.009001822
27	0.125571536	-0.000876901	0.009067401
28	0.125571536	-0.001526098	0.009054565
29	0.125571536	-0.002304879	0.008941281
30	0.125571536	-0.003195715	0.008708986
31	0.125571536	-0.004181314	0.008347995
32	0.125571536	-0.005249540	0.007862608
33	0.125571536	-0.006398076	0.007272953
34	0.125571536	-0.007627894	0.006599596
35	0.125571536	-0.008932897	0.005848005
36	0.125571536	-0.010306412	0.005023161
37	0.125571536	-0.011741581	0.004130401
38	0.125571536	-0.013231595	0.003175753
39	0.125571536	-0.014769450	0.002165505
40	0.125571536	-0.016348001	0.001106235
41	0.125571536	-0.017956820	-0.000000809
42	0.125571536	-0.019589354	-0.001146929
43	0.125571536	-0.021233033	-0.002333709
44	0.125571536	-0.022873013	-0.003566376
45	0.125571536	-0.024490650	-0.004860851
1	0.128391831	-0.024641207	-0.004617713
2	0.128391831	-0.022744713	-0.003889928
3	0.128391831	-0.020886700	-0.003110353
4	0.128391831	-0.019065485	-0.002303806
5	0.128391831	-0.017284341	-0.001485643
6	0.128391831	-0.015548199	-0.000667838
7	0.128391831	-0.013867759	0.000148624
8	0.128391831	-0.012249136	0.000954889
9	0.128391831	-0.010701404	0.001748048
10	0.128391831	-0.009233240	0.002525023
11	0.128391831	-0.007852984	0.003282760
12	0.128391831	-0.006568459	0.004017940
13	0.128391831	-0.005386879	0.004726898
14	0.128391831	-0.004314553	0.005405207
15	0.128391831	-0.003350192	0.006037780
16	0.128391831	-0.002488079	0.006604823
17	0.128391831	-0.001729232	0.007098284
18	0.128391831	-0.001080571	0.007520319
19	0.128391831	-0.000553621	0.007881001
20	0.128391831	-0.000164933	0.008195120
21	0.128391831	0.000054836	0.008476412
22	0.128391831	0.000079917	0.008686821
23	0.128391831	0.000053283	0.008753705
24	0.128391831	0.000011601	0.008813795
25	0.128391831	-0.000161456	0.008946609
26	0.128391831	-0.000503767	0.009068686
27	0.128391831	-0.001006092	0.009137292
28	0.128391831	-0.001653741	0.009128490
29	0.128391831	-0.002431252	0.009020168
30	0.128391831	-0.003321223	0.008793691
31	0.128391831	-0.004306449	0.008439320
32	0.128391831	-0.005374812	0.007961330
33	0.128391831	-0.006523917	0.007379859
34	0.128391831	-0.007754597	0.006715381
35	0.128391831	-0.009060723	0.005973291
36	0.128391831	-0.010435617	0.005158532
37	0.128391831	-0.011872403	0.004276379
38	0.128391831	-0.013364256	0.003332810
39	0.128391831	-0.014904153	0.002334057
40	0.128391831	-0.016484930	0.001286641
41	0.128391831	-0.018096174	0.000191743
42	0.128391831	-0.019731300	-0.000941999
43	0.128391831	-0.021377776	-0.002116242
44	0.128391831	-0.023020821	-0.003336297
45	0.128391831	-0.024641207	-0.004617713
1	0.131149984	-0.024871766	-0.004402752
2	0.131149984	-0.022967335	-0.003683585
3	0.131149984	-0.021101253	-0.002912215
4	0.131149984	-0.019271926	-0.002113591
5	0.131149984	-0.017482690	-0.001303130
6	0.131149984	-0.015738539	-0.000492821
7	0.131149984	-0.014050208	0.000316421
8	0.131149984	-0.012423859	0.001115733
9	0.131149984	-0.010868604	0.001902258
10	0.131149984	-0.009393157	0.002672966
11	0.131149984	-0.008005896	0.003424845
12	0.131149984	-0.006714682	0.004154624
13	0.131149984	-0.005526766	0.004858672
14	0.131149984	-0.004448503	0.005532602
15	0.131149984	-0.003478711	0.006161332
16	0.131149984	-0.002611752	0.006724969
17	0.131149984	-0.001848665	0.007215415
18	0.131149984	-0.001196368	0.007634854
19	0.131149984	-0.000666357	0.007993450
20	0.131149984	-0.000275149	0.008306128
21	0.131149984	-0.000053410	0.008586835
22	0.131149984	-0.000027097	0.008797554
23	0.131149984	-0.000053381	0.008864741
24	0.131149984	-0.000094776	0.008925223
25	0.131149984	-0.000267366	0.009059413
26	0.131149984	-0.000609665	0.009183848
27	0.131149984	-0.001112664	0.009255576
28	0.131149984	-0.001761757	0.009250466
29	0.131149984	-0.002541544	0.009146233
30	0.131149984	-0.003434660	0.008924091
31	0.131149984	-0.004423901	0.008574214
32	0.131149984	-0.005497111	0.008100879
33	0.131149984	-0.006651816	0.007524326
34	0.131149984	-0.007888721	0.006865033
35	0.131149984	-0.009201644	0.006128349
36	0.131149984	-0.010583871	0.005319207
37	0.131149984	-0.012028479	0.004442846
38	0.131149984	-0.013528598	0.003505228
39	0.131149984	-0.015077156	0.002512557
40	0.131149984	-0.016666939	0.001471332
41	0.131149984	-0.018287495	0.000382659
42	0.131149984	-0.019932180	-0.000744832
43	0.131149984	-0.021588428	-0.001912898
44	0.131149984	-0.023241430	-0.003126988
45	0.131149984	-0.024871766	-0.004402752
1	0.133815776	-0.025148874	-0.004266942
2	0.133815776	-0.023230918	-0.003551122
3	0.133815776	-0.021351247	-0.002782781
4	0.133815776	-0.019508377	-0.001986987
5	0.133815776	-0.017705730	-0.001179219
6	0.133815776	-0.015948390	-0.000371493
7	0.133815776	-0.014247155	0.000435318
8	0.133815776	-0.012608259	0.001232331
9	0.133815776	-0.011040878	0.002016712
10	0.133815776	-0.009553790	0.002785459
11	0.133815776	-0.008155430	0.003535579
12	0.133815776	-0.006853718	0.004263827
13	0.133815776	-0.005655966	0.004966588
14	0.133815776	-0.004568585	0.005639490
15	0.133815776	-0.003590484	0.006267414
16	0.133815776	-0.002716100	0.006830354
17	0.133815776	-0.001946508	0.007320162
18	0.133815776	-0.001288640	0.007739043
19	0.133815776	-0.000753992	0.008097240
20	0.133815776	-0.000359068	0.008409806
21	0.133815776	-0.000134548	0.008690903
22	0.133815776	-0.000106816	0.008902646
23	0.133815776	-0.000132904	0.008970346
24	0.133815776	-0.000174265	0.009031352
25	0.133815776	-0.000347332	0.009166931
26	0.133815776	-0.000691147	0.009293212
27	0.133815776	-0.001196743	0.009367038
28	0.133815776	-0.001849518	0.009364138
29	0.133815776	-0.002634078	0.009262085
30	0.133815776	-0.003533056	0.009041989
31	0.133815776	-0.004529233	0.008693962
32	0.133815776	-0.005610412	0.008222294
33	0.133815776	-0.006774044	0.007647319
34	0.133815776	-0.008020724	0.006989553
35	0.133815776	-0.009344203	0.006254329
36	0.133815776	-0.010737719	0.005446587
37	0.133815776	-0.012194279	0.004571552
38	0.133815776	-0.013706950	0.003635190
39	0.133815776	-0.015268591	0.002643703
40	0.133815776	-0.016871919	0.001603593
41	0.133815776	-0.018506416	0.000515929
42	0.133815776	-0.020165365	-0.000610644
43	0.133815776	-0.021836140	-0.001777938
44	0.133815776	-0.023503874	-0.002991490
45	0.133815776	-0.025148874	-0.004266942
1	0.136360000	-0.025397555	-0.004286312
2	0.136360000	-0.023466462	-0.003570301
3	0.136360000	-0.021573422	-0.002801938
4	0.136360000	-0.019717146	-0.002006199
5	0.136360000	-0.017901193	-0.001198526
6	0.136360000	-0.016130766	-0.000390881
7	0.136360000	-0.014416719	0.000415863
8	0.136360000	-0.012765383	0.001212853
9	0.136360000	-0.011185996	0.001997262
10	0.136360000	-0.009687397	0.002766099
11	0.136360000	-0.008278076	0.003516372
12	0.136360000	-0.006966008	0.004244842
13	0.136360000	-0.005758557	0.004947899
14	0.136360000	-0.004662164	0.005621141
15	0.136360000	-0.003675754	0.006249312
16	0.136360000	-0.002793896	0.006812420
17	0.136360000	-0.002017764	0.007302367
18	0.136360000	-0.001354322	0.007721396
19	0.136360000	-0.000815064	0.008079801
20	0.136360000	-0.000416456	0.008392692
21	0.136360000	-0.000189104	0.008674371
22	0.136360000	-0.000159925	0.008887227
23	0.136360000	-0.000185906	0.008955441
24	0.136360000	-0.000227368	0.009016916
25	0.136360000	-0.000401354	0.009153470
26	0.136360000	-0.000747200	0.009280667
27	0.136360000	-0.001255815	0.009355296
28	0.136360000	-0.001912556	0.009353101
29	0.136360000	-0.002702038	0.009251660
30	0.136360000	-0.003606928	0.009032088
31	0.136360000	-0.004610028	0.008684468
32	0.136360000	-0.005699108	0.008213020
33	0.136360000	-0.006871491	0.007637992
34	0.136360000	-0.008127708	0.006979990
35	0.136360000	-0.009461483	0.006244398
36	0.136360000	-0.010866000	0.005436163
37	0.136360000	-0.012334203	0.004560508
38	0.136360000	-0.013859089	0.003623389
39	0.136360000	-0.015433451	0.002631018
40	0.136360000	-0.017049936	0.001589904
41	0.136360000	-0.018697990	0.000501144
42	0.136360000	-0.020370815	-0.000626610
43	0.136360000	-0.022055764	-0.001795131
44	0.136360000	-0.023737970	-0.003009903
45	0.136360000	-0.025397555	-0.004286312
1	0.138754782	-0.025483325	-0.004444735
2	0.138754782	-0.023550584	-0.003731209
3	0.138754782	-0.021655554	-0.002965724
4	0.138754782	-0.019797108	-0.002173053
5	0.138754782	-0.017978890	-0.001368538
6	0.138754782	-0.016206176	-0.000564044
7	0.138754782	-0.014489816	0.000239565
8	0.138754782	-0.012836192	0.001033499
9	0.138754782	-0.011254546	0.001814942
10	0.138754782	-0.009753722	0.002580915
11	0.138754782	-0.008342210	0.003328430
12	0.138754782	-0.007027985	0.004054249
13	0.138754782	-0.005818417	0.004754779
14	0.138754782	-0.004719902	0.005425546
15	0.138754782	-0.003731239	0.006051045
16	0.138754782	-0.002847241	0.006611572
17	0.138754782	-0.002069264	0.007099279
18	0.138754782	-0.001404307	0.007516493
19	0.138754782	-0.000863824	0.007873519
20	0.138754782	-0.000464166	0.008185400
21	0.138754782	-0.000235726	0.008466403
22	0.138754782	-0.000205717	0.008679213
23	0.138754782	-0.000231579	0.008747501
24	0.138754782	-0.000273012	0.008809015
25	0.138754782	-0.000447117	0.008945496
26	0.138754782	-0.000793154	0.009072448
27	0.138754782	-0.001301927	0.009146922
28	0.138754782	-0.001958838	0.009144914
29	0.138754782	-0.002748624	0.009044226
30	0.138754782	-0.003654112	0.008826115
31	0.138754782	-0.004658226	0.008480609
32	0.138754782	-0.005748706	0.008011655
33	0.138754782	-0.006922643	0.007439061
34	0.138754782	-0.008180582	0.006783589
35	0.138754782	-0.009516311	0.006050758
36	0.138754782	-0.010923001	0.005245494
37	0.138754782	-0.012393580	0.004372995
38	0.138754782	-0.013921010	0.003439167
39	0.138754782	-0.015498067	0.002450207
40	0.138754782	-0.017117375	0.001412596
41	0.138754782	-0.018768404	0.000327461
42	0.138754782	-0.020444329	-0.000796572
43	0.138754782	-0.022132550	-0.001961223
44	0.138754782	-0.023818275	-0.003171897
45	0.138754782	-0.025483325	-0.004444735
1	0.140973883	-0.025274888	-0.004637374
2	0.140973883	-0.023364625	-0.003935713
3	0.140973883	-0.021491560	-0.003182629
4	0.140973883	-0.019654627	-0.002402563
5	0.140973883	-0.017857431	-0.001610697
6	0.140973883	-0.016105198	-0.000818749
7	0.140973883	-0.014408660	-0.000027531
8	0.140973883	-0.012774127	0.000754274
9	0.140973883	-0.011210728	0.001523884
10	0.140973883	-0.009727198	0.002278358
11	0.140973883	-0.008331914	0.003014730
12	0.140973883	-0.007032744	0.003729784
13	0.140973883	-0.005836961	0.004419967
14	0.140973883	-0.004750789	0.005080709
15	0.140973883	-0.003772752	0.005696207
16	0.140973883	-0.002898042	0.006247445
17	0.140973883	-0.002128278	0.006727081
18	0.140973883	-0.001470453	0.007137574
19	0.140973883	-0.000935878	0.007489151
20	0.140973883	-0.000540625	0.007796585
21	0.140973883	-0.000314590	0.008073828
22	0.140973883	-0.000284761	0.008283995
23	0.140973883	-0.000310312	0.008351443
24	0.140973883	-0.000351263	0.008412167
25	0.140973883	-0.000523317	0.008546787
26	0.140973883	-0.000865127	0.008671920
27	0.140973883	-0.001367567	0.008745389
28	0.140973883	-0.002016288	0.008743764
29	0.140973883	-0.002796359	0.008645377
30	0.140973883	-0.003690998	0.008431834
31	0.140973883	-0.004683438	0.008093123
32	0.140973883	-0.005761457	0.007632698
33	0.140973883	-0.006921828	0.007069473
34	0.140973883	-0.008165177	0.006424303
35	0.140973883	-0.009485492	0.005702900
36	0.140973883	-0.010876016	0.004910106
37	0.140973883	-0.012329754	0.004051038
38	0.140973883	-0.013839721	0.003131473
39	0.140973883	-0.015398773	0.002157522
40	0.140973883	-0.016999609	0.001135564
41	0.140973883	-0.018631832	0.000066697
42	0.140973883	-0.020288700	-0.001040549
43	0.140973883	-0.021957777	-0.002187894
44	0.140973883	-0.023624468	-0.003380702
45	0.140973883	-0.025274888	-0.004637374
1	0.142992991	-0.024692158	-0.004759068
2	0.142992991	-0.022839000	-0.004081466
3	0.142992991	-0.021021715	-0.003354168
4	0.142992991	-0.019239426	-0.002600640
5	0.142992991	-0.017495666	-0.001835563
6	0.142992991	-0.015795547	-0.001070241
7	0.142992991	-0.014149477	-0.000305443
8	0.142992991	-0.012563604	0.000450448
9	0.142992991	-0.011046778	0.001194731
10	0.142992991	-0.009607469	0.001924546
11	0.142992991	-0.008253785	0.002636991
12	0.142992991	-0.006993342	0.003328919
13	0.142992991	-0.005833184	0.003996866
14	0.142992991	-0.004779208	0.004636175
15	0.142992991	-0.003829596	0.005230886
16	0.142992991	-0.002980056	0.005763108
17	0.142992991	-0.002232488	0.006226229
18	0.142992991	-0.001593787	0.006622842
19	0.142992991	-0.001074939	0.006962933
20	0.142992991	-0.000691487	0.007260739
21	0.142992991	-0.000472409	0.007529606
22	0.142992991	-0.000443925	0.007733427
23	0.142992991	-0.000468873	0.007798756
24	0.142992991	-0.000508722	0.007857514
25	0.142992991	-0.000675758	0.007987685
26	0.142992991	-0.001007218	0.008108638
27	0.142992991	-0.001494268	0.008179770
28	0.142992991	-0.002123102	0.008178678
29	0.142992991	-0.002879424	0.008084644
30	0.142992991	-0.003747170	0.007879917
31	0.142992991	-0.004710166	0.007554514
32	0.142992991	-0.005756378	0.007111162
33	0.142992991	-0.006882201	0.006567364
34	0.142992991	-0.008088377	0.005943827
35	0.142992991	-0.009369254	0.005246480
36	0.142992991	-0.010718263	0.004479984
37	0.142992991	-0.012128613	0.003649288
38	0.142992991	-0.013593492	0.002759930
39	0.142992991	-0.015105970	0.001817834
40	0.142992991	-0.016658953	0.000829166
41	0.142992991	-0.018242390	-0.000204978
42	0.142992991	-0.019849745	-0.001276319
43	0.142992991	-0.021469002	-0.002386479
44	0.142992991	-0.023086077	-0.003540588
45	0.142992991	-0.024692158	-0.004759068
1	0.144789984	-0.023690404	-0.004739261
2	0.144789984	-0.021935653	-0.004098330
3	0.144789984	-0.020214181	-0.003411458
4	0.144789984	-0.018525564	-0.002700145
5	0.144789984	-0.016873320	-0.001978001
6	0.144789984	-0.015262428	-0.001255491
7	0.144789984	-0.013702711	-0.000533395
8	0.144789984	-0.012200093	0.000180518
9	0.144789984	-0.010762948	0.000883676
10	0.144789984	-0.009399292	0.001573356
11	0.144789984	-0.008116789	0.002246775
12	0.144789984	-0.006922634	0.002900913
13	0.144789984	-0.005823487	0.003532470
14	0.144789984	-0.004824749	0.004136732
15	0.144789984	-0.003924262	0.004697872
16	0.144789984	-0.003118386	0.005199593
17	0.144789984	-0.002409282	0.005636198
18	0.144789984	-0.001803619	0.006010392
19	0.144789984	-0.001311835	0.006331724
20	0.144789984	-0.000948635	0.006613599
21	0.144789984	-0.000741532	0.006868455
22	0.144789984	-0.000715433	0.007061557
23	0.144789984	-0.000739375	0.007123299
24	0.144789984	-0.000777334	0.007178769
25	0.144789984	-0.000935807	0.007301590
26	0.144789984	-0.001249744	0.007415750
27	0.144789984	-0.001710856	0.007483068
28	0.144789984	-0.002306195	0.007482650
29	0.144789984	-0.003022420	0.007395165
30	0.144789984	-0.003844527	0.007203856
31	0.144789984	-0.004757269	0.006898916
32	0.144789984	-0.005749010	0.006482203
33	0.144789984	-0.006815785	0.005969323
34	0.144789984	-0.007958424	0.005380413
35	0.144789984	-0.009171811	0.004721601
36	0.144789984	-0.010449696	0.003997260
37	0.144789984	-0.011785644	0.003212075
38	0.144789984	-0.013173164	0.002371231
39	0.144789984	-0.014605693	0.001480344
40	0.144789984	-0.016076508	0.000545246
41	0.144789984	-0.017576192	-0.000432850
42	0.144789984	-0.019098538	-0.001446137
43	0.144789984	-0.020632316	-0.002495906
44	0.144789984	-0.022164396	-0.003586671
45	0.144789984	-0.023690404	-0.004739261
1	0.146345173	-0.022312943	-0.004559085
2	0.146345173	-0.020693162	-0.003967530
3	0.146345173	-0.019103552	-0.003334505
4	0.146345173	-0.017544095	-0.002679169
5	0.146345173	-0.016018151	-0.002013899
6	0.146345173	-0.014530404	-0.001348195
7	0.146345173	-0.013089910	-0.000682800
8	0.146345173	-0.011702205	-0.000024768
9	0.146345173	-0.010375016	0.000623513
10	0.146345173	-0.009115742	0.001259519
11	0.146345173	-0.007931445	0.001880645
12	0.146345173	-0.006828752	0.002484073
13	0.146345173	-0.005813803	0.003066735
14	0.146345173	-0.004891374	0.003623926
15	0.146345173	-0.004059063	0.004140381
16	0.146345173	-0.003313932	0.004601713
17	0.146345173	-0.002658321	0.005003203
18	0.146345173	-0.002098524	0.005347598
19	0.146345173	-0.001644220	0.005643798
20	0.146345173	-0.001308993	0.005904111
21	0.146345173	-0.001118370	0.006139819
22	0.146345173	-0.001095373	0.006318209
23	0.146345173	-0.001117869	0.006375048
24	0.146345173	-0.001153180	0.006426053
25	0.146345173	-0.001299809	0.006538943
26	0.146345173	-0.001589701	0.006643904
27	0.146345173	-0.002015286	0.006705951
28	0.146345173	-0.002564739	0.006706085
29	0.146345173	-0.003225927	0.006626735
30	0.146345173	-0.003985195	0.006452467
31	0.146345173	-0.004828521	0.006173878
32	0.146345173	-0.005744930	0.005791972
33	0.146345173	-0.006730222	0.005320208
34	0.146345173	-0.007785249	0.004777612
35	0.146345173	-0.008905555	0.004170427
36	0.146345173	-0.010085340	0.003502645
37	0.146345173	-0.011318661	0.002778596
38	0.146345173	-0.012599491	0.002003018
39	0.146345173	-0.013921773	0.001181100
40	0.146345173	-0.015279298	0.000318231
41	0.146345173	-0.016663454	-0.000584334
42	0.146345173	-0.018068509	-0.001519395
43	0.146345173	-0.019484213	-0.002487955
44	0.146345173	-0.020898595	-0.003493928
45	0.146345173	-0.022312943	-0.004559085
1	0.147641520	-0.020742247	-0.004260639
2	0.147641520	-0.019274299	-0.003730105
3	0.147641520	-0.017834685	-0.003160077
4	0.147641520	-0.016423098	-0.002568439
5	0.147641520	-0.015042208	-0.001967089
6	0.147641520	-0.013696005	-0.001365095
7	0.147641520	-0.012392779	-0.000762944
8	0.147641520	-0.011137361	-0.000167358
9	0.147641520	-0.009936740	0.000419489
10	0.147641520	-0.008797608	0.000995306
11	0.147641520	-0.007726339	0.001557699
12	0.147641520	-0.006728920	0.002104096
13	0.147641520	-0.005810896	0.002631697
14	0.147641520	-0.004976372	0.003135894
15	0.147641520	-0.004222852	0.003602373
16	0.147641520	-0.003548039	0.004018704
17	0.147641520	-0.002954332	0.004381065
18	0.147641520	-0.002447546	0.004692152
19	0.147641520	-0.002036476	0.004960079
20	0.147641520	-0.001733436	0.005195917
21	0.147641520	-0.001561649	0.005409687
22	0.147641520	-0.001541928	0.005571201
23	0.147641520	-0.001562636	0.005622486
24	0.147641520	-0.001594818	0.005668437
25	0.147641520	-0.001727747	0.005770108
26	0.147641520	-0.001990018	0.005864701
27	0.147641520	-0.002374878	0.005920791
28	0.147641520	-0.002871748	0.005921438
29	0.147641520	-0.003469813	0.005850980
30	0.147641520	-0.004156894	0.005695494
31	0.147641520	-0.004920362	0.005446186
32	0.147641520	-0.005750105	0.005103362
33	0.147641520	-0.006641870	0.004678391
34	0.147641520	-0.007596451	0.004188763
35	0.147641520	-0.008610075	0.003640699
36	0.147641520	-0.009677473	0.003037774
37	0.147641520	-0.010793270	0.002383912
38	0.147641520	-0.011951995	0.001683367
39	0.147641520	-0.013148165	0.000940836
40	0.147641520	-0.014376172	0.000161204
41	0.147641520	-0.015628075	-0.000654687
42	0.147641520	-0.016898784	-0.001500153
43	0.147641520	-0.018178809	-0.002376533
44	0.147641520	-0.019456992	-0.003288018
45	0.147641520	-0.020742247	-0.004260639
1	0.148664822	-0.019232568	-0.003925225
2	0.148664822	-0.017909166	-0.003458818
3	0.148664822	-0.016613856	-0.002951974
4	0.148664822	-0.015345364	-0.002422624
5	0.148664822	-0.014105260	-0.001883012
6	0.148664822	-0.012896543	-0.001342375
7	0.148664822	-0.011726866	-0.000800758
8	0.148664822	-0.010600150	-0.000264986
9	0.148664822	-0.009522667	0.000262977
10	0.148664822	-0.008500424	0.000781063
11	0.148664822	-0.007539133	0.001287094
12	0.148664822	-0.006644161	0.001778737
13	0.148664822	-0.005820474	0.002253455
14	0.148664822	-0.005071575	0.002706809
15	0.148664822	-0.004394995	0.003125613
16	0.148664822	-0.003788935	0.003499150
17	0.148664822	-0.003255748	0.003824311
18	0.148664822	-0.002800744	0.004103662
19	0.148664822	-0.002431849	0.004344515
20	0.148664822	-0.002160138	0.004556746
21	0.148664822	-0.002006548	0.004749182
22	0.148664822	-0.001989733	0.004894295
23	0.148664822	-0.002008551	0.004940263
24	0.148664822	-0.002037626	0.004981353
25	0.148664822	-0.002157166	0.005072242
26	0.148664822	-0.002392586	0.005156872
27	0.148664822	-0.002737902	0.005207246
28	0.148664822	-0.003183725	0.005208365
29	0.148664822	-0.003720489	0.005146366
30	0.148664822	-0.004337415	0.005008795
31	0.148664822	-0.005023236	0.004787552
32	0.148664822	-0.005768753	0.004482452
33	0.148664822	-0.006569810	0.004103082
34	0.148664822	-0.007427093	0.003665286
35	0.148664822	-0.008337430	0.003175125
36	0.148664822	-0.009296076	0.002635775
37	0.148664822	-0.010298206	0.002050764
38	0.148664822	-0.011338891	0.001423877
39	0.148664822	-0.012413204	0.000759321
40	0.148664822	-0.013516111	0.000061483
41	0.148664822	-0.014640103	-0.000669602
42	0.148664822	-0.015780785	-0.001427614
43	0.148664822	-0.016929090	-0.002214799
44	0.148664822	-0.018074200	-0.003036442
45	0.148664822	-0.019232568	-0.003925225
1	0.149403867	-0.018000097	-0.003630299
2	0.149403867	-0.016795038	-0.003217794
3	0.149403867	-0.015618222	-0.002763436
4	0.149403867	-0.014467387	-0.002285546
5	0.149403867	-0.013343123	-0.001796787
6	0.149403867	-0.012247557	-0.001306642
7	0.149403867	-0.011187833	-0.000814767
8	0.149403867	-0.010167081	-0.000328142
9	0.149403867	-0.009190984	0.000151437
10	0.149403867	-0.008264986	0.000622088
11	0.149403867	-0.007394254	0.001081812
12	0.149403867	-0.006583645	0.001528474
13	0.149403867	-0.005837651	0.001959753
14	0.149403867	-0.005159310	0.002371401
15	0.149403867	-0.004546238	0.002751266
16	0.149403867	-0.003996976	0.003089928
17	0.149403867	-0.003513783	0.003384774
18	0.149403867	-0.003101530	0.003638222
19	0.149403867	-0.002767422	0.003856908
20	0.149403867	-0.002521511	0.004049728
21	0.149403867	-0.002382834	0.004224558
22	0.149403867	-0.002368236	0.004356153
23	0.149403867	-0.002385500	0.004397704
24	0.149403867	-0.002411971	0.004434829
25	0.149403867	-0.002520438	0.004516928
26	0.149403867	-0.002733745	0.004593443
27	0.149403867	-0.003046529	0.004639169
28	0.149403867	-0.003450368	0.004640668
29	0.149403867	-0.003936700	0.004585520
30	0.149403867	-0.004495877	0.004462475
31	0.149403867	-0.005117748	0.004264057
32	0.149403867	-0.005793906	0.003989787
33	0.149403867	-0.006520359	0.003647924
34	0.149403867	-0.007297681	0.003252882
35	0.149403867	-0.008123153	0.002810497
36	0.149403867	-0.008992459	0.002323624
37	0.149403867	-0.009901228	0.001795453
38	0.149403867	-0.010844976	0.001229388
39	0.149403867	-0.011819228	0.000629225
40	0.149403867	-0.012819417	-0.000001070
41	0.149403867	-0.013838348	-0.000662196
42	0.149403867	-0.014872201	-0.001348122
43	0.149403867	-0.015912198	-0.002061943
44	0.149403867	-0.016947718	-0.002809984
45	0.149403867	-0.018000097	-0.003630299
1	0.150000000	-0.016921212	-0.003362494
2	0.150000000	-0.015821149	-0.002995809
3	0.150000000	-0.014749004	-0.002586886
4	0.150000000	-0.013701821	-0.002154059
5	0.150000000	-0.012679472	-0.001710086
6	0.150000000	-0.011683422	-0.001264467
7	0.150000000	-0.010720327	-0.000816587
8	0.150000000	-0.009792698	-0.000373426
9	0.150000000	-0.008905699	0.000063374
10	0.150000000	-0.008064278	0.000492093
11	0.150000000	-0.007273123	0.000910890
12	0.150000000	-0.006536645	0.001317809
13	0.150000000	-0.005858921	0.001710719
14	0.150000000	-0.005242601	0.002085581
15	0.150000000	-0.004685419	0.002431212
16	0.150000000	-0.004186170	0.002739258
17	0.150000000	-0.003746996	0.003007488
18	0.150000000	-0.003372368	0.003238166
19	0.150000000	-0.003068850	0.003437326
20	0.150000000	-0.002845594	0.003613011
21	0.150000000	-0.002719944	0.003772279
22	0.150000000	-0.002707155	0.003891965
23	0.150000000	-0.002722986	0.003929687
24	0.150000000	-0.002747138	0.003963353
25	0.150000000	-0.002845833	0.004037785
26	0.150000000	-0.003039698	0.004107216
27	0.150000000	-0.003323906	0.004148866
28	0.150000000	-0.003690865	0.004150635
29	0.150000000	-0.004132877	0.004101340
30	0.150000000	-0.004641263	0.003990787
31	0.150000000	-0.005206847	0.003812080
32	0.150000000	-0.005821936	0.003564548
33	0.150000000	-0.006482736	0.003255383
34	0.150000000	-0.007189719	0.002897703
35	0.150000000	-0.007940529	0.002497076
36	0.150000000	-0.008731233	0.002056077
37	0.150000000	-0.009557852	0.001577596
38	0.150000000	-0.010416295	0.001064707
39	0.150000000	-0.011302485	0.000520837
40	0.150000000	-0.012212260	-0.000050418
41	0.150000000	-0.013138771	-0.000650271
42	0.150000000	-0.014078668	-0.001273011
43	0.150000000	-0.015023525	-0.001922282
44	0.150000000	-0.015963043	-0.002605047
45	0.150000000	-0.016921212	-0.003362494
