######## Panel parameters ########
n_blades=5

n_span_all= 22
n_points=21
######## End of parameters ########
1	0.026000000	-0.012872654	-0.020130323
2	0.026000000	-0.009503149	-0.015802872
3	0.026000000	-0.005861832	-0.011885982
4	0.026000000	-0.002411305	-0.008167101
5	0.026000000	0.000561184	-0.004552536
6	0.026000000	0.002744566	-0.000998463
7	0.026000000	0.004042293	0.002317277
8	0.026000000	0.004503215	0.005142552
9	0.026000000	0.004195314	0.007203887
10	0.026000000	0.003432925	0.008219681
11	0.026000000	0.003076649	0.008460927
12	0.026000000	0.002676999	0.008639193
13	0.026000000	0.001392467	0.008817690
14	0.026000000	-0.000639848	0.008211449
15	0.026000000	-0.003008120	0.006520412
16	0.026000000	-0.005368126	0.003774865
17	0.026000000	-0.007471374	0.000090687
18	0.026000000	-0.009199649	-0.004343918
19	0.026000000	-0.010608423	-0.009307485
20	0.026000000	-0.011868247	-0.014600947
21	0.026000000	-0.012872654	-0.020130323
1	0.032908571	-0.016243567	-0.019504370
2	0.032908571	-0.012364026	-0.015408537
3	0.032908571	-0.008456190	-0.011546943
4	0.032908571	-0.004857457	-0.007773700
5	0.032908571	-0.001701909	-0.004141571
6	0.032908571	0.000835989	-0.000682127
7	0.032908571	0.002744682	0.002445704
8	0.032908571	0.003969357	0.005125186
9	0.032908571	0.004416276	0.007229052
10	0.032908571	0.004107840	0.008490765
11	0.032908571	0.003803902	0.008809073
12	0.032908571	0.003391582	0.008997042
13	0.032908571	0.002045052	0.009010172
14	0.032908571	-0.000058578	0.008314354
15	0.032908571	-0.002636779	0.006724397
16	0.032908571	-0.005399430	0.004164549
17	0.032908571	-0.008070960	0.000654021
18	0.032908571	-0.010400679	-0.003709787
19	0.032908571	-0.012387488	-0.008693223
20	0.032908571	-0.014362969	-0.013992227
21	0.032908571	-0.016243567	-0.019504370
1	0.039817143	-0.019352170	-0.019486845
2	0.039817143	-0.015040431	-0.015330652
3	0.039817143	-0.010833136	-0.011293301
4	0.039817143	-0.006908161	-0.007388454
5	0.039817143	-0.003439657	-0.003637441
6	0.039817143	-0.000507751	-0.000149517
7	0.039817143	0.001857047	0.002941343
8	0.039817143	0.003627303	0.005523122
9	0.039817143	0.004649112	0.007570902
10	0.039817143	0.004756920	0.008939895
11	0.039817143	0.004498372	0.009326285
12	0.039817143	0.004064945	0.009526710
13	0.039817143	0.002644095	0.009479922
14	0.039817143	0.000462282	0.008629334
15	0.039817143	-0.002183573	0.006824613
16	0.039817143	-0.005123021	0.004134168
17	0.039817143	-0.008187286	0.000617181
18	0.039817143	-0.011107412	-0.003722648
19	0.039817143	-0.013768774	-0.008729467
20	0.039817143	-0.016597918	-0.013992338
21	0.039817143	-0.019352170	-0.019486845
1	0.046725714	-0.022186687	-0.019475220
2	0.046725714	-0.017389940	-0.015305857
3	0.046725714	-0.012819025	-0.011139282
4	0.046725714	-0.008555650	-0.007099642
5	0.046725714	-0.004741667	-0.003248912
6	0.046725714	-0.001456580	0.000297044
7	0.046725714	0.001236305	0.003426397
8	0.046725714	0.003335662	0.006000337
9	0.046725714	0.004751168	0.007977159
10	0.046725714	0.005263833	0.009348966
11	0.046725714	0.005080500	0.009798946
12	0.046725714	0.004622725	0.010002842
13	0.046725714	0.003130585	0.009868385
14	0.046725714	0.000879093	0.008857172
15	0.046725714	-0.001823873	0.006834543
16	0.046725714	-0.004884065	0.003956633
17	0.046725714	-0.008226984	0.000349477
18	0.046725714	-0.011669447	-0.003959125
19	0.046725714	-0.015079154	-0.008867185
20	0.046725714	-0.018681064	-0.014030895
21	0.046725714	-0.022186687	-0.019475220
1	0.053634286	-0.024309909	-0.018852741
2	0.053634286	-0.019115159	-0.014823123
3	0.053634286	-0.014222613	-0.010704753
4	0.053634286	-0.009673563	-0.006681414
5	0.053634286	-0.005570270	-0.002863829
6	0.053634286	-0.002021449	0.000655819
7	0.053634286	0.000881270	0.003785746
8	0.053634286	0.003152845	0.006361889
9	0.053634286	0.004795739	0.008266602
10	0.053634286	0.005590155	0.009566472
11	0.053634286	0.005483826	0.010047998
12	0.053634286	0.005013660	0.010258458
13	0.053634286	0.003475069	0.010100842
14	0.053634286	0.001145160	0.009073345
15	0.053634286	-0.001660854	0.007011481
16	0.053634286	-0.004842008	0.004069319
17	0.053634286	-0.008390723	0.000443107
18	0.053634286	-0.012205979	-0.003777412
19	0.053634286	-0.016196882	-0.008476213
20	0.053634286	-0.020303235	-0.013506352
21	0.053634286	-0.024309909	-0.018852741
1	0.060542857	-0.025796621	-0.017605426
2	0.060542857	-0.020345430	-0.013803953
3	0.060542857	-0.015206573	-0.009882851
4	0.060542857	-0.010425742	-0.006032866
5	0.060542857	-0.006100524	-0.002374507
6	0.060542857	-0.002352875	0.001013316
7	0.060542857	0.000714448	0.004047635
8	0.060542857	0.003115219	0.006555233
9	0.060542857	0.004875693	0.008389701
10	0.060542857	0.005778474	0.009639287
11	0.060542857	0.005707591	0.010130193
12	0.060542857	0.005241251	0.010360814
13	0.060542857	0.003680792	0.010262889
14	0.060542857	0.001280476	0.009334625
15	0.060542857	-0.001647961	0.007383725
16	0.060542857	-0.004984078	0.004547354
17	0.060542857	-0.008724700	0.001040311
18	0.060542857	-0.012785494	-0.003030156
19	0.060542857	-0.017079254	-0.007544420
20	0.060542857	-0.021480391	-0.012411683
21	0.060542857	-0.025796621	-0.017605426
1	0.067451429	-0.027102054	-0.016175696
2	0.067451429	-0.021465953	-0.012625295
3	0.067451429	-0.016137259	-0.008940106
4	0.067451429	-0.011170526	-0.005309130
5	0.067451429	-0.006669062	-0.001848520
6	0.067451429	-0.002758657	0.001368402
7	0.067451429	0.000453927	0.004263340
8	0.067451429	0.002974468	0.006662128
9	0.067451429	0.004822480	0.008416888
10	0.067451429	0.005784284	0.009626134
11	0.067451429	0.005735254	0.010120747
12	0.067451429	0.005278618	0.010372454
13	0.067451429	0.003711884	0.010346101
14	0.067451429	0.001265652	0.009528846
15	0.067451429	-0.001757382	0.007713220
16	0.067451429	-0.005229507	0.005029595
17	0.067451429	-0.009137776	0.001693334
18	0.067451429	-0.013392901	-0.002191960
19	0.067451429	-0.017902132	-0.006510466
20	0.067451429	-0.022535682	-0.011176997
21	0.067451429	-0.027102054	-0.016175696
1	0.074360000	-0.027524060	-0.014281491
2	0.074360000	-0.021880120	-0.011054914
3	0.074360000	-0.016530105	-0.007684306
4	0.074360000	-0.011535313	-0.004351399
5	0.074360000	-0.007001452	-0.001164978
6	0.074360000	-0.003054269	0.001808725
7	0.074360000	0.000198938	0.004497699
8	0.074360000	0.002757016	0.006731309
9	0.074360000	0.004632298	0.008365161
10	0.074360000	0.005620193	0.009504462
11	0.074360000	0.005592352	0.009988741
12	0.074360000	0.005157433	0.010252925
13	0.074360000	0.003628761	0.010292604
14	0.074360000	0.001209433	0.009598418
15	0.074360000	-0.001814091	0.007954960
16	0.074360000	-0.005311255	0.005483177
17	0.074360000	-0.009260721	0.002393069
18	0.074360000	-0.013571254	-0.001217873
19	0.074360000	-0.018147695	-0.005240485
20	0.074360000	-0.022860130	-0.009596914
21	0.074360000	-0.027524060	-0.014281491
1	0.081268571	-0.027540740	-0.012255995
2	0.081268571	-0.021981328	-0.009372071
3	0.081268571	-0.016699040	-0.006338143
4	0.081268571	-0.011760129	-0.003326571
5	0.081268571	-0.007270685	-0.000437817
6	0.081268571	-0.003354375	0.002269344
7	0.081268571	-0.000117301	0.004729789
8	0.081268571	0.002432886	0.006779102
9	0.081268571	0.004302199	0.008278035
10	0.081268571	0.005297723	0.009335975
11	0.081268571	0.005289545	0.009803175
12	0.081268571	0.004881111	0.010074281
13	0.081268571	0.003411274	0.010172370
14	0.081268571	0.001055281	0.009599565
15	0.081268571	-0.001919704	0.008136990
16	0.081268571	-0.005382909	0.005895302
17	0.081268571	-0.009305667	0.003076113
18	0.081268571	-0.013596410	-0.000230207
19	0.081268571	-0.018159309	-0.003922262
20	0.081268571	-0.022866361	-0.007930101
21	0.081268571	-0.027540740	-0.012255995
1	0.088177143	-0.027237649	-0.010193579
2	0.088177143	-0.021834905	-0.007652937
3	0.088177143	-0.016690427	-0.004959335
4	0.088177143	-0.011873807	-0.002274364
5	0.088177143	-0.007489891	0.000310324
6	0.088177143	-0.003658699	0.002743396
7	0.088177143	-0.000483714	0.004966748
8	0.088177143	0.002021874	0.006823757
9	0.088177143	0.003858333	0.008181939
10	0.088177143	0.004845762	0.009152839
11	0.088177143	0.004854928	0.009598174
12	0.088177143	0.004475846	0.009871472
13	0.088177143	0.003079421	0.010019662
14	0.088177143	0.000813838	0.009562202
15	0.088177143	-0.002074617	0.008280346
16	0.088177143	-0.005456846	0.006273925
17	0.088177143	-0.009298149	0.003734272
18	0.088177143	-0.013507985	0.000744165
19	0.088177143	-0.017991334	-0.002603327
20	0.088177143	-0.022623749	-0.006246218
21	0.088177143	-0.027237649	-0.010193579
1	0.095085714	-0.026596595	-0.008121965
2	0.095085714	-0.021419240	-0.005918355
3	0.095085714	-0.016479555	-0.003561998
4	0.095085714	-0.011848848	-0.001202466
5	0.095085714	-0.007629141	0.001077725
6	0.095085714	-0.003935308	0.003234516
7	0.095085714	-0.000866863	0.005216844
8	0.095085714	0.001558375	0.006877503
9	0.095085714	0.003335817	0.008091972
10	0.095085714	0.004299827	0.008971751
11	0.095085714	0.004323891	0.009390862
12	0.095085714	0.003976435	0.009661551
13	0.095085714	0.002666486	0.009850350
14	0.095085714	0.000516581	0.009499528
15	0.095085714	-0.002249029	0.008394201
16	0.095085714	-0.005504997	0.006623423
17	0.095085714	-0.009211959	0.004366391
18	0.095085714	-0.013281757	0.001697944
19	0.095085714	-0.017621642	-0.001297572
20	0.095085714	-0.022112293	-0.004566048
21	0.095085714	-0.026596595	-0.008121965
1	0.101994286	-0.025825063	-0.006155050
2	0.101994286	-0.020900034	-0.004263435
3	0.101994286	-0.016192426	-0.002221073
4	0.101994286	-0.011774114	-0.000165620
5	0.101994286	-0.007743499	0.001829121
6	0.101994286	-0.004209735	0.003725810
7	0.101994286	-0.001267813	0.005480013
8	0.101994286	0.001060632	0.006954378
9	0.101994286	0.002767043	0.008032484
10	0.101994286	0.003699893	0.008824463
11	0.101994286	0.003736455	0.009216385
12	0.101994286	0.003420023	0.009481782
13	0.101994286	0.002198938	0.009703006
14	0.101994286	0.000172541	0.009446881
15	0.101994286	-0.002456211	0.008504360
16	0.101994286	-0.005566738	0.006954521
17	0.101994286	-0.009116133	0.004964050
18	0.101994286	-0.013019273	0.002600141
19	0.101994286	-0.017186417	-0.000061272
20	0.101994286	-0.021503970	-0.002973439
21	0.101994286	-0.025825063	-0.006155050
1	0.108902857	-0.025041427	-0.004348343
2	0.108902857	-0.020367999	-0.002734582
3	0.108902857	-0.015893186	-0.000973046
4	0.108902857	-0.011688777	0.000809754
5	0.108902857	-0.007849336	0.002547949
6	0.108902857	-0.004478327	0.004210177
7	0.108902857	-0.001666186	0.005757984
8	0.108902857	0.000562315	0.007063550
9	0.108902857	0.002195414	0.008018088
10	0.108902857	0.003094767	0.008729636
11	0.108902857	0.003141792	0.009095524
12	0.108902857	0.002854086	0.009354435
13	0.108902857	0.001717560	0.009601256
14	0.108902857	-0.000188711	0.009426816
15	0.108902857	-0.002681298	0.008628769
16	0.108902857	-0.005644732	0.007277451
17	0.108902857	-0.009033420	0.005527533
18	0.108902857	-0.012765456	0.003439200
19	0.108902857	-0.016754333	0.001080680
20	0.108902857	-0.020892161	-0.001507873
21	0.108902857	-0.025041427	-0.004348343
1	0.115811429	-0.024427543	-0.002766413
2	0.115811429	-0.019965908	-0.001388833
3	0.115811429	-0.015686965	0.000134015
4	0.115811429	-0.011662463	0.001685057
5	0.115811429	-0.007983748	0.003205162
6	0.115811429	-0.004749488	0.004668075
7	0.115811429	-0.002046307	0.006040476
8	0.115811429	0.000098243	0.007202786
9	0.115811429	0.001669773	0.008052425
10	0.115811429	0.002541153	0.008695671
11	0.115811429	0.002597276	0.009039550
12	0.115811429	0.002334029	0.009293207
13	0.115811429	0.001269021	0.009562283
14	0.115811429	-0.000535956	0.009457513
15	0.115811429	-0.002913913	0.008782123
16	0.115811429	-0.005753758	0.007599416
17	0.115811429	-0.009007547	0.006053786
18	0.115811429	-0.012596061	0.004199448
19	0.115811429	-0.016435498	0.002098095
20	0.115811429	-0.020422754	-0.000215740
21	0.115811429	-0.024427543	-0.002766413
1	0.122720000	-0.024177328	-0.001437432
2	0.122720000	-0.019845302	-0.000247991
3	0.122720000	-0.015684408	0.001086303
4	0.122720000	-0.011767187	0.002455057
5	0.122720000	-0.008183269	0.003804218
6	0.122720000	-0.005028354	0.005111666
7	0.122720000	-0.002386807	0.006348195
8	0.122720000	-0.000289049	0.007400199
9	0.122720000	0.001248163	0.008169015
10	0.122720000	0.002106036	0.008760520
11	0.122720000	0.002171058	0.009089394
12	0.122720000	0.001925926	0.009341610
13	0.122720000	0.000910031	0.009633102
14	0.122720000	-0.000828948	0.009587060
15	0.122720000	-0.003136215	0.009009418
16	0.122720000	-0.005903308	0.007958658
17	0.122720000	-0.009079647	0.006571737
18	0.122720000	-0.012587382	0.004898300
19	0.122720000	-0.016344036	0.002995100
20	0.122720000	-0.020249378	0.000892134
21	0.122720000	-0.024177328	-0.001437432
1	0.128042064	-0.024389028	-0.000558858
2	0.128042064	-0.020070622	0.000500013
3	0.128042064	-0.015917405	0.001706395
4	0.128042064	-0.012004232	0.002953233
5	0.128042064	-0.008421275	0.004189577
6	0.128042064	-0.005263836	0.005396239
7	0.128042064	-0.002616236	0.006546793
8	0.128042064	-0.000511920	0.007530167
9	0.128042064	0.001030068	0.008248657
10	0.128042064	0.001895225	0.008810122
11	0.128042064	0.001968913	0.009133672
12	0.128042064	0.001733535	0.009390178
13	0.128042064	0.000736442	0.009706787
14	0.128042064	-0.000985495	0.009708725
15	0.128042064	-0.003284199	0.009199809
16	0.128042064	-0.006050947	0.008235819
17	0.128042064	-0.009231894	0.006950550
18	0.128042064	-0.012748637	0.005390935
19	0.128042064	-0.016518015	0.003610871
20	0.128042064	-0.020440046	0.001637325
21	0.128042064	-0.024389028	-0.000558858
1	0.133159604	-0.024879523	0.000215001
2	0.133159604	-0.020508706	0.001168148
3	0.133159604	-0.016300203	0.002273803
4	0.133159604	-0.012331982	0.003426011
5	0.133159604	-0.008696019	0.004575821
6	0.133159604	-0.005488683	0.005706550
7	0.133159604	-0.002795511	0.006794015
8	0.133159604	-0.000653239	0.007727819
9	0.133159604	0.000916535	0.008409913
10	0.133159604	0.001801621	0.008951616
11	0.133159604	0.001884621	0.009275012
12	0.133159604	0.001654812	0.009539346
13	0.133159604	0.000660266	0.009884035
14	0.133159604	-0.001071645	0.009930678
15	0.133159604	-0.003396928	0.009478313
16	0.133159604	-0.006204970	0.008580980
17	0.133159604	-0.009438071	0.007371476
18	0.133159604	-0.013016135	0.005894895
19	0.133159604	-0.016854100	0.004203247
20	0.133159604	-0.020850643	0.002320890
21	0.133159604	-0.024879523	0.000215001
1	0.137875956	-0.025403360	0.000548445
2	0.137875956	-0.020973829	0.001418470
3	0.137875956	-0.016703765	0.002442778
4	0.137875956	-0.012674710	0.003517967
5	0.137875956	-0.008980725	0.004597321
6	0.137875956	-0.005719337	0.005666081
7	0.137875956	-0.002977241	0.006701603
8	0.137875956	-0.000793871	0.007593203
9	0.137875956	0.000805900	0.008244513
10	0.137875956	0.001712089	0.008769599
11	0.137875956	0.001804318	0.009093508
12	0.137875956	0.001577383	0.009364336
13	0.137875956	0.000580103	0.009729773
14	0.137875956	-0.001166253	0.009810918
15	0.137875956	-0.003521784	0.009404798
16	0.137875956	-0.006374317	0.008561728
17	0.137875956	-0.009662823	0.007413938
18	0.137875956	-0.013305546	0.006005115
19	0.137875956	-0.017215451	0.004385571
20	0.137875956	-0.021289953	0.002578114
21	0.137875956	-0.025403360	0.000548445
1	0.142009873	-0.025165750	0.000479136
2	0.142009873	-0.020834410	0.001241801
3	0.142009873	-0.016655496	0.002157915
4	0.142009873	-0.012710478	0.003128621
5	0.142009873	-0.009091884	0.004110205
6	0.142009873	-0.005894906	0.005089765
7	0.142009873	-0.003204060	0.006045869
8	0.142009873	-0.001058625	0.006868336
9	0.142009873	0.000513052	0.007469703
10	0.142009873	0.001405717	0.007963882
11	0.142009873	0.001501099	0.008277702
12	0.142009873	0.001284016	0.008544646
13	0.142009873	0.000318655	0.008916189
14	0.142009873	-0.001380237	0.009027896
15	0.142009873	-0.003681992	0.008681423
16	0.142009873	-0.006475738	0.007916514
17	0.142009873	-0.009699701	0.006862727
18	0.142009873	-0.013273574	0.005561616
19	0.142009873	-0.017111536	0.004060206
20	0.142009873	-0.021113312	0.002378842
21	0.142009873	-0.025165750	0.000479136
1	0.145402491	-0.023502568	0.000457202
2	0.145402491	-0.019571076	0.001076142
3	0.145402491	-0.015773686	0.001832783
4	0.145402491	-0.012186935	0.002642958
5	0.145402491	-0.008895740	0.003470032
6	0.145402491	-0.005986388	0.004303359
7	0.145402491	-0.003535236	0.005123302
8	0.145402491	-0.001577894	0.005825886
9	0.145402491	-0.000144406	0.006340563
10	0.145402491	0.000670813	0.006774085
11	0.145402491	0.000759634	0.007057193
12	0.145402491	0.000565952	0.007301004
13	0.145402491	-0.000301986	0.007651317
14	0.145402491	-0.001836743	0.007783947
15	0.145402491	-0.003925734	0.007517711
16	0.145402491	-0.006466350	0.006875453
17	0.145402491	-0.009400426	0.005976709
18	0.145402491	-0.012654739	0.004858823
19	0.145402491	-0.016150730	0.003562713
20	0.145402491	-0.019797889	0.002106932
21	0.145402491	-0.023502568	0.000457202
1	0.147923434	-0.020694074	0.000615618
2	0.147923434	-0.017397953	0.001065027
3	0.147923434	-0.014214214	0.001640290
4	0.147923434	-0.011206553	0.002266763
5	0.147923434	-0.008445779	0.002912446
6	0.147923434	-0.006004087	0.003569288
7	0.147923434	-0.003945096	0.004220400
8	0.147923434	-0.002298578	0.004775310
9	0.147923434	-0.001093057	0.005182776
10	0.147923434	-0.000406958	0.005535064
11	0.147923434	-0.000331628	0.005771104
12	0.147923434	-0.000491282	0.005976349
13	0.147923434	-0.001211040	0.006280546
14	0.147923434	-0.002489692	0.006417790
15	0.147923434	-0.004238032	0.006235329
16	0.147923434	-0.006368761	0.005740643
17	0.147923434	-0.008831241	0.005035379
18	0.147923434	-0.011563957	0.004150940
19	0.147923434	-0.014500661	0.003120284
20	0.147923434	-0.017565033	0.001955606
21	0.147923434	-0.020694074	0.000615618
1	0.150000000	-0.017232040	0.000830998
2	0.150000000	-0.014711017	0.001089555
3	0.150000000	-0.012282746	0.001480699
4	0.150000000	-0.009990451	0.001924042
5	0.150000000	-0.007885777	0.002385690
6	0.150000000	-0.006023672	0.002860021
7	0.150000000	-0.004452323	0.003333552
8	0.150000000	-0.003194391	0.003735041
9	0.150000000	-0.002273655	0.004030779
10	0.150000000	-0.001749376	0.004292589
11	0.150000000	-0.001691424	0.004471709
12	0.150000000	-0.001811010	0.004628732
13	0.150000000	-0.002353184	0.004868882
14	0.150000000	-0.003320863	0.004994658
15	0.150000000	-0.004650446	0.004889626
16	0.150000000	-0.006275136	0.004550979
17	0.150000000	-0.008154668	0.004056576
18	0.150000000	-0.010242029	0.003430346
19	0.150000000	-0.012486344	0.002696011
20	0.150000000	-0.014827003	0.001851918
21	0.150000000	-0.017232040	0.000830998
