######## Panel parameters ########
type=propeller
n_blades=1

rotation_center=[0, 0, 0]
rotation_axis=[0, -1, 0]
n_span_all= 35
n_points=45
######## End of parameters ########
1	0.019473203	0.014730766	0.026000000
2	0.017431873	0.013283910	0.026000000
3	0.015263208	0.012051717	0.026000000
4	0.013083147	0.010903043	0.026000000
5	0.010922323	0.009806505	0.026000000
6	0.008802966	0.008742827	0.026000000
7	0.006746218	0.007695009	0.026000000
8	0.004773776	0.006646325	0.026000000
9	0.002910847	0.005576608	0.026000000
10	0.001190051	0.004459469	0.026000000
11	-0.000366223	0.003293377	0.026000000
12	-0.001745665	0.002094102	0.026000000
13	-0.002933627	0.000875663	0.026000000
14	-0.003924770	-0.000337927	0.026000000
15	-0.004717789	-0.001520816	0.026000000
16	-0.005313356	-0.002647100	0.026000000
17	-0.005716902	-0.003688971	0.026000000
18	-0.005906391	-0.004624290	0.026000000
19	-0.005880596	-0.005410565	0.026000000
20	-0.005709948	-0.006002940	0.026000000
21	-0.005506128	-0.006396224	0.026000000
22	-0.005350250	-0.006612865	0.026000000
23	-0.005293023	-0.006681237	0.026000000
24	-0.005232671	-0.006748934	0.026000000
25	-0.005036975	-0.006937072	0.026000000
26	-0.004672817	-0.007202847	0.026000000
27	-0.004114485	-0.007489657	0.026000000
28	-0.003344846	-0.007710960	0.026000000
29	-0.002375958	-0.007771137	0.026000000
30	-0.001246560	-0.007645320	0.026000000
31	0.000010735	-0.007331769	0.026000000
32	0.001365796	-0.006820017	0.026000000
33	0.002786478	-0.006097819	0.026000000
34	0.004245197	-0.005166063	0.026000000
35	0.005720113	-0.004034175	0.026000000
36	0.007189398	-0.002709662	0.026000000
37	0.008640852	-0.001210146	0.026000000
38	0.010062571	0.000449159	0.026000000
39	0.011454231	0.002245357	0.026000000
40	0.012826647	0.004150369	0.026000000
41	0.014184714	0.006143875	0.026000000
42	0.015547671	0.008197906	0.026000000
43	0.016909711	0.010303698	0.026000000
44	0.018251292	0.012464038	0.026000000
45	0.019473203	0.014730766	0.026000000
1	0.021181156	0.013853623	0.030067200
2	0.019011394	0.012549664	0.030067200
3	0.016766973	0.011405499	0.030067200
4	0.014527602	0.010318127	0.030067200
5	0.012324966	0.009248930	0.030067200
6	0.010181181	0.008178153	0.030067200
7	0.008111117	0.007102558	0.030067200
8	0.006126017	0.006027014	0.030067200
9	0.004238968	0.004953077	0.030067200
10	0.002484269	0.003848026	0.030067200
11	0.000875361	0.002718747	0.030067200
12	-0.000583347	0.001584699	0.030067200
13	-0.001887619	0.000463108	0.030067200
14	-0.003025144	-0.000639105	0.030067200
15	-0.003987462	-0.001709788	0.030067200
16	-0.004767926	-0.002734233	0.030067200
17	-0.005359542	-0.003696436	0.030067200
18	-0.005750530	-0.004578825	0.030067200
19	-0.005926234	-0.005354733	0.030067200
20	-0.005910321	-0.005977173	0.030067200
21	-0.005794248	-0.006409189	0.030067200
22	-0.005666124	-0.006646116	0.030067200
23	-0.005613570	-0.006719305	0.030067200
24	-0.005555054	-0.006790992	0.030067200
25	-0.005353520	-0.006980664	0.030067200
26	-0.004959327	-0.007217002	0.030067200
27	-0.004359494	-0.007441508	0.030067200
28	-0.003555809	-0.007593581	0.030067200
29	-0.002564885	-0.007629344	0.030067200
30	-0.001409409	-0.007525941	0.030067200
31	-0.000112516	-0.007266414	0.030067200
32	0.001300892	-0.006833134	0.030067200
33	0.002802589	-0.006208398	0.030067200
34	0.004360579	-0.005376180	0.030067200
35	0.005949457	-0.004339069	0.030067200
36	0.007550478	-0.003109594	0.030067200
37	0.009138056	-0.001690224	0.030067200
38	0.010687762	-0.000087133	0.030067200
39	0.012194387	0.001675381	0.030067200
40	0.013691792	0.003545851	0.030067200
41	0.015182753	0.005504357	0.030067200
42	0.016689124	0.007518670	0.030067200
43	0.018218534	0.009569358	0.030067200
44	0.019748837	0.011661666	0.030067200
45	0.021181156	0.013853623	0.030067200
1	0.022839723	0.013284519	0.034134400
2	0.020562248	0.012035211	0.034134400
3	0.018239016	0.010904932	0.034134400
4	0.015931979	0.009809805	0.034134400
5	0.013668629	0.008719399	0.034134400
6	0.011465016	0.007627694	0.034134400
7	0.009333748	0.006536939	0.034134400
8	0.007289486	0.005445966	0.034134400
9	0.005348340	0.004351505	0.034134400
10	0.003529661	0.003245890	0.034134400
11	0.001844370	0.002136745	0.034134400
12	0.000297171	0.001040132	0.034134400
13	-0.001108676	-0.000028048	0.034134400
14	-0.002367327	-0.001057154	0.034134400
15	-0.003469375	-0.002041548	0.034134400
16	-0.004402911	-0.002977560	0.034134400
17	-0.005154129	-0.003860748	0.034134400
18	-0.005707123	-0.004682920	0.034134400
19	-0.006044053	-0.005427085	0.034134400
20	-0.006161708	-0.006054933	0.034134400
21	-0.006112204	-0.006510546	0.034134400
22	-0.006006065	-0.006765603	0.034134400
23	-0.005956593	-0.006843711	0.034134400
24	-0.005898745	-0.006919244	0.034134400
25	-0.005690560	-0.007112959	0.034134400
26	-0.005278159	-0.007343429	0.034134400
27	-0.004650963	-0.007544025	0.034134400
28	-0.003818241	-0.007663397	0.034134400
29	-0.002798501	-0.007671397	0.034134400
30	-0.001612270	-0.007544618	0.034134400
31	-0.000281141	-0.007265398	0.034134400
32	0.001172722	-0.006821000	0.034134400
33	0.002726416	-0.006201462	0.034134400
34	0.004356140	-0.005399112	0.034134400
35	0.006038417	-0.004410747	0.034134400
36	0.007749021	-0.003234885	0.034134400
37	0.009460487	-0.001868839	0.034134400
38	0.011144026	-0.000312478	0.034134400
39	0.012789468	0.001412911	0.034134400
40	0.014419867	0.003260022	0.034134400
41	0.016067948	0.005180808	0.034134400
42	0.017754026	0.007141465	0.034134400
43	0.019474887	0.009129453	0.034134400
44	0.021202131	0.011156042	0.034134400
45	0.022839723	0.013284519	0.034134400
1	0.024507832	0.012950685	0.038201600
2	0.022114038	0.011720874	0.038201600
3	0.019698815	0.010569370	0.038201600
4	0.017309214	0.009434613	0.038201600
5	0.014967415	0.008298431	0.038201600
6	0.012684016	0.007167524	0.038201600
7	0.010468865	0.006050595	0.038201600
8	0.008339109	0.004941909	0.038201600
9	0.006322735	0.003816725	0.038201600
10	0.004423164	0.002696057	0.038201600
11	0.002647596	0.001592394	0.038201600
12	0.001004979	0.000513748	0.038201600
13	-0.000499334	-0.000527610	0.038201600
14	-0.001864248	-0.001515221	0.038201600
15	-0.003082048	-0.002443542	0.038201600
16	-0.004139846	-0.003314104	0.038201600
17	-0.005021628	-0.004130393	0.038201600
18	-0.005709313	-0.004893128	0.038201600
19	-0.006184014	-0.005594460	0.038201600
20	-0.006428181	-0.006209742	0.038201600
21	-0.006444466	-0.006683146	0.038201600
22	-0.006360976	-0.006956745	0.038201600
23	-0.006313779	-0.007040083	0.038201600
24	-0.006255606	-0.007119308	0.038201600
25	-0.006038452	-0.007317027	0.038201600
26	-0.005606917	-0.007544984	0.038201600
27	-0.004951775	-0.007728523	0.038201600
28	-0.004087140	-0.007818080	0.038201600
29	-0.003033993	-0.007783183	0.038201600
30	-0.001814845	-0.007600647	0.038201600
31	-0.000452027	-0.007257040	0.038201600
32	0.001034671	-0.006749194	0.038201600
33	0.002629326	-0.006082005	0.038201600
34	0.004318961	-0.005263818	0.038201600
35	0.006081604	-0.004284871	0.038201600
36	0.007888348	-0.003128625	0.038201600
37	0.009715209	-0.001793240	0.038201600
38	0.011537184	-0.000278727	0.038201600
39	0.013339910	0.001400446	0.038201600
40	0.015112867	0.003227400	0.038201600
41	0.016936642	0.005101623	0.038201600
42	0.018819076	0.006997499	0.038201600
43	0.020740078	0.008917485	0.038201600
44	0.022665678	0.010880024	0.038201600
45	0.024507832	0.012950685	0.038201600
1	0.026143630	0.012720685	0.042268800
2	0.023620204	0.011515731	0.042268800
3	0.021099733	0.010345788	0.042268800
4	0.018614184	0.009175229	0.042268800
5	0.016180286	0.007998370	0.042268800
6	0.013806633	0.006827484	0.042268800
7	0.011501682	0.005675291	0.042268800
8	0.009280202	0.004541532	0.042268800
9	0.007177106	0.003388392	0.042268800
10	0.005189655	0.002248839	0.042268800
11	0.003322360	0.001140140	0.042268800
12	0.001587503	0.000064505	0.042268800
13	-0.000007472	-0.000968863	0.042268800
14	-0.001462223	-0.001941642	0.042268800
15	-0.002771469	-0.002844968	0.042268800
16	-0.003924667	-0.003678872	0.042268800
17	-0.004907289	-0.004448738	0.042268800
18	-0.005702267	-0.005160426	0.042268800
19	-0.006291629	-0.005814054	0.042268800
20	-0.006652461	-0.006399875	0.042268800
21	-0.006749381	-0.006881365	0.042268800
22	-0.006694690	-0.007172786	0.042268800
23	-0.006649488	-0.007261363	0.042268800
24	-0.006590359	-0.007343994	0.042268800
25	-0.006361871	-0.007543707	0.042268800
26	-0.005906815	-0.007761548	0.042268800
27	-0.005221243	-0.007919413	0.042268800
28	-0.004323805	-0.007970133	0.042268800
29	-0.003237715	-0.007882906	0.042268800
30	-0.001987304	-0.007635192	0.042268800
31	-0.000595354	-0.007217183	0.042268800
32	0.000920767	-0.006633440	0.042268800
33	0.002551663	-0.005901577	0.042268800
34	0.004293305	-0.005043939	0.042268800
35	0.006123370	-0.004044888	0.042268800
36	0.008014156	-0.002884995	0.042268800
37	0.009946882	-0.001565689	0.042268800
38	0.011902724	-0.000090039	0.042268800
39	0.013864951	0.001534616	0.042268800
40	0.015800777	0.003318572	0.042268800
41	0.017810183	0.005128014	0.042268800
42	0.019885169	0.006951488	0.042268800
43	0.021995984	0.008803076	0.042268800
44	0.024107300	0.010705294	0.042268800
45	0.026143630	0.012720685	0.042268800
1	0.027609998	0.012487898	0.046336000
2	0.024961543	0.011322950	0.046336000
3	0.022338910	0.010149246	0.046336000
4	0.019759798	0.008958501	0.046336000
5	0.017235878	0.007756768	0.046336000
6	0.014775163	0.006558913	0.046336000
7	0.012386251	0.005378603	0.046336000
8	0.010082186	0.004219995	0.046336000
9	0.007894901	0.003050807	0.046336000
10	0.005824130	0.001900205	0.046336000
11	0.003874688	0.000785636	0.046336000
12	0.002060028	-0.000292447	0.046336000
13	0.000389187	-0.001326943	0.046336000
14	-0.001135488	-0.002301636	0.046336000
15	-0.002511425	-0.003202831	0.046336000
16	-0.003732939	-0.004023504	0.046336000
17	-0.004788969	-0.004765908	0.046336000
18	-0.005664850	-0.005437146	0.046336000
19	-0.006343887	-0.006043534	0.046336000
20	-0.006802109	-0.006588486	0.046336000
21	-0.006989253	-0.007060675	0.046336000
22	-0.006968743	-0.007365382	0.046336000
23	-0.006925783	-0.007458746	0.046336000
24	-0.006865712	-0.007544447	0.046336000
25	-0.006625862	-0.007744644	0.046336000
26	-0.006148048	-0.007949140	0.046336000
27	-0.005435299	-0.008081381	0.046336000
28	-0.004509234	-0.008097762	0.046336000
29	-0.003394180	-0.007967094	0.046336000
30	-0.002115589	-0.007666623	0.046336000
31	-0.000696673	-0.007187869	0.046336000
32	0.000846742	-0.006539720	0.046336000
33	0.002509997	-0.005748378	0.046336000
34	0.004294113	-0.004843798	0.046336000
35	0.006178023	-0.003811058	0.046336000
36	0.008139559	-0.002637776	0.046336000
37	0.010164161	-0.001328157	0.046336000
38	0.012237534	0.000112183	0.046336000
39	0.014342825	0.001680019	0.046336000
40	0.016448319	0.003389976	0.046336000
41	0.018629580	0.005123213	0.046336000
42	0.020869858	0.006878465	0.046336000
43	0.023139694	0.008671603	0.046336000
44	0.025406550	0.010523919	0.046336000
45	0.027609998	0.012487898	0.046336000
1	0.028776386	0.012144590	0.050403200
2	0.026025248	0.011034534	0.050403200
3	0.023317800	0.009877769	0.050403200
4	0.020660441	0.008690274	0.050403200
5	0.018060977	0.007487563	0.050403200
6	0.015527547	0.006285461	0.050403200
7	0.013069840	0.005096478	0.050403200
8	0.010700771	0.003925906	0.050403200
9	0.008443440	0.002758551	0.050403200
10	0.006303681	0.001612579	0.050403200
11	0.004289360	0.000500571	0.050403200
12	0.002413360	-0.000575559	0.050403200
13	0.000685709	-0.001609818	0.050403200
14	-0.000888061	-0.002590213	0.050403200
15	-0.002307602	-0.003498607	0.050403200
16	-0.003573358	-0.004318055	0.050403200
17	-0.004678454	-0.005044917	0.050403200
18	-0.005610575	-0.005685104	0.050403200
19	-0.006353447	-0.006249582	0.050403200
20	-0.006882917	-0.006752081	0.050403200
21	-0.007149499	-0.007199780	0.050403200
22	-0.007161702	-0.007510901	0.050403200
23	-0.007121159	-0.007608031	0.050403200
24	-0.007060614	-0.007696235	0.050403200
25	-0.006812080	-0.007896569	0.050403200
26	-0.006317268	-0.008090481	0.050403200
27	-0.005585047	-0.008206480	0.050403200
28	-0.004637869	-0.008204831	0.050403200
29	-0.003499828	-0.008053591	0.050403200
30	-0.002196761	-0.007728265	0.050403200
31	-0.000752673	-0.007218884	0.050403200
32	0.000816515	-0.006534940	0.050403200
33	0.002508059	-0.005706566	0.050403200
34	0.004324132	-0.004765383	0.050403200
35	0.006248495	-0.003705461	0.050403200
36	0.008265044	-0.002523743	0.050403200
37	0.010361750	-0.001226212	0.050403200
38	0.012526649	0.000180138	0.050403200
39	0.014745482	0.001690836	0.050403200
40	0.016997392	0.003309943	0.050403200
41	0.019313325	0.004968921	0.050403200
42	0.021676442	0.006667203	0.050403200
43	0.024062733	0.008414662	0.050403200
44	0.026444411	0.010227480	0.050403200
45	0.028776386	0.012144590	0.050403200
1	0.029594796	0.011632668	0.054470400
2	0.026773398	0.010584094	0.054470400
3	0.024005635	0.009463857	0.054470400
4	0.021291395	0.008304123	0.054470400
5	0.018636418	0.007126180	0.054470400
6	0.016049490	0.005945427	0.054470400
7	0.013541574	0.004772470	0.054470400
8	0.011125764	0.003612859	0.054470400
9	0.008817439	0.002466848	0.054470400
10	0.006627621	0.001342712	0.054470400
11	0.004567510	0.000247169	0.054470400
12	0.002649084	-0.000815749	0.054470400
13	0.000882894	-0.001840481	0.054470400
14	-0.000722686	-0.002819022	0.054470400
15	-0.002168643	-0.003730112	0.054470400
16	-0.003460695	-0.004547889	0.054470400
17	-0.004595488	-0.005263066	0.054470400
18	-0.005562304	-0.005879773	0.054470400
19	-0.006344569	-0.006412160	0.054470400
20	-0.006918008	-0.006880662	0.054470400
21	-0.007236840	-0.007302619	0.054470400
22	-0.007272961	-0.007615025	0.054470400
23	-0.007234731	-0.007714634	0.054470400
24	-0.007174493	-0.007804738	0.054470400
25	-0.006922026	-0.008006708	0.054470400
26	-0.006418582	-0.008198000	0.054470400
27	-0.005676039	-0.008312393	0.054470400
28	-0.004716186	-0.008312975	0.054470400
29	-0.003562033	-0.008166892	0.054470400
30	-0.002239172	-0.007847192	0.054470400
31	-0.000772459	-0.007340831	0.054470400
32	0.000820884	-0.006655364	0.054470400
33	0.002537534	-0.005821283	0.054470400
34	0.004378704	-0.004869369	0.054470400
35	0.006333370	-0.003803823	0.054470400
36	0.008389729	-0.002628719	0.054470400
37	0.010537048	-0.001351271	0.054470400
38	0.012764451	0.000020600	0.054470400
39	0.015060417	0.001479160	0.054470400
40	0.017411998	0.003018192	0.054470400
41	0.019816062	0.004616114	0.054470400
42	0.022258058	0.006268886	0.054470400
43	0.024719099	0.007979256	0.054470400
44	0.027175649	0.009757959	0.054470400
45	0.029594796	0.011632668	0.054470400
1	0.030161984	0.010985800	0.058537600
2	0.027299612	0.009992543	0.058537600
3	0.024492591	0.008919356	0.058537600
4	0.021739483	0.007803499	0.058537600
5	0.019045854	0.006667782	0.058537600
6	0.016421105	0.005526927	0.058537600
7	0.013876964	0.004390328	0.058537600
8	0.011426367	0.003264187	0.058537600
9	0.009082382	0.002153641	0.058537600
10	0.006857935	0.001063184	0.058537600
11	0.004765537	-0.000002878	0.058537600
12	0.002816963	-0.001039875	0.058537600
13	0.001023009	-0.002042422	0.058537600
14	-0.000606645	-0.003004352	0.058537600
15	-0.002073285	-0.003903010	0.058537600
16	-0.003384569	-0.004708557	0.058537600
17	-0.004538484	-0.005409244	0.058537600
18	-0.005524901	-0.006008452	0.058537600
19	-0.006327136	-0.006521690	0.058537600
20	-0.006921110	-0.006971940	0.058537600
21	-0.007262243	-0.007380708	0.058537600
22	-0.007310316	-0.007693077	0.058537600
23	-0.007274004	-0.007794117	0.058537600
24	-0.007214851	-0.007885750	0.058537600
25	-0.006963228	-0.008091966	0.058537600
26	-0.006458602	-0.008289775	0.058537600
27	-0.005712924	-0.008415030	0.058537600
28	-0.004747076	-0.008431500	0.058537600
29	-0.003583087	-0.008305595	0.058537600
30	-0.002246028	-0.008008801	0.058537600
31	-0.000761004	-0.007526039	0.058537600
32	0.000853816	-0.006863223	0.058537600
33	0.002594000	-0.006050313	0.058537600
34	0.004459771	-0.005117692	0.058537600
35	0.006441796	-0.004073187	0.058537600
36	0.008529674	-0.002923447	0.058537600
37	0.010713017	-0.001676207	0.058537600
38	0.012981259	-0.000339854	0.058537600
39	0.015323440	0.001077030	0.058537600
40	0.017728129	0.002565918	0.058537600
41	0.020182773	0.004119580	0.058537600
42	0.022673217	0.005733154	0.058537600
43	0.025182208	0.007406999	0.058537600
44	0.027687886	0.009149853	0.058537600
45	0.030161984	0.010985800	0.058537600
1	0.030682810	0.010312978	0.062604800
2	0.027790843	0.009368717	0.062604800
3	0.024953006	0.008343122	0.062604800
4	0.022168536	0.007273631	0.062604800
5	0.019443439	0.006183045	0.062604800
6	0.016787418	0.005085987	0.062604800
7	0.014212426	0.003991659	0.062604800
8	0.011731547	0.002906086	0.062604800
9	0.009358009	0.001834160	0.062604800
10	0.007104866	0.000780166	0.062604800
11	0.004984752	-0.000251788	0.062604800
12	0.003009540	-0.001257157	0.062604800
13	0.001190277	-0.002230949	0.062604800
14	-0.000463315	-0.003166929	0.062604800
15	-0.001952073	-0.004042411	0.062604800
16	-0.003283136	-0.004827300	0.062604800
17	-0.004454330	-0.005509738	0.062604800
18	-0.005455479	-0.006093422	0.062604800
19	-0.006270175	-0.006594120	0.062604800
20	-0.006874671	-0.007035327	0.062604800
21	-0.007224574	-0.007439497	0.062604800
22	-0.007278232	-0.007752266	0.062604800
23	-0.007243503	-0.007854316	0.062604800
24	-0.007185667	-0.007947306	0.062604800
25	-0.006936597	-0.008158643	0.062604800
26	-0.006433485	-0.008366095	0.062604800
27	-0.005687153	-0.008505161	0.062604800
28	-0.004717854	-0.008539128	0.062604800
29	-0.003547063	-0.008433904	0.062604800
30	-0.002199396	-0.008160406	0.062604800
31	-0.000699776	-0.007702979	0.062604800
32	0.000933435	-0.007067161	0.062604800
33	0.002695211	-0.006282892	0.062604800
34	0.004585245	-0.005380733	0.062604800
35	0.006594031	-0.004368390	0.062604800
36	0.008711020	-0.003252370	0.062604800
37	0.010925641	-0.002040245	0.062604800
38	0.013227140	-0.000740251	0.062604800
39	0.015604365	0.000639189	0.062604800
40	0.018045691	0.002089714	0.062604800
41	0.020538389	0.003604289	0.062604800
42	0.023068166	0.005178285	0.062604800
43	0.025617716	0.006812370	0.062604800
44	0.028165261	0.008515710	0.062604800
45	0.030682810	0.010312978	0.062604800
1	0.031147779	0.009624372	0.066672000
2	0.028235524	0.008730367	0.066672000
3	0.025376063	0.007753884	0.066672000
4	0.022569282	0.006732450	0.066672000
5	0.019821590	0.005688802	0.066672000
6	0.017142952	0.004637428	0.066672000
7	0.014545504	0.003587317	0.066672000
8	0.012042440	0.002544303	0.066672000
9	0.009647100	0.001513023	0.066672000
10	0.007372627	0.000497548	0.066672000
11	0.005231743	-0.000498230	0.066672000
12	0.003236416	-0.001469973	0.066672000
13	0.001397797	-0.002412877	0.066672000
14	-0.000274271	-0.003320871	0.066672000
15	-0.001780230	-0.004171213	0.066672000
16	-0.003126700	-0.004933645	0.066672000
17	-0.004311301	-0.005596325	0.066672000
18	-0.005323910	-0.006163131	0.066672000
19	-0.006148365	-0.006650156	0.066672000
20	-0.006761308	-0.007081323	0.066672000
21	-0.007118587	-0.007479954	0.066672000
22	-0.007177429	-0.007792210	0.066672000
23	-0.007144276	-0.007894937	0.066672000
24	-0.007087858	-0.007988956	0.066672000
25	-0.006841958	-0.008204612	0.066672000
26	-0.006341780	-0.008420797	0.066672000
27	-0.005597006	-0.008572873	0.066672000
28	-0.004627218	-0.008623797	0.066672000
29	-0.003453268	-0.008539107	0.066672000
30	-0.002099248	-0.008289245	0.066672000
31	-0.000589823	-0.007858008	0.066672000
32	0.001056491	-0.007250492	0.066672000
33	0.002834073	-0.006496467	0.066672000
34	0.004742113	-0.005626629	0.066672000
35	0.006770972	-0.004648562	0.066672000
36	0.008909984	-0.003568615	0.066672000
37	0.011148427	-0.002394173	0.066672000
38	0.013475398	-0.001133301	0.066672000
39	0.015879589	0.000205752	0.066672000
40	0.018349221	0.001614812	0.066672000
41	0.020871436	0.003087046	0.066672000
42	0.023431849	0.004618063	0.066672000
43	0.026013161	0.006208819	0.066672000
44	0.028593737	0.007868867	0.066672000
45	0.031147779	0.009624372	0.066672000
1	0.031216969	0.008825148	0.070739200
2	0.028318943	0.007986011	0.070739200
3	0.025471852	0.007064437	0.070739200
4	0.022676201	0.006097540	0.070739200
5	0.019938705	0.005107716	0.070739200
6	0.017269467	0.004109147	0.070739200
7	0.014680658	0.003110511	0.070739200
8	0.012185427	0.002117402	0.070739200
9	0.009797073	0.001134165	0.070739200
10	0.007528671	0.000164630	0.070739200
11	0.005392882	-0.000787549	0.070739200
12	0.003401628	-0.001718264	0.070739200
13	0.001566026	-0.002622927	0.070739200
14	-0.000104093	-0.003495661	0.070739200
15	-0.001608878	-0.004313806	0.070739200
16	-0.002954369	-0.005047363	0.070739200
17	-0.004137980	-0.005684716	0.070739200
18	-0.005149723	-0.006229914	0.070739200
19	-0.005973831	-0.006699183	0.070739200
20	-0.006587548	-0.007116557	0.070739200
21	-0.006947441	-0.007505834	0.070739200
22	-0.007010315	-0.007814179	0.070739200
23	-0.006979001	-0.007916397	0.070739200
24	-0.006924546	-0.008010339	0.070739200
25	-0.006684377	-0.008227663	0.070739200
26	-0.006192511	-0.008449584	0.070739200
27	-0.005457471	-0.008611978	0.070739200
28	-0.004498030	-0.008677869	0.070739200
29	-0.003334269	-0.008612816	0.070739200
30	-0.001989555	-0.008387142	0.070739200
31	-0.000488065	-0.007984333	0.070739200
32	0.001151747	-0.007409045	0.070739200
33	0.002923791	-0.006690577	0.070739200
34	0.004826812	-0.005859428	0.070739200
35	0.006851162	-0.004922996	0.070739200
36	0.008986188	-0.003887422	0.070739200
37	0.011221157	-0.002759844	0.070739200
38	0.013545148	-0.001548087	0.070739200
39	0.015946842	-0.000260150	0.070739200
40	0.018414451	0.001096049	0.070739200
41	0.020935144	0.002513936	0.070739200
42	0.023494615	0.003989373	0.070739200
43	0.026075765	0.005523558	0.070739200
44	0.028657342	0.007126252	0.070739200
45	0.031216969	0.008825148	0.070739200
1	0.031010036	0.007959603	0.074806400
2	0.028151116	0.007177895	0.074806400
3	0.025340973	0.006314555	0.074806400
4	0.022580674	0.005405977	0.074806400
5	0.019877155	0.004474036	0.074806400
6	0.017240553	0.003532500	0.074806400
7	0.014682961	0.002589688	0.074806400
8	0.012217371	0.001650921	0.074806400
9	0.009856921	0.000720243	0.074806400
10	0.007614508	-0.000198767	0.074806400
11	0.005502625	-0.001102707	0.074806400
12	0.003533040	-0.001987712	0.074806400
13	0.001716738	-0.002849434	0.074806400
14	0.000063457	-0.003682225	0.074806400
15	-0.001426665	-0.004463737	0.074806400
16	-0.002759098	-0.005164459	0.074806400
17	-0.003931106	-0.005773067	0.074806400
18	-0.004932920	-0.006293719	0.074806400
19	-0.005749280	-0.006742602	0.074806400
20	-0.006358193	-0.007143631	0.074806400
21	-0.006717296	-0.007520829	0.074806400
22	-0.006783381	-0.007822821	0.074806400
23	-0.006754051	-0.007923665	0.074806400
24	-0.006701889	-0.008016707	0.074806400
25	-0.006469106	-0.008233619	0.074806400
26	-0.005989216	-0.008458769	0.074806400
27	-0.005269624	-0.008629069	0.074806400
28	-0.004328208	-0.008707931	0.074806400
29	-0.003184172	-0.008661235	0.074806400
30	-0.001860023	-0.008459472	0.074806400
31	-0.000379271	-0.008086014	0.074806400
32	0.001239867	-0.007545108	0.074806400
33	0.002990949	-0.006865393	0.074806400
34	0.004872315	-0.006076879	0.074806400
35	0.006874388	-0.005186715	0.074806400
36	0.008986627	-0.004200803	0.074806400
37	0.011198380	-0.003125988	0.074806400
38	0.013498812	-0.001969805	0.074806400
39	0.015876691	-0.000739954	0.074806400
40	0.018320326	0.000555956	0.074806400
41	0.020817024	0.001911646	0.074806400
42	0.023352677	0.003323253	0.074806400
43	0.025910516	0.004792184	0.074806400
44	0.028469827	0.006328307	0.074806400
45	0.031010036	0.007959603	0.074806400
1	0.030708922	0.007091248	0.078873600
2	0.027899686	0.006366325	0.078873600
3	0.025137019	0.005560872	0.078873600
4	0.022422487	0.004710470	0.078873600
5	0.019763194	0.003836419	0.078873600
6	0.017169260	0.002952040	0.078873600
7	0.014652647	0.002065285	0.078873600
8	0.012226137	0.001181200	0.078873600
9	0.009902657	0.000303533	0.078873600
10	0.007694880	-0.000564392	0.078873600
11	0.005615079	-0.001419417	0.078873600
12	0.003674832	-0.002257929	0.078873600
13	0.001884949	-0.003075822	0.078873600
14	0.000255037	-0.003867697	0.078873600
15	-0.001214474	-0.004611639	0.078873600
16	-0.002528514	-0.005278708	0.078873600
17	-0.003684232	-0.005857881	0.078873600
18	-0.004672122	-0.006353379	0.078873600
19	-0.005477464	-0.006781273	0.078873600
20	-0.006079078	-0.007165258	0.078873600
21	-0.006435800	-0.007529462	0.078873600
22	-0.006504585	-0.007824143	0.078873600
23	-0.006477233	-0.007923244	0.078873600
24	-0.006427435	-0.008015015	0.078873600
25	-0.006202563	-0.008230513	0.078873600
26	-0.005735992	-0.008457554	0.078873600
27	-0.005034065	-0.008634320	0.078873600
28	-0.004113750	-0.008724758	0.078873600
29	-0.002993350	-0.008695212	0.078873600
30	-0.001694465	-0.008516472	0.078873600
31	-0.000239877	-0.008171892	0.078873600
32	0.001352510	-0.007665327	0.078873600
33	0.003075967	-0.007024674	0.078873600
34	0.004928459	-0.006279335	0.078873600
35	0.006900517	-0.005436186	0.078873600
36	0.008981750	-0.004500880	0.078873600
37	0.011161634	-0.003479956	0.078873600
38	0.013429458	-0.002380643	0.078873600
39	0.015774127	-0.001210328	0.078873600
40	0.018184092	0.000023702	0.078873600
41	0.020646845	0.001315475	0.078873600
42	0.023148527	0.002661401	0.078873600
43	0.025672753	0.004063078	0.078873600
44	0.028199393	0.005530442	0.078873600
45	0.030708922	0.007091248	0.078873600
1	0.030340910	0.006233289	0.082940800
2	0.027589286	0.005563555	0.082940800
3	0.024882016	0.004814629	0.082940800
4	0.022221116	0.004021199	0.082940800
5	0.019613805	0.003203962	0.082940800
6	0.017070142	0.002375776	0.082940800
7	0.014601914	0.001544226	0.082940800
8	0.012221660	0.000714082	0.082940800
9	0.009942054	-0.000111195	0.082940800
10	0.007775509	-0.000928527	0.082940800
11	0.005734049	-0.001734999	0.082940800
12	0.003829020	-0.002527244	0.082940800
13	0.002071032	-0.003301400	0.082940800
14	0.000469532	-0.004052322	0.082940800
15	-0.000974786	-0.004758583	0.082940800
16	-0.002266331	-0.005391898	0.082940800
17	-0.003402164	-0.005941564	0.082940800
18	-0.004373053	-0.006411845	0.082940800
19	-0.005164844	-0.006818639	0.082940800
20	-0.005757183	-0.007185346	0.082940800
21	-0.006110173	-0.007536089	0.082940800
22	-0.006181105	-0.007822814	0.082940800
23	-0.006155673	-0.007919889	0.082940800
24	-0.006108252	-0.008010098	0.082940800
25	-0.005891602	-0.008223371	0.082940800
26	-0.005439258	-0.008451177	0.082940800
27	-0.004756563	-0.008633131	0.082940800
28	-0.003859572	-0.008733836	0.082940800
29	-0.002765678	-0.008720211	0.082940800
30	-0.001495556	-0.008563447	0.082940800
31	-0.000071213	-0.008246940	0.082940800
32	0.001489804	-0.007774150	0.082940800
33	0.003180518	-0.007172150	0.082940800
34	0.004998565	-0.006469671	0.082940800
35	0.006934613	-0.005673317	0.082940800
36	0.008978454	-0.004788486	0.082940800
37	0.011119721	-0.003821406	0.082940800
38	0.013347868	-0.002778991	0.082940800
39	0.015651966	-0.001668310	0.082940800
40	0.018020649	-0.000496321	0.082940800
41	0.020441633	0.000731306	0.082940800
42	0.022901346	0.002011248	0.082940800
43	0.025383823	0.003345276	0.082940800
44	0.027869558	0.004743346	0.082940800
45	0.030340910	0.006233289	0.082940800
1	0.029854887	0.005372873	0.087008000
2	0.027172105	0.004757001	0.087008000
3	0.024531403	0.004063642	0.087008000
4	0.021935188	0.003326471	0.087008000
5	0.019390742	0.002565507	0.087008000
6	0.016908009	0.001793104	0.087008000
7	0.014498548	0.001016468	0.087008000
8	0.012174600	0.000240090	0.087008000
9	0.009948536	-0.000532852	0.087008000
10	0.007832457	-0.001299520	0.087008000
11	0.005838086	-0.002057239	0.087008000
12	0.003976497	-0.002802883	0.087008000
13	0.002258050	-0.003532833	0.087008000
14	0.000691988	-0.004242199	0.087008000
15	-0.000720774	-0.004910099	0.087008000
16	-0.001984138	-0.005509028	0.087008000
17	-0.003095095	-0.006028656	0.087008000
18	-0.004044716	-0.006473271	0.087008000
19	-0.004819439	-0.006858522	0.087008000
20	-0.005399780	-0.007207401	0.087008000
21	-0.005747224	-0.007543872	0.087008000
22	-0.005819663	-0.007821668	0.087008000
23	-0.005796134	-0.007916326	0.087008000
24	-0.005751165	-0.008004588	0.087008000
25	-0.005543295	-0.008214598	0.087008000
26	-0.005106579	-0.008441775	0.087008000
27	-0.004445418	-0.008627378	0.087008000
28	-0.003574949	-0.008736807	0.087008000
29	-0.002511642	-0.008737697	0.087008000
30	-0.001275211	-0.008601770	0.087008000
31	0.000113164	-0.008312564	0.087008000
32	0.001636367	-0.007873158	0.087008000
33	0.003287239	-0.007309718	0.087008000
34	0.005063130	-0.006650203	0.087008000
35	0.006954890	-0.005900929	0.087008000
36	0.008952538	-0.005067033	0.087008000
37	0.011045912	-0.004154421	0.087008000
38	0.013224674	-0.003169686	0.087008000
39	0.015478117	-0.002119561	0.087008000
40	0.017795108	-0.001010669	0.087008000
41	0.020163636	0.000151630	0.087008000
42	0.022570473	0.001364274	0.087008000
43	0.025000131	0.002629177	0.087008000
44	0.027433782	0.003956253	0.087008000
45	0.029854887	0.005372873	0.087008000
1	0.029249372	0.004512344	0.091075200
2	0.026646192	0.003948747	0.091075200
3	0.024082767	0.003309732	0.091075200
4	0.021561843	0.002627830	0.091075200
5	0.019090710	0.001922317	0.091075200
6	0.016679143	0.001205014	0.091075200
7	0.014338419	0.000482735	0.091075200
8	0.012080430	-0.000240309	0.091075200
9	0.009917192	-0.000961213	0.091075200
10	0.007860448	-0.001677379	0.091075200
11	0.005921573	-0.002386360	0.091075200
12	0.004111323	-0.003085271	0.091075200
13	0.002439764	-0.003770734	0.091075200
14	0.000915895	-0.004438124	0.091075200
15	-0.000459168	-0.005067193	0.091075200
16	-0.001688853	-0.005631314	0.091075200
17	-0.002770109	-0.006120560	0.091075200
18	-0.003694340	-0.006539209	0.091075200
19	-0.004448605	-0.006902581	0.091075200
20	-0.005014331	-0.007233150	0.091075200
21	-0.005354506	-0.007554576	0.091075200
22	-0.005427838	-0.007822517	0.091075200
23	-0.005406181	-0.007914382	0.091075200
24	-0.005363716	-0.008000314	0.091075200
25	-0.005165113	-0.008206012	0.091075200
26	-0.004745321	-0.008431119	0.091075200
27	-0.004107870	-0.008618756	0.091075200
28	-0.003266976	-0.008735267	0.091075200
29	-0.002238175	-0.008749142	0.091075200
30	-0.001040192	-0.008632772	0.091075200
31	0.000306681	-0.008369937	0.091075200
32	0.001785826	-0.007963361	0.091075200
33	0.003389978	-0.007438224	0.091075200
34	0.005116241	-0.006821601	0.091075200
35	0.006955692	-0.006119504	0.091075200
36	0.008898614	-0.005336803	0.091075200
37	0.010935100	-0.004479076	0.091075200
38	0.013055069	-0.003552581	0.091075200
39	0.015248079	-0.002563707	0.091075200
40	0.017503282	-0.001518732	0.091075200
41	0.019808992	-0.000422701	0.091075200
42	0.022152378	0.000721576	0.091075200
43	0.024518480	0.001916126	0.091075200
44	0.026889209	0.003170758	0.091075200
45	0.029249372	0.004512344	0.091075200
1	0.028579511	0.003670630	0.095142400
2	0.026061910	0.003156784	0.095142400
3	0.023581765	0.002569800	0.095142400
4	0.021142108	0.001941010	0.095142400
5	0.018750196	0.001288917	0.095142400
6	0.016415598	0.000624794	0.095142400
7	0.014149277	-0.000044930	0.095142400
8	0.011962748	-0.000716318	0.095142400
9	0.009867643	-0.001386726	0.095142400
10	0.007875318	-0.002053785	0.095142400
11	0.005996777	-0.002715268	0.095142400
12	0.004242428	-0.003368521	0.095142400
13	0.002622022	-0.004010404	0.095142400
14	0.001144294	-0.004636557	0.095142400
15	-0.000189462	-0.005227431	0.095142400
16	-0.001382233	-0.005757324	0.095142400
17	-0.002430953	-0.006216710	0.095142400
18	-0.003327373	-0.006609829	0.095142400
19	-0.004059184	-0.006951620	0.095142400
20	-0.004608730	-0.007263969	0.095142400
21	-0.004940555	-0.007570140	0.095142400
22	-0.005014328	-0.007827779	0.095142400
23	-0.004994479	-0.007916643	0.095142400
24	-0.004954498	-0.008000023	0.095142400
25	-0.004765290	-0.008200746	0.095142400
26	-0.004362949	-0.008422773	0.095142400
27	-0.003750212	-0.008611194	0.095142400
28	-0.002940396	-0.008733379	0.095142400
29	-0.001948120	-0.008758752	0.095142400
30	-0.000791124	-0.008660456	0.095142400
31	0.000511202	-0.008422587	0.095142400
32	0.001942787	-0.008047553	0.095142400
33	0.003496316	-0.007559533	0.095142400
34	0.005168688	-0.006984642	0.095142400
35	0.006951225	-0.006328581	0.095142400
36	0.008834506	-0.005595956	0.095142400
37	0.010808901	-0.004792019	0.095142400
38	0.012864616	-0.003922693	0.095142400
39	0.014991507	-0.002994026	0.095142400
40	0.017179034	-0.002011950	0.095142400
41	0.019415870	-0.000981201	0.095142400
42	0.021689607	0.000095651	0.095142400
43	0.023985841	0.001220727	0.095142400
44	0.026287238	0.002403686	0.095142400
45	0.028579511	0.003670630	0.095142400
1	0.027891092	0.002860108	0.099209600
2	0.025460889	0.002392833	0.099209600
3	0.023065937	0.001854768	0.099209600
4	0.020709501	0.001276045	0.099209600
5	0.018398775	0.000674401	0.099209600
6	0.016143105	0.000060575	0.099209600
7	0.013953120	-0.000559380	0.099209600
8	0.011839952	-0.001181782	0.099209600
9	0.009814835	-0.001804237	0.099209600
10	0.007888733	-0.002424587	0.099209600
11	0.006072268	-0.003040815	0.099209600
12	0.004375496	-0.003650485	0.099209600
13	0.002807841	-0.004250684	0.099209600
14	0.001377765	-0.004837312	0.099209600
15	0.000086724	-0.005391540	0.099209600
16	-0.001067866	-0.005888599	0.099209600
17	-0.002082946	-0.006319354	0.099209600
18	-0.002950614	-0.006687987	0.099209600
19	-0.003659179	-0.007009032	0.099209600
20	-0.004191879	-0.007303756	0.099209600
21	-0.004514803	-0.007594972	0.099209600
22	-0.004588661	-0.007842287	0.099209600
23	-0.004570522	-0.007928086	0.099209600
24	-0.004532941	-0.008008830	0.099209600
25	-0.004352961	-0.008204251	0.099209600
26	-0.003967964	-0.008422577	0.099209600
27	-0.003379965	-0.008610890	0.099209600
28	-0.002601424	-0.008737608	0.099209600
29	-0.001646081	-0.008773118	0.099209600
30	-0.000530721	-0.008691353	0.099209600
31	0.000726152	-0.008476765	0.099209600
32	0.002109028	-0.008131480	0.099209600
33	0.003610584	-0.007678688	0.099209600
34	0.005227548	-0.007143524	0.099209600
35	0.006951496	-0.006531382	0.099209600
36	0.008773312	-0.005846611	0.099209600
37	0.010683658	-0.005094151	0.099209600
38	0.012673035	-0.004279598	0.099209600
39	0.014731608	-0.003408671	0.099209600
40	0.016849163	-0.002486965	0.099209600
41	0.019014740	-0.001518921	0.099209600
42	0.021216360	-0.000506879	0.099209600
43	0.023440179	0.000551354	0.099209600
44	0.025669612	0.001665266	0.099209600
45	0.027891092	0.002860108	0.099209600
1	0.027203201	0.002083404	0.103276800
2	0.024860050	0.001659263	0.103276800
3	0.022550061	0.001166679	0.103276800
4	0.020276692	0.000634610	0.103276800
5	0.018047051	0.000080049	0.103276800
6	0.015870246	-0.000486777	0.103276800
7	0.013756569	-0.001060170	0.103276800
8	0.011716768	-0.001636692	0.103276800
9	0.009761680	-0.002214176	0.103276800
10	0.007901878	-0.002790664	0.103276800
11	0.006147604	-0.003364330	0.103276800
12	0.004508560	-0.003932945	0.103276800
13	0.002993845	-0.004493807	0.103276800
14	0.001611646	-0.005043065	0.103276800
15	0.000363562	-0.005562613	0.103276800
16	-0.000752629	-0.006028599	0.103276800
17	-0.001733884	-0.006432268	0.103276800
18	-0.002572645	-0.006777734	0.103276800
19	-0.003257810	-0.007079112	0.103276800
20	-0.003773480	-0.007357040	0.103276800
21	-0.004087251	-0.007633839	0.103276800
22	-0.004160922	-0.007871020	0.103276800
23	-0.004144384	-0.007953767	0.103276800
24	-0.004109091	-0.008031862	0.103276800
25	-0.003938026	-0.008221835	0.103276800
26	-0.003569939	-0.008436050	0.103276800
27	-0.003006197	-0.008623553	0.103276800
28	-0.002258453	-0.008753811	0.103276800
29	-0.001339614	-0.008798175	0.103276800
30	-0.000265560	-0.008731381	0.103276800
31	0.000946065	-0.008538262	0.103276800
32	0.002280311	-0.008220700	0.103276800
33	0.003729880	-0.007800926	0.103276800
34	0.005291360	-0.007303097	0.103276800
35	0.006956586	-0.006732309	0.103276800
36	0.008716744	-0.006092670	0.103276800
37	0.010562792	-0.005388818	0.103276800
38	0.012485533	-0.004626044	0.103276800
39	0.014475445	-0.003809744	0.103276800
40	0.016522639	-0.002945199	0.103276800
41	0.018616523	-0.002036567	0.103276800
42	0.020745549	-0.001085973	0.103276800
43	0.022896420	-0.000091164	0.103276800
44	0.025053277	0.000957164	0.103276800
45	0.027203201	0.002083404	0.103276800
1	0.026540280	0.001349470	0.107344000
2	0.024281285	0.000964688	0.107344000
3	0.022053499	0.000513765	0.107344000
4	0.019860544	0.000024531	0.107344000
5	0.017709428	-0.000486735	0.107344000
6	0.015609022	-0.001010294	0.107344000
7	0.013569290	-0.001540777	0.107344000
8	0.011600603	-0.002074973	0.107344000
9	0.009713418	-0.002610925	0.107344000
10	0.007917928	-0.003146855	0.107344000
11	0.006224007	-0.003681114	0.107344000
12	0.004641015	-0.004211664	0.107344000
13	0.003177738	-0.004735999	0.107344000
14	0.001842091	-0.005250504	0.107344000
15	0.000635804	-0.005737782	0.107344000
16	-0.000443018	-0.006174864	0.107344000
17	-0.001391363	-0.006553344	0.107344000
18	-0.002201998	-0.006877258	0.107344000
19	-0.002864384	-0.007160308	0.107344000
20	-0.003363434	-0.007422504	0.107344000
21	-0.003668189	-0.007685669	0.107344000
22	-0.003741527	-0.007913146	0.107344000
23	-0.003726472	-0.007992942	0.107344000
24	-0.003693322	-0.008068460	0.107344000
25	-0.003530670	-0.008253041	0.107344000
26	-0.003178656	-0.008462958	0.107344000
27	-0.002638076	-0.008649147	0.107344000
28	-0.001919839	-0.008782092	0.107344000
29	-0.001036082	-0.008834086	0.107344000
30	-0.000001836	-0.008780658	0.107344000
31	0.001166071	-0.008607041	0.107344000
32	0.002453232	-0.008314907	0.107344000
33	0.003852404	-0.007925589	0.107344000
34	0.005360057	-0.007462287	0.107344000
35	0.006968276	-0.006929810	0.107344000
36	0.008668546	-0.006332038	0.107344000
37	0.010452114	-0.005673331	0.107344000
38	0.012310076	-0.004958688	0.107344000
39	0.014233213	-0.004193210	0.107344000
40	0.016211958	-0.003381878	0.107344000
41	0.018236077	-0.002528587	0.107344000
42	0.020294435	-0.001635266	0.107344000
43	0.022374259	-0.000699618	0.107344000
44	0.024460384	0.000287471	0.107344000
45	0.026540280	0.001349470	0.107344000
1	0.025943379	0.000671639	0.111411200
2	0.023761796	0.000322207	0.111411200
3	0.021609642	-0.000091213	0.111411200
4	0.019490682	-0.000541835	0.111411200
5	0.017411832	-0.001014040	0.111411200
6	0.015381742	-0.001498540	0.111411200
7	0.013410073	-0.001990267	0.111411200
8	0.011506853	-0.002486214	0.111411200
9	0.009682183	-0.002984612	0.111411200
10	0.007945910	-0.003483849	0.111411200
11	0.006307568	-0.003982434	0.111411200
12	0.004776205	-0.004478502	0.111411200
13	0.003360313	-0.004969727	0.111411200
14	0.002067566	-0.005452712	0.111411200
15	0.000899813	-0.005910738	0.111411200
16	-0.000144553	-0.006321630	0.111411200
17	-0.001062554	-0.006677292	0.111411200
18	-0.001847261	-0.006981674	0.111411200
19	-0.002488645	-0.007248091	0.111411200
20	-0.002972363	-0.007495975	0.111411200
21	-0.003268783	-0.007746685	0.111411200
22	-0.003341787	-0.007965260	0.111411200
23	-0.003328082	-0.008042345	0.111411200
24	-0.003296884	-0.008115490	0.111411200
25	-0.003141906	-0.008295076	0.111411200
26	-0.002804580	-0.008500935	0.111411200
27	-0.002285200	-0.008685735	0.111411200
28	-0.001594003	-0.008820894	0.111411200
29	-0.000742429	-0.008879571	0.111411200
30	0.000255258	-0.008838028	0.111411200
31	0.001382971	-0.008681882	0.111411200
32	0.002626809	-0.008412637	0.111411200
33	0.003979593	-0.008050819	0.111411200
34	0.005437689	-0.007618734	0.111411200
35	0.006993415	-0.007120918	0.111411200
36	0.008638527	-0.006561048	0.111411200
37	0.010364539	-0.005943231	0.111411200
38	0.012162819	-0.005272203	0.111411200
39	0.014024432	-0.004552792	0.111411200
40	0.015940102	-0.003789709	0.111411200
41	0.017899926	-0.002986612	0.111411200
42	0.019893150	-0.002145255	0.111411200
43	0.021907485	-0.001263306	0.111411200
44	0.023928398	-0.000331838	0.111411200
45	0.025943379	0.000671639	0.111411200
1	0.025451440	0.000047784	0.115478400
2	0.023336634	-0.000270277	0.115478400
3	0.021249708	-0.000650502	0.115478400
4	0.019194552	-0.001066991	0.115478400
5	0.017178007	-0.001504694	0.115478400
6	0.015208532	-0.001954708	0.115478400
7	0.013295529	-0.002412227	0.115478400
8	0.011448727	-0.002874426	0.115478400
9	0.009677924	-0.003339701	0.115478400
10	0.007992665	-0.003806589	0.115478400
11	0.006402193	-0.004273740	0.115478400
12	0.004915285	-0.004739443	0.115478400
13	0.003540185	-0.005201532	0.115478400
14	0.002284354	-0.005656805	0.115478400
15	0.001149760	-0.006089149	0.115478400
16	0.000135048	-0.006477060	0.115478400
17	-0.000756837	-0.006812693	0.115478400
18	-0.001519229	-0.007099926	0.115478400
19	-0.002142547	-0.007351743	0.115478400
20	-0.002613093	-0.007587089	0.115478400
21	-0.002902384	-0.007826939	0.115478400
22	-0.002975192	-0.008037787	0.115478400
23	-0.002962692	-0.008112539	0.115478400
24	-0.002933225	-0.008183652	0.115478400
25	-0.002784997	-0.008359021	0.115478400
26	-0.002460490	-0.008561579	0.115478400
27	-0.001959532	-0.008745462	0.115478400
28	-0.001291767	-0.008882872	0.115478400
29	-0.000468028	-0.008947690	0.115478400
30	0.000498085	-0.008916803	0.115478400
31	0.001591125	-0.008776154	0.115478400
32	0.002797623	-0.008527117	0.115478400
33	0.004110456	-0.008189548	0.115478400
34	0.005525888	-0.007784962	0.115478400
35	0.007036433	-0.007317653	0.115478400
36	0.008634083	-0.006791119	0.115478400
37	0.010310582	-0.006209246	0.115478400
38	0.012057531	-0.005576538	0.115478400
39	0.013866235	-0.004897588	0.115478400
40	0.015727672	-0.004176869	0.115478400
41	0.017632223	-0.003417828	0.115478400
42	0.019569459	-0.002622060	0.115478400
43	0.021527509	-0.001787196	0.115478400
44	0.023492387	-0.000904455	0.115478400
45	0.025451440	0.000047784	0.115478400
1	0.025100373	-0.000523907	0.119545600
2	0.023037997	-0.000814993	0.119545600
3	0.021002229	-0.001166876	0.119545600
4	0.018997077	-0.001554331	0.119545600
5	0.017029332	-0.001962745	0.119545600
6	0.015107308	-0.002383520	0.119545600
7	0.013240206	-0.002812067	0.119545600
8	0.011437520	-0.003245706	0.119545600
9	0.009708811	-0.003682978	0.119545600
10	0.008063386	-0.004122549	0.119545600
11	0.006510260	-0.004563190	0.119545600
12	0.005057997	-0.005003325	0.119545600
13	0.003714646	-0.005440926	0.119545600
14	0.002487509	-0.005872961	0.119545600
15	0.001378672	-0.006283824	0.119545600
16	0.000386999	-0.006652529	0.119545600
17	-0.000484590	-0.006971416	0.119545600
18	-0.001229646	-0.007244300	0.119545600
19	-0.001838954	-0.007483914	0.119545600
20	-0.002299348	-0.007708831	0.119545600
21	-0.002583291	-0.007939755	0.119545600
22	-0.002656214	-0.008144403	0.119545600
23	-0.002644781	-0.008217325	0.119545600
24	-0.002616781	-0.008286874	0.119545600
25	-0.002474110	-0.008459097	0.119545600
26	-0.002159966	-0.008659416	0.119545600
27	-0.001673763	-0.008843116	0.119545600
28	-0.001024654	-0.008982994	0.119545600
29	-0.000222970	-0.009053482	0.119545600
30	0.000718229	-0.009031946	0.119545600
31	0.001784013	-0.008904592	0.119545600
32	0.002961259	-0.008672706	0.119545600
33	0.004242875	-0.008355641	0.119545600
34	0.005625021	-0.007974250	0.119545600
35	0.007100360	-0.007532615	0.119545600
36	0.008661065	-0.007034090	0.119545600
37	0.010299059	-0.006482374	0.119545600
38	0.012006122	-0.005881783	0.119545600
39	0.013773745	-0.005236711	0.119545600
40	0.015593101	-0.004551432	0.119545600
41	0.017454790	-0.003829217	0.119545600
42	0.019348638	-0.003071516	0.119545600
43	0.021263102	-0.002275908	0.119545600
44	0.023184633	-0.001433691	0.119545600
45	0.025100373	-0.000523907	0.119545600
1	0.024938431	-0.001009220	0.123612800
2	0.022909886	-0.001278237	0.123612800
3	0.020906948	-0.001607102	0.123612800
4	0.018933770	-0.001971083	0.123612800
5	0.016997150	-0.002355893	0.123612800
6	0.015105333	-0.002753170	0.123612800
7	0.013267395	-0.003158491	0.123612800
8	0.011492687	-0.003569293	0.123612800
9	0.009790612	-0.003984236	0.123612800
10	0.008170329	-0.004402094	0.123612800
11	0.006640700	-0.004821735	0.123612800
12	0.005210156	-0.005241700	0.123612800
13	0.003886621	-0.005660067	0.123612800
14	0.002677300	-0.006073944	0.123612800
15	0.001584416	-0.006468123	0.123612800
16	0.000607020	-0.006821941	0.123612800
17	-0.000251977	-0.007127835	0.123612800
18	-0.000986284	-0.007389573	0.123612800
19	-0.001586963	-0.007619726	0.123612800
20	-0.002041258	-0.007836641	0.123612800
21	-0.002322337	-0.008060909	0.123612800
22	-0.002396000	-0.008261244	0.123612800
23	-0.002385470	-0.008332996	0.123612800
24	-0.002358608	-0.008401587	0.123612800
25	-0.002219954	-0.008572051	0.123612800
26	-0.001913002	-0.008771518	0.123612800
27	-0.001436831	-0.008956037	0.123612800
28	-0.000800227	-0.009098787	0.123612800
29	-0.000013142	-0.009174544	0.123612800
30	0.000911764	-0.009160991	0.123612800
31	0.001959935	-0.009044515	0.123612800
32	0.003118489	-0.008826363	0.123612800
33	0.004380335	-0.008525580	0.123612800
34	0.005741510	-0.008162517	0.123612800
35	0.007194763	-0.007741074	0.123612800
36	0.008732382	-0.007264500	0.123612800
37	0.010346395	-0.006736346	0.123612800
38	0.012028695	-0.006160788	0.123612800
39	0.013770881	-0.005542067	0.123612800
40	0.015564247	-0.004884309	0.123612800
41	0.017399528	-0.004190645	0.123612800
42	0.019266716	-0.003462411	0.123612800
43	0.021154493	-0.002697137	0.123612800
44	0.023049621	-0.001886163	0.123612800
45	0.024938431	-0.001009220	0.123612800
1	0.024995393	-0.001411998	0.127680000
2	0.022979184	-0.001662359	0.127680000
3	0.020987871	-0.001972245	0.127680000
4	0.019025793	-0.002317166	0.127680000
5	0.017099823	-0.002683008	0.127680000
6	0.015218219	-0.003061560	0.127680000
7	0.013390035	-0.003448512	0.127680000
8	0.011624569	-0.003841392	0.127680000
9	0.009931174	-0.004238957	0.127680000
10	0.008318949	-0.004640074	0.127680000
11	0.006796707	-0.005043696	0.127680000
12	0.005372830	-0.005448459	0.127680000
13	0.004055202	-0.005852526	0.127680000
14	0.002851011	-0.006253115	0.127680000
15	0.001762630	-0.006635254	0.127680000
16	0.000789273	-0.006978361	0.127680000
17	-0.000066132	-0.007274877	0.127680000
18	-0.000797382	-0.007528561	0.127680000
19	-0.001395714	-0.007751964	0.127680000
20	-0.001848619	-0.007963420	0.127680000
21	-0.002129639	-0.008183635	0.127680000
22	-0.002204600	-0.008381868	0.127680000
23	-0.002194820	-0.008453205	0.127680000
24	-0.002168792	-0.008521560	0.127680000
25	-0.002032688	-0.008692084	0.127680000
26	-0.001729689	-0.008892862	0.127680000
27	-0.001258503	-0.009080208	0.127680000
28	-0.000627632	-0.009227366	0.127680000
29	0.000153235	-0.009309169	0.127680000
30	0.001071692	-0.009303347	0.127680000
31	0.002113384	-0.009196305	0.127680000
32	0.003265521	-0.008989263	0.127680000
33	0.004520932	-0.008701171	0.127680000
34	0.005875501	-0.008352118	0.127680000
35	0.007321983	-0.007945871	0.127680000
36	0.008852702	-0.007485612	0.127680000
37	0.010459709	-0.006974786	0.127680000
38	0.012134920	-0.006417477	0.127680000
39	0.013869959	-0.005817825	0.127680000
40	0.015656148	-0.005179856	0.127680000
41	0.017484261	-0.004506599	0.127680000
42	0.019344350	-0.003799300	0.127680000
43	0.021225202	-0.003055421	0.127680000
44	0.023113747	-0.002266260	0.127680000
45	0.024995393	-0.001411998	0.127680000
1	0.025176078	-0.001717985	0.130856467
2	0.023155224	-0.001956017	0.130856467
3	0.021158969	-0.002253931	0.130856467
4	0.019191788	-0.002587150	0.130856467
5	0.017260639	-0.002941529	0.130856467
6	0.015373842	-0.003308888	0.130856467
7	0.013540484	-0.003684962	0.130856467
8	0.011769894	-0.004067326	0.130856467
9	0.010071446	-0.004454801	0.130856467
10	0.008454262	-0.004846318	0.130856467
11	0.006927173	-0.005240892	0.130856467
12	0.005498586	-0.005637217	0.130856467
13	0.004176410	-0.006033515	0.130856467
14	0.002967867	-0.006427058	0.130856467
15	0.001875447	-0.006802926	0.130856467
16	0.000898482	-0.007140462	0.130856467
17	0.000039935	-0.007432067	0.130856467
18	-0.000694010	-0.007681531	0.130856467
19	-0.001294653	-0.007901487	0.130856467
20	-0.001749575	-0.008110399	0.130856467
21	-0.002032391	-0.008329191	0.130856467
22	-0.002108747	-0.008527247	0.130856467
23	-0.002099459	-0.008598760	0.130856467
24	-0.002073895	-0.008667415	0.130856467
25	-0.001938854	-0.008839221	0.130856467
26	-0.001636843	-0.009042515	0.130856467
27	-0.001166237	-0.009233462	0.130856467
28	-0.000535379	-0.009385134	0.130856467
29	0.000246171	-0.009472200	0.130856467
30	0.001166104	-0.009472247	0.130856467
31	0.002210103	-0.009371587	0.130856467
32	0.003365344	-0.009171428	0.130856467
33	0.004624541	-0.008890803	0.130856467
34	0.005983438	-0.008549751	0.130856467
35	0.007434745	-0.008151970	0.130856467
36	0.008970761	-0.007700618	0.130856467
37	0.010583497	-0.007199082	0.130856467
38	0.012264833	-0.006651411	0.130856467
39	0.014006353	-0.006061693	0.130856467
40	0.015799340	-0.005433909	0.130856467
41	0.017634533	-0.004771028	0.130856467
42	0.019501956	-0.004074218	0.130856467
43	0.021390387	-0.003340845	0.130856467
44	0.023286777	-0.002562054	0.130856467
45	0.025176078	-0.001717985	0.130856467
1	0.025449142	-0.001951316	0.133968271
2	0.023414159	-0.002181623	0.133968271
3	0.021403609	-0.002472156	0.133968271
4	0.019422125	-0.002798234	0.133968271
5	0.017476781	-0.003145664	0.133968271
6	0.015575994	-0.003506280	0.133968271
7	0.013728933	-0.003875839	0.133968271
8	0.011944996	-0.004251945	0.133968271
9	0.010233623	-0.004633466	0.133968271
10	0.008604000	-0.005019375	0.133968271
11	0.007065018	-0.005408729	0.133968271
12	0.005625146	-0.005800267	0.133968271
13	0.004292350	-0.006192246	0.133968271
14	0.003073913	-0.006581972	0.133968271
15	0.001972441	-0.006954507	0.133968271
16	0.000987378	-0.007289091	0.133968271
17	0.000121745	-0.007578078	0.133968271
18	-0.000618264	-0.007825288	0.133968271
19	-0.001223976	-0.008043442	0.133968271
20	-0.001683018	-0.008251144	0.133968271
21	-0.001969055	-0.008469571	0.133968271
22	-0.002047293	-0.008668363	0.133968271
23	-0.002038374	-0.008740394	0.133968271
24	-0.002013005	-0.008809625	0.133968271
25	-0.001877847	-0.008983129	0.133968271
26	-0.001574698	-0.009188945	0.133968271
27	-0.001101816	-0.009383018	0.133968271
28	-0.000467502	-0.009538260	0.133968271
29	0.000318735	-0.009629183	0.133968271
30	0.001244614	-0.009633251	0.133968271
31	0.002295821	-0.009536705	0.133968271
32	0.003459481	-0.009340755	0.133968271
33	0.004728195	-0.009064515	0.133968271
34	0.006097572	-0.008728037	0.133968271
35	0.007560255	-0.008334983	0.133968271
36	0.009108482	-0.007888502	0.133968271
37	0.010734193	-0.007391949	0.133968271
38	0.012429196	-0.006849355	0.133968271
39	0.014184998	-0.006264784	0.133968271
40	0.015992807	-0.005642199	0.133968271
41	0.017843285	-0.004984536	0.133968271
42	0.019726386	-0.004292921	0.133968271
43	0.021630831	-0.003564653	0.133968271
44	0.023543534	-0.002790763	0.133968271
45	0.025449142	-0.001951316	0.133968271
1	0.025727152	-0.001967404	0.136952063
2	0.023678323	-0.002194447	0.136952063
3	0.021653700	-0.002481384	0.136952063
4	0.019658109	-0.002803725	0.136952063
5	0.017698761	-0.003147378	0.136952063
6	0.015784184	-0.003504264	0.136952063
7	0.013923631	-0.003870192	0.136952063
8	0.012126576	-0.004242805	0.136952063
9	0.010402523	-0.004620998	0.136952063
10	0.008760722	-0.005003775	0.136952063
11	0.007210119	-0.005390207	0.136952063
12	0.005759240	-0.005779053	0.136952063
13	0.004416105	-0.006168590	0.136952063
14	0.003188032	-0.006556091	0.136952063
15	0.002077667	-0.006926440	0.136952063
16	0.001084611	-0.007258975	0.136952063
17	0.000211988	-0.007546165	0.136952063
18	-0.000533983	-0.007791888	0.136952063
19	-0.001144644	-0.008008919	0.136952063
20	-0.001607692	-0.008215896	0.136952063
21	-0.001896923	-0.008434108	0.136952063
22	-0.001977028	-0.008633664	0.136952063
23	-0.001968363	-0.008706209	0.136952063
24	-0.001943000	-0.008775955	0.136952063
25	-0.001807081	-0.008950680	0.136952063
26	-0.001501976	-0.009157892	0.136952063
27	-0.001026093	-0.009353485	0.136952063
28	-0.000387783	-0.009510419	0.136952063
29	0.000403459	-0.009603251	0.136952063
30	0.001335400	-0.009609491	0.136952063
31	0.002393775	-0.009515347	0.136952063
32	0.003565695	-0.009321908	0.136952063
33	0.004843639	-0.009048090	0.136952063
34	0.006223123	-0.008714050	0.136952063
35	0.007696754	-0.008323516	0.136952063
36	0.009256710	-0.007879632	0.136952063
37	0.010894867	-0.007385727	0.136952063
38	0.012602959	-0.006845800	0.136952063
39	0.014372422	-0.006263907	0.136952063
40	0.016194391	-0.005643999	0.136952063
41	0.018059462	-0.004989020	0.136952063
42	0.019957531	-0.004300107	0.136952063
43	0.021877282	-0.003574602	0.136952063
44	0.023805622	-0.002803611	0.136952063
45	0.025727152	-0.001967404	0.136952063
1	0.025774928	-0.001756167	0.139747103
2	0.023733890	-0.001978766	0.139747103
3	0.021716745	-0.002260688	0.139747103
4	0.019728396	-0.002577736	0.139747103
5	0.017776073	-0.002915953	0.139747103
6	0.015868299	-0.003267377	0.139747103
7	0.014014309	-0.003627880	0.139747103
8	0.012223546	-0.003995157	0.139747103
9	0.010505478	-0.004368117	0.139747103
10	0.008869318	-0.004745780	0.139747103
11	0.007323973	-0.005127216	0.139747103
12	0.005877925	-0.005511186	0.139747103
13	0.004539164	-0.005895982	0.139747103
14	0.003314931	-0.006278756	0.139747103
15	0.002207740	-0.006644012	0.139747103
16	0.001217410	-0.006971654	0.139747103
17	0.000347215	-0.007254610	0.139747103
18	-0.000396623	-0.007496887	0.139747103
19	-0.001005524	-0.007711226	0.139747103
20	-0.001467333	-0.007916065	0.139747103
21	-0.001756158	-0.008132460	0.139747103
22	-0.001836640	-0.008330933	0.139747103
23	-0.001828119	-0.008403201	0.139747103
24	-0.001802888	-0.008472665	0.139747103
25	-0.001667406	-0.008646555	0.139747103
26	-0.001363383	-0.008852637	0.139747103
27	-0.000889409	-0.009047258	0.139747103
28	-0.000253813	-0.009203810	0.139747103
29	0.000534027	-0.009297266	0.139747103
30	0.001462084	-0.009305436	0.139747103
31	0.002516309	-0.009214518	0.139747103
32	0.003683899	-0.009025201	0.139747103
33	0.004957195	-0.008755653	0.139747103
34	0.006331717	-0.008426213	0.139747103
35	0.007800148	-0.008040824	0.139747103
36	0.009354695	-0.007602586	0.139747103
37	0.010987257	-0.007114785	0.139747103
38	0.012689578	-0.006581334	0.139747103
39	0.014453122	-0.006006253	0.139747103
40	0.016269046	-0.005393440	0.139747103
41	0.018127985	-0.004745831	0.139747103
42	0.020019882	-0.004064558	0.139747103
43	0.021933492	-0.003347003	0.139747103
44	0.023855826	-0.002584375	0.139747103
45	0.025774928	-0.001756167	0.139747103
1	0.025349814	-0.001446681	0.142296492
2	0.023361167	-0.001659527	0.142296492
3	0.021395697	-0.001930224	0.142296492
4	0.019458245	-0.002235332	0.142296492
5	0.017555871	-0.002561230	0.142296492
6	0.015696891	-0.002900188	0.142296492
7	0.013890308	-0.003248203	0.142296492
8	0.012145331	-0.003603058	0.142296492
9	0.010471183	-0.003963684	0.142296492
10	0.008876837	-0.004329122	0.142296492
11	0.007370964	-0.004698436	0.142296492
12	0.005961819	-0.005070385	0.142296492
13	0.004657179	-0.005443290	0.142296492
14	0.003464018	-0.005814118	0.142296492
15	0.002384548	-0.006167005	0.142296492
16	0.001418847	-0.006483061	0.142296492
17	0.000570329	-0.006756025	0.142296492
18	-0.000154886	-0.006990048	0.142296492
19	-0.000748443	-0.007197615	0.142296492
20	-0.001198543	-0.007396571	0.142296492
21	-0.001479983	-0.007607217	0.142296492
22	-0.001558172	-0.007800614	0.142296492
23	-0.001549733	-0.007870991	0.142296492
24	-0.001525023	-0.007938582	0.142296492
25	-0.001392785	-0.008107670	0.142296492
26	-0.001096515	-0.008308026	0.142296492
27	-0.000634927	-0.008497438	0.142296492
28	-0.000016121	-0.008650370	0.142296492
29	0.000750883	-0.008742818	0.142296492
30	0.001654570	-0.008753345	0.142296492
31	0.002681428	-0.008668268	0.142296492
32	0.003818966	-0.008487573	0.142296492
33	0.005059449	-0.008227947	0.142296492
34	0.006398526	-0.007909746	0.142296492
35	0.007829154	-0.007537243	0.142296492
36	0.009343732	-0.007113422	0.142296492
37	0.010934366	-0.006641464	0.142296492
38	0.012592986	-0.006125098	0.142296492
39	0.014311274	-0.005568231	0.142296492
40	0.016080606	-0.004974631	0.142296492
41	0.017891867	-0.004347164	0.142296492
42	0.019735266	-0.003686934	0.142296492
43	0.021599866	-0.002991390	0.142296492
44	0.023473048	-0.002251965	0.142296492
45	0.025349814	-0.001446681	0.142296492
1	0.024300392	-0.001160748	0.144548330
2	0.022425159	-0.001359995	0.144548330
3	0.020571361	-0.001612554	0.144548330
4	0.018743803	-0.001897165	0.144548330
5	0.016949240	-0.002201299	0.144548330
6	0.015195579	-0.002517874	0.144548330
7	0.013491337	-0.002843214	0.144548330
8	0.011845221	-0.003175300	0.144548330
9	0.010265931	-0.003513120	0.144548330
10	0.008761931	-0.003855761	0.144548330
11	0.007341391	-0.004202296	0.144548330
12	0.006012090	-0.004551508	0.144548330
13	0.004781355	-0.004901788	0.144548330
14	0.003655645	-0.005249891	0.144548330
15	0.002636748	-0.005579907	0.144548330
16	0.001725040	-0.005874874	0.144548330
17	0.000923997	-0.006129643	0.144548330
18	0.000239479	-0.006348451	0.144548330
19	-0.000320626	-0.006543184	0.144548330
20	-0.000745190	-0.006730570	0.144548330
21	-0.001010328	-0.006929540	0.144548330
22	-0.001083203	-0.007112238	0.144548330
23	-0.001074883	-0.007178562	0.144548330
24	-0.001051295	-0.007242177	0.144548330
25	-0.000926147	-0.007401227	0.144548330
26	-0.000646580	-0.007589755	0.144548330
27	-0.000211395	-0.007768306	0.144548330
28	0.000371823	-0.007913201	0.144548330
29	0.001094709	-0.008002200	0.144548330
30	0.001946634	-0.008015215	0.144548330
31	0.002915037	-0.007938966	0.144548330
32	0.003988076	-0.007772548	0.144548330
33	0.005158103	-0.007530439	0.144548330
34	0.006421014	-0.007232487	0.144548330
35	0.007770286	-0.006883351	0.144548330
36	0.009198730	-0.006485791	0.144548330
37	0.010698896	-0.006042802	0.144548330
38	0.012263147	-0.005557820	0.144548330
39	0.013883636	-0.005034540	0.144548330
40	0.015552228	-0.004476518	0.144548330
41	0.017260351	-0.003886538	0.144548330
42	0.018998809	-0.003265755	0.144548330
43	0.020757361	-0.002611984	0.144548330
44	0.022524229	-0.001917535	0.144548330
45	0.024300392	-0.001160748	0.144548330
1	0.022631889	-0.000964892	0.146456779
2	0.020929508	-0.001145532	0.146456779
3	0.019246233	-0.001373390	0.146456779
4	0.017586654	-0.001630021	0.146456779
5	0.015956974	-0.001904291	0.146456779
6	0.014364417	-0.002189939	0.146456779
7	0.012816741	-0.002483714	0.146456779
8	0.011321867	-0.002783842	0.146456779
9	0.009887699	-0.003089403	0.146456779
10	0.008521924	-0.003399558	0.146456779
11	0.007231954	-0.003713421	0.146456779
12	0.006024844	-0.004029849	0.146456779
13	0.004907243	-0.004347351	0.146456779
14	0.003884871	-0.004662509	0.146456779
15	0.002959064	-0.004959986	0.146456779
16	0.002130464	-0.005225277	0.146456779
17	0.001402476	-0.005454445	0.146456779
18	0.000780507	-0.005651669	0.146456779
19	0.000271745	-0.005827854	0.146456779
20	-0.000113676	-0.005998114	0.146456779
21	-0.000353864	-0.006179434	0.146456779
22	-0.000418771	-0.006345781	0.146456779
23	-0.000410721	-0.006405931	0.146456779
24	-0.000388932	-0.006463532	0.146456779
25	-0.000274770	-0.006607459	0.146456779
26	-0.000020726	-0.006778157	0.146456779
27	0.000374312	-0.006940130	0.146456779
28	0.000903523	-0.007072260	0.146456779
29	0.001559446	-0.007154731	0.146456779
30	0.002332649	-0.007169403	0.146456779
31	0.003211893	-0.007103826	0.146456779
32	0.004186364	-0.006956273	0.146456779
33	0.005248759	-0.006738619	0.146456779
34	0.006395327	-0.006469426	0.146456779
35	0.007620286	-0.006153687	0.146456779
36	0.008917086	-0.005793848	0.146456779
37	0.010278960	-0.005392631	0.146456779
38	0.011698947	-0.004953092	0.146456779
39	0.013169924	-0.004478595	0.146456779
40	0.014684507	-0.003972388	0.146456779
41	0.016234936	-0.003437077	0.146456779
42	0.017812900	-0.002873826	0.146456779
43	0.019409162	-0.002280852	0.146456779
44	0.021013133	-0.001651497	0.146456779
45	0.022631889	-0.000964892	0.146456779
1	0.020668500	-0.000867497	0.147982986
2	0.019165065	-0.001018996	0.147982986
3	0.017679357	-0.001215687	0.147982986
4	0.016215142	-0.001440175	0.147982986
5	0.014777597	-0.001681438	0.147982986
6	0.013372944	-0.001933357	0.147982986
7	0.012007955	-0.002192768	0.147982986
8	0.010689588	-0.002457993	0.147982986
9	0.009424799	-0.002728141	0.147982986
10	0.008220364	-0.003002436	0.147982986
11	0.007082811	-0.003280048	0.147982986
12	0.006018358	-0.003559932	0.147982986
13	0.005032863	-0.003840743	0.147982986
14	0.004131226	-0.004118999	0.147982986
15	0.003314402	-0.004380535	0.147982986
16	0.002583198	-0.004613315	0.147982986
17	0.001940804	-0.004814444	0.147982986
18	0.001392068	-0.004987873	0.147982986
19	0.000943356	-0.005143296	0.147982986
20	0.000603650	-0.005293973	0.147982986
21	0.000392460	-0.005454707	0.147982986
22	0.000336430	-0.005601868	0.147982986
23	0.000343947	-0.005654847	0.147982986
24	0.000363484	-0.005705490	0.147982986
25	0.000464605	-0.005831968	0.147982986
26	0.000688750	-0.005982092	0.147982986
27	0.001036945	-0.006124845	0.147982986
28	0.001503239	-0.006241922	0.147982986
29	0.002081173	-0.006316163	0.147982986
30	0.002762619	-0.006331668	0.147982986
31	0.003537817	-0.006277157	0.147982986
32	0.004397192	-0.006150383	0.147982986
33	0.005334028	-0.005960783	0.147982986
34	0.006344957	-0.005725025	0.147982986
35	0.007425011	-0.005448240	0.147982986
36	0.008568403	-0.005132537	0.147982986
37	0.009769163	-0.004780323	0.147982986
38	0.011021137	-0.004394241	0.147982986
39	0.012318038	-0.003977238	0.147982986
40	0.013653343	-0.003532130	0.147982986
41	0.015020192	-0.003061124	0.147982986
42	0.016411196	-0.002564979	0.147982986
43	0.017818082	-0.002041561	0.147982986
44	0.019231244	-0.001483864	0.147982986
45	0.020668500	-0.000867497	0.147982986
1	0.017232040	-0.000830998	0.150000000
2	0.016075945	-0.000920662	0.150000000
3	0.014936720	-0.001058063	0.150000000
4	0.013815932	-0.001224697	0.150000000
5	0.012716545	-0.001408153	0.150000000
6	0.011642797	-0.001601691	0.150000000
7	0.010599614	-0.001801870	0.150000000
8	0.009592208	-0.002006958	0.150000000
9	0.008625845	-0.002216038	0.150000000
10	0.007705690	-0.002428417	0.150000000
11	0.006836717	-0.002643364	0.150000000
12	0.006023672	-0.002860022	0.150000000
13	0.005271025	-0.003077305	0.150000000
14	0.004582326	-0.003291930	0.150000000
15	0.003958079	-0.003492500	0.150000000
16	0.003399136	-0.003670616	0.150000000
17	0.002908117	-0.003824634	0.150000000
18	0.002488811	-0.003957829	0.150000000
19	0.002146128	-0.004077645	0.150000000
20	0.001887001	-0.004194101	0.150000000
21	0.001726553	-0.004318241	0.150000000
22	0.001685189	-0.004431278	0.150000000
23	0.001691424	-0.004471709	0.150000000
24	0.001706714	-0.004510217	0.150000000
25	0.001784471	-0.004606314	0.150000000
26	0.001955781	-0.004720583	0.150000000
27	0.002221470	-0.004829752	0.150000000
28	0.002577101	-0.004920244	0.150000000
29	0.003017909	-0.004979346	0.150000000
30	0.003537939	-0.004995067	0.150000000
31	0.004129956	-0.004958495	0.150000000
32	0.004786658	-0.004867120	0.150000000
33	0.005502622	-0.004727000	0.150000000
34	0.006275136	-0.004550978	0.150000000
35	0.007100563	-0.004343888	0.150000000
36	0.007974465	-0.004107267	0.150000000
37	0.008892275	-0.003842936	0.150000000
38	0.009849264	-0.003552817	0.150000000
39	0.010840594	-0.003239044	0.150000000
40	0.011861227	-0.002903562	0.150000000
41	0.012905808	-0.002547601	0.150000000
42	0.013968440	-0.002170741	0.150000000
43	0.015042304	-0.001769337	0.150000000
44	0.016119090	-0.001334144	0.150000000
45	0.017232040	-0.000830998	0.150000000
