######## Panel parameters ########
n_blades=5

n_span_all= 41
n_points=45
######## End of parameters ########
1	0.026000000	-0.013203505	-0.015997629
2	0.026000000	-0.011817437	-0.014384567
3	0.026000000	-0.010282208	-0.012922363
4	0.026000000	-0.008720405	-0.011526700
5	0.026000000	-0.007163749	-0.010177991
6	0.026000000	-0.005632888	-0.008866051
7	0.026000000	-0.004153168	-0.007578149
8	0.026000000	-0.002742414	-0.006307384
9	0.026000000	-0.001426044	-0.005041975
10	0.026000000	-0.000236566	-0.003766738
11	0.026000000	0.000807179	-0.002484976
12	0.026000000	0.001698263	-0.001212211
13	0.026000000	0.002427484	0.000036983
14	0.026000000	0.002995375	0.001241705
15	0.026000000	0.003406178	0.002380366
16	0.026000000	0.003665771	0.003431739
17	0.026000000	0.003784351	0.004374006
18	0.026000000	0.003748300	0.005184377
19	0.026000000	0.003565341	0.005827554
20	0.026000000	0.003302787	0.006281025
21	0.026000000	0.003053814	0.006563475
22	0.026000000	0.002880704	0.006710095
23	0.026000000	0.002819446	0.006754718
24	0.026000000	0.002755751	0.006798141
25	0.026000000	0.002555662	0.006913066
26	0.026000000	0.002200670	0.007057381
27	0.026000000	0.001681208	0.007179116
28	0.026000000	0.001000939	0.007203373
29	0.026000000	0.000189473	0.007053768
30	0.026000000	-0.000716127	0.006717758
31	0.026000000	-0.001688606	0.006200614
32	0.026000000	-0.002700961	0.005499900
33	0.026000000	-0.003724163	0.004612126
34	0.026000000	-0.004735643	0.003543697
35	0.026000000	-0.005719329	0.002306879
36	0.026000000	-0.006658765	0.000912355
37	0.026000000	-0.007547530	-0.000622822
38	0.026000000	-0.008378993	-0.002283614
39	0.026000000	-0.009157778	-0.004050946
40	0.026000000	-0.009899078	-0.005903536
41	0.026000000	-0.010607570	-0.007828088
42	0.026000000	-0.011309292	-0.009802423
43	0.026000000	-0.011999615	-0.011819259
44	0.026000000	-0.012661848	-0.013876877
45	0.026000000	-0.013203505	-0.015997629
1	0.029720000	-0.014697111	-0.015621907
2	0.029720000	-0.013185271	-0.014095599
3	0.029720000	-0.011575825	-0.012688006
4	0.029720000	-0.009957489	-0.011329764
5	0.029720000	-0.008364592	-0.009995379
6	0.029720000	-0.006818168	-0.008673948
7	0.029720000	-0.005335555	-0.007362248
8	0.029720000	-0.003922201	-0.006068591
9	0.029720000	-0.002589435	-0.004796152
10	0.029720000	-0.001373240	-0.003524157
11	0.029720000	-0.000283530	-0.002261054
12	0.029720000	0.000679709	-0.001023724
13	0.029720000	0.001516187	0.000172744
14	0.029720000	0.002216936	0.001319865
15	0.029720000	0.002777933	0.002405174
16	0.029720000	0.003197506	0.003414400
17	0.029720000	0.003473978	0.004332255
18	0.029720000	0.003601608	0.005141307
19	0.029720000	0.003574268	0.005815890
20	0.029720000	0.003423634	0.006322412
21	0.029720000	0.003234400	0.006651576
22	0.029720000	0.003078632	0.006818911
23	0.029720000	0.003020064	0.006868075
24	0.029720000	0.002957036	0.006914874
25	0.029720000	0.002752273	0.007029765
26	0.029720000	0.002379845	0.007145244
27	0.029720000	0.001840469	0.007210691
28	0.029720000	0.001147536	0.007174979
29	0.029720000	0.000324182	0.007002944
30	0.029720000	-0.000605617	0.006680525
31	0.029720000	-0.001619025	0.006199018
32	0.029720000	-0.002691625	0.005549204
33	0.029720000	-0.003796332	0.004722555
34	0.029720000	-0.004903205	0.003712582
35	0.029720000	-0.005991894	0.002527012
36	0.029720000	-0.007049922	0.001180515
37	0.029720000	-0.008057210	-0.000319148
38	0.029720000	-0.008995722	-0.001961365
39	0.029720000	-0.009866582	-0.003724991
40	0.029720000	-0.010708577	-0.005574652
41	0.029720000	-0.011523271	-0.007497795
42	0.029720000	-0.012339030	-0.009469495
43	0.029720000	-0.013164925	-0.011476466
44	0.029720000	-0.013982060	-0.013518258
45	0.029720000	-0.014697111	-0.015621907
1	0.033440000	-0.016092217	-0.015447916
2	0.033440000	-0.014486728	-0.013948999
3	0.033440000	-0.012814024	-0.012543643
4	0.033440000	-0.011145366	-0.011173064
5	0.033440000	-0.009510807	-0.009816368
6	0.033440000	-0.007925140	-0.008470864
7	0.033440000	-0.006402754	-0.007136964
8	0.033440000	-0.004951358	-0.005821082
9	0.033440000	-0.003583649	-0.004525207
10	0.033440000	-0.002321096	-0.003242927
11	0.033440000	-0.001171696	-0.001982509
12	0.033440000	-0.000135329	-0.000759045
13	0.033440000	0.000788885	0.000413280
14	0.033440000	0.001597084	0.001525194
15	0.033440000	0.002282663	0.002569645
16	0.033440000	0.002837326	0.003540010
17	0.033440000	0.003251698	0.004428424
18	0.033440000	0.003515281	0.005223596
19	0.033440000	0.003617550	0.005906604
20	0.033440000	0.003567134	0.006444357
21	0.033440000	0.003424533	0.006804814
22	0.033440000	0.003282256	0.006990077
23	0.033440000	0.003225191	0.007043509
24	0.033440000	0.003162055	0.007093362
25	0.033440000	0.002951723	0.007209911
26	0.033440000	0.002566498	0.007315618
27	0.033440000	0.002011087	0.007354713
28	0.033440000	0.001303121	0.007286128
29	0.033440000	0.000463828	0.007088521
30	0.033440000	-0.000485245	0.006746862
31	0.033440000	-0.001522629	0.006250567
32	0.033440000	-0.002626795	0.005592484
33	0.033440000	-0.003775366	0.004767342
34	0.033440000	-0.004945143	0.003772088
35	0.033440000	-0.006115972	0.002609883
36	0.033440000	-0.007269088	0.001286742
37	0.033440000	-0.008381317	-0.000193473
38	0.033440000	-0.009429173	-0.001824384
39	0.033440000	-0.010409737	-0.003585652
40	0.033440000	-0.011355640	-0.005441352
41	0.033440000	-0.012293816	-0.007365216
42	0.033440000	-0.013252516	-0.009330370
43	0.033440000	-0.014232886	-0.011325898
44	0.033440000	-0.015210385	-0.013354491
45	0.033440000	-0.016092217	-0.015447916
1	0.037160000	-0.017445379	-0.015457209
2	0.037160000	-0.015751070	-0.013953149
3	0.037160000	-0.014015670	-0.012516754
4	0.037160000	-0.012295047	-0.011102702
5	0.037160000	-0.010613025	-0.009698227
6	0.037160000	-0.008976806	-0.008310600
7	0.037160000	-0.007397322	-0.006944467
8	0.037160000	-0.005887161	-0.005600979
9	0.037160000	-0.004471200	-0.004269156
10	0.037160000	-0.003152011	-0.002962617
11	0.037160000	-0.001934128	-0.001692068
12	0.037160000	-0.000821988	-0.000467352
13	0.037160000	0.000183165	0.000699683
14	0.037160000	0.001082918	0.001796040
15	0.037160000	0.001871539	0.002815762
16	0.037160000	0.002538143	0.003756878
17	0.037160000	0.003069218	0.004617792
18	0.037160000	0.003450275	0.005393782
19	0.037160000	0.003667841	0.006072624
20	0.037160000	0.003715465	0.006627808
21	0.037160000	0.003617547	0.007014637
22	0.037160000	0.003488233	0.007217867
23	0.037160000	0.003432014	0.007275673
24	0.037160000	0.003368067	0.007328329
25	0.037160000	0.003150608	0.007446578
26	0.037160000	0.002752033	0.007548176
27	0.037160000	0.002179108	0.007570873
28	0.037160000	0.001452718	0.007476066
29	0.037160000	0.000595871	0.007242891
30	0.037160000	-0.000368510	0.006856625
31	0.037160000	-0.001419156	0.006309829
32	0.037160000	-0.002538079	0.005602141
33	0.037160000	-0.003710916	0.004738176
34	0.037160000	-0.004925601	0.003724611
35	0.037160000	-0.006162221	0.002559368
36	0.037160000	-0.007394747	0.001237048
37	0.037160000	-0.008601892	-0.000239204
38	0.037160000	-0.009761773	-0.001864323
39	0.037160000	-0.010866769	-0.003621919
40	0.037160000	-0.011921316	-0.005489972
41	0.037160000	-0.012997486	-0.007413687
42	0.037160000	-0.014114523	-0.009368638
43	0.037160000	-0.015258150	-0.011351487
44	0.037160000	-0.016397821	-0.013369276
45	0.037160000	-0.017445379	-0.015457209
1	0.040880000	-0.018771690	-0.015555410
2	0.040880000	-0.016977206	-0.014043748
3	0.040880000	-0.015168019	-0.012572278
4	0.040880000	-0.013383958	-0.011111673
5	0.040880000	-0.011642387	-0.009657566
6	0.040880000	-0.009947042	-0.008222201
7	0.040880000	-0.008306730	-0.006813190
8	0.040880000	-0.006731705	-0.005434843
9	0.040880000	-0.005257417	-0.004064501
10	0.040880000	-0.003876184	-0.002727162
11	0.040880000	-0.002589023	-0.001437024
12	0.040880000	-0.001404547	-0.000199515
13	0.040880000	-0.000326255	0.000975601
14	0.040880000	0.000649405	0.002073290
15	0.040880000	0.001518879	0.003086129
16	0.040880000	0.002272282	0.004012755
17	0.040880000	0.002895864	0.004854461
18	0.040880000	0.003374112	0.005611394
19	0.040880000	0.003692335	0.006277777
20	0.040880000	0.003835583	0.006836969
21	0.040880000	0.003792540	0.007247063
22	0.040880000	0.003679941	0.007469215
23	0.040880000	0.003624238	0.007531372
24	0.040880000	0.003559008	0.007586504
25	0.040880000	0.003332904	0.007704674
26	0.040880000	0.002918751	0.007795839
27	0.040880000	0.002327469	0.007794828
28	0.040880000	0.001583153	0.007665485
29	0.040880000	0.000710712	0.007387124
30	0.040880000	-0.000265571	0.006945892
31	0.040880000	-0.001324779	0.006337496
32	0.040880000	-0.002452405	0.005567525
33	0.040880000	-0.003641777	0.004649611
34	0.040880000	-0.004891084	0.003600105
35	0.040880000	-0.006179170	0.002411996
36	0.040880000	-0.007478197	0.001074769
37	0.040880000	-0.008771309	-0.000407097
38	0.040880000	-0.010041755	-0.002027634
39	0.040880000	-0.011278386	-0.003775438
40	0.040880000	-0.012457802	-0.005647091
41	0.040880000	-0.013684496	-0.007560760
42	0.040880000	-0.014963178	-0.009498691
43	0.040880000	-0.016267324	-0.011465697
44	0.040880000	-0.017563278	-0.013472388
45	0.040880000	-0.018771690	-0.015555410
1	0.044600000	-0.020009829	-0.015660897
2	0.044600000	-0.018111508	-0.014150325
3	0.044600000	-0.016224783	-0.012651083
4	0.044600000	-0.014373166	-0.011151630
5	0.044600000	-0.012567730	-0.009655800
6	0.044600000	-0.010810660	-0.008178481
7	0.044600000	-0.009110496	-0.006728164
8	0.044600000	-0.007474386	-0.005313364
9	0.044600000	-0.005938622	-0.003910375
10	0.044600000	-0.004495023	-0.002545187
11	0.044600000	-0.003143464	-0.001233522
12	0.044600000	-0.001894724	0.000021338
13	0.044600000	-0.000754145	0.001211174
14	0.044600000	0.000280842	0.002321287
15	0.044600000	0.001209554	0.003341363
16	0.044600000	0.002026103	0.004266893
17	0.044600000	0.002719176	0.005098632
18	0.044600000	0.003274352	0.005839091
19	0.044600000	0.003676661	0.006487940
20	0.044600000	0.003906896	0.007038732
21	0.044600000	0.003931089	0.007463929
22	0.044600000	0.003840221	0.007703931
23	0.044600000	0.003785170	0.007770285
24	0.044600000	0.003718563	0.007827654
25	0.044600000	0.003483451	0.007944339
26	0.044600000	0.003053787	0.008021363
27	0.044600000	0.002445593	0.007994580
28	0.044600000	0.001685169	0.007830921
29	0.044600000	0.000798696	0.007509765
30	0.044600000	-0.000188526	0.007017723
31	0.044600000	-0.001255741	0.006352351
32	0.044600000	-0.002391045	0.005523195
33	0.044600000	-0.003593932	0.004550628
34	0.044600000	-0.004869578	0.003457516
35	0.044600000	-0.006196436	0.002234890
36	0.044600000	-0.007550745	0.000874588
37	0.044600000	-0.008919845	-0.000617451
38	0.044600000	-0.010291617	-0.002234029
39	0.044600000	-0.011652972	-0.003967846
40	0.044600000	-0.012972796	-0.005824180
41	0.044600000	-0.014349313	-0.007716696
42	0.044600000	-0.015775879	-0.009634538
43	0.044600000	-0.017222355	-0.011586471
44	0.044600000	-0.018655988	-0.013583991
45	0.044600000	-0.020009829	-0.015660897
1	0.048320000	-0.021085157	-0.015677745
2	0.048320000	-0.019090863	-0.014182141
3	0.048320000	-0.017131606	-0.012670335
4	0.048320000	-0.015216143	-0.011148242
5	0.048320000	-0.013350110	-0.009626948
6	0.048320000	-0.011535098	-0.008122795
7	0.048320000	-0.009780684	-0.006643549
8	0.048320000	-0.008092628	-0.005199955
9	0.048320000	-0.006499504	-0.003776968
10	0.048320000	-0.004998676	-0.002394805
11	0.048320000	-0.003592029	-0.001067459
12	0.048320000	-0.002290380	0.000201613
13	0.048320000	-0.001100319	0.001405123
14	0.048320000	-0.000022093	0.002530515
15	0.048320000	0.000946444	0.003564307
16	0.048320000	0.001805441	0.004496266
17	0.048320000	0.002547544	0.005324159
18	0.048320000	0.003160275	0.006050759
19	0.048320000	0.003628340	0.006679925
20	0.048320000	0.003930071	0.007214000
21	0.048320000	0.004023681	0.007641573
22	0.048320000	0.003957041	0.007895363
23	0.048320000	0.003902973	0.007965418
24	0.048320000	0.003835283	0.008024758
25	0.048320000	0.003592401	0.008139585
26	0.048320000	0.003149859	0.008203238
27	0.048320000	0.002528028	0.008155667
28	0.048320000	0.001753853	0.007967085
29	0.048320000	0.000853908	0.007616515
30	0.048320000	-0.000145771	0.007089924
31	0.048320000	-0.001223932	0.006384828
32	0.048320000	-0.002369635	0.005512373
33	0.048320000	-0.003586012	0.004496897
34	0.048320000	-0.004881137	0.003363822
35	0.048320000	-0.006236972	0.002107769
36	0.048320000	-0.007636189	0.000726282
37	0.048320000	-0.009069043	-0.000773652
38	0.048320000	-0.010526248	-0.002384029
39	0.048320000	-0.011995589	-0.004098741
40	0.048320000	-0.013453456	-0.005920322
41	0.048320000	-0.014960828	-0.007784043
42	0.048320000	-0.016507754	-0.009681650
43	0.048320000	-0.018067413	-0.011620537
44	0.048320000	-0.019610882	-0.013610218
45	0.048320000	-0.021085157	-0.015677745
1	0.052040000	-0.021949503	-0.015532611
2	0.052040000	-0.019877014	-0.014065012
3	0.052040000	-0.017856787	-0.012559058
4	0.052040000	-0.015886534	-0.011034951
5	0.052040000	-0.013968042	-0.009509202
6	0.052040000	-0.012103026	-0.007998641
7	0.052040000	-0.010302613	-0.006509529
8	0.052040000	-0.008572442	-0.005053289
9	0.052040000	-0.006930777	-0.003626713
10	0.052040000	-0.005381777	-0.002242566
11	0.052040000	-0.003931159	-0.000910964
12	0.052040000	-0.002588651	0.000363204
13	0.052040000	-0.001361556	0.001573080
14	0.052040000	-0.000253368	0.002708819
15	0.052040000	0.000740181	0.003754348
16	0.052040000	0.001625708	0.004693015
17	0.052040000	0.002400110	0.005518682
18	0.052040000	0.003052788	0.006233231
19	0.052040000	0.003567698	0.006843557
20	0.052040000	0.003921384	0.007358627
21	0.052040000	0.004071900	0.007778592
22	0.052040000	0.004026838	0.008040722
23	0.052040000	0.003973979	0.008113637
24	0.052040000	0.003905750	0.008174619
25	0.052040000	0.003657667	0.008288587
26	0.052040000	0.003206425	0.008344020
27	0.052040000	0.002574872	0.008286007
28	0.052040000	0.001789296	0.008087461
29	0.052040000	0.000875898	0.007726606
30	0.052040000	-0.000138795	0.007187727
31	0.052040000	-0.001232385	0.006466648
32	0.052040000	-0.002393199	0.005574069
33	0.052040000	-0.003625255	0.004535788
34	0.052040000	-0.004936588	0.003377295
35	0.052040000	-0.006315436	0.002100259
36	0.052040000	-0.007750227	0.000707757
37	0.052040000	-0.009232924	-0.000792467
38	0.052040000	-0.010755683	-0.002391901
39	0.052040000	-0.012309208	-0.004082820
40	0.052040000	-0.013880201	-0.005860547
41	0.052040000	-0.015486593	-0.007693479
42	0.052040000	-0.017120553	-0.009571518
43	0.052040000	-0.018761029	-0.011497714
44	0.052040000	-0.020383835	-0.013478127
45	0.052040000	-0.021949503	-0.015532611
1	0.055760000	-0.022611735	-0.015210409
2	0.055760000	-0.020483702	-0.013777786
3	0.055760000	-0.018416660	-0.012293726
4	0.055760000	-0.016402538	-0.010786887
5	0.055760000	-0.014441291	-0.009276732
6	0.055760000	-0.012535327	-0.007779741
7	0.055760000	-0.010697064	-0.006300743
8	0.055760000	-0.008931996	-0.004851759
9	0.055760000	-0.007251576	-0.003437623
10	0.055760000	-0.005664645	-0.002065751
11	0.055760000	-0.004179940	-0.000743025
12	0.055760000	-0.002806328	0.000524495
13	0.055760000	-0.001551469	0.001730094
14	0.055760000	-0.000421330	0.002866057
15	0.055760000	0.000589598	0.003914550
16	0.055760000	0.001492646	0.004854027
17	0.055760000	0.002287807	0.005675262
18	0.055760000	0.002965725	0.006379186
19	0.055760000	0.003509609	0.006974571
20	0.055760000	0.003894998	0.007474319
21	0.055760000	0.004080730	0.007885048
22	0.055760000	0.004050509	0.008151140
23	0.055760000	0.003998935	0.008226016
24	0.055760000	0.003930849	0.008288420
25	0.055760000	0.003680740	0.008403923
26	0.055760000	0.003225101	0.008458928
27	0.055760000	0.002587370	0.008402261
28	0.055760000	0.001792743	0.008208299
29	0.055760000	0.000866695	0.007854391
30	0.055760000	-0.000164129	0.007322986
31	0.055760000	-0.001276224	0.006607727
32	0.055760000	-0.002456438	0.005717875
33	0.055760000	-0.003707902	0.004679144
34	0.055760000	-0.005037560	0.003516535
35	0.055760000	-0.006438421	0.002237246
36	0.055760000	-0.007902560	0.000848093
37	0.055760000	-0.009422875	-0.000642550
38	0.055760000	-0.010992317	-0.002225664
39	0.055760000	-0.012603629	-0.003891890
40	0.055760000	-0.014249136	-0.005631779
41	0.055760000	-0.015920486	-0.007437022
42	0.055760000	-0.017611786	-0.009295386
43	0.055760000	-0.019306142	-0.011206323
44	0.055760000	-0.020982904	-0.013173079
45	0.055760000	-0.022611735	-0.015210409
1	0.059480000	-0.023164474	-0.014784929
2	0.059480000	-0.020999630	-0.013384939
3	0.059480000	-0.018896708	-0.011930080
4	0.059480000	-0.016846984	-0.010450853
5	0.059480000	-0.014850443	-0.008967235
6	0.059480000	-0.012909956	-0.007495530
7	0.059480000	-0.011038432	-0.006039934
8	0.059480000	-0.009241291	-0.004612853
9	0.059480000	-0.007528814	-0.003220574
10	0.059480000	-0.005910976	-0.001869192
11	0.059480000	-0.004397315	-0.000564722
12	0.059480000	-0.002996594	0.000686570
13	0.059480000	-0.001716796	0.001878214
14	0.059480000	-0.000564532	0.003002998
15	0.059480000	0.000465806	0.004042502
16	0.059480000	0.001386566	0.004973631
17	0.059480000	0.002198513	0.005786215
18	0.059480000	0.002892503	0.006481091
19	0.059480000	0.003451683	0.007067624
20	0.059480000	0.003851496	0.007559939
21	0.059480000	0.004050765	0.007966797
22	0.059480000	0.004027206	0.008234700
23	0.059480000	0.003976746	0.008310852
24	0.059480000	0.003909301	0.008374601
25	0.059480000	0.003659587	0.008494075
26	0.059480000	0.003202487	0.008555406
27	0.059480000	0.002560853	0.008508015
28	0.059480000	0.001759260	0.008326176
29	0.059480000	0.000822712	0.007986589
30	0.059480000	-0.000222307	0.007470758
31	0.059480000	-0.001351990	0.006771292
32	0.059480000	-0.002552517	0.005896747
33	0.059480000	-0.003826281	0.004872778
34	0.059480000	-0.005179620	0.003724457
35	0.059480000	-0.006606407	0.002460147
36	0.059480000	-0.008099401	0.001087459
37	0.059480000	-0.009651602	-0.000385090
38	0.059480000	-0.011256044	-0.001948351
39	0.059480000	-0.012905596	-0.003592790
40	0.059480000	-0.014593038	-0.005308465
41	0.059480000	-0.016305672	-0.007091255
42	0.059480000	-0.018037585	-0.008928705
43	0.059480000	-0.019772649	-0.010819707
44	0.059480000	-0.021491029	-0.012767060
45	0.059480000	-0.023164474	-0.014784929
1	0.063200000	-0.023712686	-0.014352850
2	0.063200000	-0.021516991	-0.012984555
3	0.063200000	-0.019382559	-0.011560105
4	0.063200000	-0.017301136	-0.010110265
5	0.063200000	-0.015273036	-0.008655083
6	0.063200000	-0.013301400	-0.007210883
7	0.063200000	-0.011399261	-0.005781653
8	0.063200000	-0.009572243	-0.004379776
9	0.063200000	-0.007830781	-0.003011373
10	0.063200000	-0.006184978	-0.001682402
11	0.063200000	-0.004644501	-0.000398743
12	0.063200000	-0.003218250	0.000833461
13	0.063200000	-0.001914337	0.002007847
14	0.063200000	-0.000739523	0.003117292
15	0.063200000	0.000311497	0.004143237
16	0.063200000	0.001250747	0.005062285
17	0.063200000	0.002078852	0.005864196
18	0.063200000	0.002786658	0.006549948
19	0.063200000	0.003357408	0.007129222
20	0.063200000	0.003766712	0.007616581
21	0.063200000	0.003973334	0.008021533
22	0.063200000	0.003953931	0.008290700
23	0.063200000	0.003904462	0.008367879
24	0.063200000	0.003837763	0.008432869
25	0.063200000	0.003589063	0.008556612
26	0.063200000	0.003131414	0.008625425
27	0.063200000	0.002486876	0.008588272
28	0.063200000	0.001679638	0.008418968
29	0.063200000	0.000734363	0.008093741
30	0.063200000	-0.000322707	0.007593588
31	0.063200000	-0.001467808	0.006910647
32	0.063200000	-0.002686900	0.006053218
33	0.063200000	-0.003981920	0.005047036
34	0.063200000	-0.005358841	0.003917403
35	0.063200000	-0.006811387	0.002672623
36	0.063200000	-0.008332178	0.001320225
37	0.063200000	-0.009914048	-0.000131366
38	0.063200000	-0.011549860	-0.001673079
39	0.063200000	-0.013232310	-0.003295464
40	0.063200000	-0.014953995	-0.004988658
41	0.063200000	-0.016702109	-0.006748735
42	0.063200000	-0.018470519	-0.008563292
43	0.063200000	-0.020243033	-0.010431482
44	0.063200000	-0.021999799	-0.012356441
45	0.063200000	-0.023712686	-0.014352850
1	0.066920000	-0.024209661	-0.013891437
2	0.066920000	-0.021990811	-0.012557854
3	0.066920000	-0.019832389	-0.011167058
4	0.066920000	-0.017726617	-0.009749975
5	0.066920000	-0.015674126	-0.008326669
6	0.066920000	-0.013678312	-0.006913432
7	0.066920000	-0.011752287	-0.005514033
8	0.066920000	-0.009901860	-0.004140795
9	0.066920000	-0.008137582	-0.002799653
10	0.066920000	-0.006469655	-0.001496415
11	0.066920000	-0.004907844	-0.000236809
12	0.066920000	-0.003461152	0.000973164
13	0.066920000	-0.002137801	0.002127266
14	0.066920000	-0.000944665	0.003218476
15	0.066920000	0.000123281	0.004228123
16	0.066920000	0.001077690	0.005132611
17	0.066920000	0.001919018	0.005921687
18	0.066920000	0.002638123	0.006596480
19	0.066920000	0.003218378	0.007166955
20	0.066920000	0.003635620	0.007648060
21	0.066920000	0.003848656	0.008049987
22	0.066920000	0.003833232	0.008319567
23	0.066920000	0.003784850	0.008397499
24	0.066920000	0.003719065	0.008463485
25	0.066920000	0.003472102	0.008590991
26	0.066920000	0.003015320	0.008666877
27	0.066920000	0.002369935	0.008639816
28	0.066920000	0.001559679	0.008483266
29	0.066920000	0.000608805	0.008173078
30	0.066920000	-0.000456769	0.007689802
31	0.066920000	-0.001613379	0.007025121
32	0.066920000	-0.002846795	0.006187023
33	0.066920000	-0.004158471	0.005201206
34	0.066920000	-0.005554028	0.004093160
35	0.066920000	-0.007027071	0.002871117
36	0.066920000	-0.008570110	0.001542505
37	0.066920000	-0.010175834	0.000115632
38	0.066920000	-0.011836965	-0.001400535
39	0.066920000	-0.013546053	-0.002996649
40	0.066920000	-0.015295539	-0.004662957
41	0.066920000	-0.017072561	-0.006395729
42	0.066920000	-0.018870791	-0.008182644
43	0.066920000	-0.020674030	-0.010023104
44	0.066920000	-0.022462480	-0.011920556
45	0.066920000	-0.024209661	-0.013891437
1	0.070640000	-0.024432116	-0.013273980
2	0.070640000	-0.022214213	-0.011984680
3	0.070640000	-0.020055314	-0.010637863
4	0.070640000	-0.017948190	-0.009264254
5	0.070640000	-0.015893766	-0.007883711
6	0.070640000	-0.013895648	-0.006512323
7	0.070640000	-0.011966894	-0.005153619
8	0.070640000	-0.010113429	-0.003819737
9	0.070640000	-0.008345813	-0.002516384
10	0.070640000	-0.006674234	-0.001249171
11	0.070640000	-0.005108452	-0.000023635
12	0.070640000	-0.003657475	0.001154406
13	0.070640000	-0.002329537	0.002278887
14	0.070640000	-0.001131539	0.003342934
15	0.070640000	-0.000058691	0.004327887
16	0.070640000	0.000900170	0.005210241
17	0.070640000	0.001745304	0.005979881
18	0.070640000	0.002467640	0.006638088
19	0.070640000	0.003050826	0.007194998
20	0.070640000	0.003471139	0.007665752
21	0.070640000	0.003687846	0.008061034
22	0.070640000	0.003676197	0.008328362
23	0.070640000	0.003629307	0.008406239
24	0.070640000	0.003565031	0.008472520
25	0.070640000	0.003322128	0.008602329
26	0.070640000	0.002870634	0.008684076
27	0.070640000	0.002230793	0.008666615
28	0.070640000	0.001425710	0.008523310
29	0.070640000	0.000479046	0.008229887
30	0.070640000	-0.000583807	0.007766676
31	0.070640000	-0.001739502	0.007125035
32	0.070640000	-0.002973775	0.006312611
33	0.070640000	-0.004287641	0.005354829
34	0.070640000	-0.005686346	0.004277106
35	0.070640000	-0.007163455	0.003087534
36	0.070640000	-0.008711451	0.001793381
37	0.070640000	-0.010322968	0.000402771
38	0.070640000	-0.011990672	-0.001075511
39	0.070640000	-0.013707052	-0.002632305
40	0.070640000	-0.015464484	-0.004258051
41	0.070640000	-0.017250182	-0.005949223
42	0.070640000	-0.019057702	-0.007693706
43	0.070640000	-0.020871003	-0.009491120
44	0.070640000	-0.022670540	-0.011345142
45	0.070640000	-0.024432116	-0.013273980
1	0.074360000	-0.024469213	-0.012559458
2	0.074360000	-0.022269252	-0.011320624
3	0.074360000	-0.020126530	-0.010024453
4	0.074360000	-0.018034375	-0.008701242
5	0.074360000	-0.015993978	-0.007370504
6	0.074360000	-0.014009118	-0.006048008
7	0.074360000	-0.012092695	-0.004737043
8	0.074360000	-0.010250703	-0.003449480
9	0.074360000	-0.008493624	-0.002190774
10	0.074360000	-0.006831556	-0.000966314
11	0.074360000	-0.005274176	0.000218581
12	0.074360000	-0.003830430	0.001358305
13	0.074360000	-0.002508498	0.002446996
14	0.074360000	-0.001315254	0.003477971
15	0.074360000	-0.000246184	0.004432741
16	0.074360000	0.000709356	0.005288057
17	0.074360000	0.001551454	0.006033992
18	0.074360000	0.002271182	0.006671953
19	0.074360000	0.002852572	0.007212149
20	0.074360000	0.003272491	0.007669781
21	0.074360000	0.003490964	0.008055905
22	0.074360000	0.003482943	0.008319123
23	0.074360000	0.003437800	0.008396363
24	0.074360000	0.003375409	0.008462420
25	0.074360000	0.003138093	0.008593364
26	0.074360000	0.002694901	0.008679860
27	0.074360000	0.002065037	0.008671315
28	0.074360000	0.001270863	0.008541209
29	0.074360000	0.000335324	0.008265334
30	0.074360000	-0.000716864	0.007823979
31	0.074360000	-0.001862827	0.007208284
32	0.074360000	-0.003088398	0.006425543
33	0.074360000	-0.004394199	0.005500755
34	0.074360000	-0.005785079	0.004459056
35	0.074360000	-0.007254609	0.003308338
36	0.074360000	-0.008795307	0.002055669
37	0.074360000	-0.010399812	0.000708940
38	0.074360000	-0.012060792	-0.000723300
39	0.074360000	-0.013770739	-0.002232130
40	0.074360000	-0.015522024	-0.003808244
41	0.074360000	-0.017302030	-0.005448332
42	0.074360000	-0.019104250	-0.007140561
43	0.074360000	-0.020912909	-0.008884757
44	0.074360000	-0.022708841	-0.010684781
45	0.074360000	-0.024469213	-0.012559458
1	0.078080000	-0.024436700	-0.011823207
2	0.078080000	-0.022262649	-0.010636513
3	0.078080000	-0.020143968	-0.009392875
4	0.078080000	-0.018074523	-0.008122077
5	0.078080000	-0.016055742	-0.006843236
6	0.078080000	-0.014091544	-0.005571760
7	0.078080000	-0.012194633	-0.004310698
8	0.078080000	-0.010371035	-0.003071628
9	0.078080000	-0.008631116	-0.001859746
10	0.078080000	-0.006984848	-0.000680213
11	0.078080000	-0.005441795	0.000461880
12	0.078080000	-0.004010802	0.001561149
13	0.078080000	-0.002699970	0.002611948
14	0.078080000	-0.001516124	0.003607803
15	0.078080000	-0.000455048	0.004530489
16	0.078080000	0.000493383	0.005357077
17	0.078080000	0.001329114	0.006077846
18	0.078080000	0.002043396	0.006694301
19	0.078080000	0.002620690	0.007216671
20	0.078080000	0.003038513	0.007660152
21	0.078080000	0.003257760	0.008036115
22	0.078080000	0.003253191	0.008294411
23	0.078080000	0.003209865	0.008370738
24	0.078080000	0.003149487	0.008436313
25	0.078080000	0.002918353	0.008567758
26	0.078080000	0.002484727	0.008658285
27	0.078080000	0.001866774	0.008658041
28	0.078080000	0.001086069	0.008540722
29	0.078080000	0.000164796	0.008282290
30	0.078080000	-0.000873063	0.007863079
31	0.078080000	-0.002005177	0.007274072
32	0.078080000	-0.003217534	0.006522208
33	0.078080000	-0.004510396	0.005631992
34	0.078080000	-0.005888213	0.004628179
35	0.078080000	-0.007344584	0.003518437
36	0.078080000	-0.008872091	0.002309620
37	0.078080000	-0.010463404	0.001009363
38	0.078080000	-0.012111227	-0.000374034
39	0.078080000	-0.013808081	-0.001831917
40	0.078080000	-0.015546367	-0.003355254
41	0.078080000	-0.017313670	-0.004940950
42	0.078080000	-0.019103458	-0.006577486
43	0.078080000	-0.020900260	-0.008264884
44	0.078080000	-0.022685338	-0.010007167
45	0.078080000	-0.024436700	-0.011823207
1	0.081800000	-0.024363016	-0.011086093
2	0.081800000	-0.022220331	-0.009951731
3	0.081800000	-0.020131112	-0.008760967
4	0.081800000	-0.018089734	-0.007543018
5	0.081800000	-0.016097837	-0.006316575
6	0.081800000	-0.014159451	-0.005096665
7	0.081800000	-0.012287054	-0.003886106
8	0.081800000	-0.010486681	-0.002696164
9	0.081800000	-0.008768555	-0.001531781
10	0.081800000	-0.007142496	-0.000397886
11	0.081800000	-0.005617931	0.000700658
12	0.081800000	-0.004203588	0.001758695
13	0.081800000	-0.002907463	0.002770799
14	0.081800000	-0.001736317	0.003730716
15	0.081800000	-0.000686230	0.004620530
16	0.081800000	0.000252411	0.005417687
17	0.081800000	0.001079420	0.006112684
18	0.081800000	0.001786243	0.006707112
19	0.081800000	0.002357795	0.007211187
20	0.081800000	0.002772263	0.007640050
21	0.081800000	0.002991477	0.008005330
22	0.081800000	0.002990097	0.008258192
23	0.081800000	0.002948594	0.008333412
24	0.081800000	0.002890283	0.008398313
25	0.081800000	0.002665657	0.008529769
26	0.081800000	0.002242368	0.008623718
27	0.081800000	0.001637554	0.008631168
28	0.081800000	0.000871987	0.008526115
29	0.081800000	-0.000032939	0.008284761
30	0.081800000	-0.001054006	0.007887550
31	0.081800000	-0.002169462	0.007325342
32	0.081800000	-0.003365481	0.006604711
33	0.081800000	-0.004641979	0.005749605
34	0.081800000	-0.006003027	0.004784351
35	0.081800000	-0.007442269	0.003716387
36	0.081800000	-0.008952369	0.002552341
37	0.081800000	-0.010526053	0.001299590
38	0.081800000	-0.012156078	-0.000033834
39	0.081800000	-0.013835021	-0.001439549
40	0.081800000	-0.015555330	-0.002908806
41	0.081800000	-0.017304826	-0.004438726
42	0.081800000	-0.019076970	-0.006018114
43	0.081800000	-0.020856630	-0.007647177
44	0.081800000	-0.022625521	-0.009330078
45	0.081800000	-0.024363016	-0.011086093
1	0.085520000	-0.024217228	-0.010331727
2	0.085520000	-0.022113330	-0.009250512
3	0.085520000	-0.020060902	-0.008113661
4	0.085520000	-0.018054813	-0.006949738
5	0.085520000	-0.016096884	-0.005776956
6	0.085520000	-0.014191232	-0.004609921
7	0.085520000	-0.012350070	-0.003451222
8	0.085520000	-0.010579416	-0.002311789
9	0.085520000	-0.008889309	-0.001196305
10	0.085520000	-0.007289390	-0.000109464
11	0.085520000	-0.005788913	0.000944102
12	0.085520000	-0.004396456	0.001959470
13	0.085520000	-0.003119886	0.002931440
14	0.085520000	-0.001965869	0.003853986
15	0.085520000	-0.000930759	0.004709542
16	0.085520000	-0.000005470	0.005476014
17	0.085520000	0.000809689	0.006144153
18	0.085520000	0.001506378	0.006715631
19	0.085520000	0.002069991	0.007200602
20	0.085520000	0.002479431	0.007614092
21	0.085520000	0.002697558	0.007967903
22	0.085520000	0.002699087	0.008214610
23	0.085520000	0.002659452	0.008288468
24	0.085520000	0.002603309	0.008352457
25	0.085520000	0.002385701	0.008483336
26	0.085520000	0.001973854	0.008580018
27	0.085520000	0.001383887	0.008594515
28	0.085520000	0.000635738	0.008501214
29	0.085520000	-0.000250014	0.008276650
30	0.085520000	-0.001250958	0.007901451
31	0.085520000	-0.002345973	0.007366408
32	0.085520000	-0.003521464	0.006677727
33	0.085520000	-0.004777028	0.005858729
34	0.085520000	-0.006116370	0.004933245
35	0.085520000	-0.007533206	0.003908470
36	0.085520000	-0.009020313	0.002790796
37	0.085520000	-0.010570497	0.001587323
38	0.085520000	-0.012176599	0.000305806
39	0.085520000	-0.013831279	-0.001045661
40	0.085520000	-0.015527070	-0.002458633
41	0.085520000	-0.017252058	-0.003930438
42	0.085520000	-0.018999732	-0.005450230
43	0.085520000	-0.020755340	-0.007018383
44	0.085520000	-0.022501098	-0.008639171
45	0.085520000	-0.024217228	-0.010331727
1	0.089240000	-0.023981958	-0.009551610
2	0.089240000	-0.021925172	-0.008524632
3	0.089240000	-0.019917748	-0.007443043
4	0.089240000	-0.017955034	-0.006334644
5	0.089240000	-0.016039009	-0.005217113
6	0.089240000	-0.014173845	-0.004104586
7	0.089240000	-0.012371445	-0.002999433
8	0.089240000	-0.010637775	-0.001912215
9	0.089240000	-0.008982656	-0.000847354
10	0.089240000	-0.007415508	0.000190696
11	0.089240000	-0.005945379	0.001197540
12	0.089240000	-0.004580662	0.002168494
13	0.089240000	-0.003329059	0.003098591
14	0.089240000	-0.002197114	0.003982046
15	0.089240000	-0.001181449	0.004801703
16	0.089240000	-0.000273503	0.005536015
17	0.089240000	0.000526297	0.006176019
18	0.089240000	0.001209853	0.006723454
19	0.089240000	0.001763077	0.007188363
20	0.089240000	0.002165637	0.007585579
21	0.089240000	0.002381542	0.007926991
22	0.089240000	0.002385715	0.008166726
23	0.089240000	0.002348005	0.008238937
24	0.089240000	0.002294154	0.008301743
25	0.089240000	0.002084155	0.008431381
26	0.089240000	0.001685024	0.008530022
27	0.089240000	0.001111862	0.008550848
28	0.089240000	0.000383747	0.008468746
29	0.089240000	-0.000479598	0.008260679
30	0.089240000	-0.001456619	0.007907559
31	0.089240000	-0.002526884	0.007400166
32	0.089240000	-0.003677088	0.006744340
33	0.089240000	-0.004906543	0.005962706
34	0.089240000	-0.006218601	0.005078507
35	0.089240000	-0.007607079	0.004098675
36	0.089240000	-0.009064892	0.003029356
37	0.089240000	-0.010584965	0.001877357
38	0.089240000	-0.012160253	0.000650136
39	0.089240000	-0.013783533	-0.000644520
40	0.089240000	-0.015447455	-0.001998487
41	0.089240000	-0.017140415	-0.003409297
42	0.089240000	-0.018855967	-0.004866482
43	0.089240000	-0.020579781	-0.006370566
44	0.089240000	-0.022294633	-0.007925893
45	0.089240000	-0.023981958	-0.009551610
1	0.092960000	-0.023680992	-0.008762271
2	0.092960000	-0.021677448	-0.007789528
3	0.092960000	-0.019721102	-0.006763396
4	0.092960000	-0.017807756	-0.005710843
5	0.092960000	-0.015939524	-0.004648969
6	0.092960000	-0.014120606	-0.003591410
7	0.092960000	-0.012362563	-0.002540324
8	0.092960000	-0.010671287	-0.001505887
9	0.092960000	-0.009056346	-0.000492259
10	0.092960000	-0.007526916	0.000496345
11	0.092960000	-0.006091807	0.001455768
12	0.092960000	-0.004759205	0.002381565
13	0.092960000	-0.003536627	0.003269011
14	0.092960000	-0.002430470	0.004112568
15	0.092960000	-0.001437627	0.004895552
16	0.092960000	-0.000550055	0.005597018
17	0.092960000	0.000231724	0.006208302
18	0.092960000	0.000899876	0.006731184
19	0.092960000	0.001440856	0.007175557
20	0.092960000	0.001835130	0.007556005
21	0.092960000	0.002047935	0.007884437
22	0.092960000	0.002054502	0.008116635
23	0.092960000	0.002018731	0.008186987
24	0.092960000	0.001967232	0.008248404
25	0.092960000	0.001765194	0.008376254
26	0.092960000	0.001379609	0.008476148
27	0.092960000	0.000824589	0.008502570
28	0.092960000	0.000118336	0.008430986
29	0.092960000	-0.000720300	0.008238868
30	0.092960000	-0.001670647	0.007907483
31	0.092960000	-0.002713007	0.007427655
32	0.092960000	-0.003834411	0.006804871
33	0.092960000	-0.005033923	0.006061016
34	0.092960000	-0.006314551	0.005218671
35	0.092960000	-0.007670236	0.004284493
36	0.092960000	-0.009094055	0.003264370
37	0.092960000	-0.010579072	0.002164814
38	0.092960000	-0.012118383	0.000992973
39	0.092960000	-0.013704911	-0.000243683
40	0.092960000	-0.015331445	-0.001537363
41	0.092960000	-0.016986726	-0.002885795
42	0.092960000	-0.018664392	-0.004278908
43	0.092960000	-0.020350577	-0.005717355
44	0.092960000	-0.022028645	-0.007205523
45	0.092960000	-0.023680992	-0.008762271
1	0.096680000	-0.023349286	-0.007985012
2	0.096680000	-0.021402044	-0.007065135
3	0.096680000	-0.019499852	-0.006093196
4	0.096680000	-0.017638941	-0.005095302
5	0.096680000	-0.015821533	-0.004087961
6	0.096680000	-0.014051839	-0.003084303
7	0.096680000	-0.012341064	-0.002086287
8	0.096680000	-0.010695006	-0.001103695
9	0.096680000	-0.009122967	-0.000140438
10	0.096680000	-0.007633862	0.000799505
11	0.096680000	-0.006236257	0.001712209
12	0.096680000	-0.004938113	0.002593465
13	0.096680000	-0.003746749	0.003438783
14	0.096680000	-0.002668407	0.004242875
15	0.096680000	-0.001700244	0.004989562
16	0.096680000	-0.000834714	0.005658521
17	0.096680000	-0.000072416	0.006241387
18	0.096680000	0.000579088	0.006739973
19	0.096680000	0.001106798	0.007163990
20	0.096680000	0.001491983	0.007527739
21	0.096680000	0.001701134	0.007843100
22	0.096680000	0.001709863	0.008067544
23	0.096680000	0.001676001	0.008135936
24	0.096680000	0.001626843	0.008195855
25	0.096680000	0.001432827	0.008321588
26	0.096680000	0.001061051	0.008422222
27	0.096680000	0.000524677	0.008453596
28	0.096680000	-0.000158955	0.008391795
29	0.096680000	-0.000971854	0.008214837
30	0.096680000	-0.001894227	0.007904387
31	0.096680000	-0.002907117	0.007451356
32	0.096680000	-0.003997917	0.006860900
33	0.096680000	-0.005165483	0.006154156
34	0.096680000	-0.006412495	0.005353010
35	0.096680000	-0.007733023	0.004463833
36	0.096680000	-0.009120323	0.003492262
37	0.096680000	-0.010567613	0.002444511
38	0.096680000	-0.012068145	0.001327423
39	0.096680000	-0.013614998	0.000148147
40	0.096680000	-0.015201122	-0.001085856
41	0.096680000	-0.016815607	-0.002372501
42	0.096680000	-0.018452200	-0.003702117
43	0.096680000	-0.020097504	-0.005075472
44	0.096680000	-0.021735484	-0.006496976
45	0.096680000	-0.023349286	-0.007985012
1	0.100400000	-0.023005951	-0.007228645
2	0.100400000	-0.021116167	-0.006359508
3	0.100400000	-0.019269356	-0.005439674
4	0.100400000	-0.017462137	-0.004494393
5	0.100400000	-0.015696821	-0.003539587
6	0.100400000	-0.013977613	-0.002587886
7	0.100400000	-0.012315356	-0.001641063
8	0.100400000	-0.010715742	-0.000708515
9	0.100400000	-0.009187805	0.000206087
10	0.100400000	-0.007740193	0.001098990
11	0.100400000	-0.006381218	0.001966490
12	0.100400000	-0.005118617	0.002804609
13	0.100400000	-0.003959501	0.003609084
14	0.100400000	-0.002909956	0.004374873
15	0.100400000	-0.001967391	0.005086313
16	0.100400000	-0.001124728	0.005723709
17	0.100400000	-0.000382631	0.006278990
18	0.100400000	0.000251610	0.006753987
19	0.100400000	0.000765534	0.007158217
20	0.100400000	0.001141192	0.007505675
21	0.100400000	0.001346323	0.007808180
22	0.100400000	0.001356970	0.008024865
23	0.100400000	0.001324946	0.008091257
24	0.100400000	0.001278070	0.008149622
25	0.100400000	0.001091955	0.008273020
26	0.100400000	0.000733903	0.008373981
27	0.100400000	0.000216175	0.008409712
28	0.100400000	-0.000444721	0.008356932
29	0.100400000	-0.001231628	0.008194227
30	0.100400000	-0.002125613	0.007903686
31	0.100400000	-0.003108450	0.007476328
32	0.100400000	-0.004167905	0.006917001
33	0.100400000	-0.005302652	0.006246099
34	0.100400000	-0.006515064	0.005484799
35	0.100400000	-0.007799350	0.004639193
36	0.100400000	-0.009148947	0.003714674
37	0.100400000	-0.010557235	0.002717162
38	0.100400000	-0.012017630	0.001653204
39	0.100400000	-0.013523377	0.000529636
40	0.100400000	-0.015067593	-0.000646404
41	0.100400000	-0.016639722	-0.001873010
42	0.100400000	-0.018233628	-0.003140903
43	0.100400000	-0.019836383	-0.004450953
44	0.100400000	-0.021432546	-0.005807577
45	0.100400000	-0.023005951	-0.007228645
1	0.104120000	-0.022660539	-0.006497147
2	0.104120000	-0.020828175	-0.005676162
3	0.104120000	-0.019036793	-0.004805859
4	0.104120000	-0.017283368	-0.003910646
5	0.104120000	-0.015570284	-0.003005870
6	0.104120000	-0.013901719	-0.002103675
7	0.104120000	-0.012288165	-0.001205661
8	0.104120000	-0.010735199	-0.000320852
9	0.104120000	-0.009251581	0.000547306
10	0.104120000	-0.007845699	0.001395278
11	0.104120000	-0.006525610	0.002219569
12	0.104120000	-0.005298822	0.003016418
13	0.104120000	-0.004172244	0.003781781
14	0.104120000	-0.003151797	0.004510853
15	0.104120000	-0.002235131	0.005188487
16	0.104120000	-0.001415606	0.005795610
17	0.104120000	-0.000693943	0.006324438
18	0.104120000	-0.000077162	0.006776812
19	0.104120000	0.000422797	0.007162045
20	0.104120000	0.000788745	0.007493814
21	0.104120000	0.000989640	0.007783843
22	0.104120000	0.001002001	0.007992897
23	0.104120000	0.000971736	0.008057293
24	0.104120000	0.000927060	0.008114089
25	0.104120000	0.000748621	0.008235030
26	0.104120000	0.000403994	0.008335987
27	0.104120000	-0.000095404	0.008375520
28	0.104120000	-0.000733857	0.008330988
29	0.104120000	-0.001495006	0.008181546
30	0.104120000	-0.002360744	0.007909722
31	0.104120000	-0.003313560	0.007506669
32	0.104120000	-0.004341593	0.006976951
33	0.104120000	-0.005443368	0.006340243
34	0.104120000	-0.006620973	0.005617012
35	0.104120000	-0.007868754	0.004813079
36	0.104120000	-0.009180333	0.003933596
37	0.104120000	-0.010549257	0.002984209
38	0.104120000	-0.011969108	0.001971174
39	0.104120000	-0.013433303	0.000901028
40	0.104120000	-0.014935127	-0.000219406
41	0.104120000	-0.016464376	-0.001388387
42	0.104120000	-0.018015036	-0.002597017
43	0.104120000	-0.019574638	-0.003846260
44	0.104120000	-0.021128320	-0.005140526
45	0.104120000	-0.022660539	-0.006497147
1	0.107840000	-0.022329540	-0.005803088
2	0.107840000	-0.020552776	-0.005026979
3	0.107840000	-0.018815110	-0.004202916
4	0.107840000	-0.017113846	-0.003354492
5	0.107840000	-0.015451427	-0.002496502
6	0.107840000	-0.013832004	-0.001640627
7	0.107840000	-0.012265724	-0.000788308
8	0.107840000	-0.010758052	0.000051786
9	0.107840000	-0.009317486	0.000876421
10	0.107840000	-0.007952155	0.001682260
11	0.107840000	-0.006669873	0.002466007
12	0.107840000	-0.005477929	0.003224106
13	0.107840000	-0.004383029	0.003952716
14	0.107840000	-0.003390941	0.004647258
15	0.107840000	-0.002499543	0.005293098
16	0.107840000	-0.001702600	0.005871757
17	0.107840000	-0.001000874	0.006375717
18	0.107840000	-0.000401125	0.006806819
19	0.107840000	0.000085200	0.007174168
20	0.107840000	0.000441637	0.007491125
21	0.107840000	0.000638318	0.007769308
22	0.107840000	0.000652225	0.007971054
23	0.107840000	0.000623613	0.008033521
24	0.107840000	0.000581010	0.008088788
25	0.107840000	0.000409846	0.008207249
26	0.107840000	0.000078009	0.008307950
27	0.107840000	-0.000403852	0.008350758
28	0.107840000	-0.001020766	0.008313656
29	0.107840000	-0.001757124	0.008176360
30	0.107840000	-0.002595595	0.007921837
31	0.107840000	-0.003519353	0.007541387
32	0.107840000	-0.004516908	0.007039322
33	0.107840000	-0.005586659	0.006434635
34	0.107840000	-0.006730430	0.005747098
35	0.107840000	-0.007942700	0.004982270
36	0.107840000	-0.009217272	0.004145080
37	0.107840000	-0.010547855	0.003240909
38	0.107840000	-0.011928197	0.002275743
39	0.107840000	-0.013351881	0.001255834
40	0.107840000	-0.014812359	0.000187708
41	0.107840000	-0.016299764	-0.000927046
42	0.107840000	-0.017808208	-0.002079891
43	0.107840000	-0.019325660	-0.003271867
44	0.107840000	-0.020837810	-0.004507371
45	0.107840000	-0.022329540	-0.005803088
1	0.111560000	-0.022037949	-0.005161661
2	0.111560000	-0.020312477	-0.004426409
3	0.111560000	-0.018624370	-0.003644483
4	0.111560000	-0.016971235	-0.002838721
5	0.111560000	-0.015355568	-0.002023406
6	0.111560000	-0.013781494	-0.001209790
7	0.111560000	-0.012258844	-0.000399170
8	0.111560000	-0.010792978	0.000400110
9	0.111560000	-0.009392150	0.001185009
10	0.111560000	-0.008064254	0.001952373
11	0.111560000	-0.006816879	0.002699086
12	0.111560000	-0.005657109	0.003421779
13	0.111560000	-0.004591468	0.004116799
14	0.111560000	-0.003625579	0.004779778
15	0.111560000	-0.002757540	0.005396564
16	0.111560000	-0.001981479	0.005949220
17	0.111560000	-0.001298188	0.006430463
18	0.111560000	-0.000714186	0.006842128
19	0.111560000	-0.000240463	0.007193126
20	0.111560000	0.000107178	0.007496524
21	0.111560000	0.000299950	0.007763841
22	0.111560000	0.000315268	0.007958868
23	0.111560000	0.000288171	0.008019559
24	0.111560000	0.000247471	0.008073416
25	0.111560000	0.000082977	0.008189576
26	0.111560000	-0.000237120	0.008289985
27	0.111560000	-0.000702871	0.008335710
28	0.111560000	-0.001299981	0.008305306
29	0.111560000	-0.002013522	0.008179005
30	0.111560000	-0.002826874	0.007940181
31	0.111560000	-0.003723836	0.007580283
32	0.111560000	-0.004693265	0.007103402
33	0.111560000	-0.005733459	0.006527922
34	0.111560000	-0.006845996	0.005872960
35	0.111560000	-0.008025478	0.005143831
36	0.111560000	-0.009265874	0.004345260
37	0.111560000	-0.010561046	0.003482388
38	0.111560000	-0.011904892	0.002560951
39	0.111560000	-0.013291150	0.001586941
40	0.111560000	-0.014713429	0.000566614
41	0.111560000	-0.016162171	-0.000498577
42	0.111560000	-0.017631602	-0.001600430
43	0.111560000	-0.019110100	-0.002740050
44	0.111560000	-0.020583861	-0.003921812
45	0.111560000	-0.022037949	-0.005161661
1	0.115280000	-0.021810696	-0.004575290
2	0.115280000	-0.020129768	-0.003876302
3	0.115280000	-0.018484690	-0.003131727
4	0.115280000	-0.016873332	-0.002363756
5	0.115280000	-0.015298240	-0.001586229
6	0.115280000	-0.013763516	-0.000810026
7	0.115280000	-0.012278715	-0.000036316
8	0.115280000	-0.010849108	0.000726842
9	0.115280000	-0.009482736	0.001476580
10	0.115280000	-0.008187290	0.002209906
11	0.115280000	-0.006970163	0.002923865
12	0.115280000	-0.005838262	0.003615254
13	0.115280000	-0.004797953	0.004280589
14	0.115280000	-0.003854739	0.004915688
15	0.115280000	-0.003006917	0.005506833
16	0.115280000	-0.002248934	0.006036548
17	0.115280000	-0.001581603	0.006497747
18	0.115280000	-0.001011231	0.006892258
19	0.115280000	-0.000548408	0.007228828
20	0.115280000	-0.000208358	0.007520276
21	0.115280000	-0.000018930	0.007778047
22	0.115280000	-0.000002306	0.007967200
23	0.115280000	-0.000028054	0.008026355
24	0.115280000	-0.000067063	0.008079004
25	0.115280000	-0.000225666	0.008193248
26	0.115280000	-0.000535457	0.008293574
27	0.115280000	-0.000987120	0.008342073
28	0.115280000	-0.001566953	0.008317778
29	0.115280000	-0.002260621	0.008201355
30	0.115280000	-0.003052127	0.007976521
31	0.115280000	-0.003925811	0.007634855
32	0.115280000	-0.004870835	0.007180266
33	0.115280000	-0.005885410	0.006630621
34	0.115280000	-0.006970892	0.006004462
35	0.115280000	-0.008121984	0.005306879
36	0.115280000	-0.009332798	0.004542422
37	0.115280000	-0.010597328	0.003716018
38	0.115280000	-0.011909604	0.002833186
39	0.115280000	-0.013263495	0.001899687
40	0.115280000	-0.014652747	0.000921540
41	0.115280000	-0.016068067	-0.000099929
42	0.115280000	-0.017503781	-0.001156807
43	0.115280000	-0.018948619	-0.002250267
44	0.115280000	-0.020389219	-0.003384674
45	0.115280000	-0.021810696	-0.004575290
1	0.119000000	-0.021670679	-0.004046153
2	0.119000000	-0.020025284	-0.003377995
3	0.119000000	-0.018414496	-0.002665068
4	0.119000000	-0.016836403	-0.001929062
5	0.119000000	-0.015293594	-0.001183468
6	0.119000000	-0.013790159	-0.000438869
7	0.119000000	-0.012335431	0.000303684
8	0.119000000	-0.010934609	0.001036358
9	0.119000000	-0.009595566	0.001756433
10	0.119000000	-0.008325830	0.002461058
11	0.119000000	-0.007132639	0.003147414
12	0.119000000	-0.006022760	0.003812443
13	0.119000000	-0.005002433	0.004452803
14	0.119000000	-0.004077069	0.005064473
15	0.119000000	-0.003245153	0.005634105
16	0.119000000	-0.002501397	0.006144581
17	0.119000000	-0.001846633	0.006588966
18	0.119000000	-0.001286987	0.006969082
19	0.119000000	-0.000832720	0.007293549
20	0.119000000	-0.000498571	0.007575002
21	0.119000000	-0.000311611	0.007824852
22	0.119000000	-0.000293740	0.008009224
23	0.119000000	-0.000318318	0.008067161
24	0.119000000	-0.000355896	0.008118873
25	0.119000000	-0.000509598	0.008231730
26	0.119000000	-0.000810933	0.008332285
27	0.119000000	-0.001251124	0.008383440
28	0.119000000	-0.001816964	0.008364597
29	0.119000000	-0.002494613	0.008256752
30	0.119000000	-0.003268579	0.008043894
31	0.119000000	-0.004123657	0.007717700
32	0.119000000	-0.005049254	0.007281946
33	0.119000000	-0.006043511	0.006754097
34	0.119000000	-0.007107577	0.006152208
35	0.119000000	-0.008236233	0.005481180
36	0.119000000	-0.009423704	0.004745412
37	0.119000000	-0.010664086	0.003949656
38	0.119000000	-0.011951510	0.003099248
39	0.119000000	-0.013279950	0.002199758
40	0.119000000	-0.014643253	0.001257005
41	0.119000000	-0.016032341	0.000272201
42	0.119000000	-0.017441612	-0.000746982
43	0.119000000	-0.018860078	-0.001801789
44	0.119000000	-0.020274731	-0.002896605
45	0.119000000	-0.021670679	-0.004046153
1	0.122720000	-0.021642635	-0.003605434
2	0.122720000	-0.020021183	-0.002961582
3	0.122720000	-0.018433355	-0.002273538
4	0.122720000	-0.016877441	-0.001562621
5	0.122720000	-0.015356092	-0.000842062
6	0.122720000	-0.013873408	-0.000122218
7	0.122720000	-0.012438570	0.000595956
8	0.122720000	-0.011056742	0.001304799
9	0.122720000	-0.009735682	0.002001710
10	0.122720000	-0.008482808	0.002683950
11	0.122720000	-0.007305252	0.003348808
12	0.122720000	-0.006209691	0.003993342
13	0.122720000	-0.005202281	0.004614322
14	0.122720000	-0.004288378	0.005207857
15	0.122720000	-0.003466644	0.005760891
16	0.122720000	-0.002732007	0.006256543
17	0.122720000	-0.002085309	0.006687965
18	0.122720000	-0.001532540	0.007056973
19	0.122720000	-0.001083704	0.007372108
20	0.122720000	-0.000753167	0.007645890
21	0.122720000	-0.000567397	0.007889762
22	0.122720000	-0.000548181	0.008070723
23	0.122720000	-0.000571812	0.008127857
24	0.122720000	-0.000608284	0.008178983
25	0.122720000	-0.000758356	0.008291110
26	0.122720000	-0.001053601	0.008392264
27	0.122720000	-0.001485655	0.008445915
28	0.122720000	-0.002041688	0.008431710
29	0.122720000	-0.002708232	0.008330865
30	0.122720000	-0.003470184	0.008127547
31	0.122720000	-0.004312677	0.007813515
32	0.122720000	-0.005225311	0.007392459
33	0.122720000	-0.006206167	0.006881585
34	0.122720000	-0.007256205	0.006298562
35	0.122720000	-0.008370243	0.005648134
36	0.122720000	-0.009542583	0.004934589
37	0.122720000	-0.010767383	0.004162541
38	0.122720000	-0.012038837	0.003337189
39	0.122720000	-0.013350980	0.002463954
40	0.122720000	-0.014697724	0.001548507
41	0.122720000	-0.016070139	0.000591963
42	0.122720000	-0.017462660	-0.000398185
43	0.122720000	-0.018864502	-0.001423246
44	0.122720000	-0.020262919	-0.002487633
45	0.122720000	-0.021642635	-0.003605434
1	0.125571536	-0.021711139	-0.003342159
2	0.125571536	-0.020098635	-0.002712581
3	0.125571536	-0.018519186	-0.002039048
4	0.125571536	-0.016971237	-0.001342694
5	0.125571536	-0.015457504	-0.000636617
6	0.125571536	-0.013982127	0.000068950
7	0.125571536	-0.012554217	0.000773110
8	0.125571536	-0.011178945	0.001468293
9	0.125571536	-0.009864026	0.002151969
10	0.125571536	-0.008616838	0.002821468
11	0.125571536	-0.007444471	0.003474142
12	0.125571536	-0.006353572	0.004107120
13	0.125571536	-0.005350268	0.004717234
14	0.125571536	-0.004439904	0.005300671
15	0.125571536	-0.003621274	0.005844531
16	0.125571536	-0.002889428	0.006332006
17	0.125571536	-0.002245216	0.006756271
18	0.125571536	-0.001694558	0.007119139
19	0.125571536	-0.001247324	0.007429138
20	0.125571536	-0.000917682	0.007698772
21	0.125571536	-0.000731818	0.007939579
22	0.125571536	-0.000711540	0.008119004
23	0.125571536	-0.000734605	0.008175849
24	0.125571536	-0.000770464	0.008226815
25	0.125571536	-0.000918685	0.008338997
26	0.125571536	-0.001211049	0.008441113
27	0.125571536	-0.001639453	0.008496856
28	0.125571536	-0.002191270	0.008485945
29	0.125571536	-0.002853235	0.008389653
30	0.125571536	-0.003610445	0.008192202
31	0.125571536	-0.004448204	0.007885360
32	0.125571536	-0.005356196	0.007472781
33	0.125571536	-0.006332452	0.006971574
34	0.125571536	-0.007377797	0.006399221
35	0.125571536	-0.008487050	0.005760368
36	0.125571536	-0.009654537	0.005059251
37	0.125571536	-0.010874431	0.004300405
38	0.125571536	-0.012140943	0.003488954
39	0.125571536	-0.013448120	0.002630244
40	0.125571536	-0.014789888	0.001729864
41	0.125571536	-0.016157384	0.000788876
42	0.125571536	-0.017545038	-0.000185325
43	0.125571536	-0.018942165	-0.001194088
44	0.125571536	-0.020336149	-0.002241855
45	0.125571536	-0.021711139	-0.003342159
1	0.128391831	-0.021859913	-0.003119185
2	0.128391831	-0.020247893	-0.002500568
3	0.128391831	-0.018668582	-0.001837929
4	0.128391831	-0.017120550	-0.001152364
5	0.128391831	-0.015606577	-0.000456926
6	0.128391831	-0.014130857	0.000238209
7	0.128391831	-0.012702483	0.000932201
8	0.128391831	-0.011326653	0.001617527
9	0.128391831	-0.010011081	0.002291712
10	0.128391831	-0.008763141	0.002952141
11	0.128391831	-0.007589924	0.003596217
12	0.128391831	-0.006498077	0.004221120
13	0.128391831	-0.005493734	0.004823734
14	0.128391831	-0.004582257	0.005400297
15	0.128391831	-0.003762550	0.005937984
16	0.128391831	-0.003029755	0.006419970
17	0.128391831	-0.002384734	0.006839413
18	0.128391831	-0.001833373	0.007198142
19	0.128391831	-0.001385465	0.007504721
20	0.128391831	-0.001055080	0.007771723
21	0.128391831	-0.000868277	0.008010821
22	0.128391831	-0.000846958	0.008189669
23	0.128391831	-0.000869596	0.008246520
24	0.128391831	-0.000905026	0.008297597
25	0.128391831	-0.001052125	0.008410489
26	0.128391831	-0.001343089	0.008514254
27	0.128391831	-0.001770065	0.008572570
28	0.128391831	-0.002320567	0.008565088
29	0.128391831	-0.002981452	0.008473014
30	0.128391831	-0.003737927	0.008280508
31	0.128391831	-0.004575369	0.007979293
32	0.128391831	-0.005483477	0.007573002
33	0.128391831	-0.006460217	0.007078751
34	0.128391831	-0.007506294	0.006513945
35	0.128391831	-0.008616502	0.005883169
36	0.128391831	-0.009785162	0.005190623
37	0.128391831	-0.011006430	0.004440793
38	0.128391831	-0.012274505	0.003638760
39	0.128391831	-0.013583417	0.002789820
40	0.128391831	-0.014927078	0.001899516
41	0.128391831	-0.016296635	0.000968852
42	0.128391831	-0.017686493	0.000005172
43	0.128391831	-0.019085997	-0.000992935
44	0.128391831	-0.020482585	-0.002029981
45	0.128391831	-0.021859913	-0.003119185
1	0.131149984	-0.022076545	-0.002915967
2	0.131149984	-0.020457779	-0.002304676
3	0.131149984	-0.018871610	-0.001649011
4	0.131149984	-0.017316682	-0.000970181
5	0.131149984	-0.015795831	-0.000281289
6	0.131149984	-0.014313302	0.000407473
7	0.131149984	-0.012878221	0.001095329
8	0.131149984	-0.011495824	0.001774745
9	0.131149984	-0.010173858	0.002443291
10	0.131149984	-0.008919728	0.003098393
11	0.131149984	-0.007740556	0.003737490
12	0.131149984	-0.006643024	0.004357802
13	0.131149984	-0.005633296	0.004956242
14	0.131149984	-0.004716772	0.005529083
15	0.131149984	-0.003892449	0.006063504
16	0.131149984	-0.003155533	0.006542595
17	0.131149984	-0.002506910	0.006959474
18	0.131149984	-0.001952457	0.007315998
19	0.131149984	-0.001501948	0.007620804
20	0.131149984	-0.001169421	0.007886581
21	0.131149984	-0.000980943	0.008125181
22	0.131149984	-0.000958577	0.008304293
23	0.131149984	-0.000980918	0.008361402
24	0.131149984	-0.001016104	0.008412811
25	0.131149984	-0.001162806	0.008526873
26	0.131149984	-0.001453760	0.008632642
27	0.131149984	-0.001881309	0.008693611
28	0.131149984	-0.002433038	0.008689268
29	0.131149984	-0.003095857	0.008600669
30	0.131149984	-0.003855006	0.008411849
31	0.131149984	-0.004695860	0.008114454
32	0.131149984	-0.005608088	0.007712119
33	0.131149984	-0.006589588	0.007222048
34	0.131149984	-0.007640958	0.006661650
35	0.131149984	-0.008756942	0.006035469
36	0.131149984	-0.009931835	0.005347698
37	0.131149984	-0.011159751	0.004602791
38	0.131149984	-0.012434853	0.003805815
39	0.131149984	-0.013751127	0.002962045
40	0.131149984	-0.015102442	0.002077004
41	0.131149984	-0.016479915	0.001151632
42	0.131149984	-0.017877897	0.000193264
43	0.131149984	-0.019285708	-0.000799592
44	0.131149984	-0.020690760	-0.001831569
45	0.131149984	-0.022076545	-0.002915967
1	0.133815776	-0.022331435	-0.002783597
2	0.133815776	-0.020701172	-0.002175150
3	0.133815776	-0.019103452	-0.001522060
4	0.133815776	-0.017537012	-0.000845635
5	0.133815776	-0.016004763	-0.000159033
6	0.133815776	-0.014511024	0.000527535
7	0.133815776	-0.013064974	0.001213324
8	0.133815776	-0.011671912	0.001890785
9	0.133815776	-0.010339638	0.002557509
10	0.133815776	-0.009075613	0.003210943
11	0.133815776	-0.007887007	0.003848546
12	0.133815776	-0.006780553	0.004467556
13	0.133815776	-0.005762463	0.005064903
14	0.133815776	-0.004838189	0.005636870
15	0.133815776	-0.004006803	0.006170606
16	0.133815776	-0.003263577	0.006649104
17	0.133815776	-0.002609424	0.007065441
18	0.133815776	-0.002050236	0.007421490
19	0.133815776	-0.001595785	0.007725957
20	0.133815776	-0.001260100	0.007991638
21	0.133815776	-0.001069258	0.008230571
22	0.133815776	-0.001045686	0.008410553
23	0.133815776	-0.001067861	0.008468098
24	0.133815776	-0.001103017	0.008519952
25	0.133815776	-0.001250124	0.008635195
26	0.133815776	-0.001542366	0.008742534
27	0.133815776	-0.001972124	0.008805286
28	0.133815776	-0.002526982	0.008802821
29	0.133815776	-0.003193858	0.008716076
30	0.133815776	-0.003957989	0.008528994
31	0.133815776	-0.004804740	0.008233171
32	0.133815776	-0.005723742	0.007832253
33	0.133815776	-0.006712829	0.007343524
34	0.133815776	-0.007772507	0.006784424
35	0.133815776	-0.008897465	0.006159483
36	0.133815776	-0.010081953	0.005472902
37	0.133815776	-0.011320029	0.004729123
38	0.133815776	-0.012605800	0.003933215
39	0.133815776	-0.013933195	0.003090451
40	0.133815776	-0.015296023	0.002206357
41	0.133815776	-0.016685346	0.001281843
42	0.133815776	-0.018095452	0.000324256
43	0.133815776	-0.019515611	-0.000667944
44	0.133815776	-0.020933184	-0.001699463
45	0.133815776	-0.022331435	-0.002783597
1	0.136360000	-0.022558135	-0.002802446
2	0.136360000	-0.020916706	-0.002193837
3	0.136360000	-0.019307622	-0.001540728
4	0.136360000	-0.017729788	-0.000864350
5	0.136360000	-0.016186227	-0.000177828
6	0.136360000	-0.014681365	0.000508670
7	0.136360000	-0.013224424	0.001194403
8	0.136360000	-0.011820789	0.001871844
9	0.136360000	-0.010478311	0.002538592
10	0.136360000	-0.009204501	0.003192103
11	0.136360000	-0.008006578	0.003829836
12	0.136360000	-0.006891321	0.004449035
13	0.136360000	-0.005864987	0.005046633
14	0.136360000	-0.004933053	0.005618889
15	0.136360000	-0.004094605	0.006152834
16	0.136360000	-0.003345026	0.006631476
17	0.136360000	-0.002685313	0.007047931
18	0.136360000	-0.002121387	0.007404106
19	0.136360000	-0.001663018	0.007708750
20	0.136360000	-0.001324202	0.007974707
21	0.136360000	-0.001130952	0.008214134
22	0.136360000	-0.001106150	0.008395062
23	0.136360000	-0.001128233	0.008453044
24	0.136360000	-0.001163476	0.008505297
25	0.136360000	-0.001311364	0.008621368
26	0.136360000	-0.001605333	0.008729486
27	0.136360000	-0.002037656	0.008792920
28	0.136360000	-0.002595886	0.008791055
29	0.136360000	-0.003266946	0.008704830
30	0.136360000	-0.004036103	0.008518194
31	0.136360000	-0.004888738	0.008222717
32	0.136360000	-0.005814455	0.007821986
33	0.136360000	-0.006810982	0.007333212
34	0.136360000	-0.007878766	0.006773911
35	0.136360000	-0.009012475	0.006148657
36	0.136360000	-0.010206313	0.005461658
37	0.136360000	-0.011454286	0.004717351
38	0.136360000	-0.012750440	0.003920800
39	0.136360000	-0.014088647	0.003077285
40	0.136360000	-0.015462659	0.002192338
41	0.136360000	-0.016863506	0.001266891
42	0.136360000	-0.018285406	0.000308300
43	0.136360000	-0.019717613	-0.000684942
44	0.136360000	-0.021147488	-0.001717499
45	0.136360000	-0.022558135	-0.002802446
1	0.138754782	-0.022639431	-0.002966402
2	0.138754782	-0.020996601	-0.002359905
3	0.138754782	-0.019385826	-0.001709243
4	0.138754782	-0.017806147	-0.001035472
5	0.138754782	-0.016260661	-0.000351634
6	0.138754782	-0.014753854	0.000332185
7	0.138754782	-0.013294949	0.001015253
8	0.138754782	-0.011889368	0.001690097
9	0.138754782	-0.010544969	0.002354323
10	0.138754782	-0.009269269	0.003005400
11	0.138754782	-0.008069483	0.003640788
12	0.138754782	-0.006952392	0.004257735
13	0.138754782	-0.005924259	0.004853185
14	0.138754782	-0.004990522	0.005423337
15	0.138754782	-0.004150158	0.005955011
16	0.138754782	-0.003398760	0.006431459
17	0.138754782	-0.002737480	0.006846010
18	0.138754782	-0.002172266	0.007200642
19	0.138754782	-0.001712856	0.007504114
20	0.138754782	-0.001373146	0.007769213
21	0.138754782	-0.001178972	0.008008065
22	0.138754782	-0.001153464	0.008188954
23	0.138754782	-0.001175447	0.008246999
24	0.138754782	-0.001210666	0.008299286
25	0.138754782	-0.001358655	0.008415294
26	0.138754782	-0.001652786	0.008523204
27	0.138754782	-0.002085243	0.008586506
28	0.138754782	-0.002643617	0.008584800
29	0.138754782	-0.003314935	0.008499215
30	0.138754782	-0.004084600	0.008313821
31	0.138754782	-0.004938097	0.008020140
32	0.138754782	-0.005865005	0.007621530
33	0.138754782	-0.006862851	0.007134825
34	0.138754782	-0.007932100	0.006577673
35	0.138754782	-0.009067470	0.005954767
36	0.138754782	-0.010263156	0.005270293
37	0.138754782	-0.011513148	0.004528668
38	0.138754782	-0.012811464	0.003734915
39	0.138754782	-0.014151962	0.002894299
40	0.138754782	-0.015528373	0.002012330
41	0.138754782	-0.016931748	0.001089964
42	0.138754782	-0.018356285	0.000134537
43	0.138754782	-0.019791273	-0.000855417
44	0.138754782	-0.021224139	-0.001884489
45	0.138754782	-0.022639431	-0.002966402
1	0.140973883	-0.022463336	-0.003181884
2	0.140973883	-0.020839612	-0.002585472
3	0.140973883	-0.019247506	-0.001945351
4	0.140973883	-0.017686114	-0.001282294
5	0.140973883	-0.016158497	-0.000609209
6	0.140973883	-0.014669099	0.000063947
7	0.140973883	-0.013227042	0.000736483
8	0.140973883	-0.011837689	0.001401017
9	0.140973883	-0.010508799	0.002055186
10	0.140973883	-0.009247799	0.002696489
11	0.140973883	-0.008061808	0.003322405
12	0.140973883	-0.006957513	0.003930201
13	0.140973883	-0.005941098	0.004516856
14	0.140973883	-0.005017851	0.005078487
15	0.140973883	-0.004186520	0.005601660
16	0.140973883	-0.003443017	0.006070212
17	0.140973883	-0.002788717	0.006477903
18	0.140973883	-0.002229566	0.006826822
19	0.140973883	-0.001775177	0.007125663
20	0.140973883	-0.001439212	0.007386981
21	0.140973883	-0.001247082	0.007622638
22	0.140973883	-0.001221728	0.007801280
23	0.140973883	-0.001243445	0.007858611
24	0.140973883	-0.001278254	0.007910226
25	0.140973883	-0.001424500	0.008024653
26	0.140973883	-0.001715038	0.008131017
27	0.140973883	-0.002142113	0.008193465
28	0.140973883	-0.002693526	0.008192084
29	0.140973883	-0.003356586	0.008108455
30	0.140973883	-0.004117029	0.007926943
31	0.140973883	-0.004960603	0.007639039
32	0.140973883	-0.005876919	0.007247677
33	0.140973883	-0.006863234	0.006768936
34	0.140973883	-0.007920081	0.006220542
35	0.140973883	-0.009042349	0.005607349
36	0.140973883	-0.010224294	0.004933475
37	0.140973883	-0.011459972	0.004203266
38	0.140973883	-0.012743443	0.003421636
39	0.140973883	-0.014068637	0.002593778
40	0.140973883	-0.015429348	0.001725114
41	0.140973883	-0.016816737	0.000816577
42	0.140973883	-0.018225076	-0.000124582
43	0.140973883	-0.019643791	-0.001099826
44	0.140973883	-0.021060478	-0.002113713
45	0.140973883	-0.022463336	-0.003181884
1	0.142992991	-0.021964112	-0.003351875
2	0.142992991	-0.020388927	-0.002775913
3	0.142992991	-0.018844235	-0.002157710
4	0.142992991	-0.017329290	-0.001517211
5	0.142992991	-0.015847094	-0.000866895
6	0.142992991	-0.014401993	-0.000216372
7	0.142992991	-0.013002832	0.000433707
8	0.142992991	-0.011654841	0.001076214
9	0.142992991	-0.010365539	0.001708854
10	0.142992991	-0.009142126	0.002329198
11	0.142992991	-0.007991495	0.002934776
12	0.142992991	-0.006920118	0.003522914
13	0.142992991	-0.005933984	0.004090669
14	0.142992991	-0.005038104	0.004634082
15	0.142992991	-0.004230934	0.005139586
16	0.142992991	-0.003508825	0.005591975
17	0.142992991	-0.002873392	0.005985628
18	0.142992991	-0.002330496	0.006322748
19	0.142992991	-0.001889475	0.006611826
20	0.142992991	-0.001563541	0.006864961
21	0.142992991	-0.001377325	0.007093498
22	0.142992991	-0.001353113	0.007266746
23	0.142992991	-0.001374319	0.007322276
24	0.142992991	-0.001408191	0.007372220
25	0.142992991	-0.001550171	0.007482865
26	0.142992991	-0.001831912	0.007585675
27	0.142992991	-0.002245905	0.007646137
28	0.142992991	-0.002780414	0.007645209
29	0.142992991	-0.003423288	0.007565280
30	0.142992991	-0.004160871	0.007391262
31	0.142992991	-0.004979419	0.007114670
32	0.142992991	-0.005868699	0.006737821
33	0.142992991	-0.006825648	0.006275592
34	0.142992991	-0.007850898	0.005745586
35	0.142992991	-0.008939644	0.005152841
36	0.142992991	-0.010086301	0.004501319
37	0.142992991	-0.011285099	0.003795228
38	0.142992991	-0.012530246	0.003039274
39	0.142992991	-0.013815852	0.002238492
40	0.142992991	-0.015135888	0.001398124
41	0.142992991	-0.016481809	0.000519102
42	0.142992991	-0.017848060	-0.000391538
43	0.142992991	-0.019224429	-0.001335174
44	0.142992991	-0.020598943	-0.002316167
45	0.142992991	-0.021964112	-0.003351875
1	0.144789984	-0.021105733	-0.003409833
2	0.144789984	-0.019614195	-0.002865041
3	0.144789984	-0.018150944	-0.002281201
4	0.144789984	-0.016715619	-0.001676584
5	0.144789984	-0.015311212	-0.001062762
6	0.144789984	-0.013941954	-0.000448629
7	0.144789984	-0.012616195	0.000165153
8	0.144789984	-0.011338969	0.000771979
9	0.144789984	-0.010117396	0.001369663
10	0.144789984	-0.008958288	0.001955892
11	0.144789984	-0.007868161	0.002528297
12	0.144789984	-0.006853129	0.003084315
13	0.144789984	-0.005918854	0.003621139
14	0.144789984	-0.005069926	0.004134761
15	0.144789984	-0.004304513	0.004611730
16	0.144789984	-0.003619518	0.005038193
17	0.144789984	-0.003016780	0.005409307
18	0.144789984	-0.002501966	0.005727372
19	0.144789984	-0.002083950	0.006000505
20	0.144789984	-0.001775230	0.006240098
21	0.144789984	-0.001599192	0.006456726
22	0.144789984	-0.001577008	0.006620862
23	0.144789984	-0.001597358	0.006673343
24	0.144789984	-0.001629624	0.006720492
25	0.144789984	-0.001764325	0.006824890
26	0.144789984	-0.002031172	0.006921926
27	0.144789984	-0.002423117	0.006979147
28	0.144789984	-0.002929156	0.006978791
29	0.144789984	-0.003537947	0.006904429
30	0.144789984	-0.004236738	0.006741816
31	0.144789984	-0.005012568	0.006482618
32	0.144789984	-0.005855548	0.006128411
33	0.144789984	-0.006762307	0.005692463
34	0.144789984	-0.007733550	0.005191890
35	0.144789984	-0.008764929	0.004631900
36	0.144789984	-0.009851131	0.004016210
37	0.144789984	-0.010986687	0.003348802
38	0.144789984	-0.012166079	0.002634085
39	0.144789984	-0.013383729	0.001876831
40	0.144789984	-0.014633922	0.001081998
41	0.144789984	-0.015908653	0.000250617
42	0.144789984	-0.017202647	-0.000610677
43	0.144789984	-0.018506358	-0.001502981
44	0.144789984	-0.019808627	-0.002430132
45	0.144789984	-0.021105733	-0.003409833
1	0.146345173	-0.019926084	-0.003333606
2	0.146345173	-0.018549271	-0.002830784
3	0.146345173	-0.017198102	-0.002292712
4	0.146345173	-0.015872564	-0.001735677
5	0.146345173	-0.014575511	-0.001170198
6	0.146345173	-0.013310926	-0.000604349
7	0.146345173	-0.012086507	-0.000038763
8	0.146345173	-0.010906957	0.000520564
9	0.146345173	-0.009778847	0.001071602
10	0.146345173	-0.008708464	0.001612208
11	0.146345173	-0.007701811	0.002140165
12	0.146345173	-0.006764522	0.002653079
13	0.146345173	-0.005901816	0.003148341
14	0.146345173	-0.005117750	0.003621954
15	0.146345173	-0.004410287	0.004060941
16	0.146345173	-0.003776925	0.004453073
17	0.146345173	-0.003219656	0.004794339
18	0.146345173	-0.002743829	0.005087075
19	0.146345173	-0.002357670	0.005338845
20	0.146345173	-0.002072727	0.005560111
21	0.146345173	-0.001910697	0.005760463
22	0.146345173	-0.001891150	0.005912094
23	0.146345173	-0.001910271	0.005960408
24	0.146345173	-0.001940286	0.006003762
25	0.146345173	-0.002064921	0.006099718
26	0.146345173	-0.002311329	0.006188935
27	0.146345173	-0.002673076	0.006241675
28	0.146345173	-0.003140111	0.006241789
29	0.146345173	-0.003702121	0.006174341
30	0.146345173	-0.004347499	0.006026213
31	0.146345173	-0.005064326	0.005789413
32	0.146345173	-0.005843273	0.005464793
33	0.146345173	-0.006680771	0.005063794
34	0.146345173	-0.007577545	0.004602587
35	0.146345173	-0.008529805	0.004086479
36	0.146345173	-0.009532622	0.003518865
37	0.146345173	-0.010580944	0.002903423
38	0.146345173	-0.011669650	0.002244182
39	0.146345173	-0.012793590	0.001545551
40	0.146345173	-0.013947487	0.000812113
41	0.146345173	-0.015124019	0.000044932
42	0.146345173	-0.016318316	-0.000749870
43	0.146345173	-0.017521664	-0.001573145
44	0.146345173	-0.018723889	-0.002428223
45	0.146345173	-0.019926084	-0.003333606
1	0.147641520	-0.018582170	-0.003153317
2	0.147641520	-0.017334415	-0.002702363
3	0.147641520	-0.016110743	-0.002217839
4	0.147641520	-0.014910894	-0.001714946
5	0.147641520	-0.013737137	-0.001203799
6	0.147641520	-0.012592865	-0.000692104
7	0.147641520	-0.011485123	-0.000180276
8	0.147641520	-0.010418018	0.000325972
9	0.147641520	-0.009397489	0.000824792
10	0.147641520	-0.008429227	0.001314236
11	0.147641520	-0.007518649	0.001792271
12	0.147641520	-0.006670843	0.002256708
13	0.147641520	-0.005890522	0.002705169
14	0.147641520	-0.005181177	0.003133737
15	0.147641520	-0.004540685	0.003530244
16	0.147641520	-0.003967094	0.003884124
17	0.147641520	-0.003462443	0.004192132
18	0.147641520	-0.003031675	0.004456556
19	0.147641520	-0.002682266	0.004684293
20	0.147641520	-0.002424681	0.004884756
21	0.147641520	-0.002278662	0.005066460
22	0.147641520	-0.002261899	0.005203747
23	0.147641520	-0.002279501	0.005247340
24	0.147641520	-0.002306856	0.005286398
25	0.147641520	-0.002419846	0.005372818
26	0.147641520	-0.002642776	0.005453222
27	0.147641520	-0.002969907	0.005500899
28	0.147641520	-0.003392247	0.005501449
29	0.147641520	-0.003900601	0.005441560
30	0.147641520	-0.004484620	0.005309396
31	0.147641520	-0.005133568	0.005097485
32	0.147641520	-0.005838850	0.004806084
33	0.147641520	-0.006596850	0.004444859
34	0.147641520	-0.007408244	0.004028675
35	0.147641520	-0.008269824	0.003562820
36	0.147641520	-0.009177112	0.003050334
37	0.147641520	-0.010125540	0.002494552
38	0.147641520	-0.011110456	0.001899089
39	0.147641520	-0.012127201	0.001267937
40	0.147641520	-0.013171007	0.000605250
41	0.147641520	-0.014235124	-0.000088257
42	0.147641520	-0.015315227	-0.000806903
43	0.147641520	-0.016403248	-0.001551827
44	0.147641520	-0.017489704	-0.002326589
45	0.147641520	-0.018582170	-0.003153317
1	0.148664822	-0.017292308	-0.002932736
2	0.148664822	-0.016167416	-0.002536290
3	0.148664822	-0.015066403	-0.002105473
4	0.148664822	-0.013988185	-0.001655526
5	0.148664822	-0.012934096	-0.001196855
6	0.148664822	-0.011906687	-0.000737313
7	0.148664822	-0.010912462	-0.000276939
8	0.148664822	-0.009954753	0.000178467
9	0.148664822	-0.009038892	0.000627236
10	0.148664822	-0.008169986	0.001067609
11	0.148664822	-0.007352889	0.001497735
12	0.148664822	-0.006592162	0.001915632
13	0.148664822	-0.005892028	0.002319142
14	0.148664822	-0.005255464	0.002704493
15	0.148664822	-0.004680371	0.003060477
16	0.148664822	-0.004165220	0.003377983
17	0.148664822	-0.003712011	0.003654370
18	0.148664822	-0.003325257	0.003891818
19	0.148664822	-0.003011697	0.004096543
20	0.148664822	-0.002780743	0.004276939
21	0.148664822	-0.002650191	0.004440510
22	0.148664822	-0.002635899	0.004563856
23	0.148664822	-0.002651894	0.004602929
24	0.148664822	-0.002676607	0.004637855
25	0.148664822	-0.002778217	0.004715111
26	0.148664822	-0.002978324	0.004787046
27	0.148664822	-0.003271842	0.004829864
28	0.148664822	-0.003650792	0.004830815
29	0.148664822	-0.004107041	0.004778117
30	0.148664822	-0.004631428	0.004661181
31	0.148664822	-0.005214376	0.004473124
32	0.148664822	-0.005848066	0.004213790
33	0.148664822	-0.006528964	0.003891325
34	0.148664822	-0.007257654	0.003519199
35	0.148664822	-0.008031441	0.003102561
36	0.148664822	-0.008846290	0.002644114
37	0.148664822	-0.009698100	0.002146854
38	0.148664822	-0.010582682	0.001614001
39	0.148664822	-0.011495849	0.001049128
40	0.148664822	-0.012433319	0.000455966
41	0.148664822	-0.013388713	-0.000165456
42	0.148664822	-0.014358293	-0.000809767
43	0.148664822	-0.015334352	-0.001478874
44	0.148664822	-0.016307695	-0.002177271
45	0.148664822	-0.017292308	-0.002932736
1	0.149403867	-0.016240700	-0.002732391
2	0.149403867	-0.015216399	-0.002381761
3	0.149403867	-0.014216106	-0.001995557
4	0.149403867	-0.013237896	-0.001589350
5	0.149403867	-0.012282272	-0.001173905
6	0.149403867	-0.011351041	-0.000757282
7	0.149403867	-0.010450275	-0.000339188
8	0.149403867	-0.009582637	0.000074443
9	0.149403867	-0.008752954	0.000482085
10	0.149403867	-0.007965856	0.000882139
11	0.149403867	-0.007225734	0.001272903
12	0.149403867	-0.006536715	0.001652566
13	0.149403867	-0.005902621	0.002019154
14	0.149403867	-0.005326031	0.002369054
15	0.149403867	-0.004804920	0.002691940
16	0.149403867	-0.004338047	0.002979803
17	0.149403867	-0.003927333	0.003230422
18	0.149403867	-0.003576918	0.003445852
19	0.149403867	-0.003292926	0.003631735
20	0.149403867	-0.003083902	0.003795632
21	0.149403867	-0.002966026	0.003944238
22	0.149403867	-0.002953618	0.004056093
23	0.149403867	-0.002968293	0.004091412
24	0.149403867	-0.002990793	0.004122969
25	0.149403867	-0.003082990	0.004192752
26	0.149403867	-0.003264300	0.004257790
27	0.149403867	-0.003530167	0.004296658
28	0.149403867	-0.003873431	0.004297932
29	0.149403867	-0.004286813	0.004251055
30	0.149403867	-0.004762113	0.004146467
31	0.149403867	-0.005290703	0.003977812
32	0.149403867	-0.005865438	0.003744682
33	0.149403867	-0.006482923	0.003454099
34	0.149403867	-0.007143646	0.003118313
35	0.149403867	-0.007845297	0.002742286
36	0.149403867	-0.008584208	0.002328444
37	0.149403867	-0.009356661	0.001879498
38	0.149403867	-0.010158847	0.001398344
39	0.149403867	-0.010986961	0.000888205
40	0.149403867	-0.011837122	0.000352454
41	0.149403867	-0.012703213	-0.000209503
42	0.149403867	-0.013581989	-0.000792541
43	0.149403867	-0.014465985	-0.001399288
44	0.149403867	-0.015346178	-0.002035123
45	0.149403867	-0.016240700	-0.002732391
1	0.150000000	-0.015321059	-0.002547540
2	0.150000000	-0.014386006	-0.002235858
3	0.150000000	-0.013474682	-0.001888273
4	0.150000000	-0.012584577	-0.001520370
5	0.150000000	-0.011715580	-0.001142993
6	0.150000000	-0.010868938	-0.000764217
7	0.150000000	-0.010050307	-0.000383519
8	0.150000000	-0.009261823	-0.000006832
9	0.150000000	-0.008507873	0.000364448
10	0.150000000	-0.007792665	0.000728859
11	0.150000000	-0.007120184	0.001084837
12	0.150000000	-0.006494177	0.001430717
13	0.150000000	-0.005918112	0.001764691
14	0.150000000	-0.005394240	0.002083324
15	0.150000000	-0.004920635	0.002377110
16	0.150000000	-0.004496273	0.002638949
17	0.150000000	-0.004122976	0.002866945
18	0.150000000	-0.003804542	0.003063021
19	0.150000000	-0.003546552	0.003232307
20	0.150000000	-0.003356784	0.003381639
21	0.150000000	-0.003249982	0.003517017
22	0.150000000	-0.003239111	0.003618751
23	0.150000000	-0.003252567	0.003650814
24	0.150000000	-0.003273096	0.003679430
25	0.150000000	-0.003356987	0.003742697
26	0.150000000	-0.003521773	0.003801713
27	0.150000000	-0.003763349	0.003837116
28	0.150000000	-0.004075265	0.003838620
29	0.150000000	-0.004450975	0.003796719
30	0.150000000	-0.004883103	0.003702749
31	0.150000000	-0.005363849	0.003550848
32	0.150000000	-0.005886675	0.003340446
33	0.150000000	-0.006448355	0.003077656
34	0.150000000	-0.007049290	0.002773627
35	0.150000000	-0.007687479	0.002433095
36	0.150000000	-0.008359577	0.002058245
37	0.150000000	-0.009062203	0.001651537
38	0.150000000	-0.009791880	0.001215581
39	0.150000000	-0.010545141	0.000753291
40	0.150000000	-0.011318450	0.000267725
41	0.150000000	-0.012105985	-0.000242150
42	0.150000000	-0.012904897	-0.000771479
43	0.150000000	-0.013708025	-0.001323360
44	0.150000000	-0.014506616	-0.001903710
45	0.150000000	-0.015321059	-0.002547540
