ISO-10303-21;
HEADER;
FILE_DESCRIPTION(('Open CASCADE Model'),'2;1');
FILE_NAME('Open CASCADE Shape Model','2024-12-02T00:48:15',('Author'),(
    'Open CASCADE'),'Open CASCADE STEP processor 7.7','Open CASCADE 7.7'
  ,'Unknown');
FILE_SCHEMA(('AUTOMOTIVE_DESIGN { 1 0 10303 214 1 1 1 1 }'));
ENDSEC;
DATA;
#1 = APPLICATION_PROTOCOL_DEFINITION('international standard',
  'automotive_design',2000,#2);
#2 = APPLICATION_CONTEXT(
  'core data for automotive mechanical design processes');
#3 = SHAPE_DEFINITION_REPRESENTATION(#4,#10);
#4 = PRODUCT_DEFINITION_SHAPE('','',#5);
#5 = PRODUCT_DEFINITION('design','',#6,#9);
#6 = PRODUCT_DEFINITION_FORMATION('','',#7);
#7 = PRODUCT('Open CASCADE STEP translator 7.7 116',
  'Open CASCADE STEP translator 7.7 116','',(#8));
#8 = PRODUCT_CONTEXT('',#2,'mechanical');
#9 = PRODUCT_DEFINITION_CONTEXT('part definition',#2,'design');
#10 = MANIFOLD_SURFACE_SHAPE_REPRESENTATION('',(#11,#15),#421);
#11 = AXIS2_PLACEMENT_3D('',#12,#13,#14);
#12 = CARTESIAN_POINT('',(0.,0.,0.));
#13 = DIRECTION('',(0.,0.,1.));
#14 = DIRECTION('',(1.,0.,-0.));
#15 = SHELL_BASED_SURFACE_MODEL('',(#16));
#16 = OPEN_SHELL('',(#17));
#17 = ADVANCED_FACE('',(#18),#75,.T.);
#18 = FACE_BOUND('',#19,.T.);
#19 = EDGE_LOOP('',(#20,#129,#239,#373));
#20 = ORIENTED_EDGE('',*,*,#21,.F.);
#21 = EDGE_CURVE('',#22,#24,#26,.T.);
#22 = VERTEX_POINT('',#23);
#23 = CARTESIAN_POINT('',(9.251619210538,1.664912781322,111.));
#24 = VERTEX_POINT('',#25);
#25 = CARTESIAN_POINT('',(9.349557981061,1.382854843358,111.));
#26 = SURFACE_CURVE('',#27,(#74),.PCURVE_S1.);
#27 = B_SPLINE_CURVE_WITH_KNOTS('',5,(#28,#29,#30,#31,#32,#33,#34,#35,
    #36,#37,#38,#39,#40,#41,#42,#43,#44,#45,#46,#47,#48,#49,#50,#51,#52,
    #53,#54,#55,#56,#57,#58,#59,#60,#61,#62,#63,#64,#65,#66,#67,#68,#69,
    #70,#71,#72,#73),.UNSPECIFIED.,.F.,.F.,(6,4,4,4,4,4,4,4,4,4,4,6),(0.
    ,8.081164405879E-02,0.133109285852,0.170316542449,0.264857553093,
    0.375860469272,0.498758138014,0.624454463866,0.73544553645,
    0.866139142234,0.918398431665,1.),.UNSPECIFIED.);
#28 = CARTESIAN_POINT('',(9.251650395565,1.66490485403,111.));
#29 = CARTESIAN_POINT('',(9.260222293817,1.666950237753,111.));
#30 = CARTESIAN_POINT('',(9.268782508277,1.668618121527,111.));
#31 = CARTESIAN_POINT('',(9.277310989048,1.669890351801,111.));
#32 = CARTESIAN_POINT('',(9.285784283921,1.670752289222,111.));
#33 = CARTESIAN_POINT('',(9.299605978811,1.671477892881,111.));
#34 = CARTESIAN_POINT('',(9.30500208778,1.671586553267,111.));
#35 = CARTESIAN_POINT('',(9.310356571137,1.671515871106,111.));
#36 = CARTESIAN_POINT('',(9.315661757888,1.671263922174,111.));
#37 = CARTESIAN_POINT('',(9.324643187553,1.670520903104,111.));
#38 = CARTESIAN_POINT('',(9.328347760269,1.670119815021,111.));
#39 = CARTESIAN_POINT('',(9.332020425895,1.669626189298,111.));
#40 = CARTESIAN_POINT('',(9.335658256726,1.669039997908,111.));
#41 = CARTESIAN_POINT('',(9.348405719513,1.666637512968,111.));
#42 = CARTESIAN_POINT('',(9.357309504205,1.66431750293,111.));
#43 = CARTESIAN_POINT('',(9.365920069565,1.661406214139,111.));
#44 = CARTESIAN_POINT('',(9.374190305949,1.657920541458,111.));
#45 = CARTESIAN_POINT('',(9.391333848125,1.649156638817,111.));
#46 = CARTESIAN_POINT('',(9.400062125723,1.643671552751,111.));
#47 = CARTESIAN_POINT('',(9.408188741083,1.63748076328,111.));
#48 = CARTESIAN_POINT('',(9.415653498792,1.630649298024,111.));
#49 = CARTESIAN_POINT('',(9.429881198285,1.615062365895,111.));
#50 = CARTESIAN_POINT('',(9.436483461879,1.606178885394,111.));
#51 = CARTESIAN_POINT('',(9.442144466918,1.596702745884,111.));
#52 = CARTESIAN_POINT('',(9.446811210799,1.586747025798,111.));
#53 = CARTESIAN_POINT('',(9.454156876535,1.565874057514,111.));
#54 = CARTESIAN_POINT('',(9.456788103391,1.554940088292,111.));
#55 = CARTESIAN_POINT('',(9.45829296068,1.543750702811,111.));
#56 = CARTESIAN_POINT('',(9.458640402721,1.532436027691,111.));
#57 = CARTESIAN_POINT('',(9.457096317155,1.511139136988,111.));
#58 = CARTESIAN_POINT('',(9.45546196507,1.501155595823,111.));
#59 = CARTESIAN_POINT('',(9.452910709687,1.49126577908,111.));
#60 = CARTESIAN_POINT('',(9.449449527775,1.481558075254,111.));
#61 = CARTESIAN_POINT('',(9.439991391652,1.460992143804,111.));
#62 = CARTESIAN_POINT('',(9.433652576204,1.45023383928,111.));
#63 = CARTESIAN_POINT('',(9.426135224649,1.439973134228,111.));
#64 = CARTESIAN_POINT('',(9.41752025549,1.430314630101,111.));
#65 = CARTESIAN_POINT('',(9.40407868602,1.417734807469,111.));
#66 = CARTESIAN_POINT('',(9.400081146589,1.414248726943,111.));
#67 = CARTESIAN_POINT('',(9.395932442858,1.410874183942,111.));
#68 = CARTESIAN_POINT('',(9.391639778589,1.407614438829,111.));
#69 = CARTESIAN_POINT('',(9.380294758782,1.399564488916,111.));
#70 = CARTESIAN_POINT('',(9.373046023656,1.394942712068,111.));
#71 = CARTESIAN_POINT('',(9.365493329183,1.3906146248,111.));
#72 = CARTESIAN_POINT('',(9.357665019307,1.386583371163,111.));
#73 = CARTESIAN_POINT('',(9.349588929312,1.382847021673,111.));
#74 = PCURVE('',#75,#80);
#75 = PLANE('',#76);
#76 = AXIS2_PLACEMENT_3D('',#77,#78,#79);
#77 = CARTESIAN_POINT('',(0.,0.,111.));
#78 = DIRECTION('',(0.,0.,1.));
#79 = DIRECTION('',(1.,0.,-0.));
#80 = DEFINITIONAL_REPRESENTATION('',(#81),#128);
#81 = B_SPLINE_CURVE_WITH_KNOTS('',5,(#82,#83,#84,#85,#86,#87,#88,#89,
    #90,#91,#92,#93,#94,#95,#96,#97,#98,#99,#100,#101,#102,#103,#104,
    #105,#106,#107,#108,#109,#110,#111,#112,#113,#114,#115,#116,#117,
    #118,#119,#120,#121,#122,#123,#124,#125,#126,#127),.UNSPECIFIED.,.F.
  ,.F.,(6,4,4,4,4,4,4,4,4,4,4,6),(0.,8.081164405879E-02,0.133109285852,
    0.170316542449,0.264857553093,0.375860469272,0.498758138014,
    0.624454463866,0.73544553645,0.866139142234,0.918398431665,1.),
  .UNSPECIFIED.);
#82 = CARTESIAN_POINT('',(9.251650395565,1.66490485403));
#83 = CARTESIAN_POINT('',(9.260222293817,1.666950237753));
#84 = CARTESIAN_POINT('',(9.268782508277,1.668618121527));
#85 = CARTESIAN_POINT('',(9.277310989048,1.669890351801));
#86 = CARTESIAN_POINT('',(9.285784283921,1.670752289222));
#87 = CARTESIAN_POINT('',(9.299605978811,1.671477892881));
#88 = CARTESIAN_POINT('',(9.30500208778,1.671586553267));
#89 = CARTESIAN_POINT('',(9.310356571137,1.671515871106));
#90 = CARTESIAN_POINT('',(9.315661757888,1.671263922174));
#91 = CARTESIAN_POINT('',(9.324643187553,1.670520903104));
#92 = CARTESIAN_POINT('',(9.328347760269,1.670119815021));
#93 = CARTESIAN_POINT('',(9.332020425895,1.669626189298));
#94 = CARTESIAN_POINT('',(9.335658256726,1.669039997908));
#95 = CARTESIAN_POINT('',(9.348405719513,1.666637512968));
#96 = CARTESIAN_POINT('',(9.357309504205,1.66431750293));
#97 = CARTESIAN_POINT('',(9.365920069565,1.661406214139));
#98 = CARTESIAN_POINT('',(9.374190305949,1.657920541458));
#99 = CARTESIAN_POINT('',(9.391333848125,1.649156638817));
#100 = CARTESIAN_POINT('',(9.400062125723,1.643671552751));
#101 = CARTESIAN_POINT('',(9.408188741083,1.63748076328));
#102 = CARTESIAN_POINT('',(9.415653498792,1.630649298024));
#103 = CARTESIAN_POINT('',(9.429881198285,1.615062365895));
#104 = CARTESIAN_POINT('',(9.436483461879,1.606178885394));
#105 = CARTESIAN_POINT('',(9.442144466918,1.596702745884));
#106 = CARTESIAN_POINT('',(9.446811210799,1.586747025798));
#107 = CARTESIAN_POINT('',(9.454156876535,1.565874057514));
#108 = CARTESIAN_POINT('',(9.456788103391,1.554940088292));
#109 = CARTESIAN_POINT('',(9.45829296068,1.543750702811));
#110 = CARTESIAN_POINT('',(9.458640402721,1.532436027691));
#111 = CARTESIAN_POINT('',(9.457096317155,1.511139136988));
#112 = CARTESIAN_POINT('',(9.45546196507,1.501155595823));
#113 = CARTESIAN_POINT('',(9.452910709687,1.49126577908));
#114 = CARTESIAN_POINT('',(9.449449527775,1.481558075254));
#115 = CARTESIAN_POINT('',(9.439991391652,1.460992143804));
#116 = CARTESIAN_POINT('',(9.433652576204,1.45023383928));
#117 = CARTESIAN_POINT('',(9.426135224649,1.439973134228));
#118 = CARTESIAN_POINT('',(9.41752025549,1.430314630101));
#119 = CARTESIAN_POINT('',(9.40407868602,1.417734807469));
#120 = CARTESIAN_POINT('',(9.400081146589,1.414248726943));
#121 = CARTESIAN_POINT('',(9.395932442858,1.410874183942));
#122 = CARTESIAN_POINT('',(9.391639778589,1.407614438829));
#123 = CARTESIAN_POINT('',(9.380294758782,1.399564488916));
#124 = CARTESIAN_POINT('',(9.373046023656,1.394942712068));
#125 = CARTESIAN_POINT('',(9.365493329183,1.3906146248));
#126 = CARTESIAN_POINT('',(9.357665019307,1.386583371163));
#127 = CARTESIAN_POINT('',(9.349588929312,1.382847021673));
#128 = ( GEOMETRIC_REPRESENTATION_CONTEXT(2) 
PARAMETRIC_REPRESENTATION_CONTEXT() REPRESENTATION_CONTEXT('2D SPACE',''
  ) );
#129 = ORIENTED_EDGE('',*,*,#130,.F.);
#130 = EDGE_CURVE('',#131,#22,#133,.T.);
#131 = VERTEX_POINT('',#132);
#132 = CARTESIAN_POINT('',(-7.065191763744,-1.739805014881,111.));
#133 = SURFACE_CURVE('',#134,(#185),.PCURVE_S1.);
#134 = B_SPLINE_CURVE_WITH_KNOTS('',7,(#135,#136,#137,#138,#139,#140,
    #141,#142,#143,#144,#145,#146,#147,#148,#149,#150,#151,#152,#153,
    #154,#155,#156,#157,#158,#159,#160,#161,#162,#163,#164,#165,#166,
    #167,#168,#169,#170,#171,#172,#173,#174,#175,#176,#177,#178,#179,
    #180,#181,#182,#183,#184),.UNSPECIFIED.,.F.,.F.,(8,6,6,6,6,6,6,6,8),
  (0.,0.177051701173,0.332552917212,0.427905728455,0.484264706935,
    0.554203766317,0.761620167399,0.971040480414,1.),.UNSPECIFIED.);
#135 = CARTESIAN_POINT('',(-7.065189331838,-1.739794782182,111.));
#136 = CARTESIAN_POINT('',(-6.833202246971,-1.645226721963,111.));
#137 = CARTESIAN_POINT('',(-6.554302669288,-1.553520774889,111.));
#138 = CARTESIAN_POINT('',(-6.239733793332,-1.464316964691,111.));
#139 = CARTESIAN_POINT('',(-5.897906849795,-1.377306636888,111.));
#140 = CARTESIAN_POINT('',(-5.535075625691,-1.292167076197,111.));
#141 = CARTESIAN_POINT('',(-5.155543750987,-1.208535210162,111.));
#142 = CARTESIAN_POINT('',(-4.416254114415,-1.05346237912,111.));
#143 = CARTESIAN_POINT('',(-4.060069855483,-0.98185143842,111.));
#144 = CARTESIAN_POINT('',(-3.695581351918,-0.91092058954,111.));
#145 = CARTESIAN_POINT('',(-3.324475481063,-0.840491925175,111.));
#146 = CARTESIAN_POINT('',(-2.948095733053,-0.770410628568,111.));
#147 = CARTESIAN_POINT('',(-2.567534266059,-0.700533179502,111.));
#148 = CARTESIAN_POINT('',(-1.94826466237,-0.5879165178,111.));
#149 = CARTESIAN_POINT('',(-1.71163823564,-0.545137201461,111.));
#150 = CARTESIAN_POINT('',(-1.473987613464,-0.502355974364,111.));
#151 = CARTESIAN_POINT('',(-1.235500920221,-0.459545449255,111.));
#152 = CARTESIAN_POINT('',(-0.996347174104,-0.416680105179,111.));
#153 = CARTESIAN_POINT('',(-0.756679022986,-0.373735918953,111.));
#154 = CARTESIAN_POINT('',(-0.374755983698,-0.305247388505,111.));
#155 = CARTESIAN_POINT('',(-0.232745653046,-0.279769289688,111.));
#156 = CARTESIAN_POINT('',(-9.063319974282E-02,-0.254251034024,111.));
#157 = CARTESIAN_POINT('',(5.155406903215E-02,-0.22868811761,111.));
#158 = CARTESIAN_POINT('',(0.193790250339,-0.203076198787,111.));
#159 = CARTESIAN_POINT('',(0.336050845475,-0.177411098147,111.));
#160 = CARTESIAN_POINT('',(0.654853654696,-0.11976853509,111.));
#161 = CARTESIAN_POINT('',(0.831396386574,-8.776018261763E-02,111.));
#162 = CARTESIAN_POINT('',(1.00789677904,-5.565605699538E-02,111.));
#163 = CARTESIAN_POINT('',(1.184313318532,-2.344882552848E-02,111.));
#164 = CARTESIAN_POINT('',(1.360607154498,8.868493052518E-03,111.));
#165 = CARTESIAN_POINT('',(1.536742099395,4.130252859208E-02,111.));
#166 = CARTESIAN_POINT('',(2.234472690249,0.17041307685,111.));
#167 = CARTESIAN_POINT('',(2.754570894984,0.268048995773,111.));
#168 = CARTESIAN_POINT('',(3.272097344413,0.366930288607,111.));
#169 = CARTESIAN_POINT('',(3.786362618333,0.467193593447,111.));
#170 = CARTESIAN_POINT('',(4.296867366373,0.568948437852,111.));
#171 = CARTESIAN_POINT('',(4.803324723487,0.672271565776,111.));
#172 = CARTESIAN_POINT('',(5.812944046149,0.883134879668,111.));
#173 = CARTESIAN_POINT('',(6.316037236041,0.990708533564,111.));
#174 = CARTESIAN_POINT('',(6.814957272935,1.09995098371,111.));
#175 = CARTESIAN_POINT('',(7.309960345185,1.210858057478,111.));
#176 = CARTESIAN_POINT('',(7.801646289599,1.323375885187,111.));
#177 = CARTESIAN_POINT('',(8.290977764257,1.437393587457,111.));
#178 = CARTESIAN_POINT('',(8.846782832088,1.568691177937,111.));
#179 = CARTESIAN_POINT('',(8.914284683767,1.58466726827,111.));
#180 = CARTESIAN_POINT('',(8.98176999612,1.600668343246,111.));
#181 = CARTESIAN_POINT('',(9.049242348329,1.616693933547,111.));
#182 = CARTESIAN_POINT('',(9.116705437885,1.632743548395,111.));
#183 = CARTESIAN_POINT('',(9.184163080586,1.648816675552,111.));
#184 = CARTESIAN_POINT('',(9.251619210538,1.664912781322,111.));
#185 = PCURVE('',#75,#186);
#186 = DEFINITIONAL_REPRESENTATION('',(#187),#238);
#187 = B_SPLINE_CURVE_WITH_KNOTS('',7,(#188,#189,#190,#191,#192,#193,
    #194,#195,#196,#197,#198,#199,#200,#201,#202,#203,#204,#205,#206,
    #207,#208,#209,#210,#211,#212,#213,#214,#215,#216,#217,#218,#219,
    #220,#221,#222,#223,#224,#225,#226,#227,#228,#229,#230,#231,#232,
    #233,#234,#235,#236,#237),.UNSPECIFIED.,.F.,.F.,(8,6,6,6,6,6,6,6,8),
  (0.,0.177051701173,0.332552917212,0.427905728455,0.484264706935,
    0.554203766317,0.761620167399,0.971040480414,1.),.UNSPECIFIED.);
#188 = CARTESIAN_POINT('',(-7.065189331838,-1.739794782182));
#189 = CARTESIAN_POINT('',(-6.833202246971,-1.645226721963));
#190 = CARTESIAN_POINT('',(-6.554302669288,-1.553520774889));
#191 = CARTESIAN_POINT('',(-6.239733793332,-1.464316964691));
#192 = CARTESIAN_POINT('',(-5.897906849795,-1.377306636888));
#193 = CARTESIAN_POINT('',(-5.535075625691,-1.292167076197));
#194 = CARTESIAN_POINT('',(-5.155543750987,-1.208535210162));
#195 = CARTESIAN_POINT('',(-4.416254114415,-1.05346237912));
#196 = CARTESIAN_POINT('',(-4.060069855483,-0.98185143842));
#197 = CARTESIAN_POINT('',(-3.695581351918,-0.91092058954));
#198 = CARTESIAN_POINT('',(-3.324475481063,-0.840491925175));
#199 = CARTESIAN_POINT('',(-2.948095733053,-0.770410628568));
#200 = CARTESIAN_POINT('',(-2.567534266059,-0.700533179502));
#201 = CARTESIAN_POINT('',(-1.94826466237,-0.5879165178));
#202 = CARTESIAN_POINT('',(-1.71163823564,-0.545137201461));
#203 = CARTESIAN_POINT('',(-1.473987613464,-0.502355974364));
#204 = CARTESIAN_POINT('',(-1.235500920221,-0.459545449255));
#205 = CARTESIAN_POINT('',(-0.996347174104,-0.416680105179));
#206 = CARTESIAN_POINT('',(-0.756679022986,-0.373735918953));
#207 = CARTESIAN_POINT('',(-0.374755983698,-0.305247388505));
#208 = CARTESIAN_POINT('',(-0.232745653046,-0.279769289688));
#209 = CARTESIAN_POINT('',(-9.063319974282E-02,-0.254251034024));
#210 = CARTESIAN_POINT('',(5.155406903215E-02,-0.22868811761));
#211 = CARTESIAN_POINT('',(0.193790250339,-0.203076198787));
#212 = CARTESIAN_POINT('',(0.336050845475,-0.177411098147));
#213 = CARTESIAN_POINT('',(0.654853654696,-0.11976853509));
#214 = CARTESIAN_POINT('',(0.831396386574,-8.776018261763E-02));
#215 = CARTESIAN_POINT('',(1.00789677904,-5.565605699538E-02));
#216 = CARTESIAN_POINT('',(1.184313318532,-2.344882552848E-02));
#217 = CARTESIAN_POINT('',(1.360607154498,8.868493052518E-03));
#218 = CARTESIAN_POINT('',(1.536742099395,4.130252859208E-02));
#219 = CARTESIAN_POINT('',(2.234472690249,0.17041307685));
#220 = CARTESIAN_POINT('',(2.754570894984,0.268048995773));
#221 = CARTESIAN_POINT('',(3.272097344413,0.366930288607));
#222 = CARTESIAN_POINT('',(3.786362618333,0.467193593447));
#223 = CARTESIAN_POINT('',(4.296867366373,0.568948437852));
#224 = CARTESIAN_POINT('',(4.803324723487,0.672271565776));
#225 = CARTESIAN_POINT('',(5.812944046149,0.883134879668));
#226 = CARTESIAN_POINT('',(6.316037236041,0.990708533564));
#227 = CARTESIAN_POINT('',(6.814957272935,1.09995098371));
#228 = CARTESIAN_POINT('',(7.309960345185,1.210858057478));
#229 = CARTESIAN_POINT('',(7.801646289599,1.323375885187));
#230 = CARTESIAN_POINT('',(8.290977764257,1.437393587457));
#231 = CARTESIAN_POINT('',(8.846782832088,1.568691177937));
#232 = CARTESIAN_POINT('',(8.914284683767,1.58466726827));
#233 = CARTESIAN_POINT('',(8.98176999612,1.600668343246));
#234 = CARTESIAN_POINT('',(9.049242348329,1.616693933547));
#235 = CARTESIAN_POINT('',(9.116705437885,1.632743548395));
#236 = CARTESIAN_POINT('',(9.184163080586,1.648816675552));
#237 = CARTESIAN_POINT('',(9.251619210538,1.664912781322));
#238 = ( GEOMETRIC_REPRESENTATION_CONTEXT(2) 
PARAMETRIC_REPRESENTATION_CONTEXT() REPRESENTATION_CONTEXT('2D SPACE',''
  ) );
#239 = ORIENTED_EDGE('',*,*,#240,.F.);
#240 = EDGE_CURVE('',#241,#131,#243,.T.);
#241 = VERTEX_POINT('',#242);
#242 = CARTESIAN_POINT('',(-6.971983396975,-2.814967955153,111.));
#243 = SURFACE_CURVE('',#244,(#307),.PCURVE_S1.);
#244 = B_SPLINE_CURVE_WITH_KNOTS('',7,(#245,#246,#247,#248,#249,#250,
    #251,#252,#253,#254,#255,#256,#257,#258,#259,#260,#261,#262,#263,
    #264,#265,#266,#267,#268,#269,#270,#271,#272,#273,#274,#275,#276,
    #277,#278,#279,#280,#281,#282,#283,#284,#285,#286,#287,#288,#289,
    #290,#291,#292,#293,#294,#295,#296,#297,#298,#299,#300,#301,#302,
    #303,#304,#305,#306),.UNSPECIFIED.,.F.,.F.,(8,6,6,6,6,6,6,6,6,6,8),(
    0.,0.236524575025,0.390589226395,0.438784721369,0.464550415172,
    0.516076943421,0.574190359898,0.604579782903,0.667173181876,
    0.870850226425,1.),.UNSPECIFIED.);
#245 = CARTESIAN_POINT('',(-6.971986180545,-2.814967881873,111.));
#246 = CARTESIAN_POINT('',(-7.0340643788,-2.797266308304,111.));
#247 = CARTESIAN_POINT('',(-7.095846704253,-2.778319872272,111.));
#248 = CARTESIAN_POINT('',(-7.157138856854,-2.757823838546,111.));
#249 = CARTESIAN_POINT('',(-7.217706307777,-2.735509769835,111.));
#250 = CARTESIAN_POINT('',(-7.277197018115,-2.711066486933,111.));
#251 = CARTESIAN_POINT('',(-7.335153522921,-2.684158286373,111.));
#252 = CARTESIAN_POINT('',(-7.427158714431,-2.634766830733,111.));
#253 = CARTESIAN_POINT('',(-7.462441378517,-2.614041701757,111.));
#254 = CARTESIAN_POINT('',(-7.496567547741,-2.591909862967,111.));
#255 = CARTESIAN_POINT('',(-7.529246771273,-2.568211195832,111.));
#256 = CARTESIAN_POINT('',(-7.560047214356,-2.542795162634,111.));
#257 = CARTESIAN_POINT('',(-7.588390997002,-2.515524600509,111.));
#258 = CARTESIAN_POINT('',(-7.621412899149,-2.477127889114,111.));
#259 = CARTESIAN_POINT('',(-7.628965635596,-2.467789286638,111.));
#260 = CARTESIAN_POINT('',(-7.636178691811,-2.458260258464,111.));
#261 = CARTESIAN_POINT('',(-7.643025924497,-2.448541382931,111.));
#262 = CARTESIAN_POINT('',(-7.649479687076,-2.438635383499,111.));
#263 = CARTESIAN_POINT('',(-7.655511666515,-2.428547524091,111.));
#264 = CARTESIAN_POINT('',(-7.66407793032,-2.412800114639,111.));
#265 = CARTESIAN_POINT('',(-7.666933561799,-2.407264653305,111.));
#266 = CARTESIAN_POINT('',(-7.669656220996,-2.401680921629,111.));
#267 = CARTESIAN_POINT('',(-7.672241647105,-2.396050502585,111.));
#268 = CARTESIAN_POINT('',(-7.674685712124,-2.390375260907,111.));
#269 = CARTESIAN_POINT('',(-7.676984420854,-2.384657343096,111.));
#270 = CARTESIAN_POINT('',(-7.683432485606,-2.367383932033,111.));
#271 = CARTESIAN_POINT('',(-7.687134914851,-2.355706460369,111.));
#272 = CARTESIAN_POINT('',(-7.690210042841,-2.343888207477,111.));
#273 = CARTESIAN_POINT('',(-7.692631871371,-2.331953564316,111.));
#274 = CARTESIAN_POINT('',(-7.694381162609,-2.319929972169,111.));
#275 = CARTESIAN_POINT('',(-7.69544704187,-2.307848027067,111.));
#276 = CARTESIAN_POINT('',(-7.69625893543,-2.28208751551,111.));
#277 = CARTESIAN_POINT('',(-7.695818898849,-2.268399048448,111.));
#278 = CARTESIAN_POINT('',(-7.694506514669,-2.254725384921,111.));
#279 = CARTESIAN_POINT('',(-7.692336429471,-2.241111117858,111.));
#280 = CARTESIAN_POINT('',(-7.689336804374,-2.227596277362,111.));
#281 = CARTESIAN_POINT('',(-7.685546207014,-2.214216376854,111.));
#282 = CARTESIAN_POINT('',(-7.678638634492,-2.19409246569,111.));
#283 = CARTESIAN_POINT('',(-7.676062726786,-2.187227254104,111.));
#284 = CARTESIAN_POINT('',(-7.67328929181,-2.180410742636,111.));
#285 = CARTESIAN_POINT('',(-7.670324998951,-2.173646339512,111.));
#286 = CARTESIAN_POINT('',(-7.667176675572,-2.166936943008,111.));
#287 = CARTESIAN_POINT('',(-7.663851307011,-2.160284941462,111.));
#288 = CARTESIAN_POINT('',(-7.65315679306,-2.140113104958,111.));
#289 = CARTESIAN_POINT('',(-7.64523686864,-2.126786476363,111.));
#290 = CARTESIAN_POINT('',(-7.636656837511,-2.113727213399,111.));
#291 = CARTESIAN_POINT('',(-7.627475933502,-2.100943676346,111.));
#292 = CARTESIAN_POINT('',(-7.617750041753,-2.088438649896,111.));
#293 = CARTESIAN_POINT('',(-7.607529690378,-2.076210293214,111.));
#294 = CARTESIAN_POINT('',(-7.562132818577,-2.02534470905,111.));
#295 = CARTESIAN_POINT('',(-7.522717378799,-1.989404491521,111.));
#296 = CARTESIAN_POINT('',(-7.480004054015,-1.956053590114,111.));
#297 = CARTESIAN_POINT('',(-7.43491682074,-1.925026735188,111.));
#298 = CARTESIAN_POINT('',(-7.388126547668,-1.896037641597,111.));
#299 = CARTESIAN_POINT('',(-7.340014133313,-1.86881049814,111.));
#300 = CARTESIAN_POINT('',(-7.259475655418,-1.826724111857,111.));
#301 = CARTESIAN_POINT('',(-7.227793871379,-1.811006914891,111.));
#302 = CARTESIAN_POINT('',(-7.195756822769,-1.795845751521,111.));
#303 = CARTESIAN_POINT('',(-7.163427145223,-1.781189857542,111.));
#304 = CARTESIAN_POINT('',(-7.130858483854,-1.766992812099,111.));
#305 = CARTESIAN_POINT('',(-7.098098319075,-1.753209718086,111.));
#306 = CARTESIAN_POINT('',(-7.065190792413,-1.739794382548,111.));
#307 = PCURVE('',#75,#308);
#308 = DEFINITIONAL_REPRESENTATION('',(#309),#372);
#309 = B_SPLINE_CURVE_WITH_KNOTS('',7,(#310,#311,#312,#313,#314,#315,
    #316,#317,#318,#319,#320,#321,#322,#323,#324,#325,#326,#327,#328,
    #329,#330,#331,#332,#333,#334,#335,#336,#337,#338,#339,#340,#341,
    #342,#343,#344,#345,#346,#347,#348,#349,#350,#351,#352,#353,#354,
    #355,#356,#357,#358,#359,#360,#361,#362,#363,#364,#365,#366,#367,
    #368,#369,#370,#371),.UNSPECIFIED.,.F.,.F.,(8,6,6,6,6,6,6,6,6,6,8),(
    0.,0.236524575025,0.390589226395,0.438784721369,0.464550415172,
    0.516076943421,0.574190359898,0.604579782903,0.667173181876,
    0.870850226425,1.),.UNSPECIFIED.);
#310 = CARTESIAN_POINT('',(-6.971986180545,-2.814967881873));
#311 = CARTESIAN_POINT('',(-7.0340643788,-2.797266308304));
#312 = CARTESIAN_POINT('',(-7.095846704253,-2.778319872272));
#313 = CARTESIAN_POINT('',(-7.157138856854,-2.757823838546));
#314 = CARTESIAN_POINT('',(-7.217706307777,-2.735509769835));
#315 = CARTESIAN_POINT('',(-7.277197018115,-2.711066486933));
#316 = CARTESIAN_POINT('',(-7.335153522921,-2.684158286373));
#317 = CARTESIAN_POINT('',(-7.427158714431,-2.634766830733));
#318 = CARTESIAN_POINT('',(-7.462441378517,-2.614041701757));
#319 = CARTESIAN_POINT('',(-7.496567547741,-2.591909862967));
#320 = CARTESIAN_POINT('',(-7.529246771273,-2.568211195832));
#321 = CARTESIAN_POINT('',(-7.560047214356,-2.542795162634));
#322 = CARTESIAN_POINT('',(-7.588390997002,-2.515524600509));
#323 = CARTESIAN_POINT('',(-7.621412899149,-2.477127889114));
#324 = CARTESIAN_POINT('',(-7.628965635596,-2.467789286638));
#325 = CARTESIAN_POINT('',(-7.636178691811,-2.458260258464));
#326 = CARTESIAN_POINT('',(-7.643025924497,-2.448541382931));
#327 = CARTESIAN_POINT('',(-7.649479687076,-2.438635383499));
#328 = CARTESIAN_POINT('',(-7.655511666515,-2.428547524091));
#329 = CARTESIAN_POINT('',(-7.66407793032,-2.412800114639));
#330 = CARTESIAN_POINT('',(-7.666933561799,-2.407264653305));
#331 = CARTESIAN_POINT('',(-7.669656220996,-2.401680921629));
#332 = CARTESIAN_POINT('',(-7.672241647105,-2.396050502585));
#333 = CARTESIAN_POINT('',(-7.674685712124,-2.390375260907));
#334 = CARTESIAN_POINT('',(-7.676984420854,-2.384657343096));
#335 = CARTESIAN_POINT('',(-7.683432485606,-2.367383932033));
#336 = CARTESIAN_POINT('',(-7.687134914851,-2.355706460369));
#337 = CARTESIAN_POINT('',(-7.690210042841,-2.343888207477));
#338 = CARTESIAN_POINT('',(-7.692631871371,-2.331953564316));
#339 = CARTESIAN_POINT('',(-7.694381162609,-2.319929972169));
#340 = CARTESIAN_POINT('',(-7.69544704187,-2.307848027067));
#341 = CARTESIAN_POINT('',(-7.69625893543,-2.28208751551));
#342 = CARTESIAN_POINT('',(-7.695818898849,-2.268399048448));
#343 = CARTESIAN_POINT('',(-7.694506514669,-2.254725384921));
#344 = CARTESIAN_POINT('',(-7.692336429471,-2.241111117858));
#345 = CARTESIAN_POINT('',(-7.689336804374,-2.227596277362));
#346 = CARTESIAN_POINT('',(-7.685546207014,-2.214216376854));
#347 = CARTESIAN_POINT('',(-7.678638634492,-2.19409246569));
#348 = CARTESIAN_POINT('',(-7.676062726786,-2.187227254104));
#349 = CARTESIAN_POINT('',(-7.67328929181,-2.180410742636));
#350 = CARTESIAN_POINT('',(-7.670324998951,-2.173646339512));
#351 = CARTESIAN_POINT('',(-7.667176675572,-2.166936943008));
#352 = CARTESIAN_POINT('',(-7.663851307011,-2.160284941462));
#353 = CARTESIAN_POINT('',(-7.65315679306,-2.140113104958));
#354 = CARTESIAN_POINT('',(-7.64523686864,-2.126786476363));
#355 = CARTESIAN_POINT('',(-7.636656837511,-2.113727213399));
#356 = CARTESIAN_POINT('',(-7.627475933502,-2.100943676346));
#357 = CARTESIAN_POINT('',(-7.617750041753,-2.088438649896));
#358 = CARTESIAN_POINT('',(-7.607529690378,-2.076210293214));
#359 = CARTESIAN_POINT('',(-7.562132818577,-2.02534470905));
#360 = CARTESIAN_POINT('',(-7.522717378799,-1.989404491521));
#361 = CARTESIAN_POINT('',(-7.480004054015,-1.956053590114));
#362 = CARTESIAN_POINT('',(-7.43491682074,-1.925026735188));
#363 = CARTESIAN_POINT('',(-7.388126547668,-1.896037641597));
#364 = CARTESIAN_POINT('',(-7.340014133313,-1.86881049814));
#365 = CARTESIAN_POINT('',(-7.259475655418,-1.826724111857));
#366 = CARTESIAN_POINT('',(-7.227793871379,-1.811006914891));
#367 = CARTESIAN_POINT('',(-7.195756822769,-1.795845751521));
#368 = CARTESIAN_POINT('',(-7.163427145223,-1.781189857542));
#369 = CARTESIAN_POINT('',(-7.130858483854,-1.766992812099));
#370 = CARTESIAN_POINT('',(-7.098098319075,-1.753209718086));
#371 = CARTESIAN_POINT('',(-7.065190792413,-1.739794382548));
#372 = ( GEOMETRIC_REPRESENTATION_CONTEXT(2) 
PARAMETRIC_REPRESENTATION_CONTEXT() REPRESENTATION_CONTEXT('2D SPACE',''
  ) );
#373 = ORIENTED_EDGE('',*,*,#374,.F.);
#374 = EDGE_CURVE('',#24,#241,#375,.T.);
#375 = SURFACE_CURVE('',#376,(#397),.PCURVE_S1.);
#376 = B_SPLINE_CURVE_WITH_KNOTS('',7,(#377,#378,#379,#380,#381,#382,
    #383,#384,#385,#386,#387,#388,#389,#390,#391,#392,#393,#394,#395,
    #396),.UNSPECIFIED.,.F.,.F.,(8,6,6,8),(0.,0.241507383516,
    0.664941263448,1.),.UNSPECIFIED.);
#377 = CARTESIAN_POINT('',(9.349557981061,1.382854843358,111.));
#378 = CARTESIAN_POINT('',(8.807765891409,1.132202439342,111.));
#379 = CARTESIAN_POINT('',(8.253608711751,0.877797528756,111.));
#380 = CARTESIAN_POINT('',(7.689033843249,0.622108639855,111.));
#381 = CARTESIAN_POINT('',(7.11567661406,0.367177335644,111.));
#382 = CARTESIAN_POINT('',(6.534961492517,0.114773623456,111.));
#383 = CARTESIAN_POINT('',(5.948171371073,-0.133498643186,111.));
#384 = CARTESIAN_POINT('',(4.319083556289,-0.80157961024,111.));
#385 = CARTESIAN_POINT('',(3.267128529184,-1.20951753477,111.));
#386 = CARTESIAN_POINT('',(2.206647205347,-1.592078629715,111.));
#387 = CARTESIAN_POINT('',(1.143769596552,-1.941899976559,111.));
#388 = CARTESIAN_POINT('',(8.582001204202E-02,-2.251033745989,111.));
#389 = CARTESIAN_POINT('',(-0.958307702455,-2.510765477172,111.));
#390 = CARTESIAN_POINT('',(-2.782337827461,-2.868484875205,111.));
#391 = CARTESIAN_POINT('',(-3.571095457839,-2.988757306336,111.));
#392 = CARTESIAN_POINT('',(-4.337510364754,-3.066259611535,111.));
#393 = CARTESIAN_POINT('',(-5.073471801546,-3.094802443095,111.));
#394 = CARTESIAN_POINT('',(-5.767858627012,-3.067298900482,111.));
#395 = CARTESIAN_POINT('',(-6.406318494796,-2.97625846734,111.));
#396 = CARTESIAN_POINT('',(-6.971984157755,-2.814967968391,111.));
#397 = PCURVE('',#75,#398);
#398 = DEFINITIONAL_REPRESENTATION('',(#399),#420);
#399 = B_SPLINE_CURVE_WITH_KNOTS('',7,(#400,#401,#402,#403,#404,#405,
    #406,#407,#408,#409,#410,#411,#412,#413,#414,#415,#416,#417,#418,
    #419),.UNSPECIFIED.,.F.,.F.,(8,6,6,8),(0.,0.241507383516,
    0.664941263448,1.),.UNSPECIFIED.);
#400 = CARTESIAN_POINT('',(9.349557981061,1.382854843358));
#401 = CARTESIAN_POINT('',(8.807765891409,1.132202439342));
#402 = CARTESIAN_POINT('',(8.253608711751,0.877797528756));
#403 = CARTESIAN_POINT('',(7.689033843249,0.622108639855));
#404 = CARTESIAN_POINT('',(7.11567661406,0.367177335644));
#405 = CARTESIAN_POINT('',(6.534961492517,0.114773623456));
#406 = CARTESIAN_POINT('',(5.948171371073,-0.133498643186));
#407 = CARTESIAN_POINT('',(4.319083556289,-0.80157961024));
#408 = CARTESIAN_POINT('',(3.267128529184,-1.20951753477));
#409 = CARTESIAN_POINT('',(2.206647205347,-1.592078629715));
#410 = CARTESIAN_POINT('',(1.143769596552,-1.941899976559));
#411 = CARTESIAN_POINT('',(8.582001204202E-02,-2.251033745989));
#412 = CARTESIAN_POINT('',(-0.958307702455,-2.510765477172));
#413 = CARTESIAN_POINT('',(-2.782337827461,-2.868484875205));
#414 = CARTESIAN_POINT('',(-3.571095457839,-2.988757306336));
#415 = CARTESIAN_POINT('',(-4.337510364754,-3.066259611535));
#416 = CARTESIAN_POINT('',(-5.073471801546,-3.094802443095));
#417 = CARTESIAN_POINT('',(-5.767858627012,-3.067298900482));
#418 = CARTESIAN_POINT('',(-6.406318494796,-2.97625846734));
#419 = CARTESIAN_POINT('',(-6.971984157755,-2.814967968391));
#420 = ( GEOMETRIC_REPRESENTATION_CONTEXT(2) 
PARAMETRIC_REPRESENTATION_CONTEXT() REPRESENTATION_CONTEXT('2D SPACE',''
  ) );
#421 = ( GEOMETRIC_REPRESENTATION_CONTEXT(3) 
GLOBAL_UNCERTAINTY_ASSIGNED_CONTEXT((#425)) GLOBAL_UNIT_ASSIGNED_CONTEXT
((#422,#423,#424)) REPRESENTATION_CONTEXT('Context #1',
  '3D Context with UNIT and UNCERTAINTY') );
#422 = ( LENGTH_UNIT() NAMED_UNIT(*) SI_UNIT(.MILLI.,.METRE.) );
#423 = ( NAMED_UNIT(*) PLANE_ANGLE_UNIT() SI_UNIT($,.RADIAN.) );
#424 = ( NAMED_UNIT(*) SI_UNIT($,.STERADIAN.) SOLID_ANGLE_UNIT() );
#425 = UNCERTAINTY_MEASURE_WITH_UNIT(LENGTH_MEASURE(5.E-05),#422,
  'distance_accuracy_value','confusion accuracy');
#426 = PRODUCT_RELATED_PRODUCT_CATEGORY('part',$,(#7));
ENDSEC;
END-ISO-10303-21;
