######## Panel parameters ########
n_blades=5

n_span_all= 41
n_points=45
######## End of parameters ########
1	0.026000000	-0.012494316	-0.014995441
2	0.026000000	-0.011189782	-0.013477265
3	0.026000000	-0.009744860	-0.012101073
4	0.026000000	-0.008274928	-0.010787508
5	0.026000000	-0.006809840	-0.009518134
6	0.026000000	-0.005369030	-0.008283368
7	0.026000000	-0.003976352	-0.007071224
8	0.026000000	-0.002648584	-0.005875211
9	0.026000000	-0.001409647	-0.004684237
10	0.026000000	-0.000290139	-0.003484014
11	0.026000000	0.000692210	-0.002277650
12	0.026000000	0.001530877	-0.001079754
13	0.026000000	0.002217203	0.000095959
14	0.026000000	0.002751689	0.001229815
15	0.026000000	0.003138327	0.002301495
16	0.026000000	0.003382649	0.003291023
17	0.026000000	0.003494254	0.004177863
18	0.026000000	0.003460324	0.004940565
19	0.026000000	0.003288127	0.005545907
20	0.026000000	0.003041017	0.005972704
21	0.026000000	0.002806690	0.006238539
22	0.026000000	0.002643763	0.006376535
23	0.026000000	0.002586108	0.006418532
24	0.026000000	0.002526160	0.006459401
25	0.026000000	0.002337841	0.006567566
26	0.026000000	0.002003731	0.006703392
27	0.026000000	0.001514825	0.006817966
28	0.026000000	0.000874572	0.006840796
29	0.026000000	0.000110840	0.006699991
30	0.026000000	-0.000741490	0.006383746
31	0.026000000	-0.001656764	0.005897023
32	0.026000000	-0.002609569	0.005237527
33	0.026000000	-0.003572582	0.004401976
34	0.026000000	-0.004524564	0.003396395
35	0.026000000	-0.005450386	0.002232331
36	0.026000000	-0.006334561	0.000919838
37	0.026000000	-0.007171045	-0.000525034
38	0.026000000	-0.007953599	-0.002088133
39	0.026000000	-0.008686574	-0.003751504
40	0.026000000	-0.009384267	-0.005495118
41	0.026000000	-0.010051083	-0.007306462
42	0.026000000	-0.010711528	-0.009164659
43	0.026000000	-0.011361244	-0.011062857
44	0.026000000	-0.011984521	-0.012999439
45	0.026000000	-0.012494316	-0.014995441
1	0.029720000	-0.013913487	-0.014631245
2	0.029720000	-0.012490578	-0.013194720
3	0.029720000	-0.010975806	-0.011869927
4	0.029720000	-0.009452666	-0.010591582
5	0.029720000	-0.007953469	-0.009335690
6	0.029720000	-0.006498011	-0.008091991
7	0.029720000	-0.005102611	-0.006857449
8	0.029720000	-0.003772395	-0.005639889
9	0.029720000	-0.002518027	-0.004442299
10	0.029720000	-0.001373373	-0.003245128
11	0.029720000	-0.000347764	-0.002056325
12	0.029720000	0.000558814	-0.000891779
13	0.029720000	0.001346087	0.000234309
14	0.029720000	0.002005616	0.001313952
15	0.029720000	0.002533614	0.002335419
16	0.029720000	0.002928506	0.003285279
17	0.029720000	0.003188714	0.004149142
18	0.029720000	0.003308837	0.004910603
19	0.029720000	0.003283105	0.005545505
20	0.029720000	0.003141331	0.006022231
21	0.029720000	0.002963230	0.006332032
22	0.029720000	0.002816624	0.006489524
23	0.029720000	0.002761501	0.006535797
24	0.029720000	0.002702181	0.006579842
25	0.029720000	0.002509462	0.006687976
26	0.029720000	0.002158942	0.006796661
27	0.029720000	0.001651294	0.006858259
28	0.029720000	0.000999122	0.006824647
29	0.029720000	0.000224201	0.006662731
30	0.029720000	-0.000650905	0.006359278
31	0.029720000	-0.001604700	0.005906096
32	0.029720000	-0.002614206	0.005294505
33	0.029720000	-0.003653930	0.004516484
34	0.029720000	-0.004695693	0.003565921
35	0.029720000	-0.005720342	0.002450090
36	0.029720000	-0.006716132	0.001182799
37	0.029720000	-0.007664168	-0.000228649
38	0.029720000	-0.008547474	-0.001774265
39	0.029720000	-0.009367107	-0.003434149
40	0.029720000	-0.010159573	-0.005175006
41	0.029720000	-0.010926344	-0.006985023
42	0.029720000	-0.011694116	-0.008840740
43	0.029720000	-0.012471430	-0.010729654
44	0.029720000	-0.013240498	-0.012651341
45	0.029720000	-0.013913487	-0.014631245
1	0.033440000	-0.015238197	-0.014457160
2	0.033440000	-0.013727149	-0.013046415
3	0.033440000	-0.012152840	-0.011723727
4	0.033440000	-0.010582338	-0.010433770
5	0.033440000	-0.009043929	-0.009156880
6	0.033440000	-0.007551537	-0.007890523
7	0.033440000	-0.006118703	-0.006635088
8	0.033440000	-0.004752683	-0.005396611
9	0.033440000	-0.003465428	-0.004176964
10	0.033440000	-0.002277142	-0.002970112
11	0.033440000	-0.001195354	-0.001783836
12	0.033440000	-0.000219949	-0.000632340
13	0.033440000	0.000649899	0.000471024
14	0.033440000	0.001410557	0.001517531
15	0.033440000	0.002055807	0.002500544
16	0.033440000	0.002577843	0.003413828
17	0.033440000	0.002967840	0.004249983
18	0.033440000	0.003215918	0.004998380
19	0.033440000	0.003312172	0.005641212
20	0.033440000	0.003264721	0.006147332
21	0.033440000	0.003130509	0.006486586
22	0.033440000	0.002996601	0.006660950
23	0.033440000	0.002942893	0.006711240
24	0.033440000	0.002883471	0.006758160
25	0.033440000	0.002685511	0.006867853
26	0.033440000	0.002322946	0.006967342
27	0.033440000	0.001800206	0.007004138
28	0.033440000	0.001133886	0.006939587
29	0.033440000	0.000343963	0.006753604
30	0.033440000	-0.000549283	0.006432042
31	0.033440000	-0.001525644	0.005964941
32	0.033440000	-0.002564859	0.005345569
33	0.033440000	-0.003645867	0.004568965
34	0.033440000	-0.004746833	0.003632255
35	0.033440000	-0.005848791	0.002538415
36	0.033440000	-0.006934076	0.001293106
37	0.033440000	-0.007980880	-0.000100037
38	0.033440000	-0.008967097	-0.001635013
39	0.033440000	-0.009889981	-0.003292677
40	0.033440000	-0.010780243	-0.005039217
41	0.033440000	-0.011663232	-0.006849914
42	0.033440000	-0.012565537	-0.008699470
43	0.033440000	-0.013488239	-0.010577614
44	0.033440000	-0.014408238	-0.012486878
45	0.033440000	-0.015238197	-0.014457160
1	0.037160000	-0.016522624	-0.014455828
2	0.037160000	-0.014927980	-0.013040241
3	0.037160000	-0.013294663	-0.011688341
4	0.037160000	-0.011675253	-0.010357468
5	0.037160000	-0.010092173	-0.009035609
6	0.037160000	-0.008552203	-0.007729607
7	0.037160000	-0.007065630	-0.006443835
8	0.037160000	-0.005644301	-0.005179376
9	0.037160000	-0.004311632	-0.003925895
10	0.037160000	-0.003070043	-0.002696212
11	0.037160000	-0.001923799	-0.001500401
12	0.037160000	-0.000877080	-0.000347727
13	0.037160000	0.000068947	0.000750660
14	0.037160000	0.000915773	0.001782524
15	0.037160000	0.001658004	0.002742263
16	0.037160000	0.002285397	0.003628020
17	0.037160000	0.002785232	0.004438291
18	0.037160000	0.003143873	0.005168635
19	0.037160000	0.003348641	0.005807545
20	0.037160000	0.003393464	0.006330071
21	0.037160000	0.003301307	0.006694145
22	0.037160000	0.003179599	0.006885421
23	0.037160000	0.003126687	0.006939826
24	0.037160000	0.003066502	0.006989385
25	0.037160000	0.002861835	0.007100679
26	0.037160000	0.002486704	0.007196300
27	0.037160000	0.001947482	0.007217661
28	0.037160000	0.001263820	0.007128432
29	0.037160000	0.000457376	0.006908973
30	0.037160000	-0.000450277	0.006545428
31	0.037160000	-0.001439120	0.006030796
32	0.037160000	-0.002492224	0.005364738
33	0.037160000	-0.003596070	0.004551594
34	0.037160000	-0.004739304	0.003597650
35	0.037160000	-0.005903181	0.002500951
36	0.037160000	-0.007063206	0.001256415
37	0.037160000	-0.008199342	-0.000132999
38	0.037160000	-0.009290995	-0.001662523
39	0.037160000	-0.010330991	-0.003316731
40	0.037160000	-0.011323506	-0.005074899
41	0.037160000	-0.012336372	-0.006885454
42	0.037160000	-0.013387701	-0.008725407
43	0.037160000	-0.014464055	-0.010591618
44	0.037160000	-0.015536687	-0.012490714
45	0.037160000	-0.016522624	-0.014455828
1	0.040880000	-0.017781875	-0.014538565
2	0.040880000	-0.016092949	-0.013115824
3	0.040880000	-0.014390185	-0.011730910
4	0.040880000	-0.012711069	-0.010356223
5	0.040880000	-0.011071943	-0.008987652
6	0.040880000	-0.009476324	-0.007636720
7	0.040880000	-0.007932501	-0.006310592
8	0.040880000	-0.006450125	-0.005013325
9	0.040880000	-0.005062560	-0.003723591
10	0.040880000	-0.003762576	-0.002464919
11	0.040880000	-0.002551130	-0.001250671
12	0.040880000	-0.001436329	-0.000085957
13	0.040880000	-0.000421466	0.001020034
14	0.040880000	0.000496802	0.002053154
15	0.040880000	0.001315130	0.003006414
16	0.040880000	0.002024216	0.003878533
17	0.040880000	0.002611117	0.004670726
18	0.040880000	0.003061232	0.005383133
19	0.040880000	0.003360736	0.006010318
20	0.040880000	0.003495558	0.006536616
21	0.040880000	0.003455047	0.006922587
22	0.040880000	0.003349071	0.007131671
23	0.040880000	0.003296645	0.007190172
24	0.040880000	0.003235253	0.007242061
25	0.040880000	0.003022449	0.007353280
26	0.040880000	0.002632657	0.007439082
27	0.040880000	0.002076156	0.007438130
28	0.040880000	0.001375624	0.007316395
29	0.040880000	0.000554503	0.007054409
30	0.040880000	-0.000364352	0.006639132
31	0.040880000	-0.001361254	0.006066524
32	0.040880000	-0.002422548	0.005341845
33	0.040880000	-0.003541957	0.004477926
34	0.040880000	-0.004717776	0.003490156
35	0.040880000	-0.005930092	0.002371935
36	0.040880000	-0.007152706	0.001113369
37	0.040880000	-0.008369752	-0.000281328
38	0.040880000	-0.009565466	-0.001806540
39	0.040880000	-0.010729354	-0.003451532
40	0.040880000	-0.011839392	-0.005213087
41	0.040880000	-0.012993928	-0.007014188
42	0.040880000	-0.014197393	-0.008838123
43	0.040880000	-0.015424825	-0.010689423
44	0.040880000	-0.016644546	-0.012578073
45	0.040880000	-0.017781875	-0.014538565
1	0.044600000	-0.018958142	-0.014629085
2	0.044600000	-0.017171487	-0.013207370
3	0.044600000	-0.015395745	-0.011796319
4	0.044600000	-0.013653047	-0.010385069
5	0.044600000	-0.011953813	-0.008977229
6	0.044600000	-0.010300100	-0.007586811
7	0.044600000	-0.008699946	-0.006221807
8	0.044600000	-0.007160077	-0.004890230
9	0.044600000	-0.005714652	-0.003569770
10	0.044600000	-0.004355971	-0.002284887
11	0.044600000	-0.003083915	-0.001050379
12	0.044600000	-0.001908631	0.000130666
13	0.044600000	-0.000835144	0.001250511
14	0.044600000	0.000138961	0.002295324
15	0.044600000	0.001013043	0.003255395
16	0.044600000	0.001781559	0.004126482
17	0.044600000	0.002433863	0.004909295
18	0.044600000	0.002956381	0.005606198
19	0.044600000	0.003335026	0.006216879
20	0.044600000	0.003551717	0.006735272
21	0.044600000	0.003574488	0.007135458
22	0.044600000	0.003488965	0.007361341
23	0.044600000	0.003437152	0.007423792
24	0.044600000	0.003374463	0.007477787
25	0.044600000	0.003153181	0.007587608
26	0.044600000	0.002748791	0.007660101
27	0.044600000	0.002176374	0.007634894
28	0.044600000	0.001460680	0.007480861
29	0.044600000	0.000626353	0.007178597
30	0.044600000	-0.000302797	0.006715499
31	0.044600000	-0.001307235	0.006089266
32	0.044600000	-0.002375757	0.005308884
33	0.044600000	-0.003507886	0.004393526
34	0.044600000	-0.004708494	0.003364715
35	0.044600000	-0.005957301	0.002214009
36	0.044600000	-0.007231945	0.000933724
37	0.044600000	-0.008520509	-0.000470548
38	0.044600000	-0.009811589	-0.001992033
39	0.044600000	-0.011092864	-0.003623861
40	0.044600000	-0.012335051	-0.005370999
41	0.044600000	-0.013630597	-0.007152190
42	0.044600000	-0.014973248	-0.008957218
43	0.044600000	-0.016334637	-0.010794331
44	0.044600000	-0.017683938	-0.012674350
45	0.044600000	-0.018958142	-0.014629085
1	0.048320000	-0.019980678	-0.014636817
2	0.048320000	-0.018103695	-0.013229190
3	0.048320000	-0.016259689	-0.011806313
4	0.048320000	-0.014456900	-0.010373756
5	0.048320000	-0.012700634	-0.008941950
6	0.048320000	-0.010992387	-0.007526276
7	0.048320000	-0.009341175	-0.006134044
8	0.048320000	-0.007752416	-0.004775368
9	0.048320000	-0.006253005	-0.003436086
10	0.048320000	-0.004840461	-0.002135226
11	0.048320000	-0.003516557	-0.000885959
12	0.048320000	-0.002291476	0.000308461
13	0.048320000	-0.001171419	0.001441176
14	0.048320000	-0.000156618	0.002500369
15	0.048320000	0.000754946	0.003473349
16	0.048320000	0.001563414	0.004350487
17	0.048320000	0.002261864	0.005129681
18	0.048320000	0.002838551	0.005813540
19	0.048320000	0.003279084	0.006405696
20	0.048320000	0.003563066	0.006908354
21	0.048320000	0.003651169	0.007310776
22	0.048320000	0.003588449	0.007549637
23	0.048320000	0.003537561	0.007615571
24	0.048320000	0.003473853	0.007671421
25	0.048320000	0.003245259	0.007779493
26	0.048320000	0.002828749	0.007839402
27	0.048320000	0.002243496	0.007794629
28	0.048320000	0.001514861	0.007617140
29	0.048320000	0.000667854	0.007287192
30	0.048320000	-0.000273021	0.006791577
31	0.048320000	-0.001287760	0.006127957
32	0.048320000	-0.002366070	0.005306823
33	0.048320000	-0.003510895	0.004351081
34	0.048320000	-0.004729836	0.003284657
35	0.048320000	-0.006005916	0.002102490
36	0.048320000	-0.007322826	0.000802267
37	0.048320000	-0.008671394	-0.000609435
38	0.048320000	-0.010042881	-0.002125084
39	0.048320000	-0.011425791	-0.003738931
40	0.048320000	-0.012797901	-0.005453360
41	0.048320000	-0.014216604	-0.007207450
42	0.048320000	-0.015672534	-0.008993433
43	0.048320000	-0.017140448	-0.010818268
44	0.048320000	-0.018593125	-0.012690909
45	0.048320000	-0.019980678	-0.014636817
1	0.052040000	-0.020803661	-0.014491732
2	0.052040000	-0.018853083	-0.013110462
3	0.052040000	-0.016951693	-0.011693094
4	0.052040000	-0.015097337	-0.010258640
5	0.052040000	-0.013291697	-0.008822641
6	0.052040000	-0.011536388	-0.007400937
7	0.052040000	-0.009841882	-0.005999419
8	0.052040000	-0.008213486	-0.004628841
9	0.052040000	-0.006668389	-0.003286181
10	0.052040000	-0.005210507	-0.001983455
11	0.052040000	-0.003845219	-0.000730182
12	0.052040000	-0.002581683	0.000469035
13	0.052040000	-0.001426769	0.001607741
14	0.052040000	-0.000383769	0.002676673
15	0.052040000	0.000551336	0.003660700
16	0.052040000	0.001384773	0.004544151
17	0.052040000	0.002113622	0.005321250
18	0.052040000	0.002727907	0.005993766
19	0.052040000	0.003212528	0.006568191
20	0.052040000	0.003545409	0.007052963
21	0.052040000	0.003687071	0.007448224
22	0.052040000	0.003644660	0.007694934
23	0.052040000	0.003594910	0.007763560
24	0.052040000	0.003530695	0.007820955
25	0.052040000	0.003297205	0.007928219
26	0.052040000	0.002872507	0.007980391
27	0.052040000	0.002278104	0.007925790
28	0.052040000	0.001538738	0.007738924
29	0.052040000	0.000679070	0.007399295
30	0.052040000	-0.000275936	0.006892115
31	0.052040000	-0.001305197	0.006213452
32	0.052040000	-0.002397728	0.005373379
33	0.052040000	-0.003557310	0.004396173
34	0.052040000	-0.004791506	0.003305827
35	0.052040000	-0.006089245	0.002103911
36	0.052040000	-0.007439636	0.000793320
37	0.052040000	-0.008835116	-0.000618655
38	0.052040000	-0.010268301	-0.002124005
39	0.052040000	-0.011730442	-0.003715458
40	0.052040000	-0.013209023	-0.005388613
41	0.052040000	-0.014720922	-0.007113726
42	0.052040000	-0.016258767	-0.008881292
43	0.052040000	-0.017802744	-0.010694182
44	0.052040000	-0.019330091	-0.012558100
45	0.052040000	-0.020803661	-0.014491732
1	0.055760000	-0.021435556	-0.014178892
2	0.055760000	-0.019432702	-0.012830541
3	0.055760000	-0.017487250	-0.011433779
4	0.055760000	-0.015591606	-0.010015577
5	0.055760000	-0.013745726	-0.008594255
6	0.055760000	-0.011951878	-0.007185322
7	0.055760000	-0.010221748	-0.005793324
8	0.055760000	-0.008560508	-0.004429575
9	0.055760000	-0.006978936	-0.003098623
10	0.055760000	-0.005485353	-0.001807450
11	0.055760000	-0.004087984	-0.000562530
12	0.055760000	-0.002795173	0.000630429
13	0.055760000	-0.001614129	0.001765111
14	0.055760000	-0.000550469	0.002834253
15	0.055760000	0.000400993	0.003821070
16	0.055760000	0.001250920	0.004705283
17	0.055760000	0.001999307	0.005478211
18	0.055760000	0.002637348	0.006140727
19	0.055760000	0.003149239	0.006701089
20	0.055760000	0.003511957	0.007171441
21	0.055760000	0.003686764	0.007558009
22	0.055760000	0.003658320	0.007808448
23	0.055760000	0.003609780	0.007878920
24	0.055760000	0.003545700	0.007937653
25	0.055760000	0.003310302	0.008046362
26	0.055760000	0.002881466	0.008098131
27	0.055760000	0.002281249	0.008044797
28	0.055760000	0.001533365	0.007862245
29	0.055760000	0.000661790	0.007529155
30	0.055760000	-0.000308398	0.007029009
31	0.055760000	-0.001355075	0.006355825
32	0.055760000	-0.002465865	0.005518317
33	0.055760000	-0.003643713	0.004540687
34	0.055760000	-0.004895156	0.003446467
35	0.055760000	-0.006213613	0.002242431
36	0.055760000	-0.007591627	0.000934992
37	0.055760000	-0.009022512	-0.000467966
38	0.055760000	-0.010499633	-0.001957955
39	0.055760000	-0.012016162	-0.003526168
40	0.055760000	-0.013564875	-0.005163710
41	0.055760000	-0.015137910	-0.006862763
42	0.055760000	-0.016729721	-0.008611811
43	0.055760000	-0.018324410	-0.010410341
44	0.055760000	-0.019902538	-0.012261405
45	0.055760000	-0.021435556	-0.014178892
1	0.059480000	-0.021964918	-0.013768491
2	0.059480000	-0.019927417	-0.012450853
3	0.059480000	-0.017948197	-0.011081574
4	0.059480000	-0.016019045	-0.009689361
5	0.059480000	-0.014139948	-0.008293015
6	0.059480000	-0.012313607	-0.006907880
7	0.059480000	-0.010552173	-0.005537907
8	0.059480000	-0.008860745	-0.004194773
9	0.059480000	-0.007249003	-0.002884392
10	0.059480000	-0.005726332	-0.001612504
11	0.059480000	-0.004301709	-0.000384767
12	0.059480000	-0.002983384	0.000792919
13	0.059480000	-0.001778868	0.001914467
14	0.059480000	-0.000694384	0.002973087
15	0.059480000	0.000275345	0.003951444
16	0.059480000	0.001141943	0.004827800
17	0.059480000	0.001906129	0.005592586
18	0.059480000	0.002559296	0.006246587
19	0.059480000	0.003085582	0.006798617
20	0.059480000	0.003461878	0.007261972
21	0.059480000	0.003649424	0.007644898
22	0.059480000	0.003627252	0.007897042
23	0.059480000	0.003579760	0.007968714
24	0.059480000	0.003516282	0.008028713
25	0.059480000	0.003281258	0.008141160
26	0.059480000	0.002851045	0.008198883
27	0.059480000	0.002247154	0.008154279
28	0.059480000	0.001492714	0.007983137
29	0.059480000	0.000611257	0.007663526
30	0.059480000	-0.000372290	0.007178038
31	0.059480000	-0.001435522	0.006519716
32	0.059480000	-0.002565429	0.005696615
33	0.059480000	-0.003764265	0.004732880
34	0.059480000	-0.005037996	0.003652107
35	0.059480000	-0.006380855	0.002462169
36	0.059480000	-0.007786026	0.001170227
37	0.059480000	-0.009246921	-0.000215702
38	0.059480000	-0.010756983	-0.001687006
39	0.059480000	-0.012309503	-0.003234713
40	0.059480000	-0.013897684	-0.004849467
41	0.059480000	-0.015509575	-0.006527387
42	0.059480000	-0.017139611	-0.008256751
43	0.059480000	-0.018772612	-0.010036518
44	0.059480000	-0.020389911	-0.011869320
45	0.059480000	-0.021964918	-0.013768491
1	0.063200000	-0.022492166	-0.013353004
2	0.063200000	-0.020425630	-0.012065197
3	0.063200000	-0.018416753	-0.010724538
4	0.063200000	-0.016457766	-0.009359983
5	0.063200000	-0.014548966	-0.007990400
6	0.063200000	-0.012693309	-0.006631153
7	0.063200000	-0.010903061	-0.005285995
8	0.063200000	-0.009183514	-0.003966582
9	0.063200000	-0.007544491	-0.002678673
10	0.063200000	-0.005995500	-0.001427876
11	0.063200000	-0.004545639	-0.000219727
12	0.063200000	-0.003203285	0.000939994
13	0.063200000	-0.001976074	0.002045299
14	0.063200000	-0.000870366	0.003089482
15	0.063200000	0.000118829	0.004055078
16	0.063200000	0.001002830	0.004920064
17	0.063200000	0.001782222	0.005674804
18	0.063200000	0.002448393	0.006320218
19	0.063200000	0.002985569	0.006865417
20	0.063200000	0.003370796	0.007324107
21	0.063200000	0.003565264	0.007705239
22	0.063200000	0.003547003	0.007958572
23	0.063200000	0.003500444	0.008031212
24	0.063200000	0.003437668	0.008092379
25	0.063200000	0.003203597	0.008208843
26	0.063200000	0.002772869	0.008273608
27	0.063200000	0.002166245	0.008238640
28	0.063200000	0.001406491	0.008079295
29	0.063200000	0.000516821	0.007773199
30	0.063200000	-0.000478069	0.007302467
31	0.063200000	-0.001555811	0.006659699
32	0.063200000	-0.002703191	0.005852708
33	0.063200000	-0.003922034	0.004905712
34	0.063200000	-0.005217960	0.003842529
35	0.063200000	-0.006585061	0.002670971
36	0.063200000	-0.008016394	0.001398125
37	0.063200000	-0.009505213	0.000031922
38	0.063200000	-0.011044801	-0.001419102
39	0.063200000	-0.012628283	-0.002946052
40	0.063200000	-0.014248692	-0.004539647
41	0.063200000	-0.015893976	-0.006196190
42	0.063200000	-0.017558363	-0.007904008
43	0.063200000	-0.019226611	-0.009662304
44	0.063200000	-0.020880038	-0.011474031
45	0.063200000	-0.022492166	-0.013353004
1	0.066920000	-0.022972531	-0.012910677
2	0.066920000	-0.020884203	-0.011655540
3	0.066920000	-0.018852746	-0.010346556
4	0.066920000	-0.016870843	-0.009012830
5	0.066920000	-0.014939087	-0.007673248
6	0.066920000	-0.013060674	-0.006343143
7	0.066920000	-0.011247945	-0.005026062
8	0.066920000	-0.009506366	-0.003733602
9	0.066920000	-0.007845870	-0.002471351
10	0.066920000	-0.006276056	-0.001244774
11	0.066920000	-0.004806115	-0.000059262
12	0.066920000	-0.003444524	0.001079536
13	0.066920000	-0.002199016	0.002165749
14	0.066920000	-0.001076065	0.003192770
15	0.066920000	-0.000070939	0.004143026
16	0.066920000	0.000827328	0.004994309
17	0.066920000	0.001619166	0.005736969
18	0.066920000	0.002295971	0.006372068
19	0.066920000	0.002842093	0.006908986
20	0.066920000	0.003234791	0.007361791
21	0.066920000	0.003435296	0.007740075
22	0.066920000	0.003420779	0.007993797
23	0.066920000	0.003375243	0.008067146
24	0.066920000	0.003313328	0.008129250
25	0.066920000	0.003080892	0.008249256
26	0.066920000	0.002650980	0.008320677
27	0.066920000	0.002043558	0.008295208
28	0.066920000	0.001280965	0.008147867
29	0.066920000	0.000386024	0.007855926
30	0.066920000	-0.000616869	0.007401078
31	0.066920000	-0.001705443	0.006775495
32	0.066920000	-0.002866305	0.005986698
33	0.066920000	-0.004100824	0.005058870
34	0.066920000	-0.005414289	0.004016003
35	0.066920000	-0.006800683	0.002865845
36	0.066920000	-0.008252954	0.001615386
37	0.066920000	-0.009764224	0.000272447
38	0.066920000	-0.011327642	-0.001154534
39	0.066920000	-0.012936195	-0.002656759
40	0.066920000	-0.014582770	-0.004225049
41	0.066920000	-0.016255261	-0.005855893
42	0.066920000	-0.017947713	-0.007537695
43	0.066920000	-0.019644879	-0.009269893
44	0.066920000	-0.021328126	-0.011055731
45	0.066920000	-0.022972531	-0.012910677
1	0.070640000	-0.023192094	-0.012320079
2	0.070640000	-0.021104655	-0.011106620
3	0.070640000	-0.019072751	-0.009839028
4	0.070640000	-0.017089575	-0.008546219
5	0.070640000	-0.015155999	-0.007246885
6	0.070640000	-0.013275418	-0.005956166
7	0.070640000	-0.011460120	-0.004677386
8	0.070640000	-0.009715682	-0.003421968
9	0.070640000	-0.008052044	-0.002195282
10	0.070640000	-0.006478793	-0.001002612
11	0.070640000	-0.005005116	0.000150834
12	0.070640000	-0.003639491	0.001259579
13	0.070640000	-0.002389666	0.002317914
14	0.070640000	-0.001262138	0.003319369
15	0.070640000	-0.000252400	0.004246384
16	0.070640000	0.000650058	0.005076836
17	0.070640000	0.001445478	0.005801202
18	0.070640000	0.002125324	0.006420691
19	0.070640000	0.002674205	0.006944841
20	0.070640000	0.003069793	0.007387904
21	0.070640000	0.003273753	0.007759934
22	0.070640000	0.003262789	0.008011537
23	0.070640000	0.003218658	0.008084833
24	0.070640000	0.003158162	0.008147216
25	0.070640000	0.002929548	0.008269388
26	0.070640000	0.002504613	0.008346327
27	0.070640000	0.001902409	0.008329893
28	0.070640000	0.001144684	0.008195018
29	0.070640000	0.000253706	0.007918855
30	0.070640000	-0.000746626	0.007482892
31	0.070640000	-0.001834339	0.006878995
32	0.070640000	-0.002996008	0.006114360
33	0.070640000	-0.004232588	0.005212918
34	0.070640000	-0.005549016	0.004198590
35	0.070640000	-0.006939236	0.003078993
36	0.070640000	-0.008396173	0.001860967
37	0.070640000	-0.009912895	0.000552158
38	0.070640000	-0.011482499	-0.000839167
39	0.070640000	-0.013097916	-0.002304384
40	0.070640000	-0.014751969	-0.003834499
41	0.070640000	-0.016432626	-0.005426190
42	0.070640000	-0.018133822	-0.007068056
43	0.070640000	-0.019840457	-0.008759740
44	0.070640000	-0.021534140	-0.010504702
45	0.070640000	-0.023192094	-0.012320079
1	0.074360000	-0.023236072	-0.011637498
2	0.074360000	-0.021165521	-0.010471536
3	0.074360000	-0.019148841	-0.009251611
4	0.074360000	-0.017179754	-0.008006236
5	0.074360000	-0.015259381	-0.006753776
6	0.074360000	-0.013391277	-0.005509074
7	0.074360000	-0.011587585	-0.004275225
8	0.074360000	-0.009853946	-0.003063401
9	0.074360000	-0.008200224	-0.001878736
10	0.074360000	-0.006635924	-0.000726304
11	0.074360000	-0.005170156	0.000388891
12	0.074360000	-0.003811336	0.001461573
13	0.074360000	-0.002567164	0.002486224
14	0.074360000	-0.001444112	0.003456553
15	0.074360000	-0.000437928	0.004355160
16	0.074360000	0.000461404	0.005160163
17	0.074360000	0.001253967	0.005862220
18	0.074360000	0.001931358	0.006462654
19	0.074360000	0.002478548	0.006971073
20	0.074360000	0.002873767	0.007401786
21	0.074360000	0.003079388	0.007765196
22	0.074360000	0.003071839	0.008012932
23	0.074360000	0.003029351	0.008085628
24	0.074360000	0.002970630	0.008147799
25	0.074360000	0.002747274	0.008271041
26	0.074360000	0.002330152	0.008352448
27	0.074360000	0.001737339	0.008344406
28	0.074360000	0.000989881	0.008221953
29	0.074360000	0.000109374	0.007962306
30	0.074360000	-0.000880920	0.007546913
31	0.074360000	-0.001959474	0.006967436
32	0.074360000	-0.003112953	0.006230738
33	0.074360000	-0.004341942	0.005360350
34	0.074360000	-0.005651005	0.004379927
35	0.074360000	-0.007034092	0.003296898
36	0.074360000	-0.008484161	0.002117916
37	0.074360000	-0.009994283	0.000850406
38	0.074360000	-0.011557559	-0.000497584
39	0.074360000	-0.013166921	-0.001917659
40	0.074360000	-0.014815189	-0.003401062
41	0.074360000	-0.016490488	-0.004944674
42	0.074360000	-0.018186696	-0.006537360
43	0.074360000	-0.019888963	-0.008178956
44	0.074360000	-0.021579252	-0.009873096
45	0.074360000	-0.023236072	-0.011637498
1	0.078080000	-0.023215122	-0.010934834
2	0.078080000	-0.021168956	-0.009817944
3	0.078080000	-0.019174904	-0.008647462
4	0.078080000	-0.017227191	-0.007451417
5	0.078080000	-0.015327162	-0.006247802
6	0.078080000	-0.013478505	-0.005051118
7	0.078080000	-0.011693177	-0.003864237
8	0.078080000	-0.009976849	-0.002698053
9	0.078080000	-0.008339279	-0.001557458
10	0.078080000	-0.006789850	-0.000447309
11	0.078080000	-0.005337564	0.000627602
12	0.078080000	-0.003990748	0.001662208
13	0.078080000	-0.002757023	0.002651195
14	0.078080000	-0.001642816	0.003588470
15	0.078080000	-0.000644156	0.004456880
16	0.078080000	0.000248485	0.005234846
17	0.078080000	0.001035056	0.005913216
18	0.078080000	0.001707321	0.006493409
19	0.078080000	0.002250657	0.006985052
20	0.078080000	0.002643902	0.007402445
21	0.078080000	0.002850252	0.007756293
22	0.078080000	0.002845951	0.007999395
23	0.078080000	0.002805174	0.008071233
24	0.078080000	0.002748348	0.008132950
25	0.078080000	0.002530810	0.008256664
26	0.078080000	0.002122692	0.008341866
27	0.078080000	0.001541088	0.008341635
28	0.078080000	0.000806308	0.008231218
29	0.078080000	-0.000060773	0.007987988
30	0.078080000	-0.001037582	0.007593436
31	0.078080000	-0.002103101	0.007039076
32	0.078080000	-0.003244143	0.006331440
33	0.078080000	-0.004460953	0.005493590
34	0.078080000	-0.005757723	0.004548824
35	0.078080000	-0.007128425	0.003504362
36	0.078080000	-0.008566078	0.002366651
37	0.078080000	-0.010063785	0.001142880
38	0.078080000	-0.011614677	-0.000159141
39	0.078080000	-0.013211716	-0.001531266
40	0.078080000	-0.014847749	-0.002964995
41	0.078080000	-0.016511094	-0.004457415
42	0.078080000	-0.018195600	-0.005997684
43	0.078080000	-0.019886708	-0.007585823
44	0.078080000	-0.021566782	-0.009225619
45	0.078080000	-0.023215122	-0.010934834
1	0.081800000	-0.023156287	-0.010231855
2	0.081800000	-0.021139643	-0.009164219
3	0.081800000	-0.019173319	-0.008043501
4	0.081800000	-0.017252022	-0.006897196
5	0.081800000	-0.015377296	-0.005742896
6	0.081800000	-0.013552932	-0.004594746
7	0.081800000	-0.011790676	-0.003455396
8	0.081800000	-0.010096208	-0.002335451
9	0.081800000	-0.008479147	-0.001239561
10	0.081800000	-0.006948740	-0.000172366
11	0.081800000	-0.005513855	0.000861558
12	0.081800000	-0.004182708	0.001857358
13	0.081800000	-0.002962826	0.002809926
14	0.081800000	-0.001860571	0.003713378
15	0.081800000	-0.000872253	0.004550849
16	0.081800000	0.000011173	0.005301115
17	0.081800000	0.000789534	0.005955230
18	0.081800000	0.001454780	0.006514692
19	0.081800000	0.001992711	0.006989115
20	0.081800000	0.002382799	0.007392751
21	0.081800000	0.002589117	0.007736544
22	0.081800000	0.002587818	0.007974531
23	0.081800000	0.002548757	0.008045327
24	0.081800000	0.002493876	0.008106410
25	0.081800000	0.002282463	0.008230133
26	0.081800000	0.001884074	0.008318556
27	0.081800000	0.001314838	0.008325567
28	0.081800000	0.000594304	0.008226694
29	0.081800000	-0.000257391	0.007999538
30	0.081800000	-0.001218395	0.007625692
31	0.081800000	-0.002268236	0.007096555
32	0.081800000	-0.003393902	0.006418314
33	0.081800000	-0.004595312	0.005613508
34	0.081800000	-0.005876298	0.004705034
35	0.081800000	-0.007230879	0.003699891
36	0.081800000	-0.008652150	0.002604319
37	0.081800000	-0.010133264	0.001425259
38	0.081800000	-0.011667405	0.000170271
39	0.081800000	-0.013247586	-0.001152754
40	0.081800000	-0.014866701	-0.002535584
41	0.081800000	-0.016513285	-0.003975509
42	0.081800000	-0.018181185	-0.005461992
43	0.081800000	-0.019856159	-0.006995227
44	0.081800000	-0.021520999	-0.008579134
45	0.081800000	-0.023156287	-0.010231855
1	0.085520000	-0.023029762	-0.009512712
2	0.085520000	-0.021049623	-0.008495097
3	0.085520000	-0.019117926	-0.007425120
4	0.085520000	-0.017229842	-0.006329663
5	0.085520000	-0.015387086	-0.005225868
6	0.085520000	-0.013593531	-0.004127482
7	0.085520000	-0.011860673	-0.003036942
8	0.085520000	-0.010194174	-0.001964534
9	0.085520000	-0.008603485	-0.000914667
10	0.085520000	-0.007097679	0.000108242
11	0.085520000	-0.005685466	0.001099834
12	0.085520000	-0.004374918	0.002055474
13	0.085520000	-0.003173440	0.002970270
14	0.085520000	-0.002087307	0.003838548
15	0.085520000	-0.001113086	0.004643777
16	0.085520000	-0.000242225	0.005365163
17	0.085520000	0.000524983	0.005993999
18	0.085520000	0.001180690	0.006531861
19	0.085520000	0.001711150	0.006988304
20	0.085520000	0.002096505	0.007377472
21	0.085520000	0.002301801	0.007710469
22	0.085520000	0.002303240	0.007942665
23	0.085520000	0.002265937	0.008012178
24	0.085520000	0.002213096	0.008072403
25	0.085520000	0.002008288	0.008195583
26	0.085520000	0.001620668	0.008286578
27	0.085520000	0.001065404	0.008300222
28	0.085520000	0.000361265	0.008212410
29	0.085520000	-0.000472385	0.008001055
30	0.085520000	-0.001414450	0.007647927
31	0.085520000	-0.002445052	0.007144357
32	0.085520000	-0.003551396	0.006496186
33	0.085520000	-0.004733103	0.005725365
34	0.085520000	-0.005993660	0.004854322
35	0.085520000	-0.007327154	0.003889827
36	0.085520000	-0.008726783	0.002837898
37	0.085520000	-0.010185780	0.001705218
38	0.085520000	-0.011697406	0.000499084
39	0.085520000	-0.013254752	-0.000772885
40	0.085520000	-0.014850790	-0.002102740
41	0.085520000	-0.016474308	-0.003487969
42	0.085520000	-0.018119178	-0.004918361
43	0.085520000	-0.019771515	-0.006394270
44	0.085520000	-0.021414581	-0.007919718
45	0.085520000	-0.023029762	-0.009512712
1	0.089240000	-0.022818690	-0.008769145
2	0.089240000	-0.020882891	-0.007802577
3	0.089240000	-0.018993551	-0.006784612
4	0.089240000	-0.017146291	-0.005741412
5	0.089240000	-0.015342973	-0.004689619
6	0.089240000	-0.013587524	-0.003642535
7	0.089240000	-0.011891148	-0.002602391
8	0.089240000	-0.010259459	-0.001579127
9	0.089240000	-0.008701700	-0.000576905
10	0.089240000	-0.007226737	0.000400083
11	0.089240000	-0.005843086	0.001347702
12	0.089240000	-0.004558646	0.002261541
13	0.089240000	-0.003380668	0.003136927
14	0.089240000	-0.002315308	0.003968414
15	0.089240000	-0.001359387	0.004739855
16	0.089240000	-0.000504850	0.005430972
17	0.089240000	0.000247903	0.006033329
18	0.089240000	0.000891250	0.006548562
19	0.089240000	0.001411931	0.006986123
20	0.089240000	0.001790811	0.007359974
21	0.089240000	0.001994016	0.007681303
22	0.089240000	0.001997944	0.007906936
23	0.089240000	0.001962452	0.007974899
24	0.089240000	0.001911769	0.008034010
25	0.089240000	0.001714123	0.008156023
26	0.089240000	0.001338470	0.008248862
27	0.089240000	0.000799023	0.008268462
28	0.089240000	0.000113738	0.008191189
29	0.089240000	-0.000698822	0.007995362
30	0.089240000	-0.001618371	0.007663014
31	0.089240000	-0.002625679	0.007185467
32	0.089240000	-0.003708224	0.006568219
33	0.089240000	-0.004865358	0.005832564
34	0.089240000	-0.006100236	0.005000377
35	0.089240000	-0.007407039	0.004078182
36	0.089240000	-0.008779099	0.003071764
37	0.089240000	-0.010209755	0.001987529
38	0.089240000	-0.011692379	0.000832498
39	0.089240000	-0.013220172	-0.000386002
40	0.089240000	-0.014786216	-0.001660323
41	0.089240000	-0.016379591	-0.002988145
42	0.089240000	-0.017994228	-0.004359613
43	0.089240000	-0.019616641	-0.005775221
44	0.089240000	-0.021230619	-0.007239059
45	0.089240000	-0.022818690	-0.008769145
1	0.092960000	-0.022545607	-0.008016863
2	0.092960000	-0.020659919	-0.007101340
3	0.092960000	-0.018818652	-0.006135569
4	0.092960000	-0.017017856	-0.005144931
5	0.092960000	-0.015259520	-0.004145520
6	0.092960000	-0.013547597	-0.003150170
7	0.092960000	-0.011892969	-0.002160913
8	0.092960000	-0.010301179	-0.001187325
9	0.092960000	-0.008781235	-0.000233322
10	0.092960000	-0.007341771	0.000697128
11	0.092960000	-0.005991081	0.001600115
12	0.092960000	-0.004736867	0.002471454
13	0.092960000	-0.003586205	0.003306697
14	0.092960000	-0.002545116	0.004100633
15	0.092960000	-0.001610676	0.004837559
16	0.092960000	-0.000775314	0.005497762
17	0.092960000	-0.000039522	0.006073088
18	0.092960000	0.000589327	0.006565212
19	0.092960000	0.001098485	0.006983446
20	0.092960000	0.001469567	0.007341515
21	0.092960000	0.001669853	0.007650628
22	0.092960000	0.001676034	0.007869166
23	0.092960000	0.001642367	0.007935380
24	0.092960000	0.001593898	0.007993184
25	0.092960000	0.001403744	0.008113514
26	0.092960000	0.001040841	0.008207532
27	0.092960000	0.000518469	0.008232399
28	0.092960000	-0.000146240	0.008165026
29	0.092960000	-0.000935544	0.007984209
30	0.092960000	-0.001829989	0.007672318
31	0.092960000	-0.002811034	0.007220715
32	0.092960000	-0.003866472	0.006634565
33	0.092960000	-0.004995425	0.005934466
34	0.092960000	-0.006200722	0.005141671
35	0.092960000	-0.007476660	0.004262444
36	0.092960000	-0.008816725	0.003302329
37	0.092960000	-0.010214388	0.002267452
38	0.092960000	-0.011663152	0.001164544
39	0.092960000	-0.013156355	0.000000632
40	0.092960000	-0.014687211	-0.001216949
41	0.092960000	-0.016245122	-0.002486062
42	0.092960000	-0.017824102	-0.003797227
43	0.092960000	-0.019411099	-0.005151060
44	0.092960000	-0.020990457	-0.006551688
45	0.092960000	-0.022545607	-0.008016863
1	0.096680000	-0.022243734	-0.007276084
2	0.096680000	-0.020411035	-0.006410317
3	0.096680000	-0.018620737	-0.005495551
4	0.096680000	-0.016869291	-0.004556357
5	0.096680000	-0.015158790	-0.003608271
6	0.096680000	-0.013493196	-0.002663651
7	0.096680000	-0.011883054	-0.001724342
8	0.096680000	-0.010333823	-0.000799550
9	0.096680000	-0.008854256	0.000107045
10	0.096680000	-0.007452747	0.000991697
11	0.096680000	-0.006137353	0.001850712
12	0.096680000	-0.004915571	0.002680130
13	0.096680000	-0.003794287	0.003475723
14	0.096680000	-0.002779377	0.004232516
15	0.096680000	-0.001868165	0.004935280
16	0.096680000	-0.001053548	0.005564888
17	0.096680000	-0.000336091	0.006113468
18	0.096680000	0.000277089	0.006582725
19	0.096680000	0.000773758	0.006981800
20	0.096680000	0.001136284	0.007324152
21	0.096680000	0.001333132	0.007620963
22	0.096680000	0.001341348	0.007832204
23	0.096680000	0.001309478	0.007896573
24	0.096680000	0.001263212	0.007952967
25	0.096680000	0.001080608	0.008071304
26	0.096680000	0.000730702	0.008166018
27	0.096680000	0.000225878	0.008195548
28	0.096680000	-0.000417540	0.008137382
29	0.096680000	-0.001182621	0.007970833
30	0.096680000	-0.002050737	0.007678645
31	0.096680000	-0.003004045	0.007252262
32	0.096680000	-0.004030681	0.006696539
33	0.096680000	-0.005129566	0.006031369
34	0.096680000	-0.006303224	0.005277349
35	0.096680000	-0.007546074	0.004440476
36	0.096680000	-0.008851769	0.003526057
37	0.096680000	-0.010213924	0.002539937
38	0.096680000	-0.011626189	0.001488560
39	0.096680000	-0.013082051	0.000378654
40	0.096680000	-0.014574873	-0.000782760
41	0.096680000	-0.016094389	-0.001993720
42	0.096680000	-0.017634712	-0.003245124
43	0.096680000	-0.019183233	-0.004537694
44	0.096680000	-0.020724861	-0.005875580
45	0.096680000	-0.022243734	-0.007276084
1	0.100400000	-0.021931108	-0.006554993
2	0.100400000	-0.020152488	-0.005736982
3	0.100400000	-0.018414312	-0.004871255
4	0.100400000	-0.016713400	-0.003981580
5	0.100400000	-0.015051927	-0.003082939
6	0.100400000	-0.013433848	-0.002187220
7	0.100400000	-0.011869371	-0.001296093
8	0.100400000	-0.010363853	-0.000418400
9	0.100400000	-0.008925794	0.000442401
10	0.100400000	-0.007563335	0.001282780
11	0.100400000	-0.006284301	0.002099252
12	0.100400000	-0.005095970	0.002888070
13	0.100400000	-0.004005037	0.003645222
14	0.100400000	-0.003017230	0.004365965
15	0.100400000	-0.002130110	0.005035556
16	0.100400000	-0.001337015	0.005635458
17	0.100400000	-0.000638572	0.006158075
18	0.100400000	-0.000041639	0.006605131
19	0.100400000	0.000442055	0.006985583
20	0.100400000	0.000795615	0.007312602
21	0.100400000	0.000988679	0.007597312
22	0.100400000	0.000998700	0.007801251
23	0.100400000	0.000968560	0.007863738
24	0.100400000	0.000924441	0.007918669
25	0.100400000	0.000749274	0.008034810
26	0.100400000	0.000412284	0.008129832
27	0.100400000	-0.000074990	0.008163461
28	0.100400000	-0.000697009	0.008113785
29	0.100400000	-0.001437628	0.007960651
30	0.100400000	-0.002279025	0.007687200
31	0.100400000	-0.003204048	0.007284981
32	0.100400000	-0.004201182	0.006758556
33	0.100400000	-0.005269179	0.006127119
34	0.100400000	-0.006410273	0.005410601
35	0.100400000	-0.007619013	0.004614737
36	0.100400000	-0.008889222	0.003744601
37	0.100400000	-0.010214670	0.002805766
38	0.100400000	-0.011589159	0.001804394
39	0.100400000	-0.013006333	0.000746918
40	0.100400000	-0.014459712	-0.000359943
41	0.100400000	-0.015939363	-0.001514396
42	0.100400000	-0.017439510	-0.002707706
43	0.100400000	-0.018947985	-0.003940695
44	0.100400000	-0.020450256	-0.005217518
45	0.100400000	-0.021931108	-0.006554993
1	0.104120000	-0.021616588	-0.005857202
2	0.104120000	-0.019892011	-0.005084510
3	0.104120000	-0.018206004	-0.004265402
4	0.104120000	-0.016555721	-0.003422848
5	0.104120000	-0.014943406	-0.002571294
6	0.104120000	-0.013372993	-0.001722169
7	0.104120000	-0.011854353	-0.000876980
8	0.104120000	-0.010392738	-0.000044219
9	0.104120000	-0.008996393	0.000772872
10	0.104120000	-0.007673209	0.001570963
11	0.104120000	-0.006430772	0.002346766
12	0.104120000	-0.005276149	0.003096742
13	0.104120000	-0.004215839	0.003817083
14	0.104120000	-0.003255419	0.004503268
15	0.104120000	-0.002392674	0.005141042
16	0.104120000	-0.001621357	0.005712452
17	0.104120000	-0.000942145	0.006210172
18	0.104120000	-0.000361645	0.006635936
19	0.104120000	0.000108905	0.006998508
20	0.104120000	0.000453326	0.007310761
21	0.104120000	0.000642404	0.007583730
22	0.104120000	0.000654038	0.007780487
23	0.104120000	0.000625553	0.007841094
24	0.104120000	0.000583505	0.007894550
25	0.104120000	0.000415563	0.008008376
26	0.104120000	0.000091208	0.008103394
27	0.104120000	-0.000378814	0.008140602
28	0.104120000	-0.000979711	0.008098690
29	0.104120000	-0.001696087	0.007958038
30	0.104120000	-0.002510899	0.007702204
31	0.104120000	-0.003407666	0.007322860
32	0.104120000	-0.004375227	0.006824302
33	0.104120000	-0.005412192	0.006225048
34	0.104120000	-0.006520526	0.005544360
35	0.104120000	-0.007694908	0.004787717
36	0.104120000	-0.008929336	0.003959968
37	0.104120000	-0.010217735	0.003066428
38	0.104120000	-0.011554065	0.002112983
39	0.104120000	-0.012932131	0.001105787
40	0.104120000	-0.014345612	0.000051260
41	0.104120000	-0.015784905	-0.001048957
42	0.104120000	-0.017244350	-0.002186492
43	0.104120000	-0.018712211	-0.003362249
44	0.104120000	-0.020174500	-0.004580382
45	0.104120000	-0.021616588	-0.005857202
1	0.107840000	-0.021315617	-0.005194749
2	0.107840000	-0.019643369	-0.004464294
3	0.107840000	-0.018007918	-0.003688705
4	0.107840000	-0.016406729	-0.002890188
5	0.107840000	-0.014842099	-0.002082669
6	0.107840000	-0.013317936	-0.001277139
7	0.107840000	-0.011843790	-0.000474956
8	0.107840000	-0.010424805	0.000315720
9	0.107840000	-0.009068978	0.001091847
10	0.107840000	-0.007783960	0.001850284
11	0.107840000	-0.006577107	0.002587929
12	0.107840000	-0.005455277	0.003301433
13	0.107840000	-0.004424784	0.003987184
14	0.107840000	-0.003491054	0.004640871
15	0.107840000	-0.002652090	0.005248720
16	0.107840000	-0.001902027	0.005793340
17	0.107840000	-0.001241579	0.006267655
18	0.107840000	-0.000677109	0.006673398
19	0.107840000	-0.000219391	0.007019139
20	0.107840000	0.000116079	0.007317451
21	0.107840000	0.000301191	0.007579270
22	0.107840000	0.000314279	0.007769149
23	0.107840000	0.000287350	0.007827941
24	0.107840000	0.000247254	0.007879957
25	0.107840000	0.000086158	0.007991450
26	0.107840000	-0.000226159	0.008086227
27	0.107840000	-0.000679675	0.008126518
28	0.107840000	-0.001260301	0.008091598
29	0.107840000	-0.001953343	0.007962378
30	0.107840000	-0.002742493	0.007722827
31	0.107840000	-0.003611912	0.007364757
32	0.107840000	-0.004550787	0.006892224
33	0.107840000	-0.005557612	0.006323108
34	0.107840000	-0.006634101	0.005676014
35	0.107840000	-0.007775062	0.004956176
36	0.107840000	-0.008974659	0.004168232
37	0.107840000	-0.010226973	0.003317248
38	0.107840000	-0.011526118	0.002408857
39	0.107840000	-0.012866055	0.001448942
40	0.107840000	-0.014240623	0.000443647
41	0.107840000	-0.015640534	-0.000605533
42	0.107840000	-0.017060245	-0.001690564
43	0.107840000	-0.018488436	-0.002812424
44	0.107840000	-0.019911636	-0.003975251
45	0.107840000	-0.021315617	-0.005194749
1	0.111560000	-0.021051751	-0.004582177
2	0.111560000	-0.019427777	-0.003890176
3	0.111560000	-0.017838971	-0.003154246
4	0.111560000	-0.016283079	-0.002395882
5	0.111560000	-0.014762451	-0.001628526
6	0.111560000	-0.013280970	-0.000862769
7	0.111560000	-0.011847887	-0.000099833
8	0.111560000	-0.010468249	0.000652430
9	0.111560000	-0.009149823	0.001391158
10	0.111560000	-0.007900038	0.002113384
11	0.111560000	-0.006726038	0.002816173
12	0.111560000	-0.005634490	0.003496354
13	0.111560000	-0.004631533	0.004150491
14	0.111560000	-0.003722462	0.004774470
15	0.111560000	-0.002905483	0.005354975
16	0.111560000	-0.002175073	0.005875122
17	0.111560000	-0.001531976	0.006328057
18	0.111560000	-0.000982327	0.006715506
19	0.111560000	-0.000536470	0.007045857
20	0.111560000	-0.000209278	0.007331408
21	0.111560000	-0.000027846	0.007583000
22	0.111560000	-0.000013429	0.007766556
23	0.111560000	-0.000038932	0.007823676
24	0.111560000	-0.000077238	0.007874366
25	0.111560000	-0.000232055	0.007983693
26	0.111560000	-0.000533323	0.008078195
27	0.111560000	-0.000971677	0.008121230
28	0.111560000	-0.001533664	0.008092614
29	0.111560000	-0.002205231	0.007973743
30	0.111560000	-0.002970739	0.007748968
31	0.111560000	-0.003814939	0.007410240
32	0.111560000	-0.004727342	0.006961411
33	0.111560000	-0.005706348	0.006419782
34	0.111560000	-0.006753442	0.005803348
35	0.111560000	-0.007863543	0.005117109
36	0.111560000	-0.009030974	0.004365512
37	0.111560000	-0.010249960	0.003553398
38	0.111560000	-0.011514756	0.002686163
39	0.111560000	-0.012819469	0.001769448
40	0.111560000	-0.014158085	0.000809140
41	0.111560000	-0.015521607	-0.000193393
42	0.111560000	-0.016904601	-0.001230431
43	0.111560000	-0.018296128	-0.002303015
44	0.111560000	-0.019683198	-0.003415261
45	0.111560000	-0.021051751	-0.004582177
1	0.115280000	-0.020848529	-0.004021326
2	0.115280000	-0.019266478	-0.003363455
3	0.115280000	-0.017718170	-0.002662679
4	0.115280000	-0.016201597	-0.001939882
5	0.115280000	-0.014719158	-0.001208093
6	0.115280000	-0.013274712	-0.000477549
7	0.115280000	-0.011877252	0.000250649
8	0.115280000	-0.010531740	0.000968915
9	0.115280000	-0.009245743	0.001674551
10	0.115280000	-0.008026499	0.002364741
11	0.115280000	-0.006880968	0.003036702
12	0.115280000	-0.005815649	0.003687421
13	0.115280000	-0.004836535	0.004313619
14	0.115280000	-0.003948804	0.004911358
15	0.115280000	-0.003150854	0.005467731
16	0.115280000	-0.002437458	0.005966286
17	0.115280000	-0.001809382	0.006400355
18	0.115280000	-0.001272561	0.006771660
19	0.115280000	-0.000836964	0.007088431
20	0.115280000	-0.000516916	0.007362735
21	0.115280000	-0.000338630	0.007605343
22	0.115280000	-0.000322985	0.007783370
23	0.115280000	-0.000347218	0.007839046
24	0.115280000	-0.000383933	0.007888597
25	0.115280000	-0.000533206	0.007996121
26	0.115280000	-0.000824774	0.008090545
27	0.115280000	-0.001249868	0.008136191
28	0.115280000	-0.001795593	0.008113325
29	0.115280000	-0.002448458	0.008003751
30	0.115280000	-0.003193404	0.007792143
31	0.115280000	-0.004015696	0.007470574
32	0.115280000	-0.004905130	0.007042726
33	0.115280000	-0.005860024	0.006525414
34	0.115280000	-0.006881654	0.005936087
35	0.115280000	-0.007965034	0.005279539
36	0.115280000	-0.009104624	0.004560049
37	0.115280000	-0.010294770	0.003782258
38	0.115280000	-0.011529853	0.002951357
39	0.115280000	-0.012804104	0.002072770
40	0.115280000	-0.014111635	0.001152160
41	0.115280000	-0.015443701	0.000190778
42	0.115280000	-0.016794962	-0.000803931
43	0.115280000	-0.018154809	-0.001833069
44	0.115280000	-0.019510668	-0.002900747
45	0.115280000	-0.020848529	-0.004021326
1	0.119000000	-0.020727537	-0.003513697
2	0.119000000	-0.019178930	-0.002884843
3	0.119000000	-0.017662895	-0.002213853
4	0.119000000	-0.016177631	-0.001521141
5	0.119000000	-0.014725576	-0.000819405
6	0.119000000	-0.013310578	-0.000118606
7	0.119000000	-0.011941422	0.000580267
8	0.119000000	-0.010623001	0.001269843
9	0.119000000	-0.009362726	0.001947560
10	0.119000000	-0.008167680	0.002610737
11	0.119000000	-0.007044676	0.003256719
12	0.119000000	-0.006000085	0.003882629
13	0.119000000	-0.005039777	0.004485320
14	0.119000000	-0.004168846	0.005061009
15	0.119000000	-0.003385866	0.005597134
16	0.119000000	-0.002685861	0.006077582
17	0.119000000	-0.002069612	0.006495827
18	0.119000000	-0.001542887	0.006853583
19	0.119000000	-0.001115341	0.007158964
20	0.119000000	-0.000800848	0.007423860
21	0.119000000	-0.000624886	0.007659013
22	0.119000000	-0.000608066	0.007832540
23	0.119000000	-0.000631198	0.007887069
24	0.119000000	-0.000666566	0.007935739
25	0.119000000	-0.000811226	0.008041957
26	0.119000000	-0.001094836	0.008136598
27	0.119000000	-0.001509133	0.008184743
28	0.119000000	-0.002041689	0.008167008
29	0.119000000	-0.002679475	0.008065508
30	0.119000000	-0.003407915	0.007865170
31	0.119000000	-0.004212693	0.007558165
32	0.119000000	-0.005083843	0.007148043
33	0.119000000	-0.006019615	0.006651244
34	0.119000000	-0.007021089	0.006084760
35	0.119000000	-0.008083353	0.005453204
36	0.119000000	-0.009200973	0.004760717
37	0.119000000	-0.010368391	0.004011770
38	0.119000000	-0.011580085	0.003211386
39	0.119000000	-0.012830381	0.002364807
40	0.119000000	-0.014113490	0.001477510
41	0.119000000	-0.015420866	0.000550636
42	0.119000000	-0.016747240	-0.000408595
43	0.119000000	-0.018082267	-0.001401354
44	0.119000000	-0.019413704	-0.002431770
45	0.119000000	-0.020727537	-0.003513697
1	0.122720000	-0.020711950	-0.003089717
2	0.122720000	-0.019185878	-0.002483740
3	0.122720000	-0.017691451	-0.001836169
4	0.122720000	-0.016227062	-0.001167070
5	0.122720000	-0.014795203	-0.000488897
6	0.122720000	-0.013399736	0.000188603
7	0.122720000	-0.012049301	0.000864532
8	0.122720000	-0.010748756	0.001531678
9	0.122720000	-0.009505406	0.002187594
10	0.122720000	-0.008326231	0.002829702
11	0.122720000	-0.007217943	0.003455451
12	0.122720000	-0.006186826	0.004062071
13	0.122720000	-0.005238676	0.004646523
14	0.122720000	-0.004378531	0.005205144
15	0.122720000	-0.003605135	0.005725647
16	0.122720000	-0.002913711	0.006192143
17	0.122720000	-0.002305054	0.006598187
18	0.122720000	-0.001784801	0.006945489
19	0.122720000	-0.001362368	0.007242087
20	0.122720000	-0.001051274	0.007499764
21	0.122720000	-0.000876432	0.007729290
22	0.122720000	-0.000858346	0.007899606
23	0.122720000	-0.000880587	0.007953380
24	0.122720000	-0.000914914	0.008001498
25	0.122720000	-0.001056158	0.008107030
26	0.122720000	-0.001334035	0.008202234
27	0.122720000	-0.001740675	0.008252728
28	0.122720000	-0.002264000	0.008239359
29	0.122720000	-0.002891335	0.008144446
30	0.122720000	-0.003608467	0.007953088
31	0.122720000	-0.004401401	0.007657529
32	0.122720000	-0.005260351	0.007261241
33	0.122720000	-0.006183509	0.006780418
34	0.122720000	-0.007171780	0.006231691
35	0.122720000	-0.008220287	0.005619522
36	0.122720000	-0.009323666	0.004947951
37	0.122720000	-0.010476418	0.004221318
38	0.122720000	-0.011673081	0.003444515
39	0.122720000	-0.012908039	0.002622647
40	0.122720000	-0.014175563	0.001761050
41	0.122720000	-0.015467248	0.000860774
42	0.122720000	-0.016777855	-0.000071131
43	0.122720000	-0.018097236	-0.001035894
44	0.122720000	-0.019413393	-0.002037670
45	0.122720000	-0.020711950	-0.003089717
1	0.125571536	-0.020784636	-0.002835928
2	0.125571536	-0.019266985	-0.002243385
3	0.125571536	-0.017780445	-0.001609471
4	0.125571536	-0.016323552	-0.000954079
5	0.125571536	-0.014898862	-0.000289536
6	0.125571536	-0.013510271	0.000374527
7	0.125571536	-0.012166356	0.001037266
8	0.125571536	-0.010871982	0.001691556
9	0.125571536	-0.009634412	0.002335015
10	0.125571536	-0.008460588	0.002965132
11	0.125571536	-0.007357184	0.003579414
12	0.125571536	-0.006330455	0.004175157
13	0.125571536	-0.005386169	0.004749383
14	0.125571536	-0.004529356	0.005298500
15	0.125571536	-0.003758881	0.005810368
16	0.125571536	-0.003070084	0.006269168
17	0.125571536	-0.002463767	0.006668476
18	0.125571536	-0.001945501	0.007009999
19	0.125571536	-0.001524574	0.007301762
20	0.125571536	-0.001214323	0.007555536
21	0.125571536	-0.001039393	0.007782178
22	0.125571536	-0.001020307	0.007951049
23	0.125571536	-0.001042015	0.008004550
24	0.125571536	-0.001075765	0.008052518
25	0.125571536	-0.001215267	0.008158101
26	0.125571536	-0.001490434	0.008254210
27	0.125571536	-0.001893637	0.008306674
28	0.125571536	-0.002412994	0.008296404
29	0.125571536	-0.003036020	0.008205777
30	0.125571536	-0.003748689	0.008019941
31	0.125571536	-0.004537168	0.007731149
32	0.125571536	-0.005391748	0.007342839
33	0.125571536	-0.006310577	0.006871115
34	0.125571536	-0.007294431	0.006332429
35	0.125571536	-0.008338434	0.005731156
36	0.125571536	-0.009437246	0.005071281
37	0.125571536	-0.010585381	0.004357073
38	0.125571536	-0.011777392	0.003593355
39	0.125571536	-0.013007676	0.002785157
40	0.125571536	-0.014270517	0.001937741
41	0.125571536	-0.015557572	0.001052105
42	0.125571536	-0.016863600	0.000135209
43	0.125571536	-0.018178542	-0.000814214
44	0.125571536	-0.019490527	-0.001800348
45	0.125571536	-0.020784636	-0.002835928
1	0.128391831	-0.020932815	-0.002619676
2	0.128391831	-0.019415620	-0.002037448
3	0.128391831	-0.017929210	-0.001413788
4	0.128391831	-0.016472238	-0.000768550
5	0.128391831	-0.015047323	-0.000114020
6	0.128391831	-0.013658409	0.000540224
7	0.128391831	-0.012314057	0.001193394
8	0.128391831	-0.011019158	0.001838406
9	0.128391831	-0.009780973	0.002472933
10	0.128391831	-0.008606441	0.003094513
11	0.128391831	-0.007502237	0.003700702
12	0.128391831	-0.006474617	0.004288847
13	0.128391831	-0.005529353	0.004856013
14	0.128391831	-0.004671492	0.005398660
15	0.128391831	-0.003900003	0.005904719
16	0.128391831	-0.003210313	0.006358353
17	0.128391831	-0.002603235	0.006753122
18	0.128391831	-0.002084307	0.007090750
19	0.128391831	-0.001662746	0.007379295
20	0.128391831	-0.001351796	0.007630591
21	0.128391831	-0.001175981	0.007855624
22	0.128391831	-0.001155916	0.008023951
23	0.128391831	-0.001177223	0.008077458
24	0.128391831	-0.001210569	0.008125531
25	0.128391831	-0.001349014	0.008231782
26	0.128391831	-0.001622863	0.008329443
27	0.128391831	-0.002024723	0.008384329
28	0.128391831	-0.002542842	0.008377287
29	0.128391831	-0.003164851	0.008290629
30	0.128391831	-0.003876828	0.008109447
31	0.128391831	-0.004665009	0.007825951
32	0.128391831	-0.005519699	0.007443559
33	0.128391831	-0.006438984	0.006978382
34	0.128391831	-0.007423527	0.006446800
35	0.128391831	-0.008468428	0.005853128
36	0.128391831	-0.009568343	0.005201320
37	0.128391831	-0.010717772	0.004495597
38	0.128391831	-0.011911254	0.003740743
39	0.128391831	-0.013143172	0.002941740
40	0.128391831	-0.014407793	0.002103808
41	0.128391831	-0.015696789	0.001227889
42	0.128391831	-0.017004890	0.000320895
43	0.128391831	-0.018322071	-0.000618499
44	0.128391831	-0.019636507	-0.001594543
45	0.128391831	-0.020932815	-0.002619676
1	0.131149984	-0.021144805	-0.002420373
2	0.131149984	-0.019621260	-0.001845039
3	0.131149984	-0.018128395	-0.001227943
4	0.131149984	-0.016664933	-0.000589044
5	0.131149984	-0.015233545	0.000059324
6	0.131149984	-0.013838224	0.000707572
7	0.131149984	-0.012487559	0.001354965
8	0.131149984	-0.011186479	0.001994416
9	0.131149984	-0.009942276	0.002623635
10	0.131149984	-0.008761919	0.003240202
11	0.131149984	-0.007652110	0.003841705
12	0.131149984	-0.006619138	0.004425528
13	0.131149984	-0.005668805	0.004988766
14	0.131149984	-0.004806195	0.005527910
15	0.131149984	-0.004030361	0.006030895
16	0.131149984	-0.003336794	0.006481804
17	0.131149984	-0.002726325	0.006874161
18	0.131149984	-0.002204487	0.007209712
19	0.131149984	-0.001780478	0.007496588
20	0.131149984	-0.001467512	0.007746731
21	0.131149984	-0.001290121	0.007971297
22	0.131149984	-0.001269070	0.008139872
23	0.131149984	-0.001290097	0.008193622
24	0.131149984	-0.001323213	0.008242007
25	0.131149984	-0.001461286	0.008349359
26	0.131149984	-0.001735125	0.008448907
27	0.131149984	-0.002137524	0.008506289
28	0.131149984	-0.002656798	0.008502202
29	0.131149984	-0.003280628	0.008418815
30	0.131149984	-0.003995121	0.008241102
31	0.131149984	-0.004786513	0.007961200
32	0.131149984	-0.005645081	0.007582532
33	0.131149984	-0.006568846	0.007121289
34	0.131149984	-0.007558370	0.006593855
35	0.131149984	-0.008608708	0.006004508
36	0.131149984	-0.009714490	0.005357194
37	0.131149984	-0.010870176	0.004656106
38	0.131149984	-0.012070271	0.003906011
39	0.131149984	-0.013309117	0.003111874
40	0.131149984	-0.014580944	0.002278894
41	0.131149984	-0.015877388	0.001407956
42	0.131149984	-0.017193136	0.000505963
43	0.131149984	-0.018518135	-0.000428490
44	0.131149984	-0.019840536	-0.001399762
45	0.131149984	-0.021144805	-0.002420373
1	0.133815776	-0.021392289	-0.002289149
2	0.133815776	-0.019857924	-0.001716493
3	0.133815776	-0.018354187	-0.001101820
4	0.133815776	-0.016879891	-0.000465185
5	0.133815776	-0.015437774	0.000181029
6	0.133815776	-0.014031902	0.000827210
7	0.133815776	-0.012670913	0.001472659
8	0.133815776	-0.011359796	0.002110269
9	0.133815776	-0.010105892	0.002737774
10	0.133815776	-0.008916221	0.003352772
11	0.133815776	-0.007797533	0.003952868
12	0.133815776	-0.006756164	0.004535466
13	0.133815776	-0.005797962	0.005097675
14	0.133815776	-0.004928057	0.005635997
15	0.133815776	-0.004145577	0.006138336
16	0.133815776	-0.003446069	0.006588688
17	0.133815776	-0.002830395	0.006980534
18	0.133815776	-0.002304102	0.007315639
19	0.133815776	-0.001876383	0.007602197
20	0.133815776	-0.001560444	0.007852249
21	0.133815776	-0.001380828	0.008077127
22	0.133815776	-0.001358642	0.008246522
23	0.133815776	-0.001379513	0.008300682
24	0.133815776	-0.001412601	0.008349486
25	0.133815776	-0.001551055	0.008457949
26	0.133815776	-0.001826106	0.008558974
27	0.133815776	-0.002230584	0.008618035
28	0.133815776	-0.002752804	0.008615715
29	0.133815776	-0.003380451	0.008534073
30	0.133815776	-0.004099634	0.008357996
31	0.133815776	-0.004896575	0.008079574
32	0.133815776	-0.005761519	0.007702240
33	0.133815776	-0.006692425	0.007242260
34	0.133815776	-0.007689768	0.006716047
35	0.133815776	-0.008748552	0.006127868
36	0.133815776	-0.009863364	0.005481674
37	0.133815776	-0.011028612	0.004781647
38	0.133815776	-0.012238750	0.004032557
39	0.133815776	-0.013488062	0.003239367
40	0.133815776	-0.014770724	0.002407279
41	0.133815776	-0.016078322	0.001537148
42	0.133815776	-0.017405481	0.000635890
43	0.133815776	-0.018742101	-0.000297946
44	0.133815776	-0.020076288	-0.001268787
45	0.133815776	-0.021392289	-0.002289149
1	0.136360000	-0.021611662	-0.002307824
2	0.136360000	-0.020066788	-0.001735015
3	0.136360000	-0.018552356	-0.001120325
4	0.136360000	-0.017067335	-0.000483734
5	0.136360000	-0.015614572	0.000162405
6	0.136360000	-0.014198231	0.000808520
7	0.136360000	-0.012826993	0.001453916
8	0.136360000	-0.011505924	0.002091508
9	0.136360000	-0.010242415	0.002719035
10	0.136360000	-0.009043536	0.003334104
11	0.136360000	-0.007916079	0.003934323
12	0.136360000	-0.006866425	0.004517099
13	0.136360000	-0.005900464	0.005079545
14	0.136360000	-0.005023350	0.005618139
15	0.136360000	-0.004234222	0.006120675
16	0.136360000	-0.003528735	0.006571162
17	0.136360000	-0.002907829	0.006963119
18	0.136360000	-0.002377076	0.007298342
19	0.136360000	-0.001945670	0.007585066
20	0.136360000	-0.001626783	0.007835379
21	0.136360000	-0.001444901	0.008060722
22	0.136360000	-0.001421558	0.008231007
23	0.136360000	-0.001442343	0.008285578
24	0.136360000	-0.001475512	0.008334758
25	0.136360000	-0.001614701	0.008444001
26	0.136360000	-0.001891378	0.008545759
27	0.136360000	-0.002298270	0.008605462
28	0.136360000	-0.002823663	0.008603706
29	0.136360000	-0.003455249	0.008522553
30	0.136360000	-0.004179161	0.008346896
31	0.136360000	-0.004981641	0.008068800
32	0.136360000	-0.005852905	0.007691641
33	0.136360000	-0.006790812	0.007231619
34	0.136360000	-0.007795785	0.006705218
35	0.136360000	-0.008862805	0.006116744
36	0.136360000	-0.009986418	0.005470156
37	0.136360000	-0.011160981	0.004769632
38	0.136360000	-0.012380890	0.004019937
39	0.136360000	-0.013640379	0.003226040
40	0.136360000	-0.014933567	0.002393149
41	0.136360000	-0.016252011	0.001522140
42	0.136360000	-0.017590270	0.000619937
43	0.136360000	-0.018938229	-0.000314879
44	0.136360000	-0.020283995	-0.001286697
45	0.136360000	-0.021611662	-0.002307824
1	0.138754782	-0.021691467	-0.002473624
2	0.138754782	-0.020145274	-0.001902803
3	0.138754782	-0.018629250	-0.001290416
4	0.138754782	-0.017142493	-0.000656279
5	0.138754782	-0.015687918	-0.000012667
6	0.138754782	-0.014269747	0.000630928
7	0.138754782	-0.012896660	0.001273815
8	0.138754782	-0.011573761	0.001908963
9	0.138754782	-0.010308444	0.002534117
10	0.138754782	-0.009107784	0.003146896
11	0.138754782	-0.007978575	0.003744908
12	0.138754782	-0.006927195	0.004325563
13	0.138754782	-0.005959540	0.004885987
14	0.138754782	-0.005080728	0.005422601
15	0.138754782	-0.004289798	0.005923000
16	0.138754782	-0.003582600	0.006371421
17	0.138754782	-0.002960218	0.006761587
18	0.138754782	-0.002428252	0.007095358
19	0.138754782	-0.001995866	0.007380979
20	0.138754782	-0.001676140	0.007630484
21	0.138754782	-0.001493388	0.007855286
22	0.138754782	-0.001469380	0.008025534
23	0.138754782	-0.001490070	0.008080164
24	0.138754782	-0.001523217	0.008129376
25	0.138754782	-0.001662501	0.008238560
26	0.138754782	-0.001939330	0.008340122
27	0.138754782	-0.002346348	0.008399701
28	0.138754782	-0.002871877	0.008398095
29	0.138754782	-0.003503706	0.008317545
30	0.138754782	-0.004228096	0.008143056
31	0.138754782	-0.005031388	0.007866651
32	0.138754782	-0.005903771	0.007491488
33	0.138754782	-0.006842921	0.007033413
34	0.138754782	-0.007849273	0.006509035
35	0.138754782	-0.008917856	0.005922770
36	0.138754782	-0.010043208	0.005278559
37	0.138754782	-0.011219671	0.004580559
38	0.138754782	-0.012441615	0.003833498
39	0.138754782	-0.013703260	0.003042329
40	0.138754782	-0.014998706	0.002212241
41	0.138754782	-0.016319530	0.001344132
42	0.138754782	-0.017660270	0.000444906
43	0.138754782	-0.019010847	-0.000486815
44	0.138754782	-0.020359426	-0.001455354
45	0.138754782	-0.021691467	-0.002473624
1	0.140973883	-0.021526151	-0.002696721
2	0.140973883	-0.019997941	-0.002135391
3	0.140973883	-0.018499489	-0.001532925
4	0.140973883	-0.017029943	-0.000908871
5	0.140973883	-0.015592185	-0.000275379
6	0.140973883	-0.014190400	0.000358179
7	0.140973883	-0.012833169	0.000991155
8	0.140973883	-0.011525543	0.001616598
9	0.140973883	-0.010274823	0.002232287
10	0.140973883	-0.009087999	0.002835866
11	0.140973883	-0.007971772	0.003424963
12	0.140973883	-0.006932436	0.003997006
13	0.140973883	-0.005975810	0.004549153
14	0.140973883	-0.005106872	0.005077746
15	0.140973883	-0.004324442	0.005570145
16	0.140973883	-0.003624675	0.006011135
17	0.140973883	-0.003008863	0.006394843
18	0.140973883	-0.002482603	0.006723238
19	0.140973883	-0.002054943	0.007004500
20	0.140973883	-0.001738741	0.007250447
21	0.140973883	-0.001557913	0.007472241
22	0.140973883	-0.001534050	0.007640375
23	0.140973883	-0.001554490	0.007694334
24	0.140973883	-0.001587251	0.007742912
25	0.140973883	-0.001724894	0.007850609
26	0.140973883	-0.001998342	0.007950715
27	0.140973883	-0.002400294	0.008009490
28	0.140973883	-0.002919272	0.008008190
29	0.140973883	-0.003543328	0.007929481
30	0.140973883	-0.004259039	0.007758646
31	0.140973883	-0.005052991	0.007487678
32	0.140973883	-0.005915407	0.007119337
33	0.140973883	-0.006843703	0.006668757
34	0.140973883	-0.007838383	0.006152621
35	0.140973883	-0.008894635	0.005575499
36	0.140973883	-0.010007054	0.004941264
37	0.140973883	-0.011170044	0.004254009
38	0.140973883	-0.012378017	0.003518357
39	0.140973883	-0.013625259	0.002739196
40	0.140973883	-0.014905928	0.001921631
41	0.140973883	-0.016211706	0.001066536
42	0.140973883	-0.017537201	0.000180740
43	0.140973883	-0.018872462	-0.000737137
44	0.140973883	-0.020205815	-0.001691383
45	0.140973883	-0.021526151	-0.002696721
1	0.142992991	-0.021054763	-0.002882810
2	0.142992991	-0.019572236	-0.002340728
3	0.142992991	-0.018118409	-0.001758891
4	0.142992991	-0.016692577	-0.001156068
5	0.142992991	-0.015297569	-0.000544006
6	0.142992991	-0.013937474	0.000068251
7	0.142992991	-0.012620618	0.000680090
8	0.142992991	-0.011351919	0.001284803
9	0.142992991	-0.010138459	0.001880229
10	0.142992991	-0.008987011	0.002464081
11	0.142992991	-0.007904064	0.003034037
12	0.142992991	-0.006895710	0.003587579
13	0.142992991	-0.005967584	0.004121937
14	0.142992991	-0.005124403	0.004633385
15	0.142992991	-0.004364713	0.005109153
16	0.142992991	-0.003685081	0.005534930
17	0.142992991	-0.003087027	0.005905427
18	0.142992991	-0.002576066	0.006222717
19	0.142992991	-0.002160988	0.006494791
20	0.142992991	-0.001854226	0.006733035
21	0.142992991	-0.001678964	0.006948129
22	0.142992991	-0.001656176	0.007111186
23	0.142992991	-0.001676135	0.007163449
24	0.142992991	-0.001708014	0.007210455
25	0.142992991	-0.001841642	0.007314592
26	0.142992991	-0.002106811	0.007411354
27	0.142992991	-0.002496451	0.007468260
28	0.142992991	-0.002999518	0.007467387
29	0.142992991	-0.003604576	0.007392159
30	0.142992991	-0.004298772	0.007228377
31	0.142992991	-0.005069169	0.006968055
32	0.142992991	-0.005906139	0.006613374
33	0.142992991	-0.006806798	0.006178335
34	0.142992991	-0.007771738	0.005679506
35	0.142992991	-0.008796440	0.005121628
36	0.142992991	-0.009875647	0.004508431
37	0.142992991	-0.011003927	0.003843874
38	0.142992991	-0.012175830	0.003132388
39	0.142992991	-0.013385812	0.002378711
40	0.142992991	-0.014628199	0.001587777
41	0.142992991	-0.015894948	0.000760462
42	0.142992991	-0.017180832	-0.000096611
43	0.142992991	-0.018476238	-0.000984739
44	0.142992991	-0.019769898	-0.001908026
45	0.142992991	-0.021054763	-0.002882810
1	0.144789984	-0.020244177	-0.002966690
2	0.144789984	-0.018840376	-0.002453945
3	0.144789984	-0.017463198	-0.001904448
4	0.144789984	-0.016112304	-0.001335398
5	0.144789984	-0.014790509	-0.000757682
6	0.144789984	-0.013501795	-0.000179674
7	0.144789984	-0.012254022	0.000398002
8	0.144789984	-0.011051928	0.000969133
9	0.144789984	-0.009902211	0.001531659
10	0.144789984	-0.008811287	0.002083404
11	0.144789984	-0.007785285	0.002622138
12	0.144789984	-0.006829960	0.003145449
13	0.144789984	-0.005950643	0.003650695
14	0.144789984	-0.005151652	0.004134104
15	0.144789984	-0.004431263	0.004583016
16	0.144789984	-0.003786562	0.004984393
17	0.144789984	-0.003219279	0.005333677
18	0.144789984	-0.002734748	0.005633032
19	0.144789984	-0.002341321	0.005890098
20	0.144789984	-0.002050762	0.006115598
21	0.144789984	-0.001885079	0.006319482
22	0.144789984	-0.001864199	0.006473964
23	0.144789984	-0.001883353	0.006523358
24	0.144789984	-0.001913721	0.006567733
25	0.144789984	-0.002040498	0.006665990
26	0.144789984	-0.002291648	0.006757318
27	0.144789984	-0.002660538	0.006811173
28	0.144789984	-0.003136810	0.006810839
29	0.144789984	-0.003709789	0.006740851
30	0.144789984	-0.004367475	0.006587803
31	0.144789984	-0.005097668	0.006343851
32	0.144789984	-0.005891061	0.006010481
33	0.144789984	-0.006744481	0.005600177
34	0.144789984	-0.007658593	0.005129049
35	0.144789984	-0.008629302	0.004602000
36	0.144789984	-0.009651610	0.004022526
37	0.144789984	-0.010720368	0.003394378
38	0.144789984	-0.011830384	0.002721703
39	0.144789984	-0.012976408	0.002008994
40	0.144789984	-0.014153060	0.001260915
41	0.144789984	-0.015352807	0.000478439
42	0.144789984	-0.016570683	-0.000332191
43	0.144789984	-0.017797706	-0.001172007
44	0.144789984	-0.019023370	-0.002044619
45	0.144789984	-0.020244177	-0.002966690
1	0.146345173	-0.019130465	-0.002925113
2	0.146345173	-0.017834641	-0.002451869
3	0.146345173	-0.016562952	-0.001945448
4	0.146345173	-0.015315387	-0.001421180
5	0.146345173	-0.014094631	-0.000888964
6	0.146345173	-0.012904434	-0.000356400
7	0.146345173	-0.011752039	0.000175916
8	0.146345173	-0.010641874	0.000702341
9	0.146345173	-0.009580123	0.001220966
10	0.146345173	-0.008572704	0.001729771
11	0.146345173	-0.007625266	0.002226671
12	0.146345173	-0.006743112	0.002709414
13	0.146345173	-0.005931153	0.003175543
14	0.146345173	-0.005193209	0.003621296
15	0.146345173	-0.004527361	0.004034460
16	0.146345173	-0.003931256	0.004403526
17	0.146345173	-0.003406768	0.004724718
18	0.146345173	-0.002958930	0.005000234
19	0.146345173	-0.002595486	0.005237194
20	0.146345173	-0.002327305	0.005445444
21	0.146345173	-0.002174806	0.005634010
22	0.146345173	-0.002156409	0.005776723
23	0.146345173	-0.002174406	0.005822194
24	0.146345173	-0.002202655	0.005862998
25	0.146345173	-0.002319958	0.005953310
26	0.146345173	-0.002551871	0.006037279
27	0.146345173	-0.002892339	0.006086916
28	0.146345173	-0.003331902	0.006087024
29	0.146345173	-0.003860852	0.006023543
30	0.146345173	-0.004468267	0.005884129
31	0.146345173	-0.005142927	0.005661258
32	0.146345173	-0.005876054	0.005355733
33	0.146345173	-0.006664288	0.004978322
34	0.146345173	-0.007508310	0.004544245
35	0.146345173	-0.008404555	0.004058497
36	0.146345173	-0.009348383	0.003524271
37	0.146345173	-0.010335039	0.002945032
38	0.146345173	-0.011359703	0.002324570
39	0.146345173	-0.012417529	0.001667035
40	0.146345173	-0.013503549	0.000976740
41	0.146345173	-0.014610874	0.000254688
42	0.146345173	-0.015734918	-0.000493361
43	0.146345173	-0.016867481	-0.001268209
44	0.146345173	-0.017998987	-0.002072987
45	0.146345173	-0.019130465	-0.002925113
1	0.147641520	-0.017862145	-0.002784209
2	0.147641520	-0.016687787	-0.002359782
3	0.147641520	-0.015536096	-0.001903759
4	0.147641520	-0.014406826	-0.001430449
5	0.147641520	-0.013302114	-0.000949369
6	0.147641520	-0.012225151	-0.000467774
7	0.147641520	-0.011182571	0.000013947
8	0.147641520	-0.010178236	0.000490416
9	0.147641520	-0.009217739	0.000959893
10	0.147641520	-0.008306433	0.001420547
11	0.147641520	-0.007449418	0.001870461
12	0.147641520	-0.006651483	0.002307579
13	0.147641520	-0.005917064	0.002729660
14	0.147641520	-0.005249445	0.003133017
15	0.147641520	-0.004646629	0.003506201
16	0.147641520	-0.004106779	0.003839265
17	0.147641520	-0.003631813	0.004129154
18	0.147641520	-0.003226384	0.004378023
19	0.147641520	-0.002897529	0.004592365
20	0.147641520	-0.002655096	0.004781035
21	0.147641520	-0.002517666	0.004952051
22	0.147641520	-0.002501890	0.005081263
23	0.147641520	-0.002518456	0.005122291
24	0.147641520	-0.002544202	0.005159051
25	0.147641520	-0.002650545	0.005240388
26	0.147641520	-0.002860362	0.005316063
27	0.147641520	-0.003168250	0.005360935
28	0.147641520	-0.003565746	0.005361452
29	0.147641520	-0.004044198	0.005305086
30	0.147641520	-0.004593862	0.005180697
31	0.147641520	-0.005204637	0.004981251
32	0.147641520	-0.005868432	0.004706992
33	0.147641520	-0.006581844	0.004367014
34	0.147641520	-0.007345508	0.003975312
35	0.147641520	-0.008156408	0.003536861
36	0.147641520	-0.009010326	0.003054521
37	0.147641520	-0.009902964	0.002531432
38	0.147641520	-0.010829943	0.001970996
39	0.147641520	-0.011786879	0.001376971
40	0.147641520	-0.012769285	0.000753265
41	0.147641520	-0.013770807	0.000100553
42	0.147641520	-0.014787375	-0.000575820
43	0.147641520	-0.015811395	-0.001276925
44	0.147641520	-0.016833941	-0.002006112
45	0.147641520	-0.017862145	-0.002784209
1	0.148664822	-0.016645555	-0.002601906
2	0.148664822	-0.015586833	-0.002228781
3	0.148664822	-0.014550586	-0.001823305
4	0.148664822	-0.013535792	-0.001399826
5	0.148664822	-0.012543708	-0.000968136
6	0.148664822	-0.011576735	-0.000535626
7	0.148664822	-0.010640993	-0.000102333
8	0.148664822	-0.009739621	0.000326285
9	0.148664822	-0.008877634	0.000748655
10	0.148664822	-0.008059840	0.001163124
11	0.148664822	-0.007290807	0.001567949
12	0.148664822	-0.006574829	0.001961264
13	0.148664822	-0.005915880	0.002341038
14	0.148664822	-0.005316760	0.002703721
15	0.148664822	-0.004775496	0.003038764
16	0.148664822	-0.004290648	0.003337594
17	0.148664822	-0.003864099	0.003597723
18	0.148664822	-0.003500095	0.003821203
19	0.148664822	-0.003204980	0.004013886
20	0.148664822	-0.002987611	0.004183670
21	0.148664822	-0.002864739	0.004337620
22	0.148664822	-0.002851287	0.004453710
23	0.148664822	-0.002866341	0.004490484
24	0.148664822	-0.002889601	0.004523356
25	0.148664822	-0.002985233	0.004596067
26	0.148664822	-0.003173569	0.004663771
27	0.148664822	-0.003449822	0.004704070
28	0.148664822	-0.003806481	0.004704966
29	0.148664822	-0.004235892	0.004655367
30	0.148664822	-0.004729432	0.004545310
31	0.148664822	-0.005278090	0.004368315
32	0.148664822	-0.005874503	0.004124236
33	0.148664822	-0.006515349	0.003820740
34	0.148664822	-0.007201175	0.003470503
35	0.148664822	-0.007929445	0.003078373
36	0.148664822	-0.008696361	0.002646894
37	0.148664822	-0.009498065	0.002178884
38	0.148664822	-0.010330613	0.001677375
39	0.148664822	-0.011190064	0.001145731
40	0.148664822	-0.012072389	0.000587460
41	0.148664822	-0.012971583	0.000002592
42	0.148664822	-0.013884129	-0.000603817
43	0.148664822	-0.014802772	-0.001233566
44	0.148664822	-0.015718860	-0.001890880
45	0.148664822	-0.016645555	-0.002601906
1	0.149403867	-0.015654234	-0.002433088
2	0.149403867	-0.014690187	-0.002103084
3	0.149403867	-0.013748734	-0.001739598
4	0.149403867	-0.012828066	-0.001357285
5	0.149403867	-0.011928655	-0.000966278
6	0.149403867	-0.011052203	-0.000574162
7	0.149403867	-0.010204423	-0.000180662
8	0.149403867	-0.009387822	0.000208638
9	0.149403867	-0.008606944	0.000592301
10	0.149403867	-0.007866146	0.000968822
11	0.149403867	-0.007169560	0.001336601
12	0.149403867	-0.006521072	0.001693930
13	0.149403867	-0.005924278	0.002038954
14	0.149403867	-0.005381605	0.002368272
15	0.149403867	-0.004891147	0.002672165
16	0.149403867	-0.004451737	0.002943094
17	0.149403867	-0.004065183	0.003178971
18	0.149403867	-0.003735381	0.003381729
19	0.149403867	-0.003468094	0.003556678
20	0.149403867	-0.003271366	0.003710934
21	0.149403867	-0.003160424	0.003850798
22	0.149403867	-0.003148745	0.003956073
23	0.149403867	-0.003162557	0.003989314
24	0.149403867	-0.003183734	0.004019015
25	0.149403867	-0.003270507	0.004084693
26	0.149403867	-0.003441152	0.004145906
27	0.149403867	-0.003691380	0.004182487
28	0.149403867	-0.004014451	0.004183686
29	0.149403867	-0.004403517	0.004139567
30	0.149403867	-0.004850858	0.004041131
31	0.149403867	-0.005348355	0.003882397
32	0.149403867	-0.005889282	0.003662981
33	0.149403867	-0.006470444	0.003389490
34	0.149403867	-0.007092301	0.003073457
35	0.149403867	-0.007752679	0.002719549
36	0.149403867	-0.008448124	0.002330051
37	0.149403867	-0.009175139	0.001907513
38	0.149403867	-0.009930137	0.001454662
39	0.149403867	-0.010709539	0.000974532
40	0.149403867	-0.011509690	0.000470296
41	0.149403867	-0.012324835	-0.000058605
42	0.149403867	-0.013151918	-0.000607347
43	0.149403867	-0.013983915	-0.001178403
44	0.149403867	-0.014812331	-0.001776836
45	0.149403867	-0.015654234	-0.002433088
1	0.150000000	-0.014787675	-0.002275889
2	0.150000000	-0.013907625	-0.001982540
3	0.150000000	-0.013049909	-0.001655402
4	0.150000000	-0.012212162	-0.001309140
5	0.150000000	-0.011394283	-0.000953962
6	0.150000000	-0.010597443	-0.000597467
7	0.150000000	-0.009826967	-0.000239163
8	0.150000000	-0.009084864	0.000115366
9	0.150000000	-0.008375265	0.000464806
10	0.150000000	-0.007702128	0.000807781
11	0.150000000	-0.007069204	0.001142819
12	0.150000000	-0.006480021	0.001468354
13	0.150000000	-0.005937842	0.001782682
14	0.150000000	-0.005444787	0.002082572
15	0.150000000	-0.004999041	0.002359076
16	0.150000000	-0.004599641	0.002605513
17	0.150000000	-0.004248303	0.002820097
18	0.150000000	-0.003948600	0.003004640
19	0.150000000	-0.003705786	0.003163968
20	0.150000000	-0.003527181	0.003304516
21	0.150000000	-0.003426661	0.003431930
22	0.150000000	-0.003416430	0.003527679
23	0.150000000	-0.003429094	0.003557857
24	0.150000000	-0.003448416	0.003584789
25	0.150000000	-0.003527372	0.003644334
26	0.150000000	-0.003682464	0.003699879
27	0.150000000	-0.003909830	0.003733199
28	0.150000000	-0.004203398	0.003734614
29	0.150000000	-0.004557007	0.003695179
30	0.150000000	-0.004963716	0.003606736
31	0.150000000	-0.005416183	0.003463770
32	0.150000000	-0.005908255	0.003265745
33	0.150000000	-0.006436894	0.003018413
34	0.150000000	-0.007002481	0.002732269
35	0.150000000	-0.007603129	0.002411768
36	0.150000000	-0.008235692	0.002058968
37	0.150000000	-0.008896987	0.001676184
38	0.150000000	-0.009583742	0.001265872
39	0.150000000	-0.010292693	0.000830776
40	0.150000000	-0.011020513	0.000373773
41	0.150000000	-0.011761722	-0.000106110
42	0.150000000	-0.012513640	-0.000604302
43	0.150000000	-0.013269525	-0.001123719
44	0.150000000	-0.014021140	-0.001669931
45	0.150000000	-0.014787675	-0.002275889
