######## Panel parameters ########
type=propeller
n_blades=5

rotation_center=[0, 0, 0]
rotation_axis=[0, 0, 1]
n_span_all= 41
n_points=45
######## End of parameters ########
1	0.026000000	-0.019473203	-0.014730766
2	0.026000000	-0.017366736	-0.013358220
3	0.026000000	-0.015234439	-0.012084537
4	0.026000000	-0.013071465	-0.010916370
5	0.026000000	-0.010917893	-0.009811560
6	0.026000000	-0.008801413	-0.008744599
7	0.026000000	-0.006745721	-0.007695576
8	0.026000000	-0.004773634	-0.006646487
9	0.026000000	-0.002910811	-0.005576649
10	0.026000000	-0.001190044	-0.004459477
11	0.026000000	0.000366224	-0.003293379
12	0.026000000	0.001745665	-0.002094102
13	0.026000000	0.002933627	-0.000875663
14	0.026000000	0.003924770	0.000337927
15	0.026000000	0.004717789	0.001520816
16	0.026000000	0.005313356	0.002647100
17	0.026000000	0.005716902	0.003688971
18	0.026000000	0.005906391	0.004624290
19	0.026000000	0.005880596	0.005410565
20	0.026000000	0.005709948	0.006002940
21	0.026000000	0.005506128	0.006396224
22	0.026000000	0.005350250	0.006612865
23	0.026000000	0.005293023	0.006681237
24	0.026000000	0.005232671	0.006748934
25	0.026000000	0.005036975	0.006937072
26	0.026000000	0.004672817	0.007202847
27	0.026000000	0.004114485	0.007489657
28	0.026000000	0.003344846	0.007710960
29	0.026000000	0.002375958	0.007771137
30	0.026000000	0.001246560	0.007645320
31	0.026000000	-0.000010735	0.007331769
32	0.026000000	-0.001365796	0.006820017
33	0.026000000	-0.002786478	0.006097819
34	0.026000000	-0.004245197	0.005166063
35	0.026000000	-0.005720114	0.004034176
36	0.026000000	-0.007189404	0.002709669
37	0.026000000	-0.008640884	0.001210182
38	0.026000000	-0.010062705	-0.000449007
39	0.026000000	-0.011454714	-0.002244806
40	0.026000000	-0.012828199	-0.004148598
41	0.026000000	-0.014189220	-0.006138734
42	0.026000000	-0.015559679	-0.008184207
43	0.026000000	-0.016939381	-0.010269849
44	0.026000000	-0.018317813	-0.012388149
45	0.026000000	-0.019473203	-0.014730766
1	0.029720000	-0.021039854	-0.013917292
2	0.029720000	-0.018823965	-0.012676245
3	0.029720000	-0.016616732	-0.011488493
4	0.029720000	-0.014397507	-0.010379863
5	0.029720000	-0.012205753	-0.009301881
6	0.029720000	-0.010068363	-0.008228486
7	0.029720000	-0.008002595	-0.007153120
8	0.029720000	-0.006021024	-0.006078639
9	0.029720000	-0.004137485	-0.005005443
10	0.029720000	-0.002387142	-0.003899576
11	0.029720000	-0.000783714	-0.002767860
12	0.029720000	0.000668008	-0.001629569
13	0.029720000	0.001963399	-0.000501844
14	0.029720000	0.003089808	0.000608179
15	0.029720000	0.004039095	0.001687418
16	0.029720000	0.004805287	0.002720058
17	0.029720000	0.005382120	0.003689124
18	0.029720000	0.005758081	0.004576351
19	0.029720000	0.005918867	0.005354186
20	0.029720000	0.005891078	0.005975265
21	0.029720000	0.005768748	0.006404872
22	0.029720000	0.005638561	0.006640222
23	0.029720000	0.005585697	0.006713015
24	0.029720000	0.005527068	0.006784375
25	0.029720000	0.005326026	0.006973805
26	0.029720000	0.004933757	0.007211625
27	0.029720000	0.004336674	0.007439848
28	0.029720000	0.003535510	0.007596300
29	0.029720000	0.002546667	0.007634256
30	0.029720000	0.001393513	0.007530841
31	0.029720000	0.000099641	0.007269619
32	0.029720000	-0.001309705	0.006833117
33	0.029720000	-0.002806031	0.006203893
34	0.029720000	-0.004357006	0.005366015
35	0.029720000	-0.005937201	0.004322514
36	0.029720000	-0.007528196	0.003086585
37	0.029720000	-0.009104866	0.001661371
38	0.029720000	-0.010643599	0.000053854
39	0.029720000	-0.012139659	-0.001711510
40	0.029720000	-0.013627256	-0.003583299
41	0.029720000	-0.015108529	-0.005541734
42	0.029720000	-0.016607308	-0.007552146
43	0.029720000	-0.018136249	-0.009589035
44	0.029720000	-0.019681147	-0.011647706
45	0.029720000	-0.021039854	-0.013917292
1	0.033440000	-0.022556410	-0.013360147
2	0.033440000	-0.020247804	-0.012174763
3	0.033440000	-0.017965253	-0.011009132
4	0.033440000	-0.015683445	-0.009901251
5	0.033440000	-0.013437128	-0.008809812
6	0.033440000	-0.011247726	-0.007720136
7	0.033440000	-0.009130238	-0.006630750
8	0.033440000	-0.007098916	-0.005541725
9	0.033440000	-0.005168819	-0.004451722
10	0.033440000	-0.003362628	-0.003347309
11	0.033440000	-0.001691828	-0.002235646
12	0.033440000	-0.000160574	-0.001133996
13	0.033440000	0.001228098	-0.000058803
14	0.033440000	0.002467144	0.000980449
15	0.033440000	0.003547014	0.001977590
16	0.033440000	0.004456355	0.002927420
17	0.033440000	0.005182226	0.003823631
18	0.033440000	0.005709429	0.004656320
19	0.033440000	0.006020566	0.005406883
20	0.033440000	0.006116066	0.006035090
21	0.033440000	0.006055875	0.006487147
22	0.033440000	0.005946191	0.006739123
23	0.033440000	0.005896257	0.006816359
24	0.033440000	0.005838375	0.006891236
25	0.033440000	0.005631447	0.007084143
26	0.033440000	0.005221789	0.007314451
27	0.033440000	0.004598901	0.007517157
28	0.033440000	0.003771220	0.007640362
29	0.033440000	0.002756905	0.007653663
30	0.033440000	0.001576274	0.007533770
31	0.033440000	0.000250822	0.007262492
32	0.033440000	-0.001196910	0.006825535
33	0.033440000	-0.002742879	0.006210515
34	0.033440000	-0.004361470	0.005407343
35	0.033440000	-0.006028781	0.004413892
36	0.033440000	-0.007721674	0.003231687
37	0.033440000	-0.009412601	0.001858542
38	0.033440000	-0.011072935	0.000295051
39	0.033440000	-0.012693554	-0.001436396
40	0.033440000	-0.014301484	-0.003285506
41	0.033440000	-0.015923505	-0.005209729
42	0.033440000	-0.017582853	-0.007172251
43	0.033440000	-0.019283094	-0.009152806
44	0.033440000	-0.021003477	-0.011152391
45	0.033440000	-0.022556410	-0.013360147
1	0.037160000	-0.024079418	-0.013022850
2	0.037160000	-0.021671014	-0.011857410
3	0.037160000	-0.019306261	-0.010674100
4	0.037160000	-0.016951987	-0.009531185
5	0.037160000	-0.014637578	-0.008398589
6	0.037160000	-0.012378311	-0.007275096
7	0.037160000	-0.010186471	-0.006165165
8	0.037160000	-0.008080209	-0.005061354
9	0.037160000	-0.006084800	-0.003944047
10	0.037160000	-0.004207055	-0.002828061
11	0.037160000	-0.002455194	-0.001724325
12	0.037160000	-0.000837089	-0.000642813
13	0.037160000	0.000642472	0.000403307
14	0.037160000	0.001981601	0.001398741
15	0.037160000	0.003172058	0.002338327
16	0.037160000	0.004200858	0.003222909
17	0.037160000	0.005052121	0.004054512
18	0.037160000	0.005707964	0.004831869
19	0.037160000	0.006149529	0.005544861
20	0.037160000	0.006361906	0.006165063
21	0.037160000	0.006360228	0.006634506
22	0.037160000	0.006270455	0.006903304
23	0.037160000	0.006222732	0.006985291
24	0.037160000	0.006164722	0.007063599
25	0.037160000	0.005950142	0.007260476
26	0.037160000	0.005524074	0.007489892
27	0.037160000	0.004876527	0.007678863
28	0.037160000	0.004020352	0.007777380
29	0.037160000	0.002975875	0.007755076
30	0.037160000	0.001765074	0.007588620
31	0.037160000	0.000410110	0.007263467
32	0.037160000	-0.001068586	0.006774086
33	0.037160000	-0.002653304	0.006121654
34	0.037160000	-0.004328372	0.005310361
35	0.037160000	-0.006071648	0.004332167
36	0.037160000	-0.007854957	0.003173501
37	0.037160000	-0.009653105	0.001831894
38	0.037160000	-0.011439669	0.000306899
39	0.037160000	-0.013201285	-0.001384942
40	0.037160000	-0.014936750	-0.003217232
41	0.037160000	-0.016716062	-0.005101932
42	0.037160000	-0.018552906	-0.007007672
43	0.037160000	-0.020435052	-0.008927192
44	0.037160000	-0.022335623	-0.010868255
45	0.037160000	-0.024079418	-0.013022850
1	0.040880000	-0.025596515	-0.012793615
2	0.040880000	-0.023070416	-0.011654139
3	0.040880000	-0.020611986	-0.010448631
4	0.040880000	-0.018172387	-0.009268955
5	0.040880000	-0.015776045	-0.008095886
6	0.040880000	-0.013435830	-0.006934196
7	0.040880000	-0.011162350	-0.005792631
8	0.040880000	-0.008972124	-0.004667489
9	0.040880000	-0.006899169	-0.003522813
10	0.040880000	-0.004941833	-0.002389326
11	0.040880000	-0.003105316	-0.001282946
12	0.040880000	-0.001400995	-0.000207419
13	0.040880000	0.000164355	0.000827109
14	0.040880000	0.001590513	0.001802461
15	0.040880000	0.002871307	0.002711177
16	0.040880000	0.003995066	0.003554514
17	0.040880000	0.004946461	0.004337861
18	0.040880000	0.005707826	0.005065803
19	0.040880000	0.006260748	0.005735925
20	0.040880000	0.006583423	0.006333486
21	0.040880000	0.006651006	0.006813869
22	0.040880000	0.006585700	0.007099508
23	0.040880000	0.006539804	0.007186316
24	0.040880000	0.006481034	0.007267815
25	0.040880000	0.006256564	0.007467062
26	0.040880000	0.005809745	0.007689003
27	0.040880000	0.005134493	0.007856135
28	0.040880000	0.004248026	0.007920330
29	0.040880000	0.003172888	0.007850883
30	0.040880000	0.001932856	0.007625070
31	0.040880000	0.000550586	0.007232037
32	0.040880000	-0.000955771	0.006674033
33	0.040880000	-0.002574719	0.005964724
34	0.040880000	-0.004299538	0.005122258
35	0.040880000	-0.006108071	0.004132609
36	0.040880000	-0.007971536	0.002975855
37	0.040880000	-0.009869414	0.001652306
38	0.040880000	-0.011780888	0.000164010
39	0.040880000	-0.013689981	-0.001479189
40	0.040880000	-0.015569011	-0.003280048
41	0.040880000	-0.017517407	-0.005109948
42	0.040880000	-0.019534079	-0.006949525
43	0.040880000	-0.021595250	-0.008803667
44	0.040880000	-0.023671556	-0.010684467
45	0.040880000	-0.025596515	-0.012793615
1	0.044600000	-0.027014363	-0.012595095
2	0.044600000	-0.024366615	-0.011496061
3	0.044600000	-0.021813530	-0.010275863
4	0.044600000	-0.019286693	-0.009068456
5	0.044600000	-0.016806003	-0.007864760
6	0.044600000	-0.014383688	-0.006671947
7	0.044600000	-0.012030128	-0.005500266
8	0.044600000	-0.009759796	-0.004350896
9	0.044600000	-0.007607374	-0.003186451
10	0.044600000	-0.005570919	-0.002038923
11	0.044600000	-0.003654763	-0.000926299
12	0.044600000	-0.001872146	0.000150746
13	0.044600000	-0.000231502	0.001184348
14	0.044600000	0.001265914	0.002156998
15	0.044600000	0.002616389	0.003057115
16	0.044600000	0.003811919	0.003881229
17	0.044600000	0.004839803	0.004633421
18	0.044600000	0.005684294	0.005320662
19	0.044600000	0.006328212	0.005946836
20	0.044600000	0.006747793	0.006510050
21	0.044600000	0.006896428	0.006988538
22	0.044600000	0.006861008	0.007288368
23	0.044600000	0.006817051	0.007379781
24	0.044600000	0.006757346	0.007464226
25	0.044600000	0.006522169	0.007664342
26	0.044600000	0.006053619	0.007874554
27	0.044600000	0.005351729	0.008017082
28	0.044600000	0.004437106	0.008046687
29	0.044600000	0.003333770	0.007932384
30	0.044600000	0.002066790	0.007651683
31	0.044600000	0.000659164	0.007195889
32	0.044600000	-0.000872803	0.006572510
33	0.044600000	-0.002522734	0.005804659
34	0.044600000	-0.004290030	0.004919912
35	0.044600000	-0.006152647	0.003901898
36	0.044600000	-0.008085784	0.002734534
37	0.044600000	-0.010073301	0.001421000
38	0.044600000	-0.012099312	-0.000033938
39	0.044600000	-0.014146801	-0.001625671
40	0.044600000	-0.016181751	-0.003369082
41	0.044600000	-0.018295435	-0.005131437
42	0.044600000	-0.020475617	-0.006904850
43	0.044600000	-0.022695871	-0.008698729
44	0.044600000	-0.024928459	-0.010524853
45	0.044600000	-0.027014363	-0.012595095
1	0.048320000	-0.028222110	-0.012339518
2	0.048320000	-0.025465602	-0.011294851
3	0.048320000	-0.022827937	-0.010075715
4	0.048320000	-0.020222717	-0.008857945
5	0.048320000	-0.017666037	-0.007641214
6	0.048320000	-0.015170240	-0.006433439
7	0.048320000	-0.012746520	-0.005244174
8	0.048320000	-0.010408696	-0.004076721
9	0.048320000	-0.008185104	-0.002905772
10	0.048320000	-0.006078489	-0.001755156
11	0.048320000	-0.004094985	-0.000640309
12	0.048320000	-0.002247926	0.000437899
13	0.048320000	-0.000546906	0.001473028
14	0.048320000	0.001004216	0.002450811
15	0.048320000	0.002404056	0.003355251
16	0.048320000	0.003649872	0.004174622
17	0.048320000	0.004732630	0.004908470
18	0.048320000	0.005638878	0.005563510
19	0.048320000	0.006352255	0.006148500
20	0.048320000	0.006848694	0.006672282
21	0.048320000	0.007077245	0.007133725
22	0.048320000	0.007073406	0.007442399
23	0.048320000	0.007031624	0.007537757
24	0.048320000	0.006971243	0.007624761
25	0.048320000	0.006726670	0.007824966
26	0.048320000	0.006239614	0.008023581
27	0.048320000	0.005516239	0.008146260
28	0.048320000	0.004578826	0.008151329
29	0.048320000	0.003451740	0.008007282
30	0.048320000	0.002160707	0.007690689
31	0.048320000	0.000729280	0.007192664
32	0.048320000	-0.000826882	0.006522819
33	0.048320000	-0.002504424	0.005709826
34	0.048320000	-0.004305330	0.004785003
35	0.048320000	-0.006210538	0.003737079
36	0.048320000	-0.008200970	0.002558314
37	0.048320000	-0.010263509	0.001253913
38	0.048320000	-0.012385280	-0.000169631
39	0.048320000	-0.014550600	-0.001708821
40	0.048320000	-0.016733239	-0.003373271
41	0.048320000	-0.018988383	-0.005064734
42	0.048320000	-0.021300616	-0.006779612
43	0.048320000	-0.023647267	-0.008523756
44	0.048320000	-0.026004770	-0.010304469
45	0.048320000	-0.028222110	-0.012339518
1	0.052040000	-0.029146039	-0.011959428
2	0.052040000	-0.026306314	-0.010976595
3	0.052040000	-0.023601701	-0.009777495
4	0.052040000	-0.020933892	-0.008570962
5	0.052040000	-0.018316302	-0.007363149
6	0.052040000	-0.015761772	-0.006161664
7	0.052040000	-0.013282734	-0.004974228
8	0.052040000	-0.010893236	-0.003804327
9	0.052040000	-0.008613212	-0.002643096
10	0.052040000	-0.006451043	-0.001503926
11	0.052040000	-0.004416134	-0.000396735
12	0.052040000	-0.002520983	0.000675663
13	0.052040000	-0.000775876	0.001707516
14	0.052040000	0.000812394	0.002688585
15	0.052040000	0.002244127	0.003599303
16	0.052040000	0.003522136	0.004418781
17	0.052040000	0.004641130	0.005140895
18	0.052040000	0.005589549	0.005770808
19	0.052040000	0.006351039	0.006320960
20	0.052040000	0.006901376	0.006808261
21	0.052040000	0.007192722	0.007244822
22	0.052040000	0.007215888	0.007556875
23	0.052040000	0.007176301	0.007655154
24	0.052040000	0.007115772	0.007744185
25	0.052040000	0.006865017	0.007944891
26	0.052040000	0.006365689	0.008136598
27	0.052040000	0.005628245	0.008250123
28	0.052040000	0.004674981	0.008247065
29	0.052040000	0.003529612	0.008095105
30	0.052040000	0.002217942	0.007768758
31	0.052040000	0.000764353	0.007256879
32	0.052040000	-0.000814785	0.006568363
33	0.052040000	-0.002516716	0.005733801
34	0.052040000	-0.004343358	0.004784577
35	0.052040000	-0.006280809	0.003719248
36	0.052040000	-0.008314983	0.002538035
37	0.052040000	-0.010434503	0.001247489
38	0.052040000	-0.012627991	-0.000144906
39	0.052040000	-0.014882637	-0.001632976
40	0.052040000	-0.017181929	-0.003215168
41	0.052040000	-0.019541504	-0.004842712
42	0.052040000	-0.021947748	-0.006509588
43	0.052040000	-0.024383538	-0.008214250
44	0.052040000	-0.026829924	-0.009957849
45	0.052040000	-0.029146039	-0.011959428
1	0.055760000	-0.029792164	-0.011437320
2	0.055760000	-0.026899174	-0.010514226
3	0.055760000	-0.024147230	-0.009351341
4	0.055760000	-0.021434213	-0.008175922
5	0.055760000	-0.018772242	-0.006997590
6	0.055760000	-0.016174828	-0.005822919
7	0.055760000	-0.013655462	-0.004657802
8	0.055760000	-0.011228193	-0.003506114
9	0.055760000	-0.008907470	-0.002370114
10	0.055760000	-0.006705494	-0.001255752
11	0.055760000	-0.004634201	-0.000168395
12	0.055760000	-0.002705436	0.000887560
13	0.055760000	-0.000929854	0.001906631
14	0.055760000	0.000683538	0.002881707
15	0.055760000	0.002135954	0.003790863
16	0.055760000	0.003434192	0.004606278
17	0.055760000	0.004575624	0.005317425
18	0.055760000	0.005549831	0.005928026
19	0.055760000	0.006340143	0.006452875
20	0.055760000	0.006922308	0.006913663
21	0.055760000	0.007251226	0.007329658
22	0.055760000	0.007292460	0.007642009
23	0.055760000	0.007254898	0.007742161
24	0.055760000	0.007194938	0.007832774
25	0.055760000	0.006942305	0.008035810
26	0.055760000	0.006437837	0.008228279
27	0.055760000	0.005693725	0.008345100
28	0.055760000	0.004731434	0.008349850
29	0.055760000	0.003573600	0.008209422
30	0.055760000	0.002245644	0.007896197
31	0.055760000	0.000772588	0.007396229
32	0.055760000	-0.000827920	0.006716347
33	0.055760000	-0.002552134	0.005886794
34	0.055760000	-0.004400866	0.004938086
35	0.055760000	-0.006364085	0.003876452
36	0.055760000	-0.008430808	0.002707414
37	0.055760000	-0.010590543	0.001438512
38	0.055760000	-0.012832676	0.000078034
39	0.055760000	-0.015146258	-0.001365402
40	0.055760000	-0.017519842	-0.002883193
41	0.055760000	-0.019945678	-0.004460335
42	0.055760000	-0.022411757	-0.006087966
43	0.055760000	-0.024904648	-0.007758837
44	0.055760000	-0.027408593	-0.009469423
45	0.055760000	-0.029792164	-0.011437320
1	0.059480000	-0.030282656	-0.010829898
2	0.059480000	-0.027358432	-0.009956107
3	0.059480000	-0.024573033	-0.008835933
4	0.059480000	-0.021826834	-0.007701743
5	0.059480000	-0.019131950	-0.006563559
6	0.059480000	-0.016502208	-0.005427451
7	0.059480000	-0.013951536	-0.004298514
8	0.059480000	-0.011493888	-0.003180959
9	0.059480000	-0.009142792	-0.002079033
10	0.059480000	-0.006911369	-0.000996857
11	0.059480000	-0.004812217	0.000061418
12	0.059480000	-0.002857125	0.001091134
13	0.059480000	-0.001057045	0.002087176
14	0.059480000	0.000578422	0.003043194
15	0.059480000	0.002050435	0.003936565
16	0.059480000	0.003366517	0.004737410
17	0.059480000	0.004524648	0.005433903
18	0.059480000	0.005514626	0.006029602
19	0.059480000	0.006319878	0.006539993
20	0.059480000	0.006916395	0.006988190
21	0.059480000	0.007259662	0.007395914
22	0.059480000	0.007309018	0.007708437
23	0.059480000	0.007273091	0.007809727
24	0.059480000	0.007214245	0.007901694
25	0.059480000	0.006963195	0.008109149
26	0.059480000	0.006458859	0.008309257
27	0.059480000	0.005712930	0.008437777
28	0.059480000	0.004746138	0.008458348
29	0.059480000	0.003580394	0.008337256
30	0.059480000	0.002240667	0.008045849
31	0.059480000	0.000752028	0.007568915
32	0.059480000	-0.000867311	0.006912287
33	0.059480000	-0.002612779	0.006105932
34	0.059480000	-0.004484476	0.005180276
35	0.059480000	-0.006473029	0.004143119
36	0.059480000	-0.008568005	0.003001089
37	0.059480000	-0.010758988	0.001761916
38	0.059480000	-0.013035422	0.000434063
39	0.059480000	-0.015386457	-0.000973619
40	0.059480000	-0.017801019	-0.002451835
41	0.059480000	-0.020267481	-0.003991478
42	0.059480000	-0.022773793	-0.005583495
43	0.059480000	-0.025307077	-0.007219614
44	0.059480000	-0.027852192	-0.008895377
45	0.059480000	-0.030282656	-0.010829898
1	0.063200000	-0.030759035	-0.010214519
2	0.063200000	-0.027810214	-0.009387004
3	0.063200000	-0.024996644	-0.008309807
4	0.063200000	-0.022222194	-0.007217832
5	0.063200000	-0.019499188	-0.006120934
6	0.063200000	-0.016841594	-0.005024988
7	0.063200000	-0.014263478	-0.003934862
8	0.063200000	-0.011778898	-0.002854580
9	0.063200000	-0.009401510	-0.001788159
10	0.063200000	-0.007144542	-0.000739525
11	0.063200000	-0.005020702	0.000287362
12	0.063200000	-0.003041899	0.001288021
13	0.063200000	-0.001219205	0.002257501
14	0.063200000	0.000437638	0.003189590
15	0.063200000	0.001929401	0.004061597
16	0.063200000	0.003263152	0.004843388
17	0.063200000	0.004436689	0.005523099
18	0.063200000	0.005439842	0.006104450
19	0.063200000	0.006256236	0.006603262
20	0.063200000	0.006862176	0.007043101
21	0.063200000	0.007213295	0.007446556
22	0.063200000	0.007267755	0.007759339
23	0.063200000	0.007233251	0.007861520
24	0.063200000	0.007175609	0.007954691
25	0.063200000	0.006926931	0.008166731
26	0.063200000	0.006424099	0.008375536
27	0.063200000	0.005677769	0.008516569
28	0.063200000	0.004708100	0.008553055
29	0.063200000	0.003536482	0.008450840
30	0.063200000	0.002187460	0.008180760
31	0.063200000	0.000685925	0.007727078
32	0.063200000	-0.000949735	0.007095273
33	0.063200000	-0.002714405	0.006315271
34	0.063200000	-0.004607703	0.005417659
35	0.063200000	-0.006620102	0.004410128
36	0.063200000	-0.008741033	0.003299170
37	0.063200000	-0.010959919	0.002092366
38	0.063200000	-0.013266032	0.000798038
39	0.063200000	-0.015648343	-0.000575104
40	0.063200000	-0.018095595	-0.002017911
41	0.063200000	-0.020595976	-0.003521431
42	0.063200000	-0.023137250	-0.005076775
43	0.063200000	-0.025706367	-0.006675845
44	0.063200000	-0.028288069	-0.008314414
45	0.063200000	-0.030759035	-0.010214519
1	0.066920000	-0.031164118	-0.009578971
2	0.066920000	-0.028200448	-0.008798630
3	0.066920000	-0.025368159	-0.007766163
4	0.066920000	-0.022574782	-0.006718254
5	0.066920000	-0.019832803	-0.005664571
6	0.066920000	-0.017156289	-0.004610778
7	0.066920000	-0.014559396	-0.003561503
8	0.066920000	-0.012056245	-0.002520575
9	0.066920000	-0.009660572	-0.001491767
10	0.066920000	-0.007385672	-0.000478805
11	0.066920000	-0.005244325	0.000514553
12	0.066920000	-0.003248516	0.001484018
13	0.066920000	-0.001409405	0.002424809
14	0.066920000	0.000263163	0.003330868
15	0.066920000	0.001769609	0.004179453
16	0.066920000	0.003116519	0.004940310
17	0.066920000	0.004301498	0.005601605
18	0.066920000	0.005314429	0.006167231
19	0.066920000	0.006139170	0.006653293
20	0.066920000	0.006752391	0.007083734
21	0.066920000	0.007109971	0.007481911
22	0.066920000	0.007169090	0.007794032
23	0.066920000	0.007136041	0.007896764
24	0.066920000	0.007079727	0.007990812
25	0.066920000	0.006834103	0.008206652
26	0.066920000	0.006334273	0.008423284
27	0.066920000	0.005589848	0.008576078
28	0.066920000	0.004620365	0.008627984
29	0.066920000	0.003446635	0.008544529
30	0.066920000	0.002092710	0.008296135
31	0.066920000	0.000583234	0.007866572
32	0.066920000	-0.001063275	0.007260911
33	0.066920000	-0.002841163	0.006508898
34	0.066920000	-0.004749590	0.005641231
35	0.066920000	-0.006778916	0.004665488
36	0.066920000	-0.008918474	0.003588015
37	0.066920000	-0.011157554	0.002416217
38	0.066920000	-0.013485299	0.001158256
39	0.066920000	-0.015890541	-0.000177316
40	0.066920000	-0.018361877	-0.001581520
41	0.066920000	-0.020887356	-0.003045575
42	0.066920000	-0.023454603	-0.004560772
43	0.066920000	-0.026050443	-0.006119204
44	0.066920000	-0.028659559	-0.007716862
45	0.066920000	-0.031164118	-0.009578971
1	0.070640000	-0.031219518	-0.008845755
2	0.070640000	-0.028271651	-0.008115311
3	0.070640000	-0.025450201	-0.007133388
4	0.070640000	-0.022667086	-0.006135593
5	0.070640000	-0.019934820	-0.005131322
6	0.070640000	-0.017267421	-0.004125985
7	0.070640000	-0.014678995	-0.003123942
8	0.070640000	-0.012183578	-0.002128805
9	0.070640000	-0.009794849	-0.001144084
10	0.070640000	-0.007526035	-0.000173285
11	0.070640000	-0.005389851	0.000780051
12	0.070640000	-0.003398239	0.001711846
13	0.070640000	-0.001562322	0.002617518
14	0.070640000	0.000108065	0.003491186
15	0.070640000	0.001613078	0.004310187
16	0.070640000	0.002958771	0.005044511
17	0.070640000	0.004142563	0.005682536
18	0.070640000	0.005154462	0.006228309
19	0.070640000	0.005978687	0.006698052
20	0.070640000	0.006592468	0.007115803
21	0.070640000	0.006952348	0.007505349
22	0.070640000	0.007015135	0.007813825
23	0.070640000	0.006983774	0.007916069
24	0.070640000	0.006929266	0.008010025
25	0.070640000	0.006688931	0.008227338
26	0.070640000	0.006196807	0.008449156
27	0.070640000	0.005461443	0.008611331
28	0.070640000	0.004501634	0.008676884
29	0.070640000	0.003337482	0.008611368
30	0.070640000	0.001992373	0.008385104
31	0.070640000	0.000490499	0.007981582
32	0.070640000	-0.001149681	0.007405472
33	0.070640000	-0.002922090	0.006686085
34	0.070640000	-0.004825481	0.005853928
35	0.070640000	-0.006850205	0.004916409
36	0.070640000	-0.008985614	0.003879683
37	0.070640000	-0.011220987	0.002750929
38	0.070640000	-0.013545452	0.001538085
39	0.070640000	-0.015947827	0.000249473
40	0.070640000	-0.018416688	-0.001106166
41	0.070640000	-0.020940073	-0.002520298
42	0.070640000	-0.023505598	-0.003984468
43	0.070640000	-0.026100102	-0.005491019
44	0.070640000	-0.028708364	-0.007036177
45	0.070640000	-0.031219518	-0.008845755
1	0.074360000	-0.031039440	-0.008055501
2	0.074360000	-0.028128754	-0.007376316
3	0.074360000	-0.025338933	-0.006448268
4	0.074360000	-0.022586623	-0.005504076
5	0.074360000	-0.019884268	-0.004552813
6	0.074360000	-0.017245737	-0.003599611
7	0.074360000	-0.014684975	-0.002648554
8	0.074360000	-0.012215838	-0.001703026
9	0.074360000	-0.009851844	-0.000766271
10	0.074360000	-0.007606053	0.000158431
11	0.074360000	-0.005491029	0.001067766
12	0.074360000	-0.003518576	0.001957879
13	0.074360000	-0.001699702	0.002824406
14	0.074360000	-0.000044155	0.003661675
15	0.074360000	0.001447955	0.004447296
16	0.074360000	0.002782162	0.005151700
17	0.074360000	0.003955742	0.005763530
18	0.074360000	0.004958901	0.006286934
19	0.074360000	0.005776319	0.006738108
20	0.074360000	0.006385916	0.007140991
21	0.074360000	0.006745204	0.007519581
22	0.074360000	0.006810964	0.007822334
23	0.074360000	0.006781415	0.007923353
24	0.074360000	0.006728995	0.008016517
25	0.074360000	0.006495362	0.008233536
26	0.074360000	0.006014065	0.008458411
27	0.074360000	0.005292628	0.008627925
28	0.074360000	0.004349029	0.008705439
29	0.074360000	0.003202571	0.008656789
30	0.074360000	0.001875857	0.008452439
31	0.074360000	0.000392477	0.008075765
32	0.074360000	-0.001229322	0.007531062
33	0.074360000	-0.002983133	0.006847043
34	0.074360000	-0.004867339	0.006053782
35	0.074360000	-0.006872353	0.005158458
36	0.074360000	-0.008987625	0.004167011
37	0.074360000	-0.011202504	0.003086350
38	0.074360000	-0.013506189	0.001924153
39	0.074360000	-0.015887569	0.000688461
40	0.074360000	-0.018335288	-0.000612272
41	0.074360000	-0.020837462	-0.001969805
42	0.074360000	-0.023381793	-0.003375980
43	0.074360000	-0.025955230	-0.004823440
44	0.074360000	-0.028542750	-0.006308660
45	0.074360000	-0.031039440	-0.008055501
1	0.078080000	-0.030771745	-0.007259611
2	0.078080000	-0.027907821	-0.006631003
3	0.078080000	-0.025159140	-0.005756919
4	0.078080000	-0.022447042	-0.004866516
5	0.078080000	-0.019783854	-0.003968528
6	0.078080000	-0.017183248	-0.003067808
7	0.078080000	-0.014658962	-0.002168163
8	0.078080000	-0.012224624	-0.001272755
9	0.078080000	-0.009893545	-0.000384567
10	0.078080000	-0.007678579	0.000493347
11	0.078080000	-0.005592090	0.001357899
12	0.078080000	-0.003645709	0.002205462
13	0.078080000	-0.001850290	0.003031893
14	0.078080000	-0.000215468	0.003831747
15	0.078080000	0.001258386	0.004583018
16	0.078080000	0.002576302	0.005256652
17	0.078080000	0.003735450	0.005841566
18	0.078080000	0.004726272	0.006341970
19	0.078080000	0.005533941	0.006773962
20	0.078080000	0.006137117	0.007161288
21	0.078080000	0.006494398	0.007528058
22	0.078080000	0.006562696	0.007824210
23	0.078080000	0.006534962	0.007923670
24	0.078080000	0.006484704	0.008015710
25	0.078080000	0.006258270	0.008231542
26	0.078080000	0.005789040	0.008458297
27	0.078080000	0.005083561	0.008633896
28	0.078080000	0.004158978	0.008722173
29	0.078080000	0.003033768	0.008689374
30	0.078080000	0.001729714	0.008506224
31	0.078080000	0.000269738	0.008156073
32	0.078080000	-0.001328188	0.007642856
33	0.078080000	-0.003057389	0.006994619
34	0.078080000	-0.004915901	0.006240888
35	0.078080000	-0.006894231	0.005388595
36	0.078080000	-0.008981963	0.004443450
37	0.078080000	-0.011168558	0.003412085
38	0.078080000	-0.013443322	0.002301897
39	0.078080000	-0.015795257	0.001120636
40	0.078080000	-0.018213114	-0.000123549
41	0.078080000	-0.020685135	-0.001422724
42	0.078080000	-0.023199150	-0.002769046
43	0.078080000	-0.025742265	-0.004155459
44	0.078080000	-0.028299701	-0.005578700
45	0.078080000	-0.030771745	-0.007259611
1	0.081800000	-0.030453926	-0.006473632
2	0.081800000	-0.027642996	-0.005894087
3	0.081800000	-0.024941766	-0.005072911
4	0.081800000	-0.022276135	-0.004235315
5	0.081800000	-0.019658275	-0.003389697
6	0.081800000	-0.017101632	-0.002540631
7	0.081800000	-0.014619704	-0.001691659
8	0.081800000	-0.012225861	-0.000845723
9	0.081800000	-0.009933177	-0.000005554
10	0.081800000	-0.007754270	0.000826016
11	0.081800000	-0.005701281	0.001646118
12	0.081800000	-0.003785641	0.002451352
13	0.081800000	-0.002018024	0.003237798
14	0.081800000	-0.000407927	0.004000243
15	0.081800000	0.001044028	0.004717117
16	0.081800000	0.002342390	0.005359941
17	0.081800000	0.003484247	0.005917918
18	0.081800000	0.004460286	0.006395301
19	0.081800000	0.005256193	0.006808043
20	0.081800000	0.005851379	0.007179637
21	0.081800000	0.006205581	0.007534222
22	0.081800000	0.006275973	0.007823263
23	0.081800000	0.006250006	0.007920941
24	0.081800000	0.006201914	0.008011623
25	0.081800000	0.005982911	0.008225615
26	0.081800000	0.005526457	0.008453334
27	0.081800000	0.004838167	0.008633976
28	0.081800000	0.003934354	0.008731947
29	0.081800000	0.002832666	0.008713990
30	0.081800000	0.001554042	0.008551174
31	0.081800000	0.000120710	0.008226875
32	0.081800000	-0.001449678	0.007744661
33	0.081800000	-0.003150207	0.007131845
34	0.081800000	-0.004978601	0.006417357
35	0.081800000	-0.006925488	0.005607879
36	0.081800000	-0.008980608	0.004708888
37	0.081800000	-0.011133557	0.003726734
38	0.081800000	-0.013373782	0.002668526
39	0.081800000	-0.015690421	0.001541719
40	0.081800000	-0.018072367	0.000354151
41	0.081800000	-0.020508014	-0.000886554
42	0.081800000	-0.022985356	-0.002172867
43	0.081800000	-0.025491690	-0.003498038
44	0.081800000	-0.028012514	-0.004859047
45	0.081800000	-0.030453926	-0.006473632
1	0.085520000	-0.030048336	-0.005688393
2	0.085520000	-0.027299114	-0.005156357
3	0.085520000	-0.024653992	-0.004387388
4	0.085520000	-0.022043401	-0.003601989
5	0.085520000	-0.019479317	-0.002808211
6	0.085520000	-0.016974910	-0.002010351
7	0.085520000	-0.014543398	-0.001211688
8	0.085520000	-0.012197854	-0.000414950
9	0.085520000	-0.009951073	0.000377374
10	0.085520000	-0.007815396	0.001162669
11	0.085520000	-0.005802706	0.001938284
12	0.085520000	-0.003924194	0.002701039
13	0.085520000	-0.002190322	0.003447237
14	0.085520000	-0.000610414	0.004171896
15	0.085520000	0.000814692	0.004853927
16	0.085520000	0.002089081	0.005465524
17	0.085520000	0.003209766	0.005996215
18	0.085520000	0.004167704	0.006450283
19	0.085520000	0.004949112	0.006843478
20	0.085520000	0.005534183	0.007198955
21	0.085520000	0.005883879	0.007540756
22	0.085520000	0.005955842	0.007821943
23	0.085520000	0.005931618	0.007917535
24	0.085520000	0.005885742	0.008006558
25	0.085520000	0.005674586	0.008217894
26	0.085520000	0.005231971	0.008445477
27	0.085520000	0.004562634	0.008629938
28	0.085520000	0.003682050	0.008736367
29	0.085520000	0.002607028	0.008732118
30	0.085520000	0.001357639	0.008588703
31	0.085520000	-0.000044628	0.008289595
32	0.085520000	-0.001582488	0.007838009
33	0.085520000	-0.003248843	0.007260454
34	0.085520000	-0.005041140	0.006585188
35	0.085520000	-0.006950159	0.005818633
36	0.085520000	-0.008965833	0.004966032
37	0.085520000	-0.011077931	0.004033442
38	0.085520000	-0.013276073	0.003027679
39	0.085520000	-0.015549578	0.001955891
40	0.085520000	-0.017887515	0.000825595
41	0.085520000	-0.020278474	-0.000355902
42	0.085520000	-0.022710656	-0.001581395
43	0.085520000	-0.025171588	-0.002844445
44	0.085520000	-0.027647087	-0.004142273
45	0.085520000	-0.030048336	-0.005688393
1	0.089240000	-0.029534363	-0.004899532
2	0.089240000	-0.026856672	-0.004413484
3	0.089240000	-0.024277412	-0.003696135
4	0.089240000	-0.021731518	-0.002962448
5	0.089240000	-0.019230718	-0.002220113
6	0.089240000	-0.016787863	-0.001473148
7	0.089240000	-0.014415838	-0.000724577
8	0.089240000	-0.012127374	0.000023082
9	0.089240000	-0.009934941	0.000767577
10	0.089240000	-0.007850561	0.001506504
11	0.089240000	-0.005885810	0.002237422
12	0.089240000	-0.004051604	0.002957372
13	0.089240000	-0.002358151	0.003662877
14	0.089240000	-0.000814565	0.004349195
15	0.089240000	0.000578128	0.004995780
16	0.089240000	0.001823566	0.005575601
17	0.089240000	0.002918711	0.006078548
18	0.089240000	0.003854814	0.006508908
19	0.089240000	0.004618652	0.006882158
20	0.089240000	0.005191238	0.007221016
21	0.089240000	0.005534869	0.007549296
22	0.089240000	0.005607865	0.007821772
23	0.089240000	0.005585370	0.007914935
24	0.089240000	0.005541774	0.008001956
25	0.089240000	0.005338952	0.008209711
26	0.089240000	0.004911409	0.008435910
27	0.089240000	0.004263057	0.008622813
28	0.089240000	0.003408529	0.008736323
29	0.089240000	0.002363780	0.008744529
30	0.089240000	0.001147984	0.008619508
31	0.089240000	-0.000218160	0.008344919
32	0.089240000	-0.001717804	0.007923642
33	0.089240000	-0.003343721	0.007381308
34	0.089240000	-0.005093121	0.006745404
35	0.089240000	-0.006956977	0.006022082
36	0.089240000	-0.008925450	0.005216341
37	0.089240000	-0.010988525	0.004333940
38	0.089240000	-0.013136038	0.003381387
39	0.089240000	-0.015357530	0.002365514
40	0.089240000	-0.017642295	0.001293503
41	0.089240000	-0.019979163	0.000172331
42	0.089240000	-0.022356587	-0.000991132
43	0.089240000	-0.024762376	-0.002190764
44	0.089240000	-0.027182720	-0.003424020
45	0.089240000	-0.029534363	-0.004899532
1	0.092960000	-0.028943318	-0.004118820
2	0.092960000	-0.026344132	-0.003676712
3	0.092960000	-0.023837735	-0.003009640
4	0.092960000	-0.021363477	-0.002326407
5	0.092960000	-0.018932802	-0.001634337
6	0.092960000	-0.016558205	-0.000937175
7	0.092960000	-0.014252203	-0.000237699
8	0.092960000	-0.012027155	0.000461776
9	0.092960000	-0.009895168	0.001159221
10	0.092960000	-0.007867915	0.001852439
11	0.092960000	-0.005956638	0.002539192
12	0.092960000	-0.004171946	0.003216736
13	0.092960000	-0.002523763	0.003881814
14	0.092960000	-0.001020970	0.004529927
15	0.092960000	0.000335233	0.005141146
16	0.092960000	0.001548065	0.005689271
17	0.092960000	0.002614464	0.006164560
18	0.092960000	0.003525996	0.006571277
19	0.092960000	0.004270013	0.006924570
20	0.092960000	0.004828367	0.007246645
21	0.092960000	0.005164766	0.007560991
22	0.092960000	0.005238348	0.007824181
23	0.092960000	0.005217539	0.007914671
24	0.092960000	0.005176231	0.007999437
25	0.092960000	0.004981987	0.008202884
26	0.092960000	0.004570264	0.008426658
27	0.092960000	0.003944216	0.008614786
28	0.092960000	0.003117637	0.008734081
29	0.092960000	0.002105634	0.008753461
30	0.092960000	0.000926472	0.008645659
31	0.092960000	-0.000399973	0.008394594
32	0.092960000	-0.001857336	0.008002838
33	0.092960000	-0.003438319	0.007495106
34	0.092960000	-0.005139931	0.006898035
35	0.092960000	-0.006953358	0.006217494
36	0.092960000	-0.008869023	0.005458238
37	0.092960000	-0.010877155	0.004625724
38	0.092960000	-0.012967839	0.003726149
39	0.092960000	-0.015130869	0.002766024
40	0.092960000	-0.017355797	0.001752191
41	0.092960000	-0.019631729	0.000691291
42	0.092960000	-0.021947405	-0.000410141
43	0.092960000	-0.024290950	-0.001546304
44	0.092960000	-0.026648960	-0.002714878
45	0.092960000	-0.028943318	-0.004118820
1	0.096680000	-0.028320116	-0.003360357
2	0.096680000	-0.025802454	-0.002959633
3	0.096680000	-0.023372117	-0.002340585
4	0.096680000	-0.020972679	-0.001705611
5	0.096680000	-0.018615280	-0.001061675
6	0.096680000	-0.016312043	-0.000412261
7	0.096680000	-0.014075103	0.000240088
8	0.096680000	-0.011916427	0.000893249
9	0.096680000	-0.009847750	0.001545406
10	0.096680000	-0.007880380	0.002194554
11	0.096680000	-0.006025211	0.002838649
12	0.096680000	-0.004292531	0.003475155
13	0.096680000	-0.002691969	0.004101027
14	0.096680000	-0.001232160	0.004712007
15	0.096680000	0.000085539	0.005288816
16	0.096680000	0.001263958	0.005806106
17	0.096680000	0.002300032	0.006254501
18	0.096680000	0.003185643	0.006638222
19	0.096680000	0.003908719	0.006972054
20	0.096680000	0.004451944	0.007277654
21	0.096680000	0.004780452	0.007578119
22	0.096680000	0.004854296	0.007831842
23	0.096680000	0.004835107	0.007919551
24	0.096680000	0.004796046	0.008001941
25	0.096680000	0.004610357	0.008200688
26	0.096680000	0.004214608	0.008421376
27	0.096680000	0.003611253	0.008609851
28	0.096680000	0.002813281	0.008733875
29	0.096680000	0.001834972	0.008763235
30	0.096680000	0.000693703	0.008671370
31	0.096680000	-0.000591475	0.008442505
32	0.096680000	-0.002004702	0.008078943
33	0.096680000	-0.003538656	0.007604483
34	0.096680000	-0.005190168	0.007044872
35	0.096680000	-0.006950655	0.006405696
36	0.096680000	-0.008810815	0.005691469
37	0.096680000	-0.010761136	0.004907354
38	0.096680000	-0.012791969	0.004059243
39	0.096680000	-0.014893378	0.003153327
40	0.096680000	-0.017055191	0.002196116
41	0.096680000	-0.019266805	0.001193920
42	0.096680000	-0.021517267	0.000152941
43	0.096680000	-0.023795037	-0.000921332
44	0.096680000	-0.026087128	-0.002026793
45	0.096680000	-0.028320116	-0.003360357
1	0.100400000	-0.027689005	-0.002629120
2	0.100400000	-0.025253461	-0.002267015
3	0.100400000	-0.022900054	-0.001693263
4	0.100400000	-0.020576321	-0.001103857
5	0.100400000	-0.018293092	-0.000505415
6	0.100400000	-0.016062111	0.000098828
7	0.100400000	-0.013895125	0.000706548
8	0.100400000	-0.011803711	0.001315802
9	0.100400000	-0.009799224	0.001924970
10	0.100400000	-0.007892607	0.002532229
11	0.100400000	-0.006094402	0.003135720
12	0.100400000	-0.004414571	0.003733099
13	0.100400000	-0.002862448	0.004321526
14	0.100400000	-0.001446412	0.004896977
15	0.100400000	-0.000167966	0.005440837
16	0.100400000	0.000975367	0.005928606
17	0.100400000	0.001980529	0.006351261
18	0.100400000	0.002839722	0.006712968
19	0.100400000	0.003541428	0.007028136
20	0.100400000	0.004069143	0.007317851
21	0.100400000	0.004389401	0.007604784
22	0.100400000	0.004463227	0.007849105
23	0.100400000	0.004445567	0.007934008
24	0.100400000	0.004408668	0.008013974
25	0.100400000	0.004231334	0.008207808
26	0.100400000	0.003851344	0.008424964
27	0.100400000	0.003270514	0.008613104
28	0.100400000	0.002501063	0.008740955
29	0.100400000	0.001556481	0.008779187
30	0.100400000	0.000453284	0.008701968
31	0.100400000	-0.000790281	0.008493858
32	0.100400000	-0.002158867	0.008156908
33	0.100400000	-0.003645155	0.007714022
34	0.100400000	-0.005245831	0.007190049
35	0.100400000	-0.006952546	0.006590296
36	0.100400000	-0.008756275	0.005919048
37	0.100400000	-0.010647776	0.005181182
38	0.100400000	-0.012617669	0.004382297
39	0.100400000	-0.014656300	0.003528274
40	0.100400000	-0.016753777	0.002625300
41	0.100400000	-0.018899798	0.001679367
42	0.100400000	-0.021083723	0.000696357
43	0.100400000	-0.023294352	-0.000318541
44	0.100400000	-0.025519122	-0.001363422
45	0.100400000	-0.027689005	-0.002629120
1	0.104120000	-0.027062499	-0.001927218
2	0.104120000	-0.024708167	-0.001600830
3	0.104120000	-0.022431082	-0.001069400
4	0.104120000	-0.020182482	-0.000522615
5	0.104120000	-0.017972882	0.000033237
6	0.104120000	-0.015813650	0.000595155
7	0.104120000	-0.013716150	0.001161020
8	0.104120000	-0.011691573	0.001729054
9	0.104120000	-0.009750898	0.002297821
10	0.104120000	-0.007904704	0.002865667
11	0.104120000	-0.006163185	0.003430899
12	0.104120000	-0.004535983	0.003991362
13	0.104120000	-0.003032133	0.004544402
14	0.104120000	-0.001659764	0.005086221
15	0.104120000	-0.000420503	0.005598861
16	0.104120000	0.000687800	0.006058659
17	0.104120000	0.001662108	0.006456934
18	0.104120000	0.002494931	0.006797785
19	0.104120000	0.003175288	0.007095243
20	0.104120000	0.003687452	0.007369811
21	0.104120000	0.003999326	0.007643708
22	0.104120000	0.004072936	0.007878831
23	0.104120000	0.004056716	0.007960954
24	0.104120000	0.004021882	0.008038504
25	0.104120000	0.003852611	0.008227347
26	0.104120000	0.003487944	0.008440677
27	0.104120000	0.002929121	0.008627941
28	0.104120000	0.002187637	0.008758819
29	0.104120000	0.001276233	0.008804861
30	0.104120000	0.000210607	0.008740969
31	0.104120000	-0.000991769	0.008552059
32	0.104120000	-0.002316060	0.008239965
33	0.104120000	-0.003754978	0.007826728
34	0.104120000	-0.005305085	0.007336305
35	0.104120000	-0.006958268	0.006773732
36	0.104120000	-0.008705781	0.006143075
37	0.104120000	-0.010538650	0.005448942
38	0.104120000	-0.012447768	0.004696647
39	0.104120000	-0.014423761	0.003891780
40	0.104120000	-0.016457021	0.003040217
41	0.104120000	-0.018537547	0.002147644
42	0.104120000	-0.020655012	0.001219638
43	0.104120000	-0.022798557	0.000261105
44	0.104120000	-0.024956036	-0.000726241
45	0.104120000	-0.027062499	-0.001927218
1	0.107840000	-0.026463078	-0.001263642
2	0.107840000	-0.024186813	-0.000969823
3	0.107840000	-0.021983228	-0.000477406
4	0.107840000	-0.019806998	0.000030054
5	0.107840000	-0.017668333	0.000546582
6	0.107840000	-0.015578238	0.001069391
7	0.107840000	-0.013547710	0.001596549
8	0.107840000	-0.011587564	0.002126432
9	0.107840000	-0.009708419	0.002657768
10	0.107840000	-0.007920507	0.003189060
11	0.107840000	-0.006233686	0.003718772
12	0.107840000	-0.004657287	0.004244916
13	0.107840000	-0.003200060	0.004765018
14	0.107840000	-0.001869891	0.005275493
15	0.107840000	-0.000668523	0.005759031
16	0.107840000	0.000405901	0.006192763
17	0.107840000	0.001350373	0.006568324
18	0.107840000	0.002157698	0.006889741
19	0.107840000	0.002817403	0.007170663
20	0.107840000	0.003314495	0.007431031
21	0.107840000	0.003618186	0.007692605
22	0.107840000	0.003691481	0.007918945
23	0.107840000	0.003676598	0.007998396
24	0.107840000	0.003643696	0.008073610
25	0.107840000	0.003482023	0.008257552
26	0.107840000	0.003131884	0.008466950
27	0.107840000	0.002594012	0.008652961
28	0.107840000	0.001879230	0.008786190
29	0.107840000	0.000999584	0.008839042
30	0.107840000	-0.000029993	0.008787138
31	0.107840000	-0.001192767	0.008615760
32	0.107840000	-0.002474395	0.008326558
33	0.107840000	-0.003867644	0.007940759
34	0.107840000	-0.005368968	0.007481452
35	0.107840000	-0.006970486	0.006953411
36	0.107840000	-0.008663716	0.006360499
37	0.107840000	-0.010439949	0.005707070
38	0.107840000	-0.012290343	0.004998174
39	0.107840000	-0.014205793	0.004239122
40	0.107840000	-0.016176968	0.003435503
41	0.107840000	-0.018194161	0.002592714
42	0.107840000	-0.020247345	0.001716047
43	0.107840000	-0.022325993	0.000810139
44	0.107840000	-0.024418360	-0.000123465
45	0.107840000	-0.026463078	-0.001263642
1	0.111560000	-0.025923327	-0.000647936
2	0.111560000	-0.023718917	-0.000383506
3	0.111560000	-0.021583001	0.000073495
4	0.111560000	-0.019473404	0.000545242
5	0.111560000	-0.017400054	0.001026046
6	0.111560000	-0.015373625	0.001513318
7	0.111560000	-0.013404769	0.002005293
8	0.111560000	-0.011503961	0.002500484
9	0.111560000	-0.009681489	0.002997770
10	0.111560000	-0.007947260	0.003495797
11	0.111560000	-0.006310826	0.003993169
12	0.111560000	-0.004781232	0.004488053
13	0.111560000	-0.003366964	0.004978139
14	0.111560000	-0.002075686	0.005460039
15	0.111560000	-0.000909252	0.005917060
16	0.111560000	0.000133934	0.006327052
17	0.111560000	0.001050896	0.006681929
18	0.111560000	0.001834715	0.006985640
19	0.111560000	0.002475380	0.007251485
20	0.111560000	0.002958572	0.007498877
21	0.111560000	0.003254707	0.007749160
22	0.111560000	0.003327701	0.007967429
23	0.111560000	0.003314043	0.008044421
24	0.111560000	0.003282912	0.008117484
25	0.111560000	0.003128199	0.008296901
26	0.111560000	0.002791378	0.008502624
27	0.111560000	0.002272725	0.008687379
28	0.111560000	0.001582456	0.008822618
29	0.111560000	0.000731985	0.008881527
30	0.111560000	-0.000264449	0.008840394
31	0.111560000	-0.001390785	0.008684850
32	0.111560000	-0.002633139	0.008416392
33	0.111560000	-0.003984335	0.008055521
34	0.111560000	-0.005440734	0.007624510
35	0.111560000	-0.006994663	0.007127888
36	0.111560000	-0.008637890	0.006569334
37	0.111560000	-0.010361945	0.005952969
38	0.111560000	-0.012158232	0.005283604
39	0.111560000	-0.014017896	0.004566296
40	0.111560000	-0.015931862	0.003806368
41	0.111560000	-0.017890690	0.003008956
42	0.111560000	-0.019884635	0.002179089
43	0.111560000	-0.021903472	0.001321164
44	0.111560000	-0.023935825	0.000436565
45	0.111560000	-0.025923327	-0.000647936
1	0.115280000	-0.025472497	-0.000077116
2	0.115280000	-0.023330728	0.000160850
3	0.115280000	-0.021253772	0.000586254
4	0.115280000	-0.019202227	0.001026148
5	0.115280000	-0.017185775	0.001475097
6	0.115280000	-0.015214798	0.001930684
7	0.115280000	-0.013299653	0.002391298
8	0.115280000	-0.011450517	0.002855576
9	0.115280000	-0.009677384	0.003322531
10	0.115280000	-0.007989885	0.003790939
11	0.115280000	-0.006397302	0.004259529
12	0.115280000	-0.004908431	0.004726612
13	0.115280000	-0.003531529	0.005190021
14	0.115280000	-0.002274069	0.005646549
15	0.115280000	-0.001138011	0.006080055
16	0.115280000	-0.000121991	0.006469004
17	0.115280000	0.000771047	0.006805543
18	0.115280000	0.001534424	0.007093551
19	0.115280000	0.002158540	0.007346027
20	0.115280000	0.002629665	0.007581940
21	0.115280000	0.002919268	0.007822277
22	0.115280000	0.002992080	0.008033469
23	0.115280000	0.002979525	0.008108324
24	0.115280000	0.002949979	0.008179527
25	0.115280000	0.002801446	0.008355080
26	0.115280000	0.002476365	0.008557775
27	0.115280000	0.001974585	0.008741687
28	0.115280000	0.001305777	0.008878982
29	0.115280000	0.000480801	0.008943510
30	0.115280000	-0.000486712	0.008912131
31	0.115280000	-0.001581287	0.008770773
32	0.115280000	-0.002789437	0.008520816
33	0.115280000	-0.004104036	0.008182146
34	0.115280000	-0.005521353	0.007776312
35	0.115280000	-0.007033895	0.007307622
36	0.115280000	-0.008633644	0.006779589
37	0.115280000	-0.010312342	0.006196133
38	0.115280000	-0.012061603	0.005561851
39	0.115280000	-0.013872790	0.004881575
40	0.115280000	-0.015737049	0.004160396
41	0.115280000	-0.017645172	0.003403218
42	0.115280000	-0.019587659	0.002614836
43	0.115280000	-0.021554546	0.001799432
44	0.115280000	-0.023534779	0.000958249
45	0.115280000	-0.025472497	-0.000077116
1	0.119000000	-0.025137636	0.000451227
2	0.119000000	-0.023046430	0.000665803
3	0.119000000	-0.021016968	0.001063934
4	0.119000000	-0.019012164	0.001476355
5	0.119000000	-0.017041508	0.001897840
6	0.119000000	-0.015115147	0.002326124
7	0.119000000	-0.013243198	0.002759731
8	0.119000000	-0.011435597	0.003197402
9	0.119000000	-0.009702104	0.003638275
10	0.119000000	-0.008052123	0.004081237
11	0.119000000	-0.006494719	0.004525130
12	0.119000000	-0.005038489	0.004968390
13	0.119000000	-0.003691505	0.005408977
14	0.119000000	-0.002461090	0.005843841
15	0.119000000	-0.001349312	0.006257315
16	0.119000000	-0.000355008	0.006628353
17	0.119000000	0.000518899	0.006949275
18	0.119000000	0.001265935	0.007223903
19	0.119000000	0.001876840	0.007465000
20	0.119000000	0.002338384	0.007691181
21	0.119000000	0.002622914	0.007923179
22	0.119000000	0.002695790	0.008128559
23	0.119000000	0.002684223	0.008201690
24	0.119000000	0.002656045	0.008271417
25	0.119000000	0.002512711	0.008443990
26	0.119000000	0.002197349	0.008644541
27	0.119000000	0.001709420	0.008828220
28	0.119000000	0.001058136	0.008967756
29	0.119000000	0.000253890	0.009037517
30	0.119000000	-0.000690194	0.009014816
31	0.119000000	-0.001759125	0.008885825
32	0.119000000	-0.002939739	0.008651838
33	0.119000000	-0.004224940	0.008332266
34	0.119000000	-0.005610904	0.007948043
35	0.119000000	-0.007090276	0.007503279
36	0.119000000	-0.008655213	0.007001353
37	0.119000000	-0.010297622	0.006446008
38	0.119000000	-0.012009287	0.005841666
39	0.119000000	-0.013781740	0.005192968
40	0.119000000	-0.015606305	0.004504808
41	0.119000000	-0.017473958	0.003781893
42	0.119000000	-0.019375389	0.003028820
43	0.119000000	-0.021300848	0.002249592
44	0.119000000	-0.023239536	0.001445317
45	0.119000000	-0.025137636	0.000451227
1	0.122720000	-0.024955398	0.000911758
2	0.122720000	-0.022899474	0.001106656
3	0.122720000	-0.020902750	0.001482246
4	0.122720000	-0.018930129	0.001872003
5	0.122720000	-0.016990971	0.002270868
6	0.122720000	-0.015095264	0.002676703
7	0.122720000	-0.013252960	0.003088141
8	0.122720000	-0.011473822	0.003504015
9	0.122720000	-0.009767449	0.003923563
10	0.122720000	-0.008143089	0.004345772
11	0.122720000	-0.006609652	0.004769574
12	0.122720000	-0.005175599	0.005193514
13	0.122720000	-0.003848876	0.005615654
14	0.122720000	-0.002636705	0.006033079
15	0.122720000	-0.001541274	0.006430505
16	0.122720000	-0.000561598	0.006787215
17	0.122720000	0.000299412	0.007095635
18	0.122720000	0.001035436	0.007359541
19	0.122720000	0.001637485	0.007591531
20	0.122720000	0.002092724	0.007809983
21	0.122720000	0.002374194	0.008035496
22	0.122720000	0.002447633	0.008236599
23	0.122720000	0.002436919	0.008308545
24	0.122720000	0.002409837	0.008377286
25	0.122720000	0.002270438	0.008547995
26	0.122720000	0.001962199	0.008747496
27	0.122720000	0.001484269	0.008931708
28	0.122720000	0.000845500	0.009073748
29	0.122720000	0.000055922	0.009148337
30	0.122720000	-0.000871732	0.009133108
31	0.122720000	-0.001922836	0.009014418
32	0.122720000	-0.003084468	0.008793521
33	0.122720000	-0.004349541	0.008489510
34	0.122720000	-0.005714122	0.008122832
35	0.122720000	-0.007170945	0.007697422
36	0.122720000	-0.008712284	0.007216558
37	0.122720000	-0.010330158	0.006683842
38	0.122720000	-0.012016461	0.006103555
39	0.122720000	-0.013762839	0.005480191
40	0.122720000	-0.015560730	0.004818488
41	0.122720000	-0.017401230	0.004122997
42	0.122720000	-0.019275158	0.003398158
43	0.122720000	-0.021172903	0.002647830
44	0.122720000	-0.023083846	0.001873008
45	0.122720000	-0.024955398	0.000911758
1	0.125571536	-0.024939119	0.001208362
2	0.125571536	-0.022898145	0.001390146
3	0.125571536	-0.020914756	0.001751217
4	0.125571536	-0.018955190	0.002126447
5	0.125571536	-0.017028769	0.002510873
6	0.125571536	-0.015145413	0.002902441
7	0.125571536	-0.013315006	0.003299853
8	0.125571536	-0.011547240	0.003702000
9	0.125571536	-0.009851645	0.004108188
10	0.125571536	-0.008237400	0.004517471
11	0.125571536	-0.006713355	0.004928843
12	0.125571536	-0.005287912	0.005340916
13	0.125571536	-0.003968969	0.005751822
14	0.125571536	-0.002763713	0.006158728
15	0.125571536	-0.001674436	0.006546563
16	0.125571536	-0.000700273	0.006894735
17	0.125571536	0.000155861	0.007195691
18	0.125571536	0.000887728	0.007453189
19	0.125571536	0.001486487	0.007679771
20	0.125571536	0.001939523	0.007893745
21	0.125571536	0.002220228	0.008115732
22	0.125571536	0.002294444	0.008314779
23	0.125571536	0.002284293	0.008386233
24	0.125571536	0.002257864	0.008454618
25	0.125571536	0.002120595	0.008624862
26	0.125571536	0.001815918	0.008824641
27	0.125571536	0.001342750	0.009010202
28	0.125571536	0.000709731	0.009154802
29	0.125571536	-0.000073323	0.009233288
30	0.125571536	-0.000993895	0.009223405
31	0.125571536	-0.002037549	0.009111576
32	0.125571536	-0.003191470	0.008899034
33	0.125571536	-0.004448539	0.008604750
34	0.125571536	-0.005804726	0.008248914
35	0.125571536	-0.007252792	0.007835358
36	0.125571536	-0.008785055	0.007367299
37	0.125571536	-0.010393571	0.006848256
38	0.125571536	-0.012070276	0.006282432
39	0.125571536	-0.013806851	0.005674234
40	0.125571536	-0.015594773	0.005028315
41	0.125571536	-0.017425182	0.004349136
42	0.125571536	-0.019288938	0.003641047
43	0.125571536	-0.021176486	0.002907821
44	0.125571536	-0.023077279	0.002150380
45	0.125571536	-0.024939119	0.001208362
1	0.128391831	-0.025026384	0.001480701
2	0.128391831	-0.022989586	0.001650160
3	0.128391831	-0.021009185	0.001998807
4	0.128391831	-0.019052460	0.002361684
5	0.128391831	-0.017128733	0.002733892
6	0.128391831	-0.015247916	0.003113449
7	0.128391831	-0.013419872	0.003499124
8	0.128391831	-0.011654276	0.003889859
9	0.128391831	-0.009960635	0.004285027
10	0.128391831	-0.008348115	0.004683742
11	0.128391831	-0.006825545	0.005085056
12	0.128391831	-0.005401320	0.005487644
13	0.128391831	-0.004083326	0.005889693
14	0.128391831	-0.002878754	0.006288434
15	0.128391831	-0.001790006	0.006668917
16	0.128391831	-0.000816321	0.007010552
17	0.128391831	0.000039364	0.007305774
18	0.128391831	0.000770856	0.007558347
19	0.128391831	0.001369411	0.007780834
20	0.128391831	0.001822546	0.007991591
21	0.128391831	0.002103836	0.008211360
22	0.128391831	0.002179075	0.008409452
23	0.128391831	0.002169413	0.008480792
24	0.128391831	0.002143507	0.008549181
25	0.128391831	0.002007721	0.008719916
26	0.128391831	0.001705111	0.008921179
27	0.128391831	0.001234304	0.009109271
28	0.128391831	0.000603764	0.009257411
29	0.128391831	-0.000176857	0.009340404
30	0.128391831	-0.001095182	0.009335957
31	0.128391831	-0.002136873	0.009230461
32	0.128391831	-0.003289137	0.009025130
33	0.128391831	-0.004544780	0.008738924
34	0.128391831	-0.005899654	0.008391912
35	0.128391831	-0.007346511	0.007987846
36	0.128391831	-0.008877673	0.007529906
37	0.128391831	-0.010485192	0.007021546
38	0.128391831	-0.012161001	0.006466918
39	0.128391831	-0.013896776	0.005870367
40	0.128391831	-0.015683990	0.005236488
41	0.128391831	-0.017513778	0.004569679
42	0.128391831	-0.019376997	0.003874223
43	0.128391831	-0.021264094	0.003153831
44	0.128391831	-0.023164541	0.002409352
45	0.128391831	-0.025026384	0.001480701
1	0.131149984	-0.025198090	0.001745053
2	0.131149984	-0.023155967	0.001903646
3	0.131149984	-0.021169566	0.002242693
4	0.131149984	-0.019206808	0.002596076
5	0.131149984	-0.017277059	0.002958923
6	0.131149984	-0.015390261	0.003329315
7	0.131149984	-0.013556308	0.003706075
8	0.131149984	-0.011784897	0.004088195
9	0.131149984	-0.010085562	0.004475106
10	0.131149984	-0.008467491	0.004865978
11	0.131149984	-0.006939542	0.005259914
12	0.131149984	-0.005510132	0.005655642
13	0.131149984	-0.004187178	0.006051394
14	0.131149984	-0.002977906	0.006444450
15	0.131149984	-0.001884817	0.006819891
16	0.131149984	-0.000907254	0.007157048
17	0.131149984	-0.000048185	0.007448319
18	0.131149984	0.000686207	0.007697494
19	0.131149984	0.001287227	0.007917216
20	0.131149984	0.001742458	0.008125966
21	0.131149984	0.002025520	0.008344690
22	0.131149984	0.002102029	0.008542785
23	0.131149984	0.002092780	0.008614334
24	0.131149984	0.002067246	0.008683034
25	0.131149984	0.001932246	0.008854992
26	0.131149984	0.001630219	0.009058540
27	0.131149984	0.001159514	0.009249823
28	0.131149984	0.000528465	0.009401895
29	0.131149984	-0.000253375	0.009489406
30	0.131149984	-0.001173703	0.009489927
31	0.131149984	-0.002218202	0.009389762
32	0.131149984	-0.003374043	0.009190120
33	0.131149984	-0.004633930	0.008910041
34	0.131149984	-0.005993591	0.008569567
35	0.131149984	-0.007445734	0.008172390
36	0.131149984	-0.008982652	0.007721674
37	0.131149984	-0.010596360	0.007220827
38	0.131149984	-0.012278749	0.006673972
39	0.131149984	-0.014021457	0.006085417
40	0.131149984	-0.015815912	0.005459724
41	0.131149984	-0.017653206	0.004801252
42	0.131149984	-0.019524154	0.004114242
43	0.131149984	-0.021419163	0.003402363
44	0.131149984	-0.023327672	0.002666397
45	0.131149984	-0.025198090	0.001745053
1	0.133815776	-0.025434112	0.001943868
2	0.133815776	-0.023379911	0.002095476
3	0.133815776	-0.021380931	0.002428545
4	0.133815776	-0.019405653	0.002776031
5	0.133815776	-0.017463516	0.003133076
6	0.133815776	-0.015564527	0.003497807
7	0.133815776	-0.013718641	0.003869086
8	0.133815776	-0.011935612	0.004245939
9	0.133815776	-0.010225030	0.004627837
10	0.133815776	-0.008596138	0.005013989
11	0.133815776	-0.007057845	0.005403534
12	0.133815776	-0.005618621	0.005795237
13	0.133815776	-0.004286434	0.006187361
14	0.133815776	-0.003068562	0.006577214
15	0.133815776	-0.001967607	0.006949862
16	0.133815776	-0.000983008	0.007284547
17	0.133815776	-0.000117781	0.007573624
18	0.133815776	0.000621882	0.007820911
19	0.133815776	0.001227304	0.008039125
20	0.133815776	0.001686114	0.008246865
21	0.133815776	0.001971968	0.008465296
22	0.133815776	0.002050102	0.008664041
23	0.133815776	0.002041167	0.008736041
24	0.133815776	0.002015794	0.008805240
25	0.133815776	0.001880666	0.008978661
26	0.133815776	0.001577615	0.009184367
27	0.133815776	0.001104897	0.009378316
28	0.133815776	0.000470810	0.009533422
29	0.133815776	-0.000315133	0.009624203
30	0.133815776	-0.001240654	0.009628126
31	0.133815776	-0.002291435	0.009531434
32	0.133815776	-0.003454606	0.009335338
33	0.133815776	-0.004722772	0.009058950
34	0.133815776	-0.006091548	0.008722322
35	0.133815776	-0.007553581	0.008329116
36	0.133815776	-0.009101114	0.007882489
37	0.133815776	-0.010726098	0.007385821
38	0.133815776	-0.012420363	0.006843220
39	0.133815776	-0.014175479	0.006258980
40	0.133815776	-0.015982806	0.005637646
41	0.133815776	-0.017833367	0.004983561
42	0.133815776	-0.019717906	0.004300948
43	0.133815776	-0.021626760	0.003593458
44	0.133815776	-0.023549307	0.002861831
45	0.133815776	-0.025434112	0.001943868
1	0.136360000	-0.025680092	0.001985234
2	0.136360000	-0.023613443	0.002134172
3	0.136360000	-0.021601301	0.002463855
4	0.136360000	-0.019612937	0.002807957
5	0.136360000	-0.017657869	0.003161654
6	0.136360000	-0.015746176	0.003523115
7	0.136360000	-0.013887874	0.003891230
8	0.136360000	-0.012092781	0.004265051
9	0.136360000	-0.010370543	0.004644072
10	0.136360000	-0.008730460	0.005027527
11	0.136360000	-0.007181494	0.005414569
12	0.136360000	-0.005732168	0.005803982
13	0.136360000	-0.004390498	0.006194046
14	0.136360000	-0.003163801	0.006582049
15	0.136360000	-0.002054723	0.006952926
16	0.136360000	-0.001062832	0.007285967
17	0.136360000	-0.000191225	0.007573597
18	0.136360000	0.000553882	0.007819678
19	0.136360000	0.001163828	0.008036978
20	0.136360000	0.001626290	0.008244143
21	0.136360000	0.001915034	0.008462454
22	0.136360000	0.001994840	0.008661927
23	0.136360000	0.001986134	0.008734401
24	0.136360000	0.001960776	0.008804080
25	0.136360000	0.001824993	0.008978669
26	0.136360000	0.001520192	0.009185756
27	0.136360000	0.001044739	0.009381213
28	0.136360000	0.000406975	0.009537963
29	0.136360000	-0.000383597	0.009630528
30	0.136360000	-0.001314727	0.009636391
31	0.136360000	-0.002372128	0.009541769
32	0.136360000	-0.003542911	0.009347797
33	0.136360000	-0.004819581	0.009073475
34	0.136360000	-0.006197668	0.008738925
35	0.136360000	-0.007669780	0.008347852
36	0.136360000	-0.009228106	0.007903409
37	0.136360000	-0.010864538	0.007408955
38	0.136360000	-0.012570838	0.006868576
39	0.136360000	-0.014338511	0.006286556
40	0.136360000	-0.016158847	0.005667430
41	0.136360000	-0.018022803	0.005015540
42	0.136360000	-0.019921051	0.004335103
43	0.136360000	-0.021843865	0.003629771
44	0.136360000	-0.023780566	0.002900289
45	0.136360000	-0.025680092	0.001985234
1	0.138754782	-0.025801640	0.001852267
2	0.138754782	-0.023734319	0.001998951
3	0.138754782	-0.021720767	0.002325062
4	0.138754782	-0.019730953	0.002665514
5	0.138754782	-0.017774413	0.003015532
6	0.138754782	-0.015861238	0.003373339
7	0.138754782	-0.014001451	0.003737852
8	0.138754782	-0.012204876	0.004108155
9	0.138754782	-0.010481164	0.004483752
10	0.138754782	-0.008839615	0.004863890
11	0.138754782	-0.007289190	0.005247725
12	0.138754782	-0.005838412	0.005634044
13	0.138754782	-0.004495300	0.006021144
14	0.138754782	-0.003267142	0.006406232
15	0.138754782	-0.002156525	0.006773971
16	0.138754782	-0.001163182	0.007103990
17	0.138754782	-0.000290327	0.007389001
18	0.138754782	0.000455811	0.007632954
19	0.138754782	0.001066612	0.007848620
20	0.138754782	0.001529849	0.008054551
21	0.138754782	0.001819484	0.008271942
22	0.138754782	0.001900086	0.008471171
23	0.138754782	0.001891512	0.008543687
24	0.138754782	0.001866191	0.008613398
25	0.138754782	0.001730275	0.008787944
26	0.138754782	0.001425230	0.008994839
27	0.138754782	0.000949587	0.009190184
28	0.138754782	0.000311703	0.009347157
29	0.138754782	-0.000478981	0.009440526
30	0.138754782	-0.001410338	0.009447952
31	0.138754782	-0.002468212	0.009355625
32	0.138754782	-0.003639750	0.009164413
33	0.138754782	-0.004917339	0.008892828
34	0.138754782	-0.006296485	0.008561149
35	0.138754782	-0.007769826	0.008173228
36	0.138754782	-0.009329542	0.007732194
37	0.138754782	-0.010967515	0.007241376
38	0.138754782	-0.012675487	0.006704807
39	0.138754782	-0.014444949	0.006126747
40	0.138754782	-0.016267177	0.005511704
41	0.138754782	-0.018133118	0.004864008
42	0.138754782	-0.020033436	0.004187864
43	0.138754782	-0.021958400	0.003486920
44	0.138754782	-0.023897343	0.002761948
45	0.138754782	-0.025801640	0.001852267
1	0.140973883	-0.025645998	0.001614924
2	0.140973883	-0.023603637	0.001756108
3	0.140973883	-0.021614248	0.002075193
4	0.140973883	-0.019648283	0.002408465
5	0.140973883	-0.017715167	0.002751226
6	0.140973883	-0.015824879	0.003101771
7	0.140973883	-0.013987322	0.003459058
8	0.140973883	-0.012212206	0.003822210
9	0.140973883	-0.010509060	0.004190739
10	0.140973883	-0.008887074	0.004563904
11	0.140973883	-0.007355092	0.004940852
12	0.140973883	-0.005921525	0.005320369
13	0.140973883	-0.004594292	0.005700764
14	0.140973883	-0.003380535	0.006079110
15	0.140973883	-0.002282648	0.006439717
16	0.140973883	-0.001300565	0.006762969
17	0.140973883	-0.000437631	0.007042134
18	0.140973883	0.000299961	0.007281292
19	0.140973883	0.000903711	0.007493101
20	0.140973883	0.001361598	0.007695782
21	0.140973883	0.001647991	0.007910107
22	0.140973883	0.001727777	0.008106815
23	0.140973883	0.001719303	0.008178441
24	0.140973883	0.001694258	0.008247268
25	0.140973883	0.001559883	0.008419513
26	0.140973883	0.001258499	0.008623620
27	0.140973883	0.000788757	0.008816458
28	0.140973883	0.000158912	0.008971821
29	0.140973883	-0.000621789	0.009065073
30	0.140973883	-0.001541514	0.009074306
31	0.140973883	-0.002586416	0.008985749
32	0.140973883	-0.003743801	0.008799797
33	0.140973883	-0.005005960	0.008534021
34	0.140973883	-0.006368457	0.008208809
35	0.140973883	-0.007824076	0.007828248
36	0.140973883	-0.009365090	0.007395402
37	0.140973883	-0.010983473	0.006913542
38	0.140973883	-0.012671050	0.006386586
39	0.140973883	-0.014419412	0.005818735
40	0.140973883	-0.016219930	0.005214411
41	0.140973883	-0.018063664	0.004577900
42	0.140973883	-0.019941395	0.003913353
43	0.140973883	-0.021843514	0.003224384
44	0.140973883	-0.023759506	0.002511788
45	0.140973883	-0.025645998	0.001614924
1	0.142992991	-0.025110018	0.001355870
2	0.142992991	-0.023129626	0.001490048
3	0.142992991	-0.021200204	0.001796257
4	0.142992991	-0.019293480	0.002116322
5	0.142992991	-0.017418606	0.002445718
6	0.142992991	-0.015585267	0.002782839
7	0.142992991	-0.013803070	0.003126698
8	0.142992991	-0.012081438	0.003476479
9	0.142992991	-0.010429610	0.003831700
10	0.142992991	-0.008856496	0.004191636
11	0.142992991	-0.007370666	0.004555433
12	0.142992991	-0.005980272	0.004921878
13	0.142992991	-0.004692984	0.005289317
14	0.142992991	-0.003515653	0.005654656
15	0.142992991	-0.002450375	0.006001969
16	0.142992991	-0.001497314	0.006312860
17	0.142992991	-0.000659912	0.006581371
18	0.142992991	0.000055766	0.006811687
19	0.142992991	0.000641477	0.007016155
20	0.142992991	0.001085585	0.007212350
21	0.142992991	0.001363200	0.007420231
22	0.142992991	0.001440147	0.007611107
23	0.142992991	0.001431744	0.007680530
24	0.142992991	0.001407294	0.007747183
25	0.142992991	0.001276711	0.007913897
26	0.142992991	0.000984358	0.008111445
27	0.142992991	0.000528983	0.008298292
28	0.142992991	-0.000081436	0.008449361
29	0.142992991	-0.000838041	0.008541091
30	0.142992991	-0.001729538	0.008552372
31	0.142992991	-0.002742652	0.008469605
32	0.142992991	-0.003865044	0.008292524
33	0.142992991	-0.005088982	0.008037240
34	0.142992991	-0.006410176	0.007724025
35	0.142992991	-0.007821709	0.007357265
36	0.142992991	-0.009316078	0.006939892
37	0.142992991	-0.010885499	0.006475065
38	0.142992991	-0.012522020	0.005966512
39	0.142992991	-0.014217484	0.005418302
40	0.142992991	-0.015963518	0.004834701
41	0.142992991	-0.017751458	0.004219885
42	0.142992991	-0.019572370	0.003577890
43	0.142992991	-0.021416949	0.002912245
44	0.142992991	-0.023275026	0.002223789
45	0.142992991	-0.025110018	0.001355870
1	0.144789984	-0.024133229	0.001132743
2	0.144789984	-0.022258773	0.001261179
3	0.144789984	-0.020431250	0.001548112
4	0.144789984	-0.018625205	0.001848260
5	0.144789984	-0.016849328	0.002157422
6	0.144789984	-0.015112799	0.002474118
7	0.144789984	-0.013424722	0.002797435
8	0.144789984	-0.011794027	0.003126625
9	0.144789984	-0.010229462	0.003461219
10	0.144789984	-0.008739463	0.003800516
11	0.144789984	-0.007332142	0.004143665
12	0.144789984	-0.006015208	0.004489480
13	0.144789984	-0.004795922	0.004836370
14	0.144789984	-0.003680667	0.005181066
15	0.144789984	-0.002671177	0.005507690
16	0.144789984	-0.001767861	0.005799549
17	0.144789984	-0.000974196	0.006051637
18	0.144789984	-0.000295998	0.006268193
19	0.144789984	0.000258915	0.006461007
20	0.144789984	0.000679518	0.006646643
21	0.144789984	0.000942124	0.006843826
22	0.144789984	0.001014164	0.007024878
23	0.144789984	0.001005870	0.007090578
24	0.144789984	0.000982457	0.007153583
25	0.144789984	0.000858405	0.007311094
26	0.144789984	0.000581411	0.007497811
27	0.144789984	0.000150282	0.007674683
28	0.144789984	-0.000427475	0.007818303
29	0.144789984	-0.001143588	0.007906687
30	0.144789984	-0.001987558	0.007919946
31	0.144789984	-0.002946959	0.007844876
32	0.144789984	-0.004010053	0.007680465
33	0.144789984	-0.005169217	0.007440896
34	0.144789984	-0.006420385	0.007145909
35	0.144789984	-0.007757110	0.006800212
36	0.144789984	-0.009172270	0.006406535
37	0.144789984	-0.010658489	0.005967867
38	0.144789984	-0.012208212	0.005487672
39	0.144789984	-0.013813714	0.004969808
40	0.144789984	-0.015467060	0.004418309
41	0.144789984	-0.017160058	0.003837162
42	0.144789984	-0.018884256	0.003230223
43	0.144789984	-0.020630861	0.002600875
44	0.144789984	-0.022390288	0.001950046
45	0.144789984	-0.024133229	0.001132743
1	0.146345173	-0.022753095	0.000974329
2	0.146345173	-0.021023208	0.001094093
3	0.146345173	-0.019335768	0.001357154
4	0.146345173	-0.017668143	0.001632470
5	0.146345173	-0.016028375	0.001916218
6	0.146345173	-0.014424947	0.002207075
7	0.146345173	-0.012866268	0.002504218
8	0.146345173	-0.011360591	0.002806987
9	0.146345173	-0.009915992	0.003114935
10	0.146345173	-0.008540260	0.003427404
11	0.146345173	-0.007240878	0.003743572
12	0.146345173	-0.006024957	0.004062310
13	0.146345173	-0.004899198	0.004382126
14	0.146345173	-0.003869372	0.004699611
15	0.146345173	-0.002936843	0.004999371
16	0.146345173	-0.002102239	0.005266735
17	0.146345173	-0.001368973	0.005497693
18	0.146345173	-0.000742488	0.005696430
19	0.146345173	-0.000230021	0.005873926
20	0.146345173	0.000158223	0.006045407
21	0.146345173	0.000400207	0.006227998
22	0.146345173	0.000465678	0.006395526
23	0.146345173	0.000457601	0.006456119
24	0.146345173	0.000435677	0.006514151
25	0.146345173	0.000320714	0.006659161
26	0.146345173	0.000064826	0.006831136
27	0.146345173	-0.000333107	0.006994298
28	0.146345173	-0.000866207	0.007127352
29	0.146345173	-0.001526951	0.007210315
30	0.146345173	-0.002305825	0.007224907
31	0.146345173	-0.003191497	0.007158613
32	0.146345173	-0.004173076	0.007009750
33	0.146345173	-0.005243230	0.006790363
34	0.146345173	-0.006398185	0.006519119
35	0.146345173	-0.007632105	0.006200996
36	0.146345173	-0.008938396	0.005838466
37	0.146345173	-0.010310245	0.005434291
38	0.146345173	-0.011740658	0.004991613
39	0.146345173	-0.013222503	0.004513998
40	0.146345173	-0.014748451	0.004005175
41	0.146345173	-0.016310954	0.003468870
42	0.146345173	-0.017902226	0.002908682
43	0.146345173	-0.019514169	0.002327791
44	0.146345173	-0.021137978	0.001727183
45	0.146345173	-0.022753095	0.000974329
1	0.147641520	-0.021156855	0.000883924
2	0.147641520	-0.019589241	0.000981995
3	0.147641520	-0.018062481	0.001219800
4	0.147641520	-0.016553693	0.001468872
5	0.147641520	-0.015070113	0.001725599
6	0.147641520	-0.013619421	0.001988818
7	0.147641520	-0.012209234	0.002257803
8	0.147641520	-0.010847022	0.002531985
9	0.147641520	-0.009540093	0.002810944
10	0.147641520	-0.008295495	0.003094075
11	0.147641520	-0.007119992	0.003380599
12	0.147641520	-0.006020015	0.003669469
13	0.147641520	-0.005001622	0.003959307
14	0.147641520	-0.004069911	0.004246638
15	0.147641520	-0.003225923	0.004516968
16	0.147641520	-0.002470435	0.004757679
17	0.147641520	-0.001806700	0.004965646
18	0.147641520	-0.001239709	0.005144890
19	0.147641520	-0.000776033	0.005305412
20	0.147641520	-0.000424939	0.005460932
21	0.147641520	-0.000206539	0.005626793
22	0.147641520	-0.000148331	0.005778739
23	0.147641520	-0.000156016	0.005833510
24	0.147641520	-0.000176126	0.005885881
25	0.147641520	-0.000280510	0.006016691
26	0.147641520	-0.000512106	0.006171923
27	0.147641520	-0.000871965	0.006319453
28	0.147641520	-0.001353920	0.006440285
29	0.147641520	-0.001951264	0.006516605
30	0.147641520	-0.002655551	0.006531957
31	0.147641520	-0.003456655	0.006474755
32	0.147641520	-0.004344687	0.006342847
33	0.147641520	-0.005312773	0.006146236
34	0.147641520	-0.006357451	0.005902087
35	0.147641520	-0.007473554	0.005615520
36	0.147641520	-0.008655107	0.005288731
37	0.147641520	-0.009895944	0.004924228
38	0.147641520	-0.011189726	0.004524813
39	0.147641520	-0.012529999	0.004093718
40	0.147641520	-0.013910140	0.003634327
41	0.147641520	-0.015323331	0.003150047
42	0.147641520	-0.016762543	0.002644168
43	0.147641520	-0.018220470	0.002119614
44	0.147641520	-0.019689142	0.001577219
45	0.147641520	-0.021156855	0.000883924
1	0.148664822	-0.019610877	0.000844151
2	0.148664822	-0.018197735	0.000909871
3	0.148664822	-0.016826972	0.001124011
4	0.148664822	-0.015472443	0.001348628
5	0.148664822	-0.014140555	0.001580114
6	0.148664822	-0.012838211	0.001817456
7	0.148664822	-0.011572249	0.002060013
8	0.148664822	-0.010349386	0.002307294
9	0.148664822	-0.009176183	0.002558907
10	0.148664822	-0.008058969	0.002814301
11	0.148664822	-0.007003813	0.003072744
12	0.148664822	-0.006016485	0.003333269
13	0.148664822	-0.005102421	0.003594618
14	0.148664822	-0.004266091	0.003853330
15	0.148664822	-0.003508291	0.004096015
16	0.148664822	-0.002829866	0.004311837
17	0.148664822	-0.002233854	0.004498349
18	0.148664822	-0.001724784	0.004659326
19	0.148664822	-0.001308579	0.004803782
20	0.148664822	-0.000993596	0.004943976
21	0.148664822	-0.000798014	0.005093539
22	0.148664822	-0.000746593	0.005230274
23	0.148664822	-0.000753731	0.005279428
24	0.148664822	-0.000772001	0.005326332
25	0.148664822	-0.000866003	0.005443440
26	0.148664822	-0.001073956	0.005582509
27	0.148664822	-0.001396828	0.005714927
28	0.148664822	-0.001829138	0.005823867
29	0.148664822	-0.002364956	0.005893565
30	0.148664822	-0.002996838	0.005909328
31	0.148664822	-0.003715811	0.005860572
32	0.148664822	-0.004512993	0.005744892
33	0.148664822	-0.005382033	0.005570584
34	0.148664822	-0.006319763	0.005353188
35	0.148664822	-0.007321641	0.005097817
36	0.148664822	-0.008382291	0.004806406
37	0.148664822	-0.009496181	0.004481209
38	0.148664822	-0.010657610	0.004124708
39	0.148664822	-0.011860782	0.003739792
40	0.148664822	-0.013099750	0.003329500
41	0.148664822	-0.014368401	0.002896902
42	0.148664822	-0.015660427	0.002444957
43	0.148664822	-0.016969280	0.001976308
44	0.148664822	-0.018287750	0.001491461
45	0.148664822	-0.019610877	0.000844151
1	0.149403867	-0.018343666	0.000832154
2	0.149403867	-0.017057060	0.000869024
3	0.149403867	-0.015814682	0.001063679
4	0.149403867	-0.014587122	0.001268218
5	0.149403867	-0.013380094	0.001478999
6	0.149403867	-0.012199858	0.001695123
7	0.149403867	-0.011052616	0.001916017
8	0.149403867	-0.009944460	0.002141245
9	0.149403867	-0.008881337	0.002370439
10	0.149403867	-0.007868984	0.002603091
11	0.149403867	-0.006912899	0.002838509
12	0.149403867	-0.006018311	0.003075799
13	0.149403867	-0.005190141	0.003313796
14	0.149403867	-0.004432363	0.003549110
15	0.149403867	-0.003745604	0.003769377
16	0.149403867	-0.003130727	0.003965100
17	0.149403867	-0.002590558	0.004134293
18	0.149403867	-0.002129236	0.004280479
19	0.149403867	-0.001752148	0.004411841
20	0.149403867	-0.001466894	0.004539443
21	0.149403867	-0.001290040	0.004675530
22	0.149403867	-0.001244040	0.004799684
23	0.149403867	-0.001250740	0.004844178
24	0.149403867	-0.001267443	0.004886605
25	0.149403867	-0.001352826	0.004992505
26	0.149403867	-0.001541286	0.005118350
27	0.149403867	-0.001833718	0.005238388
28	0.149403867	-0.002225198	0.005337540
29	0.149403867	-0.002710426	0.005401684
30	0.149403867	-0.003282760	0.005417571
31	0.149403867	-0.003934161	0.005375492
32	0.149403867	-0.004656586	0.005272946
33	0.149403867	-0.005444164	0.005116982
34	0.149403867	-0.006293965	0.004921726
35	0.149403867	-0.007201940	0.004692182
36	0.149403867	-0.008163209	0.004430075
37	0.149403867	-0.009172760	0.004137444
38	0.149403867	-0.010225418	0.003816507
39	0.149403867	-0.011315923	0.003469865
40	0.149403867	-0.012438884	0.003100260
41	0.149403867	-0.013588759	0.002710469
42	0.149403867	-0.014759829	0.002303164
43	0.149403867	-0.015946163	0.001880738
44	0.149403867	-0.017141165	0.001443399
45	0.149403867	-0.018343666	0.000832154
1	0.150000000	-0.017232040	0.000830998
2	0.150000000	-0.016057719	0.000846297
3	0.150000000	-0.014928258	0.001023536
4	0.150000000	-0.013812355	0.001210099
5	0.150000000	-0.012715129	0.001402378
6	0.150000000	-0.011642277	0.001599568
7	0.150000000	-0.010599438	0.001801150
8	0.150000000	-0.009592153	0.002006735
9	0.150000000	-0.008625830	0.002215975
10	0.150000000	-0.007705686	0.002428401
11	0.150000000	-0.006836716	0.002643360
12	0.150000000	-0.006023672	0.002860021
13	0.150000000	-0.005271025	0.003077305
14	0.150000000	-0.004582326	0.003291930
15	0.150000000	-0.003958079	0.003492500
16	0.150000000	-0.003399136	0.003670616
17	0.150000000	-0.002908117	0.003824634
18	0.150000000	-0.002488811	0.003957829
19	0.150000000	-0.002146128	0.004077645
20	0.150000000	-0.001887001	0.004194101
21	0.150000000	-0.001726553	0.004318241
22	0.150000000	-0.001685189	0.004431278
23	0.150000000	-0.001691424	0.004471709
24	0.150000000	-0.001706714	0.004510217
25	0.150000000	-0.001784471	0.004606314
26	0.150000000	-0.001955781	0.004720583
27	0.150000000	-0.002221470	0.004829752
28	0.150000000	-0.002577101	0.004920244
29	0.150000000	-0.003017909	0.004979346
30	0.150000000	-0.003537939	0.004995067
31	0.150000000	-0.004129956	0.004958495
32	0.150000000	-0.004786658	0.004867120
33	0.150000000	-0.005502622	0.004727000
34	0.150000000	-0.006275136	0.004550979
35	0.150000000	-0.007100564	0.004343890
36	0.150000000	-0.007974468	0.004107279
37	0.150000000	-0.008892287	0.003842989
38	0.150000000	-0.009849311	0.003553010
39	0.150000000	-0.010840751	0.003239684
40	0.150000000	-0.011861700	0.002905493
41	0.150000000	-0.012907119	0.002552949
42	0.150000000	-0.013971804	0.002184467
43	0.150000000	-0.015050362	0.001802216
44	0.150000000	-0.016136749	0.001406194
45	0.150000000	-0.017232040	0.000830998
