######## Panel parameters ########
n_blades=5

n_span_all= 22
n_points=21
######## End of parameters ########
1	0.026000000	-0.019473203	-0.014730766
2	0.026000000	-0.014826829	-0.011816730
3	0.026000000	-0.010065455	-0.009381462
4	0.026000000	-0.005551087	-0.007067007
5	0.026000000	-0.001521607	-0.004687077
6	0.026000000	0.001745665	-0.002094102
7	0.026000000	0.004099179	0.000577825
8	0.026000000	0.005498605	0.003075071
9	0.026000000	0.005914291	0.005117401
10	0.026000000	0.005545302	0.006332687
11	0.026000000	0.005293023	0.006681237
12	0.026000000	0.004978445	0.006985441
13	0.026000000	0.003832430	0.007592510
14	0.026000000	0.001715331	0.007717922
15	0.026000000	-0.001088485	0.006938864
16	0.026000000	-0.004245197	0.005166063
17	0.026000000	-0.007481668	0.002423422
18	0.026000000	-0.010622439	-0.001152639
19	0.026000000	-0.013643894	-0.005335038
20	0.026000000	-0.016638211	-0.009878379
21	0.026000000	-0.019473203	-0.014730766
1	0.032908571	-0.022339548	-0.013423649
2	0.032908571	-0.017335730	-0.010818176
3	0.032908571	-0.012381611	-0.008443351
4	0.032908571	-0.007748505	-0.006051162
5	0.032908571	-0.003580371	-0.003647726
6	0.032908571	-0.000052426	-0.001205948
7	0.032908571	0.002772541	0.001127718
8	0.032908571	0.004804622	0.003260814
9	0.032908571	0.005913676	0.005103635
10	0.032908571	0.006033892	0.006396926
11	0.032908571	0.005850477	0.006796997
12	0.032908571	0.005522077	0.007109236
13	0.032908571	0.004253558	0.007561093
14	0.032908571	0.002038023	0.007589901
15	0.032908571	-0.000917904	0.006928404
16	0.032908571	-0.004364710	0.005410315
17	0.032908571	-0.008035642	0.002963860
18	0.032908571	-0.011661948	-0.000400706
19	0.032908571	-0.015166339	-0.004462884
20	0.032908571	-0.018763009	-0.008827050
21	0.032908571	-0.022339548	-0.013423649
1	0.039817143	-0.025168238	-0.012852176
2	0.039817143	-0.019778848	-0.010240757
3	0.039817143	-0.014525648	-0.007709862
4	0.039817143	-0.009581962	-0.005217230
5	0.039817143	-0.005119950	-0.002729045
6	0.039817143	-0.001249710	-0.000324270
7	0.039817143	0.001958142	0.001879221
8	0.039817143	0.004442737	0.003783471
9	0.039817143	0.006050045	0.005412601
10	0.039817143	0.006577725	0.006680400
11	0.039817143	0.006451977	0.007127984
12	0.039817143	0.006102238	0.007453118
13	0.039817143	0.004737129	0.007849956
14	0.039817143	0.002399034	0.007719103
15	0.039817143	-0.000676503	0.006825436
16	0.039817143	-0.004306215	0.005181042
17	0.039817143	-0.008311294	0.002789752
18	0.039817143	-0.012434934	-0.000428452
19	0.039817143	-0.016519775	-0.004361029
20	0.039817143	-0.020843627	-0.008484883
21	0.039817143	-0.025168238	-0.012852176
1	0.046725714	-0.027736344	-0.012461227
2	0.046725714	-0.021923762	-0.009890963
3	0.046725714	-0.016327801	-0.007256798
4	0.046725714	-0.011063131	-0.004653279
5	0.046725714	-0.006283569	-0.002097818
6	0.046725714	-0.002099240	0.000322305
7	0.046725714	0.001396400	0.002518887
8	0.046725714	0.004161170	0.004359678
9	0.046725714	0.006096468	0.005831448
10	0.046725714	0.006990704	0.006991198
11	0.046725714	0.006948150	0.007475226
12	0.046725714	0.006570812	0.007804995
13	0.046725714	0.005105332	0.008116327
14	0.046725714	0.002655807	0.007813678
15	0.046725714	-0.000523254	0.006677622
16	0.046725714	-0.004295770	0.004829578
17	0.046725714	-0.008553400	0.002368020
18	0.046725714	-0.013112907	-0.000734479
19	0.046725714	-0.017817806	-0.004419459
20	0.046725714	-0.022781724	-0.008292078
21	0.046725714	-0.027736344	-0.012461227
1	0.053634286	-0.029452856	-0.011751707
2	0.053634286	-0.023340545	-0.009330363
3	0.053634286	-0.017493706	-0.006739524
4	0.053634286	-0.012003237	-0.004144168
5	0.053634286	-0.006998218	-0.001622115
6	0.053634286	-0.002608754	0.000768420
7	0.053634286	0.001051565	0.002964844
8	0.053634286	0.003951359	0.004805431
9	0.053634286	0.006060190	0.006176514
10	0.053634286	0.007185544	0.007203323
11	0.053634286	0.007217697	0.007695399
12	0.053634286	0.006824860	0.008028609
13	0.053634286	0.005303342	0.008306252
14	0.053634286	0.002779338	0.007969157
15	0.053634286	-0.000490302	0.006771472
16	0.053634286	-0.004365659	0.004833002
17	0.053634286	-0.008784735	0.002340099
18	0.053634286	-0.013625491	-0.000649222
19	0.053634286	-0.018768288	-0.004048879
20	0.053634286	-0.024114345	-0.007734542
21	0.053634286	-0.029452856	-0.011751707
1	0.060542857	-0.030418758	-0.010654072
2	0.060542857	-0.024160076	-0.008418992
3	0.060542857	-0.018171305	-0.005986398
4	0.060542857	-0.012546664	-0.003528320
5	0.060542857	-0.007411983	-0.001135382
6	0.060542857	-0.002905670	0.001148334
7	0.060542857	0.000851324	0.003269786
8	0.060542857	0.003826763	0.005058225
9	0.060542857	0.006007496	0.006365490
10	0.060542857	0.007206967	0.007333865
11	0.060542857	0.007267601	0.007826141
12	0.060542857	0.006878271	0.008171223
13	0.060542857	0.005346937	0.008486876
14	0.060542857	0.002787035	0.008222125
15	0.060542857	-0.000551200	0.007109499
16	0.060542857	-0.004515511	0.005249683
17	0.060542857	-0.009046379	0.002849092
18	0.060542857	-0.014034248	-0.000010965
19	0.060542857	-0.019363534	-0.003237984
20	0.060542857	-0.024889202	-0.006777369
21	0.060542857	-0.030418758	-0.010654072
1	0.067451429	-0.031193163	-0.009480001
2	0.067451429	-0.024855257	-0.007430138
3	0.067451429	-0.018781993	-0.005173799
4	0.067451429	-0.013072876	-0.002880681
5	0.067451429	-0.007856677	-0.000637852
6	0.067451429	-0.003273393	0.001514673
7	0.067451429	0.000554197	0.003527363
8	0.067451429	0.003588714	0.005230011
9	0.067451429	0.005812581	0.006474499
10	0.067451429	0.007043033	0.007409019
11	0.067451429	0.007117569	0.007900436
12	0.067451429	0.006737164	0.008257037
13	0.067451429	0.005212375	0.008618103
14	0.067451429	0.002640123	0.008429746
15	0.067451429	-0.000737450	0.007416220
16	0.067451429	-0.004764411	0.005672352
17	0.067451429	-0.009375074	0.003403652
18	0.067451429	-0.014457343	0.000688486
19	0.067451429	-0.019892760	-0.002383795
20	0.067451429	-0.025534529	-0.005762662
21	0.067451429	-0.031193163	-0.009480001
1	0.074360000	-0.031039440	-0.008055501
2	0.074360000	-0.024803533	-0.006217480
3	0.074360000	-0.018820413	-0.004171524
4	0.074360000	-0.013191635	-0.002080335
5	0.074360000	-0.008045146	-0.000025384
6	0.074360000	-0.003518576	0.001957879
7	0.074360000	0.000267060	0.003824130
8	0.074360000	0.003271291	0.005407600
9	0.074360000	0.005472817	0.006564941
10	0.074360000	0.006696823	0.007445707
11	0.074360000	0.006781415	0.007923353
12	0.074360000	0.006419144	0.008280716
13	0.074360000	0.004940829	0.008671861
14	0.074360000	0.002426624	0.008554323
15	0.074360000	-0.000894408	0.007652437
16	0.074360000	-0.004867339	0.006053782
17	0.074360000	-0.009422974	0.003957778
18	0.074360000	-0.014450057	0.001438247
19	0.074360000	-0.019830817	-0.001420535
20	0.074360000	-0.025420889	-0.004572774
21	0.074360000	-0.031039440	-0.008055501
1	0.081268571	-0.030503608	-0.006585577
2	0.081268571	-0.024455144	-0.004960719
3	0.081268571	-0.018645196	-0.003129928
4	0.081268571	-0.013175434	-0.001247350
5	0.081268571	-0.008171018	0.000611638
6	0.081268571	-0.003765343	0.002416142
7	0.081268571	-0.000076007	0.004125303
8	0.081268571	0.002854266	0.005580169
9	0.081268571	0.005001494	0.006643441
10	0.081268571	0.006200699	0.007463327
11	0.081268571	0.006292883	0.007921415
12	0.081268571	0.005952076	0.008273789
13	0.081268571	0.004537453	0.008684745
14	0.081268571	0.002113437	0.008630411
15	0.081268571	-0.001105952	0.007839719
16	0.081268571	-0.004969257	0.006392713
17	0.081268571	-0.009405250	0.004480169
18	0.081268571	-0.014305116	0.002170722
19	0.081268571	-0.019553514	-0.000457135
20	0.081268571	-0.025010421	-0.003362523
21	0.081268571	-0.030503608	-0.006585577
1	0.088177143	-0.029691127	-0.005124792
2	0.088177143	-0.023892087	-0.003705058
3	0.088177143	-0.018315884	-0.002084221
4	0.088177143	-0.013062749	-0.000406882
5	0.088177143	-0.008253609	0.001257903
6	0.088177143	-0.004016277	0.002883597
7	0.088177143	-0.000463695	0.004433754
8	0.088177143	0.002360172	0.005757471
9	0.088177143	0.004429337	0.006724836
10	0.088177143	0.005589568	0.007480831
11	0.088177143	0.005686794	0.007915520
12	0.088177143	0.005369381	0.008258512
13	0.088177143	0.004030007	0.008680460
14	0.088177143	0.001718702	0.008680987
15	0.088177143	-0.001366478	0.007996883
16	0.088177143	-0.005079211	0.006700420
17	0.088177143	-0.009347572	0.004972262
18	0.088177143	-0.014066416	0.002875603
19	0.088177143	-0.019124163	0.000482842
20	0.088177143	-0.024386554	-0.002169924
21	0.088177143	-0.029691127	-0.005124792
1	0.095085714	-0.028589038	-0.003682158
2	0.095085714	-0.023097310	-0.002456664
3	0.095085714	-0.017811518	-0.001037754
4	0.095085714	-0.012828976	0.000440459
5	0.095085714	-0.008265009	0.001915385
6	0.095085714	-0.004240588	0.003364585
7	0.095085714	-0.000862851	0.004755943
8	0.095085714	0.001823912	0.005947945
9	0.095085714	0.003792548	0.006818983
10	0.095085714	0.004900456	0.007508814
11	0.095085714	0.005000324	0.007916563
12	0.095085714	0.004707878	0.008245917
13	0.095085714	0.003454094	0.008669753
14	0.095085714	0.001276238	0.008715689
15	0.095085714	-0.001644249	0.008131650
16	0.095085714	-0.005167916	0.006982413
17	0.095085714	-0.009223475	0.005437030
18	0.095085714	-0.013710627	0.003553063
19	0.095085714	-0.018522834	0.001396588
20	0.095085714	-0.023532925	-0.001000883
21	0.095085714	-0.028589038	-0.003682158
1	0.101994286	-0.027419017	-0.002324386
2	0.101994286	-0.022248889	-0.001273725
3	0.101994286	-0.017268242	-0.000038422
4	0.101994286	-0.012570737	0.001257657
5	0.101994286	-0.008265632	0.002558009
6	0.101994286	-0.004466753	0.003843869
7	0.101994286	-0.001275133	0.005087131
8	0.101994286	0.001265163	0.006155916
9	0.101994286	0.003126435	0.006936824
10	0.101994286	0.004177466	0.007563540
11	0.101994286	0.004278370	0.007944011
12	0.101994286	0.004010212	0.008258105
13	0.101994286	0.002842560	0.008678318
14	0.101994286	0.000801715	0.008761006
15	0.101994286	-0.001946751	0.008266422
16	0.101994286	-0.005270838	0.007252605
17	0.101994286	-0.009100650	0.005876842
18	0.101994286	-0.013341119	0.004191319
19	0.101994286	-0.017891178	0.002256073
20	0.101994286	-0.022631061	0.000098416
21	0.101994286	-0.027419017	-0.002324386
1	0.108902857	-0.026301344	-0.001082679
2	0.108902857	-0.021439595	-0.000183481
3	0.108902857	-0.016752219	0.000891445
4	0.108902857	-0.012329057	0.002027698
5	0.108902857	-0.008273435	0.003174239
6	0.108902857	-0.004692335	0.004315478
7	0.108902857	-0.001680915	0.005426870
8	0.108902857	0.000717280	0.006385713
9	0.108902857	0.002474405	0.007086189
10	0.108902857	0.003469764	0.007655748
11	0.108902857	0.003570796	0.008010541
12	0.108902857	0.003324892	0.008309440
13	0.108902857	0.002237848	0.008722895
14	0.108902857	0.000326869	0.008834518
15	0.108902857	-0.002256821	0.008416885
16	0.108902857	-0.005388560	0.007522337
17	0.108902857	-0.009000210	0.006297022
18	0.108902857	-0.013001812	0.004788245
19	0.108902857	-0.017297656	0.003050579
20	0.108902857	-0.021775072	0.001107650
21	0.108902857	-0.026301344	-0.001082679
1	0.115811429	-0.025416840	0.000001197
2	0.115811429	-0.020811947	0.000775065
3	0.115811429	-0.016368872	0.001717141
4	0.115811429	-0.012174255	0.002720898
5	0.115811429	-0.008326472	0.003739837
6	0.115811429	-0.004926805	0.004761017
7	0.115811429	-0.002065527	0.005762898
8	0.115811429	0.000214196	0.006630610
9	0.115811429	0.001884502	0.007264385
10	0.115811429	0.002833474	0.007786419
11	0.115811429	0.002934695	0.008119821
12	0.115811429	0.002707403	0.008406141
13	0.115811429	0.001687474	0.008814047
14	0.115811429	-0.000115459	0.008949516
15	0.115811429	-0.002561970	0.008595373
16	0.115811429	-0.005533554	0.007799630
17	0.115811429	-0.008963545	0.006699053
18	0.115811429	-0.012766238	0.005336872
19	0.115811429	-0.016850388	0.003763126
20	0.115811429	-0.021109225	0.001998373
21	0.115811429	-0.025416840	0.000001197
1	0.122720000	-0.024955398	0.000911758
2	0.122720000	-0.020514579	0.001590240
3	0.122720000	-0.016226917	0.002432462
4	0.122720000	-0.012177280	0.003337198
5	0.122720000	-0.008460968	0.004261170
6	0.122720000	-0.005175599	0.005193514
7	0.122720000	-0.002408361	0.006115017
8	0.122720000	-0.000202658	0.006916373
9	0.122720000	0.001413415	0.007501531
10	0.122720000	0.002334157	0.007989443
11	0.122720000	0.002436919	0.008308545
12	0.122720000	0.002222725	0.008587514
13	0.122720000	0.001247539	0.008994973
14	0.122720000	-0.000485027	0.009151125
15	0.122720000	-0.002843753	0.008845246
16	0.122720000	-0.005714122	0.008122832
17	0.122720000	-0.009029995	0.007114039
18	0.122720000	-0.012708286	0.005859140
19	0.122720000	-0.016660486	0.004404930
20	0.122720000	-0.020783562	0.002769565
21	0.122720000	-0.024955398	0.000911758
1	0.128042064	-0.025010434	0.001446894
2	0.128042064	-0.020608058	0.002070529
3	0.128042064	-0.016355363	0.002857389
4	0.128042064	-0.012337489	0.003708406
5	0.128042064	-0.008649237	0.004581859
6	0.128042064	-0.005387344	0.005468144
7	0.128042064	-0.002638341	0.006349366
8	0.128042064	-0.000446571	0.007118331
9	0.128042064	0.001159293	0.007679718
10	0.128042064	0.002076055	0.008152251
11	0.128042064	0.002181592	0.008466856
12	0.128042064	0.001972924	0.008745524
13	0.128042064	0.001012310	0.009159838
14	0.128042064	-0.000700878	0.009333216
15	0.128042064	-0.003038830	0.009055706
16	0.128042064	-0.005887812	0.008371985
17	0.128042064	-0.009180924	0.007409823
18	0.128042064	-0.012835479	0.006208113
19	0.128042064	-0.016763363	0.004812203
20	0.128042064	-0.020862406	0.003238972
21	0.128042064	-0.025010434	0.001446894
1	0.133159604	-0.025370803	0.001905885
2	0.133159604	-0.020935948	0.002492898
3	0.133159604	-0.016650185	0.003245366
4	0.133159604	-0.012600010	0.004064175
5	0.133159604	-0.008881146	0.004908175
6	0.133159604	-0.005591012	0.005768744
7	0.133159604	-0.002816861	0.006628880
8	0.133159604	-0.000604463	0.007381620
9	0.133159604	0.001016516	0.007931044
10	0.133159604	0.001943517	0.008397401
11	0.133159604	0.002053077	0.008712791
12	0.133159604	0.001846005	0.008995291
13	0.133159604	0.000883507	0.009421352
14	0.133159604	-0.000838554	0.009611609
15	0.133159604	-0.003193365	0.009353839
16	0.133159604	-0.006066205	0.008692714
17	0.133159604	-0.009388554	0.007755782
18	0.133159604	-0.013076846	0.006581331
19	0.133159604	-0.017041997	0.005214133
20	0.133159604	-0.021181009	0.003670046
21	0.133159604	-0.025370803	0.001905885
1	0.137875956	-0.025781269	0.001919157
2	0.137875956	-0.021303721	0.002492962
3	0.137875956	-0.016975037	0.003231305
4	0.137875956	-0.012883450	0.004036428
5	0.137875956	-0.009125915	0.004867971
6	0.137875956	-0.005800724	0.005717683
7	0.137875956	-0.002995887	0.006568733
8	0.137875956	-0.000758104	0.007313300
9	0.137875956	0.000881405	0.007856883
10	0.137875956	0.001820478	0.008320601
11	0.137875956	0.001934024	0.008637667
12	0.137875956	0.001725584	0.008922974
13	0.137875956	0.000754787	0.009353863
14	0.137875956	-0.000982319	0.009550856
15	0.137875956	-0.003359628	0.009302134
16	0.137875956	-0.006261871	0.008650449
17	0.137875956	-0.009619370	0.007723682
18	0.137875956	-0.013347646	0.006559994
19	0.137875956	-0.017356514	0.005203801
20	0.137875956	-0.021542100	0.003671047
21	0.137875956	-0.025781269	0.001919157
1	0.142009873	-0.025430371	0.001483892
2	0.142009873	-0.021066399	0.002029710
3	0.142009873	-0.016847015	0.002736383
4	0.142009873	-0.012858516	0.003509240
5	0.142009873	-0.009195492	0.004309232
6	0.142009873	-0.005953661	0.005128218
7	0.142009873	-0.003218502	0.005949005
8	0.142009873	-0.001034738	0.006663509
9	0.142009873	0.000564961	0.007185787
10	0.142009873	0.001481150	0.007634856
11	0.142009873	0.001592056	0.007943531
12	0.142009873	0.001388549	0.008220964
13	0.142009873	0.000442908	0.008640165
14	0.142009873	-0.001248304	0.008836416
15	0.142009873	-0.003564469	0.008605106
16	0.142009873	-0.006392870	0.007980405
17	0.142009873	-0.009665351	0.007088629
18	0.142009873	-0.013299637	0.005967278
19	0.142009873	-0.017207668	0.004659042
20	0.142009873	-0.021288278	0.003179240
21	0.142009873	-0.025430371	0.001483892
1	0.145402491	-0.023655856	0.001065071
2	0.145402491	-0.019705964	0.001552994
3	0.145402491	-0.015885522	0.002182997
4	0.145402491	-0.012273824	0.002873508
5	0.145402491	-0.008956958	0.003590731
6	0.145402491	-0.006021515	0.004326895
7	0.145402491	-0.003544464	0.005064913
8	0.145402491	-0.001564850	0.005702051
9	0.145402491	-0.000115047	0.006168796
10	0.145402491	0.000714130	0.006574983
11	0.145402491	0.000812312	0.006854982
12	0.145402491	0.000626841	0.007105096
13	0.145402491	-0.000228973	0.007484065
14	0.145402491	-0.001758474	0.007667633
15	0.145402491	-0.003855160	0.007470980
16	0.145402491	-0.006415720	0.006913522
17	0.145402491	-0.009378047	0.006112798
18	0.145402491	-0.012667718	0.005103698
19	0.145402491	-0.016204858	0.003924504
20	0.145402491	-0.019898389	0.002590753
21	0.145402491	-0.023655856	0.001065071
1	0.147923434	-0.020755676	0.000870132
2	0.147923434	-0.017452541	0.001264692
3	0.147923434	-0.014259679	0.001786957
4	0.147923434	-0.011242022	0.002363353
5	0.147923434	-0.008470897	0.002963059
6	0.147923434	-0.006018624	0.003579225
7	0.147923434	-0.003949095	0.004196024
8	0.147923434	-0.002293581	0.004723490
9	0.147923434	-0.001081454	0.005110862
10	0.147923434	-0.000389595	0.005451698
11	0.147923434	-0.000310351	0.005686453
12	0.147923434	-0.000466572	0.005894323
13	0.147923434	-0.001181174	0.006210441
14	0.147923434	-0.002457368	0.006368920
15	0.147923434	-0.004208500	0.006215544
16	0.147923434	-0.006347157	0.005756342
17	0.147923434	-0.008821019	0.005092105
18	0.147923434	-0.011568058	0.004253209
19	0.147923434	-0.014521487	0.003271508
20	0.147923434	-0.017604795	0.002157925
21	0.147923434	-0.020755676	0.000870132
1	0.150000000	-0.017232040	0.000830998
2	0.150000000	-0.014711017	0.001089555
3	0.150000000	-0.012282746	0.001480699
4	0.150000000	-0.009990451	0.001924042
5	0.150000000	-0.007885777	0.002385690
6	0.150000000	-0.006023672	0.002860021
7	0.150000000	-0.004452323	0.003333552
8	0.150000000	-0.003194391	0.003735041
9	0.150000000	-0.002273655	0.004030779
10	0.150000000	-0.001749376	0.004292589
11	0.150000000	-0.001691424	0.004471709
12	0.150000000	-0.001811010	0.004628732
13	0.150000000	-0.002353184	0.004868882
14	0.150000000	-0.003320863	0.004994658
15	0.150000000	-0.004650446	0.004889626
16	0.150000000	-0.006275136	0.004550979
17	0.150000000	-0.008154668	0.004056576
18	0.150000000	-0.010242029	0.003430346
19	0.150000000	-0.012486344	0.002696011
20	0.150000000	-0.014827003	0.001851918
21	0.150000000	-0.017232040	0.000830998
