######## Panel parameters ########
type=propeller
n_blades=2

rotation_center=[0, 0, 0]
rotation_axis=[0, -1, 0]
n_span_all= 56
n_points=43
######## End of parameters ########
1	0.005348679	0.009648975	0.024000000
2	0.004353875	0.008649185	0.024000000
3	0.003336963	0.007678901	0.024000000
4	0.002351150	0.006704927	0.024000000
5	0.001390716	0.005741158	0.024000000
6	0.000456296	0.004796327	0.024000000
7	-0.000448036	0.003876246	0.024000000
8	-0.001316360	0.002984972	0.024000000
9	-0.002141725	0.002125410	0.024000000
10	-0.002916583	0.001299669	0.024000000
11	-0.003633058	0.000509362	0.024000000
12	-0.004283220	-0.000244015	0.024000000
13	-0.004859476	-0.000958562	0.024000000
14	-0.005355197	-0.001631290	0.024000000
15	-0.005765718	-0.002257356	0.024000000
16	-0.006089696	-0.002829484	0.024000000
17	-0.006330547	-0.003337995	0.024000000
18	-0.006487393	-0.003774871	0.024000000
19	-0.006456251	-0.004131912	0.024000000
20	-0.006314141	-0.004350135	0.024000000
21	-0.006199068	-0.004457490	0.024000000
22	-0.006156516	-0.004488442	0.024000000
23	-0.006110433	-0.004518666	0.024000000
24	-0.005958673	-0.004581768	0.024000000
25	-0.005686746	-0.004610820	0.024000000
26	-0.005305983	-0.004590690	0.024000000
27	-0.004825901	-0.004512413	0.024000000
28	-0.004264649	-0.004333202	0.024000000
29	-0.003631668	-0.004061805	0.024000000
30	-0.002943738	-0.003685767	0.024000000
31	-0.002215070	-0.003201150	0.024000000
32	-0.001458592	-0.002607962	0.024000000
33	-0.000686425	-0.001908089	0.024000000
34	0.000089506	-0.001104400	0.024000000
35	0.000857060	-0.000200445	0.024000000
36	0.001603939	0.000799352	0.024000000
37	0.002318378	0.001889187	0.024000000
38	0.002990417	0.003061422	0.024000000
39	0.003613084	0.004306785	0.024000000
40	0.004182228	0.005615785	0.024000000
41	0.004693803	0.006981533	0.024000000
42	0.005138350	0.008403732	0.024000000
43	0.005348679	0.009648975	0.024000000
1	0.006187777	0.010059579	0.026653659
2	0.005088138	0.009001219	0.026653659
3	0.003999549	0.007946232	0.026653659
4	0.002933409	0.006895742	0.026653659
5	0.001888282	0.005861468	0.026653659
6	0.000867191	0.004851230	0.026653659
7	-0.000124325	0.003870469	0.026653659
8	-0.001079305	0.002923073	0.026653659
9	-0.001989970	0.002011837	0.026653659
10	-0.002848051	0.001138740	0.026653659
11	-0.003644997	0.000305192	0.026653659
12	-0.004372151	-0.000487673	0.026653659
13	-0.005020965	-0.001238592	0.026653659
14	-0.005583375	-0.001945578	0.026653659
15	-0.006052499	-0.002605099	0.026653659
16	-0.006423912	-0.003211104	0.026653659
17	-0.006697691	-0.003754225	0.026653659
18	-0.006877430	-0.004223094	0.026653659
19	-0.006885276	-0.004611593	0.026653659
20	-0.006750606	-0.004858135	0.026653659
21	-0.006628930	-0.004976984	0.026653659
22	-0.006583612	-0.005011359	0.026653659
23	-0.006534444	-0.005043644	0.026653659
24	-0.006374914	-0.005117539	0.026653659
25	-0.006087718	-0.005168231	0.026653659
26	-0.005681218	-0.005153578	0.026653659
27	-0.005171635	-0.005055992	0.026653659
28	-0.004576792	-0.004851327	0.026653659
29	-0.003904611	-0.004554206	0.026653659
30	-0.003176695	-0.004141441	0.026653659
31	-0.002408467	-0.003610128	0.026653659
32	-0.001613260	-0.002961660	0.026653659
33	-0.000802703	-0.002199832	0.026653659
34	0.000012694	-0.001329760	0.026653659
35	0.000823152	-0.000357421	0.026653659
36	0.001619570	0.000710405	0.026653659
37	0.002393837	0.001865992	0.026653659
38	0.003139338	0.003100576	0.026653659
39	0.003851258	0.004404601	0.026653659
40	0.004526087	0.005768615	0.026653659
41	0.005159804	0.007184948	0.026653659
42	0.005744537	0.008650261	0.026653659
43	0.006187777	0.010059579	0.026653659
1	0.006934913	0.010125522	0.029307317
2	0.005749552	0.009054773	0.029307317
3	0.004589798	0.007974365	0.029307317
4	0.003451990	0.006899274	0.029307317
5	0.002334683	0.005842312	0.029307317
6	0.001241294	0.004811687	0.029307317
7	0.000177997	0.003812775	0.029307317
8	-0.000847562	0.002849207	0.029307317
9	-0.001827004	0.001923511	0.029307317
10	-0.002751625	0.001037481	0.029307317
11	-0.003612591	0.000192421	0.029307317
12	-0.004401033	-0.000610659	0.029307317
13	-0.005108074	-0.001370824	0.029307317
14	-0.005724838	-0.002086881	0.029307317
15	-0.006242537	-0.002756819	0.029307317
16	-0.006652889	-0.003376808	0.029307317
17	-0.006949571	-0.003939513	0.029307317
18	-0.007130597	-0.004432449	0.029307317
19	-0.007149998	-0.004840134	0.029307317
20	-0.007028010	-0.005107235	0.029307317
21	-0.006908036	-0.005238477	0.029307317
22	-0.006862063	-0.005276253	0.029307317
23	-0.006812324	-0.005311872	0.029307317
24	-0.006650771	-0.005397667	0.029307317
25	-0.006356432	-0.005470697	0.029307317
26	-0.005933667	-0.005468188	0.029307317
27	-0.005401994	-0.005373904	0.029307317
28	-0.004779369	-0.005173581	0.029307317
29	-0.004080921	-0.004863135	0.029307317
30	-0.003323757	-0.004433974	0.029307317
31	-0.002523933	-0.003882562	0.029307317
32	-0.001695011	-0.003210396	0.029307317
33	-0.000848230	-0.002422048	0.029307317
34	0.000006955	-0.001523827	0.029307317
35	0.000862365	-0.000523044	0.029307317
36	0.001710791	0.000572314	0.029307317
37	0.002545891	0.001753702	0.029307317
38	0.003362209	0.003012096	0.029307317
39	0.004155095	0.004338235	0.029307317
40	0.004920219	0.005723263	0.029307317
41	0.005652314	0.007159957	0.029307317
42	0.006342890	0.008644773	0.029307317
43	0.006934913	0.010125522	0.029307317
1	0.007579224	0.009737357	0.031960976
2	0.006334140	0.008713954	0.031960976
3	0.005120721	0.007672925	0.031960976
4	0.003928784	0.006637007	0.031960976
5	0.002756666	0.005620198	0.031960976
6	0.001608508	0.004630331	0.031960976
7	0.000491447	0.003671821	0.031960976
8	-0.000586099	0.002747363	0.031960976
9	-0.001615350	0.001858867	0.031960976
10	-0.002587590	0.001007914	0.031960976
11	-0.003494337	0.000195945	0.031960976
12	-0.004327338	-0.000575681	0.031960976
13	-0.005078467	-0.001305685	0.031960976
14	-0.005739474	-0.001992890	0.031960976
15	-0.006301517	-0.002636181	0.031960976
16	-0.006754240	-0.003234283	0.031960976
17	-0.007084016	-0.003784718	0.031960976
18	-0.007271648	-0.004279580	0.031960976
19	-0.007302327	-0.004691957	0.031960976
20	-0.007214967	-0.004975546	0.031960976
21	-0.007110226	-0.005121083	0.031960976
22	-0.007067485	-0.005163230	0.031960976
23	-0.007020171	-0.005202764	0.031960976
24	-0.006862257	-0.005297794	0.031960976
25	-0.006569188	-0.005384724	0.031960976
26	-0.006143445	-0.005400835	0.031960976
27	-0.005603971	-0.005328120	0.031960976
28	-0.004967553	-0.005156400	0.031960976
29	-0.004251787	-0.004871577	0.031960976
30	-0.003473237	-0.004467355	0.031960976
31	-0.002646534	-0.003942576	0.031960976
32	-0.001784423	-0.003299263	0.031960976
33	-0.000898044	-0.002541501	0.031960976
34	0.000002807	-0.001674828	0.031960976
35	0.000909504	-0.000705907	0.031960976
36	0.001814475	0.000357693	0.031960976
37	0.002711117	0.001507667	0.031960976
38	0.003593674	0.002735193	0.031960976
39	0.004457011	0.004031280	0.031960976
40	0.005296148	0.005387366	0.031960976
41	0.006105432	0.006796343	0.031960976
42	0.006877219	0.008254174	0.031960976
43	0.007579224	0.009737357	0.031960976
1	0.008138953	0.009245315	0.034614634
2	0.006847850	0.008276979	0.034614634
3	0.005587316	0.007289654	0.034614634
4	0.004348309	0.006306560	0.034614634
5	0.003129759	0.005341908	0.034614634
6	0.001936116	0.004403460	0.034614634
7	0.000774678	0.003495389	0.034614634
8	-0.000346035	0.002620050	0.034614634
9	-0.001417167	0.001778976	0.034614634
10	-0.002429947	0.000973355	0.034614634
11	-0.003375846	0.000204245	0.034614634
12	-0.004246594	-0.000527361	0.034614634
13	-0.005034093	-0.001220530	0.034614634
14	-0.005730203	-0.001874400	0.034614634
15	-0.006326347	-0.002488155	0.034614634
16	-0.006812737	-0.003060830	0.034614634
17	-0.007176947	-0.003590441	0.034614634
18	-0.007401963	-0.004070596	0.034614634
19	-0.007469969	-0.004479283	0.034614634
20	-0.007409804	-0.004770318	0.034614634
21	-0.007318175	-0.004924744	0.034614634
22	-0.007278968	-0.004970323	0.034614634
23	-0.007234714	-0.005013617	0.034614634
24	-0.007083373	-0.005120067	0.034614634
25	-0.006794964	-0.005224912	0.034614634
26	-0.006368928	-0.005263334	0.034614634
27	-0.005824329	-0.005216904	0.034614634
28	-0.005177946	-0.005074462	0.034614634
29	-0.004446760	-0.004822016	0.034614634
30	-0.003646795	-0.004453270	0.034614634
31	-0.002792351	-0.003966744	0.034614634
32	-0.001896106	-0.003363899	0.034614634
33	-0.000969381	-0.002648137	0.034614634
34	-0.000022352	-0.001824286	0.034614634
35	0.000935818	-0.000898330	0.034614634
36	0.001896930	0.000122758	0.034614634
37	0.002853708	0.001231170	0.034614634
38	0.003799741	0.002418462	0.034614634
39	0.004729311	0.003675900	0.034614634
40	0.005637019	0.004995070	0.034614634
41	0.006517070	0.006368920	0.034614634
42	0.007362123	0.007793413	0.034614634
43	0.008138953	0.009245315	0.034614634
1	0.008660793	0.008770074	0.037268293
2	0.007326616	0.007854010	0.037268293
3	0.006021982	0.006917699	0.037268293
4	0.004738900	0.005984828	0.037268293
5	0.003476875	0.005069806	0.037268293
6	0.002240657	0.004180324	0.037268293
7	0.001037709	0.003320315	0.037268293
8	-0.000123348	0.002491810	0.037268293
9	-0.001233582	0.001695973	0.037268293
10	-0.002284159	0.000933616	0.037268293
11	-0.003266504	0.000205423	0.037268293
12	-0.004172321	-0.000487967	0.037268293
13	-0.004993520	-0.001145953	0.037268293
14	-0.005722038	-0.001767978	0.037268293
15	-0.006349484	-0.002353509	0.037268293
16	-0.006866493	-0.002901854	0.037268293
17	-0.007261529	-0.003411411	0.037268293
18	-0.007519315	-0.003876756	0.037268293
19	-0.007621849	-0.004279651	0.037268293
20	-0.007589242	-0.004575974	0.037268293
21	-0.007511787	-0.004738542	0.037268293
22	-0.007476470	-0.004787420	0.037268293
23	-0.007435624	-0.004834391	0.037268293
24	-0.007291577	-0.004952049	0.037268293
25	-0.007008279	-0.005074041	0.037268293
26	-0.006582329	-0.005133379	0.037268293
27	-0.006033202	-0.005112153	0.037268293
28	-0.005377609	-0.004997760	0.037268293
29	-0.004632067	-0.004776209	0.037268293
30	-0.003812203	-0.004441173	0.037268293
31	-0.002932066	-0.003990903	0.037268293
32	-0.002004268	-0.003426404	0.037268293
33	-0.001040251	-0.002750507	0.037268293
34	-0.000050477	-0.001967431	0.037268293
35	0.000955473	-0.001082557	0.037268293
36	0.001968882	-0.000102301	0.037268293
37	0.002981899	0.000966006	0.037268293
38	0.003987525	0.002114308	0.037268293
39	0.004979497	0.003334149	0.037268293
40	0.005951989	0.004617294	0.037268293
41	0.006898994	0.005956781	0.037268293
42	0.007813324	0.007348600	0.037268293
43	0.008660793	0.008770074	0.037268293
1	0.009143982	0.008311984	0.039921951
2	0.007769745	0.007445538	0.039921951
3	0.006424091	0.006557685	0.039921951
4	0.005100004	0.005672560	0.039921951
5	0.003797542	0.004804746	0.039921951
6	0.002521748	0.003961859	0.039921951
7	0.001280247	0.003147601	0.039921951
8	0.000081758	0.002363690	0.039921951
9	-0.001064715	0.001610937	0.039921951
10	-0.002150281	0.000889792	0.039921951
11	-0.003166319	0.000200587	0.039921951
12	-0.004104506	-0.000456380	0.039921951
13	-0.004956752	-0.001080827	0.039921951
14	-0.005715041	-0.001672489	0.039921951
15	-0.006371124	-0.002231101	0.039921951
16	-0.006915942	-0.002756229	0.039921951
17	-0.007338611	-0.003246591	0.039921951
18	-0.007625150	-0.003697503	0.039921951
19	-0.007758695	-0.004093178	0.039921951
20	-0.007752783	-0.004392501	0.039921951
21	-0.007690015	-0.004562033	0.039921951
22	-0.007658835	-0.004613930	0.039921951
23	-0.007621674	-0.004664349	0.039921951
24	-0.007485542	-0.004792704	0.039921951
25	-0.007207773	-0.004930909	0.039921951
26	-0.006782297	-0.005009793	0.039921951
27	-0.006229332	-0.005012439	0.039921951
28	-0.005565452	-0.004924646	0.039921951
29	-0.004806806	-0.004732355	0.039921951
30	-0.003968729	-0.004429172	0.039921951
31	-0.003065080	-0.004013124	0.039921951
32	-0.002108406	-0.003484845	0.039921951
33	-0.001110226	-0.002846696	0.039921951
34	-0.000081208	-0.002102377	0.039921951
35	0.000968748	-0.001256743	0.039921951
36	0.002030510	-0.000315707	0.039921951
37	0.003095745	0.000713857	0.039921951
38	0.004156941	0.001824273	0.039921951
39	0.005207332	0.003007386	0.039921951
40	0.006240664	0.004255173	0.039921951
41	0.007250663	0.005560807	0.039921951
42	0.008230152	0.006920365	0.039921951
43	0.009143982	0.008311984	0.039921951
1	0.009587831	0.007871367	0.042575610
2	0.008176627	0.007052002	0.042575610
3	0.006793109	0.006210169	0.042575610
4	0.005431170	0.005370414	0.042575610
5	0.004091398	0.004547469	0.042575610
6	0.002779120	0.003748868	0.042575610
7	0.001502114	0.002978090	0.042575610
8	0.000269193	0.002236554	0.042575610
9	-0.000910578	0.001524741	0.042575610
10	-0.002028257	0.000842760	0.042575610
11	-0.003075187	0.000190610	0.042575610
12	-0.004043019	-0.000431730	0.042575610
13	-0.004923662	-0.001024278	0.042575610
14	-0.005709135	-0.001587047	0.042575610
15	-0.006391291	-0.002120031	0.042575610
16	-0.006961298	-0.002623045	0.042575610
17	-0.007408736	-0.003095101	0.042575610
18	-0.007720518	-0.003532081	0.042575610
19	-0.007881438	-0.003919731	0.042575610
20	-0.007900366	-0.004219998	0.042575610
21	-0.007852119	-0.004395075	0.042575610
22	-0.007825154	-0.004449593	0.042575610
23	-0.007791813	-0.004503100	0.042575610
24	-0.007663993	-0.004641335	0.042575610
25	-0.007392082	-0.004794641	0.042575610
26	-0.006967468	-0.004891617	0.042575610
27	-0.006411428	-0.004916549	0.042575610
28	-0.005740303	-0.004853715	0.042575610
29	-0.004969943	-0.004688921	0.042575610
30	-0.004115470	-0.004415671	0.042575610
31	-0.003190593	-0.004031793	0.042575610
32	-0.002207801	-0.003537618	0.042575610
33	-0.001178651	-0.002935124	0.042575610
34	-0.000113952	-0.002227578	0.042575610
35	0.000976158	-0.001419382	0.042575610
36	0.002082226	-0.000516001	0.042575610
37	0.003195529	0.000476108	0.042575610
38	0.004308114	0.001549643	0.042575610
39	0.005412765	0.002696760	0.042575610
40	0.006502810	0.003909682	0.042575610
41	0.007571663	0.005181775	0.042575610
42	0.008612037	0.006509277	0.042575610
43	0.009587831	0.007871367	0.042575610
1	0.009991720	0.007448519	0.045229268
2	0.008546739	0.006673799	0.045229268
3	0.007128602	0.005875645	0.045229268
4	0.005732056	0.005078970	0.045229268
5	0.004358198	0.004298623	0.045229268
6	0.003012626	0.003542043	0.045229268
7	0.001703262	0.002812498	0.045229268
8	0.000438998	0.002111127	0.045229268
9	-0.000771048	0.001438105	0.045229268
10	-0.001917898	0.000793230	0.045229268
11	-0.002992867	0.000176192	0.045229268
12	-0.003987591	-0.000413322	0.045229268
13	-0.004893980	-0.000975607	0.045229268
14	-0.005704082	-0.001510939	0.045229268
15	-0.006409828	-0.002019556	0.045229268
16	-0.007002555	-0.002501522	0.045229268
17	-0.007472168	-0.002956143	0.045229268
18	-0.007806136	-0.003379791	0.045229268
19	-0.007990994	-0.003759073	0.045229268
20	-0.008032285	-0.004058671	0.045229268
21	-0.007997732	-0.004237855	0.045229268
22	-0.007974849	-0.004294529	0.045229268
23	-0.007945275	-0.004350665	0.045229268
24	-0.007825772	-0.004497643	0.045229268
25	-0.007559832	-0.004664631	0.045229268
26	-0.007136430	-0.004778077	0.045229268
27	-0.006578103	-0.004823484	0.045229268
28	-0.005900854	-0.004783800	0.045229268
29	-0.005120284	-0.004644627	0.045229268
30	-0.004251340	-0.004399331	0.045229268
31	-0.003307614	-0.004045561	0.045229268
32	-0.002301536	-0.003583391	0.045229268
33	-0.001244675	-0.003014490	0.045229268
34	-0.000147929	-0.002341767	0.045229268
35	0.000978402	-0.001569244	0.045229268
36	0.002124625	-0.000701997	0.045229268
37	0.003281709	0.000253894	0.045229268
38	0.004441338	0.001291480	0.045229268
39	0.005595901	0.002403233	0.045229268
40	0.006738330	0.003581656	0.045229268
41	0.007861698	0.004820364	0.045229268
42	0.008958503	0.006115845	0.045229268
43	0.009991720	0.007448519	0.045229268
1	0.010355112	0.007043705	0.047882927
2	0.008879709	0.006311312	0.047882927
3	0.007430361	0.005554616	0.047882927
4	0.006002617	0.004798838	0.047882927
5	0.004598061	0.004058899	0.047882927
6	0.003222548	0.003342139	0.047882927
7	0.001884128	0.002651620	0.047882927
8	0.000591760	0.001988231	0.047882927
9	-0.000645404	0.001351868	0.047882927
10	-0.001818364	0.000742052	0.047882927
11	-0.002918422	0.000158202	0.047882927
12	-0.003937210	-0.000400259	0.047882927
13	-0.004866651	-0.000933874	0.047882927
14	-0.005698824	-0.001443156	0.047882927
15	-0.006425730	-0.001928576	0.047882927
16	-0.007038838	-0.002390437	0.047882927
17	-0.007528288	-0.002828352	0.047882927
18	-0.007881892	-0.003239208	0.047882927
19	-0.008087161	-0.003610276	0.047882927
20	-0.008147571	-0.003908173	0.047882927
21	-0.008125212	-0.004090163	0.047882927
22	-0.008106082	-0.004148517	0.047882927
23	-0.008080045	-0.004206788	0.047882927
24	-0.007968582	-0.004361268	0.047882927
25	-0.007708675	-0.004540532	0.047882927
26	-0.007286842	-0.004668781	0.047882927
27	-0.006726984	-0.004732515	0.047882927
28	-0.006044822	-0.004713889	0.047882927
29	-0.005255682	-0.004598262	0.047882927
30	-0.004374347	-0.004378828	0.047882927
31	-0.003414299	-0.004053050	0.047882927
32	-0.002387907	-0.003620783	0.047882927
33	-0.001306729	-0.003083433	0.047882927
34	-0.000181703	-0.002443618	0.047882927
35	0.000976765	-0.001705046	0.047882927
36	0.002158819	-0.000872463	0.047882927
37	0.003355198	0.000048385	0.047882927
38	0.004557300	0.001050874	0.047882927
39	0.005757177	0.002127791	0.047882927
40	0.006947397	0.003271945	0.047882927
41	0.008120676	0.004477260	0.047882927
42	0.009269218	0.005740570	0.047882927
43	0.010355112	0.007043705	0.047882927
1	0.010677552	0.006657160	0.050536585
2	0.009175280	0.005964890	0.050536585
3	0.007698321	0.005247542	0.050536585
4	0.006242984	0.004530572	0.050536585
5	0.004811315	0.003828927	0.050536585
6	0.003409405	0.003149835	0.050536585
7	0.002045416	0.002496172	0.050536585
8	0.000728353	0.001868599	0.050536585
9	-0.000532613	0.001266777	0.050536585
10	-0.001728480	0.000689987	0.050536585
11	-0.002850556	0.000137418	0.050536585
12	-0.003890487	-0.000391728	0.050536585
13	-0.004840218	-0.000898210	0.050536585
14	-0.005691874	-0.001382747	0.050536585
15	-0.006437530	-0.001846018	0.050536585
16	-0.007068773	-0.002288558	0.050536585
17	-0.007575932	-0.002710290	0.050536585
18	-0.007947015	-0.003108664	0.050536585
19	-0.008169155	-0.003472080	0.050536585
20	-0.008244645	-0.003767931	0.050536585
21	-0.008232238	-0.003951670	0.050536585
22	-0.008216308	-0.004011252	0.050536585
23	-0.008193389	-0.004071156	0.050536585
24	-0.008089437	-0.004231870	0.050536585
25	-0.007835780	-0.004422274	0.050536585
26	-0.007415957	-0.004563759	0.050536585
27	-0.006855319	-0.004643257	0.050536585
28	-0.006169524	-0.004643265	0.050536585
29	-0.005373584	-0.004548875	0.050536585
30	-0.004482093	-0.004353065	0.050536585
31	-0.003508415	-0.004053090	0.050536585
32	-0.002464844	-0.003648596	0.050536585
33	-0.001362900	-0.003140765	0.050536585
34	-0.000213529	-0.002531972	0.050536585
35	0.000972817	-0.001825666	0.050536585
36	0.002186182	-0.001026321	0.050536585
37	0.003417150	-0.000139397	0.050536585
38	0.004656905	0.000828780	0.050536585
39	0.005897224	0.001871304	0.050536585
40	0.007130350	0.002981310	0.050536585
41	0.008348647	0.004153085	0.050536585
42	0.009543961	0.005383907	0.050536585
43	0.010677552	0.006657160	0.050536585
1	0.010958660	0.006289083	0.053190244
2	0.009433136	0.005634749	0.053190244
3	0.007932224	0.004954664	0.053190244
4	0.006452956	0.004274425	0.053190244
5	0.004997812	0.003608955	0.053190244
6	0.003573102	0.002965360	0.053190244
7	0.002187078	0.002346342	0.053190244
8	0.000848773	0.001752371	0.053190244
9	-0.000432645	0.001182914	0.053190244
10	-0.001648191	0.000637061	0.053190244
11	-0.002789195	0.000113815	0.053190244
12	-0.003847335	-0.000387802	0.053190244
13	-0.004814596	-0.000868719	0.053190244
14	-0.005683161	-0.001329829	0.053190244
15	-0.006445183	-0.001771995	0.053190244
16	-0.007092369	-0.002195976	0.053190244
17	-0.007615197	-0.002602025	0.053190244
18	-0.008001745	-0.002988217	0.053190244
19	-0.008237839	-0.003344566	0.053190244
20	-0.008324792	-0.003638427	0.053190244
21	-0.008319867	-0.003823191	0.053190244
22	-0.008306404	-0.003883606	0.053190244
23	-0.008285951	-0.003944648	0.053190244
24	-0.008188304	-0.004110080	0.053190244
25	-0.007940601	-0.004309911	0.053190244
26	-0.007523129	-0.004462827	0.053190244
27	-0.006962355	-0.004555442	0.053190244
28	-0.006274193	-0.004571580	0.053190244
29	-0.005473239	-0.004496074	0.053190244
30	-0.004573856	-0.004321640	0.053190244
31	-0.003589266	-0.004045301	0.053190244
32	-0.002531672	-0.003666486	0.053190244
33	-0.001412538	-0.003186178	0.053190244
34	-0.000242778	-0.002606552	0.053190244
35	0.000967154	-0.001930849	0.053190244
36	0.002207258	-0.001163322	0.053190244
37	0.003468033	-0.000309192	0.053190244
38	0.004740514	0.000625475	0.053190244
39	0.006016269	0.001634068	0.053190244
40	0.007287262	0.002710058	0.053190244
41	0.008545514	0.003848146	0.053190244
42	0.009782483	0.005046137	0.053190244
43	0.010958660	0.006289083	0.053190244
1	0.011198158	0.005939630	0.055843902
2	0.009652942	0.005321010	0.055843902
3	0.008131674	0.004676073	0.055843902
4	0.006632071	0.004030454	0.055843902
5	0.005157027	0.003398993	0.055843902
6	0.003713046	0.002788658	0.055843902
7	0.002308453	0.002201998	0.055843902
8	0.000952288	0.001639330	0.055843902
9	-0.000346302	0.001099972	0.055843902
10	-0.001578367	0.000582872	0.055843902
11	-0.002735279	0.000086897	0.055843902
12	-0.003808762	-0.000389062	0.055843902
13	-0.004790858	-0.000846065	0.055843902
14	-0.005673817	-0.001285144	0.055843902
15	-0.006449879	-0.001707325	0.055843902
16	-0.007110862	-0.002113588	0.055843902
17	-0.007647347	-0.002504559	0.055843902
18	-0.008047341	-0.002879046	0.055843902
19	-0.008295250	-0.003228707	0.055843902
20	-0.008391153	-0.003520651	0.055843902
21	-0.008391477	-0.003705990	0.055843902
22	-0.008379659	-0.003766923	0.055843902
23	-0.008360839	-0.003828644	0.055843902
24	-0.008267430	-0.003997012	0.055843902
25	-0.008024289	-0.004203477	0.055843902
26	-0.007609209	-0.004365479	0.055843902
27	-0.007048921	-0.004468695	0.055843902
28	-0.006359606	-0.004498580	0.055843902
29	-0.005555374	-0.004439717	0.055843902
30	-0.004650303	-0.004284524	0.055843902
31	-0.003657451	-0.004029754	0.055843902
32	-0.002588913	-0.003674618	0.055843902
33	-0.001456076	-0.003219912	0.055843902
34	-0.000269796	-0.002667647	0.055843902
35	0.000959510	-0.002020903	0.055843902
36	0.002221851	-0.001283765	0.055843902
37	0.003507697	-0.000461264	0.055843902
38	0.004808000	0.000440758	0.055843902
39	0.006114176	0.001415964	0.055843902
40	0.007417963	0.002458166	0.055843902
41	0.008711061	0.003562510	0.055843902
42	0.009984527	0.004727401	0.055843902
43	0.011198158	0.005939630	0.055843902
1	0.011396706	0.005608465	0.058497561
2	0.009835250	0.005023349	0.058497561
3	0.008297106	0.004411458	0.058497561
4	0.006780645	0.003798359	0.058497561
5	0.005289150	0.003198749	0.058497561
6	0.003829299	0.002619446	0.058497561
7	0.002409468	0.002062869	0.058497561
8	0.001038687	0.001529215	0.058497561
9	-0.000273935	0.001017699	0.058497561
10	-0.001519500	0.000527179	0.058497561
11	-0.002689436	0.000056432	0.058497561
12	-0.003775529	-0.000395735	0.058497561
13	-0.004769888	-0.000830475	0.058497561
14	-0.005664840	-0.001248928	0.058497561
15	-0.006452719	-0.001652260	0.058497561
16	-0.007125441	-0.002041681	0.058497561
17	-0.007673651	-0.002418240	0.058497561
18	-0.008085129	-0.002781622	0.058497561
19	-0.008343360	-0.003124714	0.058497561
20	-0.008446733	-0.003414654	0.058497561
21	-0.008450520	-0.003600272	0.058497561
22	-0.008439563	-0.003661482	0.058497561
23	-0.008421510	-0.003723490	0.058497561
24	-0.008329850	-0.003893001	0.058497561
25	-0.008089059	-0.004102695	0.058497561
26	-0.007676106	-0.004271063	0.058497561
27	-0.007116888	-0.004382642	0.058497561
28	-0.006427556	-0.004424142	0.058497561
29	-0.005621669	-0.004379920	0.058497561
30	-0.004712977	-0.004242056	0.058497561
31	-0.003714346	-0.004007002	0.058497561
32	-0.002637749	-0.003673734	0.058497561
33	-0.001494482	-0.003242872	0.058497561
34	-0.000295323	-0.002716290	0.058497561
35	0.000949377	-0.002096947	0.058497561
36	0.002229679	-0.001388804	0.058497561
37	0.003536068	-0.000596747	0.058497561
38	0.004859465	0.000273569	0.058497561
39	0.006191193	0.001216054	0.058497561
40	0.007522806	0.002224855	0.058497561
41	0.008845730	0.003295578	0.058497561
42	0.010150631	0.004427267	0.058497561
43	0.011396706	0.005608465	0.058497561
1	0.011556157	0.005294619	0.061151220
2	0.009981734	0.004740865	0.061151220
3	0.008430015	0.004159978	0.061151220
4	0.006899989	0.003577361	0.061151220
5	0.005395296	0.003007522	0.061151220
6	0.003922766	0.002457125	0.061151220
7	0.002490812	0.001928473	0.061151220
8	0.001108438	0.001421679	0.061151220
9	-0.000215300	0.000935895	0.061151220
10	-0.001471567	0.000469926	0.061151220
11	-0.002651858	0.000022504	0.061151220
12	-0.003748031	-0.000407613	0.061151220
13	-0.004752270	-0.000821638	0.061151220
14	-0.005656988	-0.001220790	0.061151220
15	-0.006454613	-0.001606367	0.061151220
16	-0.007137155	-0.001979808	0.061151220
17	-0.007695280	-0.002342641	0.061151220
18	-0.008116414	-0.002695565	0.061151220
19	-0.008384085	-0.003031862	0.061151220
20	-0.008494391	-0.003319453	0.061151220
21	-0.008500432	-0.003505126	0.061151220
22	-0.008489691	-0.003566430	0.061151220
23	-0.008471641	-0.003628404	0.061151220
24	-0.008379327	-0.003797432	0.061151220
25	-0.008138428	-0.004006909	0.061151220
26	-0.007727116	-0.004178831	0.061151220
27	-0.007169538	-0.004296971	0.061151220
28	-0.006481202	-0.004348377	0.061151220
29	-0.005675099	-0.004317181	0.061151220
30	-0.004764609	-0.004195091	0.061151220
31	-0.003762388	-0.003978226	0.061151220
32	-0.002680281	-0.003665311	0.061151220
33	-0.001529482	-0.003256793	0.061151220
34	-0.000320681	-0.002754426	0.061151220
35	0.000935858	-0.002161078	0.061151220
36	0.002230267	-0.001480620	0.061151220
37	0.003553081	-0.000717825	0.061151220
38	0.004895231	0.000121804	0.061151220
39	0.006247984	0.001032396	0.061151220
40	0.007602765	0.002008413	0.061151220
41	0.008950770	0.003045910	0.061151220
42	0.010282327	0.004144565	0.061151220
43	0.011556157	0.005294619	0.061151220
1	0.011678363	0.004997121	0.063804878
2	0.010094110	0.004472675	0.063804878
3	0.008531983	0.003920821	0.063804878
4	0.006991540	0.003366727	0.063804878
5	0.005476751	0.002824678	0.063804878
6	0.003994575	0.002301184	0.063804878
7	0.002553444	0.001798447	0.063804878
8	0.001162326	0.001316523	0.063804878
9	-0.000169788	0.000854534	0.063804878
10	-0.001434132	0.000411265	0.063804878
11	-0.002622280	-0.000014566	0.063804878
12	-0.003726167	-0.000424221	0.063804878
13	-0.004738060	-0.000818943	0.063804878
14	-0.005650461	-0.001200013	0.063804878
15	-0.006455895	-0.001568844	0.063804878
16	-0.007146458	-0.001927115	0.063804878
17	-0.007712810	-0.002276877	0.063804878
18	-0.008141951	-0.002619943	0.063804878
19	-0.008418478	-0.002949004	0.063804878
20	-0.008535586	-0.003233752	0.063804878
21	-0.008543023	-0.003419273	0.063804878
22	-0.008531969	-0.003480513	0.063804878
23	-0.008513282	-0.003542172	0.063804878
24	-0.008418290	-0.003709283	0.063804878
25	-0.008175176	-0.003915501	0.063804878
26	-0.007764983	-0.004088318	0.063804878
27	-0.007209533	-0.004211529	0.063804878
28	-0.006523118	-0.004271429	0.063804878
29	-0.005718093	-0.004251929	0.063804878
30	-0.004807441	-0.004144330	0.063804878
31	-0.003803592	-0.003944382	0.063804878
32	-0.002718254	-0.003650542	0.063804878
33	-0.001562518	-0.003263082	0.063804878
34	-0.000346977	-0.002783648	0.063804878
35	0.000918198	-0.002215031	0.063804878
36	0.002223228	-0.001561036	0.063804878
37	0.003558717	-0.000826353	0.063804878
38	0.004915630	-0.000016357	0.063804878
39	0.006285217	0.000863274	0.063804878
40	0.007658814	0.001807289	0.063804878
41	0.009027443	0.002812158	0.063804878
42	0.010381163	0.003878158	0.063804878
43	0.011678363	0.004997121	0.063804878
1	0.011765089	0.004715044	0.066458537
2	0.010174201	0.004218001	0.066458537
3	0.008604887	0.003693339	0.066458537
4	0.007057230	0.003165944	0.066458537
5	0.005535488	0.002649860	0.066458537
6	0.004046730	0.002151441	0.066458537
7	0.002599389	0.001672807	0.066458537
8	0.001202384	0.001213982	0.066458537
9	-0.000135364	0.000774081	0.066458537
10	-0.001405171	0.000351896	0.066458537
11	-0.002598694	-0.000053843	0.066458537
12	-0.003707952	-0.000444394	0.066458537
13	-0.004725302	-0.000821009	0.066458537
14	-0.005643344	-0.001185008	0.066458537
15	-0.006454704	-0.001537903	0.066458537
16	-0.007151575	-0.001881601	0.066458537
17	-0.007724617	-0.002218691	0.066458537
18	-0.008160424	-0.002552131	0.066458537
19	-0.008444755	-0.002873813	0.066458537
20	-0.008567709	-0.003155536	0.066458537
21	-0.008575547	-0.003340704	0.066458537
22	-0.008563753	-0.003401724	0.066458537
23	-0.008543986	-0.003462828	0.066458537
24	-0.008445242	-0.003627020	0.066458537
25	-0.008199088	-0.003828239	0.066458537
26	-0.007789812	-0.003999944	0.066458537
27	-0.007236956	-0.004126632	0.066458537
28	-0.006553358	-0.004193575	0.066458537
29	-0.005750679	-0.004184445	0.066458537
30	-0.004841461	-0.004090097	0.066458537
31	-0.003837888	-0.003905872	0.066458537
32	-0.002751519	-0.003629934	0.066458537
33	-0.001593336	-0.003262368	0.066458537
34	-0.000373831	-0.002804709	0.066458537
35	0.000896925	-0.002259682	0.066458537
36	0.002209251	-0.001631037	0.066458537
37	0.003553832	-0.000923395	0.066458537
38	0.004921689	-0.000142021	0.066458537
39	0.006304079	0.000707574	0.066458537
40	0.007692292	0.001620397	0.066458537
41	0.009077232	0.002593293	0.066458537
42	0.010448759	0.003627078	0.066458537
43	0.011765089	0.004715044	0.066458537
1	0.011818017	0.004447497	0.069112195
2	0.010223726	0.003976071	0.069112195
3	0.008650485	0.003476864	0.069112195
4	0.007098846	0.002974454	0.069112195
5	0.005573319	0.002482637	0.069112195
6	0.004081054	0.002007623	0.069112195
7	0.002630476	0.001551464	0.069112195
8	0.001230440	0.001114167	0.069112195
9	-0.000110211	0.000694859	0.069112195
10	-0.001382882	0.000292360	0.069112195
11	-0.002579316	-0.000094574	0.069112195
12	-0.003691627	-0.000467175	0.069112195
13	-0.004712268	-0.000826690	0.069112195
14	-0.005633940	-0.001174457	0.069112195
15	-0.006449387	-0.001512062	0.069112195
16	-0.007150915	-0.001841615	0.069112195
17	-0.007729215	-0.002166224	0.069112195
18	-0.008170575	-0.002489963	0.069112195
19	-0.008461332	-0.002804398	0.069112195
20	-0.008588715	-0.003083146	0.069112195
21	-0.008596029	-0.003267754	0.069112195
22	-0.008583216	-0.003328404	0.069112195
23	-0.008562144	-0.003388760	0.069112195
24	-0.008459400	-0.003549440	0.069112195
25	-0.008210307	-0.003744903	0.069112195
26	-0.007802034	-0.003914087	0.069112195
27	-0.007252211	-0.004042649	0.069112195
28	-0.006572288	-0.004115196	0.069112195
29	-0.005773177	-0.004115133	0.069112195
30	-0.004866936	-0.004032834	0.069112195
31	-0.003865474	-0.003863198	0.069112195
32	-0.002780185	-0.003604067	0.069112195
33	-0.001621935	-0.003255323	0.069112195
34	-0.000401111	-0.002818382	0.069112195
35	0.000872322	-0.002295903	0.069112195
36	0.002188785	-0.001691582	0.069112195
37	0.003539055	-0.001009977	0.069112195
38	0.004914220	-0.000256258	0.069112195
39	0.006305571	0.000564216	0.069112195
40	0.007704382	0.001446678	0.069112195
41	0.009101492	0.002388302	0.069112195
42	0.010486640	0.003390377	0.069112195
43	0.011818017	0.004447497	0.069112195
1	0.011838756	0.004193624	0.071765854
2	0.010244319	0.003746126	0.071765854
3	0.008670437	0.003270719	0.071765854
4	0.007118068	0.002791672	0.071765854
5	0.005591935	0.002322543	0.071765854
6	0.004099247	0.001869408	0.071765854
7	0.002648400	0.001434263	0.071765854
8	0.001248181	0.001017111	0.071765854
9	-0.000092655	0.000617103	0.071765854
10	-0.001365606	0.000233094	0.071765854
11	-0.002562510	-0.000136121	0.071765854
12	-0.003675579	-0.000491741	0.071765854
13	-0.004697367	-0.000834990	0.071765854
14	-0.005620689	-0.001167209	0.071765854
15	-0.006438414	-0.001490036	0.071765854
16	-0.007142986	-0.001805741	0.071765854
17	-0.007725185	-0.002117895	0.071765854
18	-0.008171091	-0.002431663	0.071765854
19	-0.008466695	-0.002739215	0.071765854
20	-0.008596989	-0.003015139	0.071765854
21	-0.008603139	-0.003198957	0.071765854
22	-0.008589226	-0.003259113	0.071765854
23	-0.008566858	-0.003318595	0.071765854
24	-0.008460525	-0.003475568	0.071765854
25	-0.008209167	-0.003665206	0.071765854
26	-0.007802222	-0.003830988	0.071765854
27	-0.007255876	-0.003959951	0.071765854
28	-0.006580455	-0.004036730	0.071765854
29	-0.005786082	-0.004044470	0.071765854
30	-0.004884297	-0.003973053	0.071765854
31	-0.003886703	-0.003816911	0.071765854
32	-0.002804515	-0.003573546	0.071765854
33	-0.001648469	-0.003242620	0.071765854
34	-0.000428840	-0.002825420	0.071765854
35	0.000844516	-0.002324526	0.071765854
36	0.002162125	-0.001743577	0.071765854
37	0.003514863	-0.001087067	0.071765854
38	0.004893893	-0.000360076	0.071765854
39	0.006290559	0.000432174	0.071765854
40	0.007696148	0.001285116	0.071765854
41	0.009101482	0.002196206	0.071765854
42	0.010496250	0.003167129	0.071765854
43	0.011838756	0.004193624	0.071765854
1	0.011828849	0.003952596	0.074419512
2	0.010237727	0.003527481	0.074419512
3	0.008666689	0.003074344	0.074419512
4	0.007117037	0.002617172	0.074419512
5	0.005593663	0.002169305	0.074419512
6	0.004103810	0.001736702	0.074419512
7	0.002655829	0.001321317	0.074419512
8	0.001258428	0.000923153	0.074419512
9	-0.000079733	0.000541389	0.074419512
10	-0.001350250	0.000174918	0.074419512
11	-0.002545066	-0.000177421	0.074419512
12	-0.003656494	-0.000516791	0.074419512
13	-0.004677200	-0.000844383	0.074419512
14	-0.005600120	-0.001161522	0.074419512
15	-0.006418267	-0.001469860	0.074419512
16	-0.007124262	-0.001771766	0.074419512
17	-0.007709076	-0.002071138	0.074419512
18	-0.008158668	-0.002374268	0.074419512
19	-0.008456969	-0.002675829	0.074419512
20	-0.008587930	-0.002949436	0.074419512
21	-0.008592404	-0.003132215	0.074419512
22	-0.008577544	-0.003191792	0.074419512
23	-0.008554195	-0.003250390	0.074419512
24	-0.008445598	-0.003404108	0.074419512
25	-0.008193526	-0.003589013	0.074419512
26	-0.007788655	-0.003751393	0.074419512
27	-0.007246284	-0.003879292	0.074419512
28	-0.006576207	-0.003958797	0.074419512
29	-0.005787773	-0.003972925	0.074419512
30	-0.004891968	-0.003911083	0.074419512
31	-0.003900054	-0.003767240	0.074419512
32	-0.002823040	-0.003538542	0.074419512
33	-0.001671515	-0.003224418	0.074419512
34	-0.000455629	-0.002826007	0.074419512
35	0.000814875	-0.002345794	0.074419512
36	0.002130637	-0.001787346	0.074419512
37	0.003482630	-0.001155081	0.074419512
38	0.004862106	-0.000453986	0.074419512
39	0.006260471	0.000310849	0.074419512
40	0.007669057	0.001135029	0.074419512
41	0.009078707	0.002016255	0.074419512
42	0.010479123	0.002956535	0.074419512
43	0.011828849	0.003952596	0.074419512
1	0.011789775	0.003723610	0.077073171
2	0.010205380	0.003319374	0.077073171
3	0.008640619	0.002887013	0.077073171
4	0.007097073	0.002450275	0.077073171
5	0.005579762	0.002022320	0.077073171
6	0.004095934	0.001609010	0.077073171
7	0.002653885	0.001212261	0.077073171
8	0.001262233	0.000832080	0.077073171
9	-0.000070463	0.000467667	0.077073171
10	-0.001335905	0.000117947	0.077073171
11	-0.002526140	-0.000218207	0.077073171
12	-0.003633591	-0.000541920	0.077073171
13	-0.004651039	-0.000854351	0.077073171
14	-0.005571550	-0.001156797	0.077073171
15	-0.006388297	-0.001450899	0.077073171
16	-0.007094109	-0.001739050	0.077073171
17	-0.007680247	-0.002025318	0.077073171
18	-0.008132659	-0.002317110	0.077073171
19	-0.008431891	-0.002613314	0.077073171
20	-0.008561923	-0.002884846	0.077073171
21	-0.008564807	-0.003066313	0.077073171
22	-0.008549348	-0.003125285	0.077073171
23	-0.008525487	-0.003183074	0.077073171
24	-0.008416131	-0.003334226	0.077073171
25	-0.008164889	-0.003515646	0.077073171
26	-0.007762911	-0.003674936	0.077073171
27	-0.007225080	-0.003800799	0.077073171
28	-0.006561154	-0.003881839	0.077073171
29	-0.005779769	-0.003901120	0.077073171
30	-0.004891347	-0.003847651	0.077073171
31	-0.003906789	-0.003714973	0.077073171
32	-0.002836869	-0.003499895	0.077073171
33	-0.001692009	-0.003201605	0.077073171
34	-0.000482226	-0.002821082	0.077073171
35	0.000782863	-0.002360697	0.077073171
36	0.002094009	-0.001823922	0.077073171
37	0.003442290	-0.001215087	0.077073171
38	0.004819047	-0.000539074	0.077073171
39	0.006215764	0.000199152	0.077073171
40	0.007623836	0.000995356	0.077073171
41	0.009034165	0.001847440	0.077073171
42	0.010436519	0.002757671	0.077073171
43	0.011789775	0.003723610	0.077073171
1	0.011722954	0.003505884	0.079726829
2	0.010148418	0.003120993	0.079726829
3	0.008593079	0.002707879	0.079726829
4	0.007058738	0.002290122	0.079726829
5	0.005550498	0.001880747	0.079726829
6	0.004075597	0.001485539	0.079726829
7	0.002642257	0.001106381	0.079726829
8	0.001259005	0.000743274	0.079726829
9	-0.000065706	0.000395424	0.079726829
10	-0.001323684	0.000061770	0.079726829
11	-0.002507085	-0.000258796	0.079726829
12	-0.003608442	-0.000567382	0.079726829
13	-0.004620654	-0.000865124	0.079726829
14	-0.005536917	-0.001153295	0.079726829
15	-0.006350564	-0.001433510	0.079726829
16	-0.007054648	-0.001708144	0.079726829
17	-0.007640780	-0.001981303	0.079726829
18	-0.008095060	-0.002261329	0.079726829
19	-0.008394528	-0.002551912	0.079726829
20	-0.008523714	-0.002820871	0.079726829
21	-0.008525950	-0.003000756	0.079726829
22	-0.008510346	-0.003059141	0.079726829
23	-0.008486441	-0.003116232	0.079726829
24	-0.008377484	-0.003265359	0.079726829
25	-0.008128058	-0.003443981	0.079726829
26	-0.007729599	-0.003600359	0.079726829
27	-0.007196925	-0.003723996	0.079726829
28	-0.006539872	-0.003806029	0.079726829
29	-0.005766451	-0.003829690	0.079726829
30	-0.004886557	-0.003783704	0.079726829
31	-0.003910727	-0.003661273	0.079726829
32	-0.002849486	-0.003458919	0.079726829
33	-0.001713074	-0.003175608	0.079726829
34	-0.000511360	-0.002812153	0.079726829
35	0.000746165	-0.002370792	0.079726829
36	0.002050366	-0.001854889	0.079726829
37	0.003392425	-0.001268663	0.079726829
38	0.004763775	-0.000616882	0.079726829
39	0.006155981	0.000095614	0.079726829
40	0.007560518	0.000864736	0.079726829
41	0.008968376	0.001688548	0.079726829
42	0.010369435	0.002569516	0.079726829
43	0.011722954	0.003505884	0.079726829
1	0.011629723	0.003298650	0.082380488
2	0.010067860	0.002931589	0.082380488
3	0.008524763	0.002536220	0.082380488
4	0.007002397	0.002136028	0.082380488
5	0.005505917	0.001743948	0.082380488
6	0.004042527	0.001365713	0.082380488
7	0.002620372	0.001003172	0.082380488
8	0.001247881	0.000656303	0.082380488
9	-0.000066601	0.000324298	0.082380488
10	-0.001314988	0.000006088	0.082380488
11	-0.002489545	-0.000299444	0.082380488
12	-0.003582916	-0.000593408	0.082380488
13	-0.004588112	-0.000876939	0.082380488
14	-0.005498460	-0.001151301	0.082380488
15	-0.006307449	-0.001418084	0.082380488
16	-0.007008351	-0.001679625	0.082380488
17	-0.007593140	-0.001939982	0.082380488
18	-0.008048269	-0.002208122	0.082380488
19	-0.008348126	-0.002492083	0.082380488
20	-0.008477842	-0.002757397	0.082380488
21	-0.008480884	-0.002935436	0.082380488
22	-0.008465598	-0.002993272	0.082380488
23	-0.008442050	-0.003049766	0.082380488
24	-0.008334246	-0.003197177	0.082380488
25	-0.008087125	-0.003373141	0.082380488
26	-0.007692631	-0.003526606	0.082380488
27	-0.007165743	-0.003648375	0.082380488
28	-0.006516211	-0.003731357	0.082380488
29	-0.005751514	-0.003758987	0.082380488
30	-0.004881083	-0.003719847	0.082380488
31	-0.003915107	-0.003606921	0.082380488
32	-0.002863854	-0.003416514	0.082380488
33	-0.001737371	-0.003147408	0.082380488
34	-0.000545369	-0.002800258	0.082380488
35	0.000702791	-0.002377163	0.082380488
36	0.001998089	-0.001881358	0.082380488
37	0.003331808	-0.001316937	0.082380488
38	0.004695473	-0.000688541	0.082380488
39	0.006080736	-0.000000884	0.082380488
40	0.007479162	0.000742078	0.082380488
41	0.008881847	0.001538549	0.082380488
42	0.010278820	0.002391141	0.082380488
43	0.011629723	0.003298650	0.082380488
1	0.011511343	0.003101136	0.085034146
2	0.009964596	0.002750505	0.085034146
3	0.008436186	0.002371504	0.085034146
4	0.006928200	0.001987578	0.085034146
5	0.005445815	0.001611614	0.085034146
6	0.003996186	0.001249301	0.085034146
7	0.002587375	0.000902454	0.085034146
8	0.001227707	0.000571015	0.085034146
9	-0.000074579	0.000254145	0.085034146
10	-0.001311506	-0.000049259	0.085034146
11	-0.002475449	-0.000340342	0.085034146
12	-0.003559159	-0.000620239	0.085034146
13	-0.004555762	-0.000890102	0.085034146
14	-0.005458708	-0.001151202	0.085034146
15	-0.006261635	-0.001405120	0.085034146
16	-0.006958017	-0.001654156	0.085034146
17	-0.007540173	-0.001902288	0.085034146
18	-0.007995065	-0.002158774	0.085034146
19	-0.008295929	-0.002434702	0.085034146
20	-0.008428179	-0.002694989	0.085034146
21	-0.008433495	-0.002870909	0.085034146
22	-0.008418872	-0.002928209	0.085034146
23	-0.008395918	-0.002984146	0.085034146
24	-0.008289506	-0.003129802	0.085034146
25	-0.008044715	-0.003302686	0.085034146
26	-0.007654474	-0.003453014	0.085034146
27	-0.007133973	-0.003573469	0.085034146
28	-0.006492555	-0.003657586	0.085034146
29	-0.005737250	-0.003688979	0.085034146
30	-0.004877088	-0.003656213	0.085034146
31	-0.003921934	-0.003552167	0.085034146
32	-0.002881802	-0.003373011	0.085034146
33	-0.001766536	-0.003117390	0.085034146
34	-0.000585684	-0.002785818	0.085034146
35	0.000651534	-0.002380260	0.085034146
36	0.001936214	-0.001903814	0.085034146
37	0.003259744	-0.001360437	0.085034146
38	0.004613741	-0.000754637	0.085034146
39	0.005989946	-0.000090994	0.085034146
40	0.007380022	0.000626664	0.085034146
41	0.008775184	0.001396663	0.085034146
42	0.010165627	0.002221735	0.085034146
43	0.011511343	0.003101136	0.085034146
1	0.011369072	0.002912569	0.087687805
2	0.009839574	0.002577113	0.087687805
3	0.008327980	0.002213261	0.087687805
4	0.006836467	0.001844452	0.087687805
5	0.005370214	0.001483548	0.087687805
6	0.003936316	0.001136205	0.087687805
7	0.002542742	0.000804197	0.087687805
8	0.001197715	0.000487421	0.087687805
9	-0.000090639	0.000184988	0.087687805
10	-0.001314452	-0.000104251	0.087687805
11	-0.002466208	-0.000381491	0.087687805
12	-0.003538768	-0.000647908	0.087687805
13	-0.004525370	-0.000904689	0.087687805
14	-0.005419582	-0.001153130	0.087687805
15	-0.006215180	-0.001394819	0.087687805
16	-0.006905824	-0.001632032	0.087687805
17	-0.007484137	-0.001868679	0.087687805
18	-0.007937674	-0.002114036	0.087687805
19	-0.008240319	-0.002380342	0.087687805
20	-0.008377322	-0.002634011	0.087687805
21	-0.008386289	-0.002807499	0.087687805
22	-0.008372567	-0.002864251	0.087687805
23	-0.008350312	-0.002919619	0.087687805
24	-0.008245161	-0.003063233	0.087687805
25	-0.008002459	-0.003232295	0.087687805
26	-0.007616686	-0.003379182	0.087687805
27	-0.007103136	-0.003498936	0.087687805
28	-0.006470387	-0.003584495	0.087687805
29	-0.005725078	-0.003619583	0.087687805
30	-0.004875900	-0.003592846	0.087687805
31	-0.003932424	-0.003497157	0.087687805
32	-0.002904418	-0.003328632	0.087687805
33	-0.001801518	-0.003085827	0.087687805
34	-0.000633099	-0.002769149	0.087687805
35	0.000591766	-0.002380434	0.087687805
36	0.001864298	-0.001922646	0.087687805
37	0.003175988	-0.001399601	0.087687805
38	0.004518553	-0.000815667	0.087687805
39	0.005883827	-0.000175285	0.087687805
40	0.007263573	0.000517843	0.087687805
41	0.008649132	0.001262165	0.087687805
42	0.010030869	0.002060521	0.087687805
43	0.011369072	0.002912569	0.087687805
1	0.011204184	0.002732173	0.090341463
2	0.009693997	0.002410857	0.090341463
3	0.008201280	0.002061158	0.090341463
4	0.006728270	0.001706523	0.090341463
5	0.005280132	0.001359805	0.090341463
6	0.003863889	0.001026628	0.090341463
7	0.002487413	0.000708722	0.090341463
8	0.001158814	0.000405930	0.090341463
9	-0.000113892	0.000117305	0.090341463
10	-0.001322955	-0.000158365	0.090341463
11	-0.002460968	-0.000422330	0.090341463
12	-0.003520905	-0.000675822	0.090341463
13	-0.004496117	-0.000920073	0.090341463
14	-0.005380289	-0.001156415	0.090341463
15	-0.006167330	-0.001386451	0.090341463
16	-0.006851074	-0.001612444	0.090341463
17	-0.007424418	-0.001838230	0.090341463
18	-0.007875579	-0.002072876	0.090341463
19	-0.008180309	-0.002328311	0.090341463
20	-0.008323413	-0.002574027	0.090341463
21	-0.008337001	-0.002744715	0.090341463
22	-0.008324370	-0.002800884	0.090341463
23	-0.008302912	-0.002855664	0.090341463
24	-0.008199055	-0.002997061	0.090341463
25	-0.007958561	-0.003162026	0.090341463
26	-0.007577658	-0.003305550	0.090341463
27	-0.007071612	-0.003425000	0.090341463
28	-0.006448105	-0.003512132	0.090341463
29	-0.005713437	-0.003550740	0.090341463
30	-0.004876006	-0.003529628	0.090341463
31	-0.003945117	-0.003441741	0.090341463
32	-0.002930293	-0.003283207	0.090341463
33	-0.001840959	-0.003052545	0.090341463
34	-0.000686306	-0.002750080	0.090341463
35	0.000524748	-0.002377543	0.090341463
36	0.001783557	-0.001937762	0.090341463
37	0.003081730	-0.001434414	0.090341463
38	0.004411084	-0.000871719	0.090341463
39	0.005763553	-0.000253975	0.090341463
40	0.007131005	0.000415253	0.090341463
41	0.008504907	0.001134535	0.090341463
42	0.009875797	0.001906831	0.090341463
43	0.011204184	0.002732173	0.090341463
1	0.011017959	0.002559166	0.092995122
2	0.009529148	0.002251195	0.092995122
3	0.008057366	0.001914890	0.092995122
4	0.006604895	0.001573708	0.092995122
5	0.005176867	0.001240489	0.092995122
6	0.003780224	0.000920831	0.092995122
7	0.002422731	0.000616414	0.092995122
8	0.001112382	0.000327023	0.092995122
9	-0.000142927	0.000051646	0.092995122
10	-0.001335566	-0.000210992	0.092995122
11	-0.002458248	-0.000462207	0.092995122
12	-0.003504061	-0.000703286	0.092995122
13	-0.004466472	-0.000935514	0.092995122
14	-0.005339286	-0.001160255	0.092995122
15	-0.006116546	-0.001379132	0.092995122
16	-0.006792255	-0.001594386	0.092995122
17	-0.007359578	-0.001809759	0.092995122
18	-0.007807459	-0.002033890	0.092995122
19	-0.008114047	-0.002277645	0.092995122
20	-0.008263562	-0.002514476	0.092995122
21	-0.008282235	-0.002681971	0.092995122
22	-0.008270837	-0.002737503	0.092995122
23	-0.008250293	-0.002791672	0.092995122
24	-0.008148039	-0.002930872	0.092995122
25	-0.007910328	-0.003092074	0.092995122
26	-0.007534924	-0.003232773	0.092995122
27	-0.007036935	-0.003352063	0.092995122
28	-0.006423277	-0.003440658	0.092995122
29	-0.005699955	-0.003482457	0.092995122
30	-0.004875116	-0.003466468	0.092995122
31	-0.003957807	-0.003385770	0.092995122
32	-0.002957316	-0.003236559	0.092995122
33	-0.001882846	-0.003017355	0.092995122
34	-0.000743394	-0.002728436	0.092995122
35	0.000452292	-0.002371436	0.092995122
36	0.001695712	-0.001949064	0.092995122
37	0.002978599	-0.001464852	0.092995122
38	0.004292882	-0.000922870	0.092995122
39	0.005630602	-0.000327265	0.092995122
40	0.006983735	0.000318546	0.092995122
41	0.008343877	0.001013272	0.092995122
42	0.009701729	0.001760010	0.092995122
43	0.011017959	0.002559166	0.092995122
1	0.010811682	0.002392767	0.095648780
2	0.009346322	0.002097582	0.095648780
3	0.007897548	0.001774148	0.095648780
4	0.006467668	0.001445914	0.095648780
5	0.005061767	0.001125699	0.095648780
6	0.003686698	0.000819064	0.095648780
7	0.002350112	0.000527641	0.095648780
8	0.001059875	0.000251157	0.095648780
9	-0.000176247	-0.000011465	0.095648780
10	-0.001350748	-0.000261564	0.095648780
11	-0.002456469	-0.000500514	0.095648780
12	-0.003486621	-0.000729658	0.095648780
13	-0.004434791	-0.000950324	0.095648780
14	-0.005294913	-0.001163910	0.095648780
15	-0.006061165	-0.001372040	0.095648780
16	-0.006727722	-0.001576917	0.095648780
17	-0.007288028	-0.001782145	0.095648780
18	-0.007731819	-0.001995741	0.095648780
19	-0.008039606	-0.002227425	0.095648780
20	-0.008194934	-0.002454909	0.095648780
21	-0.008218610	-0.002618844	0.095648780
22	-0.008208522	-0.002673661	0.095648780
23	-0.008189016	-0.002727193	0.095648780
24	-0.008088929	-0.002864388	0.095648780
25	-0.007854970	-0.003022700	0.095648780
26	-0.007485903	-0.003161538	0.095648780
27	-0.006996529	-0.003280593	0.095648780
28	-0.006393352	-0.003370296	0.095648780
29	-0.005682146	-0.003414795	0.095648780
30	-0.004870817	-0.003403333	0.095648780
31	-0.003968172	-0.003329166	0.095648780
32	-0.002983256	-0.003188592	0.095648780
33	-0.001925043	-0.002980168	0.095648780
34	-0.000802325	-0.002704144	0.095648780
35	0.000376335	-0.002362079	0.095648780
36	0.001602596	-0.001956567	0.095648780
37	0.002868330	-0.001491000	0.095648780
38	0.004165591	-0.000969294	0.095648780
39	0.005486531	-0.000395434	0.095648780
40	0.006823243	0.000227321	0.095648780
41	0.008167451	0.000897840	0.095648780
42	0.009510010	0.001619389	0.095648780
43	0.010811682	0.002392767	0.095648780
1	0.010586647	0.002232187	0.098302439
2	0.009146718	0.001949439	0.098302439
3	0.007722926	0.001638565	0.098302439
4	0.006317595	0.001322965	0.098302439
5	0.004935758	0.001015419	0.098302439
6	0.003584165	0.000721441	0.098302439
7	0.002270342	0.000442613	0.098302439
8	0.001002021	0.000178604	0.098302439
9	-0.000213172	-0.000071717	0.098302439
10	-0.001367868	-0.000309746	0.098302439
11	-0.002455042	-0.000536907	0.098302439
12	-0.003468035	-0.000754589	0.098302439
13	-0.004400566	-0.000964153	0.098302439
14	-0.005246699	-0.001167013	0.098302439
15	-0.006000758	-0.001364783	0.098302439
16	-0.006657097	-0.001559600	0.098302439
17	-0.007209446	-0.001754881	0.098302439
18	-0.007648366	-0.001957895	0.098302439
19	-0.007956450	-0.002177445	0.098302439
20	-0.008116544	-0.002395462	0.098302439
21	-0.008144814	-0.002555535	0.098302439
22	-0.008136060	-0.002609549	0.098302439
23	-0.008117705	-0.002662405	0.098302439
24	-0.008020428	-0.002797839	0.098302439
25	-0.007791277	-0.002954250	0.098302439
26	-0.007429412	-0.003092216	0.098302439
27	-0.006949194	-0.003210824	0.098302439
28	-0.006357127	-0.003301169	0.098302439
29	-0.005658813	-0.003347823	0.098302439
30	-0.004861930	-0.003340293	0.098302439
31	-0.003975042	-0.003272031	0.098302439
32	-0.003006947	-0.003139460	0.098302439
33	-0.001966388	-0.002941192	0.098302439
34	-0.000861935	-0.002677471	0.098302439
35	0.000298043	-0.002349792	0.098302439
36	0.001505379	-0.001960644	0.098302439
37	0.002752101	-0.001513285	0.098302439
38	0.004030393	-0.001011472	0.098302439
39	0.005332535	-0.000459025	0.098302439
40	0.006650740	0.000140973	0.098302439
41	0.007976859	0.000787571	0.098302439
42	0.009301892	0.001484236	0.098302439
43	0.010586647	0.002232187	0.098302439
1	0.010344151	0.002076639	0.100956098
2	0.008931384	0.001806145	0.100956098
3	0.007534299	0.001507694	0.100956098
4	0.006155236	0.001204576	0.100956098
5	0.004799167	0.000909497	0.100956098
6	0.003472732	0.000627911	0.100956098
7	0.002183323	0.000361345	0.100956098
8	0.000938525	0.000109420	0.100956098
9	-0.000254181	-0.000129043	0.100956098
10	-0.001387576	-0.000355480	0.100956098
11	-0.002454775	-0.000571353	0.100956098
12	-0.003449261	-0.000778076	0.100956098
13	-0.004364891	-0.000977032	0.100956098
14	-0.005195866	-0.001169632	0.100956098
15	-0.005936659	-0.001357465	0.100956098
16	-0.006581808	-0.001542582	0.100956098
17	-0.007125332	-0.001728185	0.100956098
18	-0.007558590	-0.001920762	0.100956098
19	-0.007865981	-0.002128383	0.100956098
20	-0.008029790	-0.002336950	0.100956098
21	-0.008062255	-0.002492904	0.100956098
22	-0.008054853	-0.002546029	0.100956098
23	-0.008037743	-0.002598166	0.100956098
24	-0.007943783	-0.002731979	0.100956098
25	-0.007720224	-0.002887089	0.100956098
26	-0.007366224	-0.003024707	0.100956098
27	-0.006895645	-0.003142616	0.100956098
28	-0.006315274	-0.003233202	0.100956098
29	-0.005630575	-0.003281568	0.100956098
30	-0.004848999	-0.003277499	0.100956098
31	-0.003978868	-0.003214651	0.100956098
32	-0.003028734	-0.003089583	0.100956098
33	-0.002007099	-0.002900973	0.100956098
34	-0.000922309	-0.002649064	0.100956098
35	0.000217473	-0.002335302	0.100956098
36	0.001404266	-0.001962080	0.100956098
37	0.002630261	-0.001532526	0.100956098
38	0.003887791	-0.001050244	0.100956098
39	0.005169268	-0.000518882	0.100956098
40	0.006467031	0.000058661	0.100956098
41	0.007773061	0.000681634	0.100956098
42	0.009078496	0.001353740	0.100956098
43	0.010344151	0.002076639	0.100956098
1	0.010085498	0.001925331	0.103609756
2	0.008701366	0.001667079	0.103609756
3	0.007332459	0.001381087	0.103609756
4	0.005981132	0.001090460	0.103609756
5	0.004652295	0.000807783	0.103609756
6	0.003352473	0.000538425	0.103609756
7	0.002088912	0.000283857	0.103609756
8	0.000869045	0.000043660	0.103609756
9	-0.000299808	-0.000183374	0.103609756
10	-0.001410584	-0.000398705	0.103609756
11	-0.002456550	-0.000603809	0.103609756
12	-0.003431338	-0.000800109	0.103609756
13	-0.004328946	-0.000988983	0.103609756
14	-0.005143724	-0.001171826	0.103609756
15	-0.005870297	-0.001350179	0.103609756
16	-0.006503389	-0.001525994	0.103609756
17	-0.007037302	-0.001702250	0.103609756
18	-0.007464116	-0.001884716	0.103609756
19	-0.007769741	-0.002080923	0.103609756
20	-0.007936200	-0.002280209	0.103609756
21	-0.007972490	-0.002431829	0.103609756
22	-0.007966455	-0.002483986	0.103609756
23	-0.007950665	-0.002535352	0.103609756
24	-0.007860370	-0.002667568	0.103609756
25	-0.007642888	-0.002821560	0.103609756
26	-0.007297196	-0.002958869	0.103609756
27	-0.006836683	-0.003075798	0.103609756
28	-0.006268550	-0.003166301	0.103609756
29	-0.005598128	-0.003216041	0.103609756
30	-0.004832644	-0.003215091	0.103609756
31	-0.003980174	-0.003157312	0.103609756
32	-0.003049025	-0.003039392	0.103609756
33	-0.002047455	-0.002860072	0.103609756
34	-0.000983582	-0.002619602	0.103609756
35	0.000134642	-0.002319381	0.103609756
36	0.001299429	-0.001961714	0.103609756
37	0.002503142	-0.001549605	0.103609756
38	0.003738272	-0.001086510	0.103609756
39	0.004997373	-0.000575904	0.103609756
40	0.006272917	-0.000020496	0.103609756
41	0.007557016	0.000579180	0.103609756
42	0.008840942	0.001227084	0.103609756
43	0.010085498	0.001925331	0.103609756
1	0.009811847	0.001777510	0.106263415
2	0.008457595	0.001531644	0.106263415
3	0.007118105	0.001258309	0.106263415
4	0.005795758	0.000980330	0.106263415
5	0.004495402	0.000710110	0.106263415
6	0.003223442	0.000452911	0.106263415
7	0.001986972	0.000210142	0.106263415
8	0.000793257	-0.000018643	0.106263415
9	-0.000350551	-0.000234664	0.106263415
10	-0.001437553	-0.000439376	0.106263415
11	-0.002461181	-0.000634247	0.106263415
12	-0.003415219	-0.000820679	0.106263415
13	-0.004293821	-0.001000023	0.106263415
14	-0.005091484	-0.001173634	0.106263415
15	-0.005802994	-0.001342988	0.106263415
16	-0.006423258	-0.001509925	0.106263415
17	-0.006946851	-0.001677204	0.106263415
18	-0.007366469	-0.001850024	0.106263415
19	-0.007669190	-0.002035641	0.106263415
20	-0.007837217	-0.002225980	0.106263415
21	-0.007876995	-0.002373084	0.106263415
22	-0.007872341	-0.002424199	0.106263415
23	-0.007857924	-0.002474737	0.106263415
24	-0.007771476	-0.002605260	0.106263415
25	-0.007560253	-0.002757916	0.106263415
26	-0.007223099	-0.002894516	0.106263415
27	-0.006773035	-0.003010184	0.106263415
28	-0.006217641	-0.003100357	0.106263415
29	-0.005562107	-0.003151236	0.106263415
30	-0.004813432	-0.003153187	0.106263415
31	-0.003979443	-0.003100267	0.106263415
32	-0.003068198	-0.002989281	0.106263415
33	-0.002087715	-0.002819023	0.106263415
34	-0.001045883	-0.002589739	0.106263415
35	0.000049557	-0.002302780	0.106263415
36	0.001191015	-0.001960366	0.106263415
37	0.002371034	-0.001565386	0.106263415
38	0.003582269	-0.001121149	0.106263415
39	0.004817423	-0.000630964	0.106263415
40	0.006069109	-0.000097345	0.106263415
41	0.007329572	0.000479396	0.106263415
42	0.008590221	0.001103492	0.106263415
43	0.009811847	0.001777510	0.106263415
1	0.009523116	0.001632761	0.108917073
2	0.008199938	0.001399458	0.108917073
3	0.006891060	0.001138995	0.108917073
4	0.005598894	0.000873829	0.108917073
5	0.004328226	0.000616130	0.108917073
6	0.003085333	0.000371027	0.108917073
7	0.001877148	0.000139869	0.108917073
8	0.000710760	-0.000077809	0.108917073
9	-0.000406856	-0.000283214	0.108917073
10	-0.001468979	-0.000477776	0.108917073
11	-0.002469208	-0.000662926	0.108917073
12	-0.003401494	-0.000840023	0.108917073
13	-0.004260146	-0.001010367	0.108917073
14	-0.005039819	-0.001175251	0.108917073
15	-0.005735459	-0.001336072	0.108917073
16	-0.006342159	-0.001494549	0.108917073
17	-0.006854751	-0.001653239	0.108917073
18	-0.007266447	-0.001816907	0.108917073
19	-0.007565230	-0.001992754	0.108917073
20	-0.007733881	-0.002174461	0.108917073
21	-0.007776854	-0.002316872	0.108917073
22	-0.007773582	-0.002366867	0.108917073
23	-0.007760560	-0.002416511	0.108917073
24	-0.007677988	-0.002545142	0.108917073
25	-0.007473017	-0.002695992	0.108917073
26	-0.007144540	-0.002831300	0.108917073
27	-0.006705315	-0.002945487	0.108917073
28	-0.006163166	-0.003035160	0.108917073
29	-0.005523127	-0.003087023	0.108917073
30	-0.004791964	-0.003091739	0.108917073
31	-0.003977255	-0.003043551	0.108917073
32	-0.003086807	-0.002939368	0.108917073
33	-0.002128400	-0.002778020	0.108917073
34	-0.001109696	-0.002559740	0.108917073
35	-0.000038221	-0.002285826	0.108917073
36	0.001078629	-0.001958414	0.108917073
37	0.002233584	-0.001580277	0.108917073
38	0.003419468	-0.001154587	0.108917073
39	0.004629143	-0.000684487	0.108917073
40	0.005855367	-0.000172301	0.108917073
41	0.007090529	0.000381883	0.108917073
42	0.008326177	0.000982570	0.108917073
43	0.009523116	0.001632761	0.108917073
1	0.009218598	0.001490839	0.111570732
2	0.007927723	0.001270247	0.111570732
3	0.006650692	0.001022814	0.111570732
4	0.005389950	0.000770566	0.111570732
5	0.004150211	0.000525399	0.111570732
6	0.002937621	0.000292294	0.111570732
7	0.001758941	0.000072539	0.111570732
8	0.000621075	-0.000134334	0.111570732
9	-0.000469191	-0.000329503	0.111570732
10	-0.001505319	-0.000514353	0.111570732
11	-0.002481087	-0.000690254	0.111570732
12	-0.003390614	-0.000858504	0.111570732
13	-0.004228375	-0.001020332	0.111570732
14	-0.004989184	-0.001176954	0.111570732
15	-0.005668152	-0.001329675	0.111570732
16	-0.006260554	-0.001480096	0.111570732
17	-0.006761464	-0.001630588	0.111570732
18	-0.007164531	-0.001785596	0.111570732
19	-0.007458505	-0.001952310	0.111570732
20	-0.007627044	-0.002125570	0.111570732
21	-0.007672989	-0.002263092	0.111570732
22	-0.007671089	-0.002311887	0.111570732
23	-0.007659453	-0.002360556	0.111570732
24	-0.007580657	-0.002487009	0.111570732
25	-0.007381798	-0.002635423	0.111570732
26	-0.007062101	-0.002768781	0.111570732
27	-0.006634137	-0.002881352	0.111570732
28	-0.006105762	-0.002970433	0.111570732
29	-0.005481841	-0.003023194	0.111570732
30	-0.004768908	-0.003030597	0.111570732
31	-0.003974289	-0.002987068	0.111570732
32	-0.003105542	-0.002889603	0.111570732
33	-0.002170208	-0.002737056	0.111570732
34	-0.001175725	-0.002529637	0.111570732
35	-0.000129406	-0.002268586	0.111570732
36	0.000961553	-0.001955952	0.111570732
37	0.002090068	-0.001594397	0.111570732
38	0.003249140	-0.001186959	0.111570732
39	0.004431796	-0.000736622	0.111570732
40	0.005630951	-0.000245524	0.111570732
41	0.006839143	0.000286466	0.111570732
42	0.008048072	0.000864118	0.111570732
43	0.009218598	0.001490839	0.111570732
1	0.008897565	0.001351503	0.114224390
2	0.007640256	0.001143737	0.114224390
3	0.006396347	0.000909436	0.114224390
4	0.005168305	0.000670150	0.114224390
5	0.003960773	0.000437473	0.114224390
6	0.002779748	0.000216231	0.114224390
7	0.001631813	0.000007655	0.114224390
8	0.000523678	-0.000188713	0.114224390
9	-0.000538069	-0.000374010	0.114224390
10	-0.001547081	-0.000549552	0.114224390
11	-0.002497319	-0.000716638	0.114224390
12	-0.003383082	-0.000876483	0.114224390
13	-0.004199011	-0.001030234	0.114224390
14	-0.004940086	-0.001179017	0.114224390
15	-0.005601582	-0.001324041	0.114224390
16	-0.006178953	-0.001466791	0.114224390
17	-0.006667501	-0.001609482	0.114224390
18	-0.007061249	-0.001756319	0.114224390
19	-0.007349683	-0.001914364	0.114224390
20	-0.007517562	-0.002079216	0.114224390
21	-0.007566343	-0.002211616	0.114224390
22	-0.007565805	-0.002259127	0.114224390
23	-0.007555528	-0.002306739	0.114224390
24	-0.007480291	-0.002430660	0.114224390
25	-0.007287273	-0.002575846	0.114224390
26	-0.006976414	-0.002706506	0.114224390
27	-0.006560160	-0.002817400	0.114224390
28	-0.006046110	-0.002905873	0.114224390
29	-0.005438950	-0.002959515	0.114224390
30	-0.004744978	-0.002969588	0.114224390
31	-0.003971271	-0.002930690	0.114224390
32	-0.003125138	-0.002839896	0.114224390
33	-0.002213885	-0.002696073	0.114224390
34	-0.001244724	-0.002499400	0.114224390
35	-0.000224759	-0.002251057	0.114224390
36	0.000839017	-0.001953003	0.114224390
37	0.001939712	-0.001607794	0.114224390
38	0.003070509	-0.001218337	0.114224390
39	0.004224606	-0.000787463	0.114224390
40	0.005395084	-0.000317133	0.114224390
41	0.006574642	0.000192996	0.114224390
42	0.007755147	0.000747947	0.114224390
43	0.008897565	0.001351503	0.114224390
1	0.008559279	0.001214509	0.116878049
2	0.007336886	0.001019670	0.116878049
3	0.006127462	0.000798558	0.116878049
4	0.004933488	0.000572225	0.116878049
5	0.003759520	0.000351953	0.116878049
6	0.002611402	0.000142409	0.116878049
7	0.001495525	-0.000055221	0.116878049
8	0.000418394	-0.000241378	0.116878049
9	-0.000613606	-0.000417138	0.116878049
10	-0.001594328	-0.000583739	0.116878049
11	-0.002517925	-0.000742392	0.116878049
12	-0.003378877	-0.000894218	0.116878049
13	-0.004171999	-0.001040272	0.116878049
14	-0.004892439	-0.001181583	0.116878049
15	-0.005535640	-0.001319260	0.116878049
16	-0.006097230	-0.001454681	0.116878049
17	-0.006572724	-0.001589930	0.116878049
18	-0.006956473	-0.001729038	0.116878049
19	-0.007238714	-0.001878754	0.116878049
20	-0.007405429	-0.002035186	0.116878049
21	-0.007456888	-0.002162224	0.116878049
22	-0.007457695	-0.002208363	0.116878049
23	-0.007448742	-0.002254828	0.116878049
24	-0.007376826	-0.002375856	0.116878049
25	-0.007189384	-0.002517021	0.116878049
26	-0.006887439	-0.002644230	0.116878049
27	-0.006483369	-0.002753386	0.116878049
28	-0.005984233	-0.002841246	0.116878049
29	-0.005394513	-0.002895761	0.116878049
30	-0.004720278	-0.002908491	0.116878049
31	-0.003968353	-0.002874200	0.116878049
32	-0.003145800	-0.002790032	0.116878049
33	-0.002259690	-0.002654861	0.116878049
34	-0.001317012	-0.002468829	0.116878049
35	-0.000324656	-0.002233053	0.116878049
36	0.000710590	-0.001949406	0.116878049
37	0.001782028	-0.001620338	0.116878049
38	0.002883030	-0.001248631	0.116878049
39	0.004006977	-0.000836970	0.116878049
40	0.005147124	-0.000387144	0.116878049
41	0.006296343	0.000101391	0.116878049
42	0.007446680	0.000633898	0.116878049
43	0.008559279	0.001214509	0.116878049
1	0.008202990	0.001079617	0.119531707
2	0.007017099	0.000897822	0.119531707
3	0.005843769	0.000689941	0.119531707
4	0.004685475	0.000476526	0.119531707
5	0.003546668	0.000268550	0.119531707
6	0.002433025	0.000070533	0.119531707
7	0.001350734	-0.000116375	0.119531707
8	0.000306086	-0.000292584	0.119531707
9	-0.000694747	-0.000459097	0.119531707
10	-0.001645827	-0.000617062	0.119531707
11	-0.002541504	-0.000767589	0.119531707
12	-0.003376446	-0.000911701	0.119531707
13	-0.004145650	-0.001050345	0.119531707
14	-0.004844436	-0.001184453	0.119531707
15	-0.005468415	-0.001315029	0.119531707
16	-0.006013395	-0.001443343	0.119531707
17	-0.006475095	-0.001571362	0.119531707
18	-0.006848163	-0.001702996	0.119531707
19	-0.007123520	-0.001844685	0.119531707
20	-0.007288330	-0.001992887	0.119531707
21	-0.007341969	-0.002114437	0.119531707
22	-0.007344027	-0.002159109	0.119531707
23	-0.007336342	-0.002204330	0.119531707
24	-0.007267689	-0.002322196	0.119531707
25	-0.007085917	-0.002458953	0.119531707
26	-0.006793180	-0.002582299	0.119531707
27	-0.006401810	-0.002689496	0.119531707
28	-0.005918244	-0.002776563	0.119531707
29	-0.005346747	-0.002831792	0.119531707
30	-0.004693151	-0.002847038	0.119531707
31	-0.003964026	-0.002817224	0.119531707
32	-0.003166186	-0.002739556	0.119531707
33	-0.002306461	-0.002612908	0.119531707
34	-0.001391615	-0.002437382	0.119531707
35	-0.000428319	-0.002214029	0.119531707
36	0.000576847	-0.001944638	0.119531707
37	0.001617390	-0.001631555	0.119531707
38	0.002686880	-0.001277441	0.119531707
39	0.003778888	-0.000884839	0.119531707
40	0.004886856	-0.000455369	0.119531707
41	0.006003842	0.000011707	0.119531707
42	0.007122083	0.000521879	0.119531707
43	0.008202990	0.001079617	0.119531707
1	0.007827928	0.000946583	0.122185366
2	0.006680394	0.000777972	0.122185366
3	0.005545039	0.000583349	0.122185366
4	0.004424303	0.000382792	0.122185366
5	0.003322516	0.000186984	0.122185366
6	0.002245168	0.000000315	0.122185366
7	0.001198233	-0.000176085	0.122185366
8	0.000187776	-0.000342577	0.122185366
9	-0.000780255	-0.000500085	0.122185366
10	-0.001700138	-0.000649655	0.122185366
11	-0.002566429	-0.000792289	0.122185366
12	-0.003373992	-0.000928900	0.122185366
13	-0.004118012	-0.001060330	0.122185366
14	-0.004793986	-0.001187403	0.122185366
15	-0.005397701	-0.001311016	0.122185366
16	-0.005925145	-0.001432325	0.122185366
17	-0.006372249	-0.001553173	0.122185366
18	-0.006733945	-0.001677371	0.122185366
19	-0.007001712	-0.001811246	0.122185366
20	-0.007163672	-0.001951596	0.122185366
21	-0.007218617	-0.002067701	0.122185366
22	-0.007221707	-0.002110817	0.122185366
23	-0.007215170	-0.002154680	0.122185366
24	-0.007149875	-0.002269194	0.122185366
25	-0.006974275	-0.002401612	0.122185366
26	-0.006691324	-0.002521152	0.122185366
27	-0.006313222	-0.002626006	0.122185366
28	-0.005845953	-0.002711892	0.122185366
29	-0.005293569	-0.002767489	0.122185366
30	-0.004661652	-0.002784951	0.122185366
31	-0.003956511	-0.002759352	0.122185366
32	-0.003184700	-0.002687954	0.122185366
33	-0.002352804	-0.002569625	0.122185366
34	-0.001467351	-0.002404428	0.122185366
35	-0.000534788	-0.002193346	0.122185366
36	0.000438526	-0.001938084	0.122185366
37	0.001446312	-0.001640885	0.122185366
38	0.002482347	-0.001304290	0.122185366
39	0.003540406	-0.000930700	0.122185366
40	0.004614129	-0.000521572	0.122185366
41	0.005696772	-0.000075974	0.122185366
42	0.006780780	0.000411809	0.122185366
43	0.007827928	0.000946583	0.122185366
1	0.007433307	0.000815165	0.124839024
2	0.006326145	0.000659873	0.124839024
3	0.005230807	0.000478495	0.124839024
4	0.004149671	0.000290690	0.124839024
5	0.003086919	0.000106882	0.124839024
6	0.002047836	-0.000068640	0.124839024
7	0.001038168	-0.000234748	0.124839024
8	0.000063741	-0.000391742	0.124839024
9	-0.000869728	-0.000540451	0.124839024
10	-0.001756742	-0.000681817	0.124839024
11	-0.002592075	-0.000816730	0.124839024
12	-0.003370793	-0.000945991	0.124839024
13	-0.004088273	-0.001070333	0.124839024
14	-0.004740199	-0.001190471	0.124839024
15	-0.005322539	-0.001307193	0.124839024
16	-0.005831466	-0.001421538	0.124839024
17	-0.006263126	-0.001535213	0.124839024
18	-0.006612749	-0.001651902	0.124839024
19	-0.006872249	-0.001778057	0.124839024
20	-0.007030440	-0.001910917	0.124839024
21	-0.007085723	-0.002021703	0.124839024
22	-0.007089558	-0.002063184	0.124839024
23	-0.007083992	-0.002105570	0.124839024
24	-0.007022146	-0.002216530	0.124839024
25	-0.006853367	-0.002344825	0.124839024
26	-0.006580918	-0.002460826	0.124839024
27	-0.006216694	-0.002562905	0.124839024
28	-0.005766495	-0.002647125	0.124839024
29	-0.005234176	-0.002702657	0.124839024
30	-0.004625062	-0.002721948	0.124839024
31	-0.003945183	-0.002700224	0.124839024
32	-0.003200827	-0.002634803	0.124839024
33	-0.002398320	-0.002524546	0.124839024
34	-0.001543947	-0.002369477	0.124839024
35	-0.000643915	-0.002170514	0.124839024
36	0.000295646	-0.001929279	0.124839024
37	0.001268684	-0.001647914	0.124839024
38	0.002269198	-0.001328838	0.124839024
39	0.003291176	-0.000974309	0.124839024
40	0.004328472	-0.000585618	0.124839024
41	0.005374552	-0.000161638	0.124839024
42	0.006422078	0.000303571	0.124839024
43	0.007433307	0.000815165	0.124839024
1	0.007018319	0.000685119	0.127492683
2	0.005953570	0.000543243	0.127492683
3	0.004900323	0.000375037	0.127492683
4	0.003860856	0.000199807	0.127492683
5	0.002839177	0.000027772	0.127492683
6	0.001840350	-0.000136847	0.127492683
7	0.000869876	-0.000292900	0.127492683
8	-0.000066666	-0.000440612	0.127492683
9	-0.000963804	-0.000580714	0.127492683
10	-0.001816273	-0.000714037	0.127492683
11	-0.002619070	-0.000841362	0.127492683
12	-0.003367471	-0.000963379	0.127492683
13	-0.004057055	-0.001080717	0.127492683
14	-0.004683694	-0.001193986	0.127492683
15	-0.005243543	-0.001303868	0.127492683
16	-0.005732965	-0.001411289	0.127492683
17	-0.006148319	-0.001517823	0.127492683
18	-0.006485137	-0.001627000	0.127492683
19	-0.006735732	-0.001745466	0.127492683
20	-0.006889470	-0.001870980	0.127492683
21	-0.006944383	-0.001976488	0.127492683
22	-0.006948718	-0.002016269	0.127492683
23	-0.006943941	-0.002057062	0.127492683
24	-0.006885496	-0.002164181	0.127492683
25	-0.006724012	-0.002288329	0.127492683
26	-0.006462711	-0.002400876	0.127492683
27	-0.006112990	-0.002499782	0.127492683
28	-0.005680652	-0.002581902	0.127492683
29	-0.005169366	-0.002636960	0.127492683
30	-0.004584187	-0.002657704	0.127492683
31	-0.003930862	-0.002639515	0.127492683
32	-0.003215399	-0.002579770	0.127492683
33	-0.002443858	-0.002477334	0.127492683
34	-0.001622264	-0.002332198	0.127492683
35	-0.000756575	-0.002145221	0.127492683
36	0.000147324	-0.001917944	0.127492683
37	0.001083620	-0.001652409	0.127492683
38	0.002046546	-0.001350912	0.127492683
39	0.003030320	-0.001015567	0.127492683
40	0.004029018	-0.000647493	0.127492683
41	0.005036329	-0.000245363	0.127492683
42	0.006045143	0.000196996	0.127492683
43	0.007018319	0.000685119	0.127492683
1	0.006582190	0.000556218	0.130146341
2	0.005561913	0.000427821	0.130146341
3	0.004552850	0.000272650	0.130146341
4	0.003557138	0.000109756	0.130146341
5	0.002578587	-0.000050787	0.130146341
6	0.001622018	-0.000204786	0.130146341
7	0.000692674	-0.000351040	0.130146341
8	-0.000204124	-0.000489689	0.130146341
9	-0.001063157	-0.000621359	0.130146341
10	-0.001879402	-0.000746774	0.130146341
11	-0.002648084	-0.000866607	0.130146341
12	-0.003364699	-0.000981449	0.130146341
13	-0.004025030	-0.001091828	0.130146341
14	-0.004625146	-0.001198262	0.130146341
15	-0.005161389	-0.001301337	0.130146341
16	-0.005630313	-0.001401876	0.130146341
17	-0.006028490	-0.001501332	0.130146341
18	-0.006351737	-0.001603107	0.130146341
19	-0.006592792	-0.001713923	0.130146341
20	-0.006741605	-0.001832007	0.130146341
21	-0.006795735	-0.001932151	0.130146341
22	-0.006800396	-0.001970165	0.130146341
23	-0.006796245	-0.002009261	0.130146341
24	-0.006741017	-0.002112172	0.130146341
25	-0.006587102	-0.002231879	0.130146341
26	-0.006337507	-0.002340843	0.130146341
27	-0.006002925	-0.002436211	0.130146341
28	-0.005589254	-0.002515838	0.130146341
29	-0.005099976	-0.002570035	0.130146341
30	-0.004539873	-0.002591858	0.130146341
31	-0.003914401	-0.002576853	0.130146341
32	-0.003229279	-0.002522475	0.130146341
33	-0.002490289	-0.002427606	0.130146341
34	-0.001703183	-0.002292215	0.130146341
35	-0.000873655	-0.002117113	0.130146341
36	-0.000007329	-0.001903763	0.130146341
37	0.000890234	-0.001654107	0.130146341
38	0.001813515	-0.001370316	0.130146341
39	0.002756973	-0.001054355	0.130146341
40	0.003714920	-0.000707165	0.130146341
41	0.004681276	-0.000327208	0.130146341
42	0.005649167	0.000091935	0.130146341
43	0.006582190	0.000556218	0.130146341
1	0.006124725	0.000428428	0.132800000
2	0.005150948	0.000313558	0.132800000
3	0.004188130	0.000171270	0.132800000
4	0.003238228	0.000020454	0.132800000
5	0.002304827	-0.000128896	0.132800000
6	0.001392487	-0.000272569	0.132800000
7	0.000506178	-0.000409290	0.132800000
8	-0.000349046	-0.000539100	0.132800000
9	-0.001168228	-0.000662517	0.132800000
10	-0.001946595	-0.000780159	0.132800000
11	-0.002679610	-0.000892599	0.132800000
12	-0.003362991	-0.001000334	0.132800000
13	-0.003992734	-0.001103804	0.132800000
14	-0.004565108	-0.001203442	0.132800000
15	-0.005076647	-0.001299753	0.132800000
16	-0.005524095	-0.001393468	0.132800000
17	-0.005904230	-0.001485936	0.132800000
18	-0.006213134	-0.001580488	0.132800000
19	-0.006444015	-0.001683738	0.132800000
20	-0.006587511	-0.001794231	0.132800000
21	-0.006640619	-0.001888847	0.132800000
22	-0.006645492	-0.001925026	0.132800000
23	-0.006641836	-0.001962325	0.132800000
24	-0.006589577	-0.002060630	0.132800000
25	-0.006443342	-0.002175410	0.132800000
26	-0.006205929	-0.002280493	0.132800000
27	-0.005887121	-0.002371989	0.132800000
28	-0.005492915	-0.002448765	0.132800000
29	-0.005026610	-0.002501735	0.132800000
30	-0.004492709	-0.002524274	0.132800000
31	-0.003896371	-0.002512110	0.132800000
32	-0.003243018	-0.002462793	0.132800000
33	-0.002538140	-0.002375243	0.132800000
34	-0.001787206	-0.002249420	0.132800000
35	-0.000995628	-0.002086093	0.132800000
36	-0.000168757	-0.001886653	0.132800000
37	0.000688114	-0.001652943	0.132800000
38	0.001569727	-0.001387006	0.132800000
39	0.002470793	-0.001090649	0.132800000
40	0.003385872	-0.000764629	0.132800000
41	0.004309125	-0.000407187	0.132800000
42	0.005233920	-0.000011641	0.132800000
43	0.006124725	0.000428428	0.132800000
1	0.005764685	0.000332570	0.134806946
2	0.004827384	0.000227960	0.134806946
3	0.003900866	0.000095320	0.134806946
4	0.002986934	-0.000046526	0.134806946
5	0.002088982	-0.000187603	0.134806946
6	0.001211361	-0.000323661	0.134806946
7	0.000358830	-0.000453351	0.134806946
8	-0.000463771	-0.000576630	0.134806946
9	-0.001251688	-0.000693934	0.134806946
10	-0.002000340	-0.000805800	0.134806946
11	-0.002705376	-0.000912729	0.134806946
12	-0.003362687	-0.001015150	0.134806946
13	-0.003968433	-0.001113445	0.134806946
14	-0.004519037	-0.001207988	0.134806946
15	-0.005011179	-0.001299227	0.134806946
16	-0.005441751	-0.001387838	0.134806946
17	-0.005807681	-0.001475102	0.134806946
18	-0.006105238	-0.001564318	0.134806946
19	-0.006328005	-0.001661922	0.134806946
20	-0.006467213	-0.001766591	0.134806946
21	-0.006519438	-0.001856900	0.134806946
22	-0.006524426	-0.001891644	0.134806946
23	-0.006521082	-0.001927525	0.134806946
24	-0.006470904	-0.002022084	0.134806946
25	-0.006330476	-0.002132728	0.134806946
26	-0.006102530	-0.002234575	0.134806946
27	-0.005796070	-0.002322942	0.134806946
28	-0.005417106	-0.002397347	0.134806946
29	-0.004968800	-0.002449168	0.134806946
30	-0.004455442	-0.002472024	0.134806946
31	-0.003881965	-0.002461796	0.134806946
32	-0.003253561	-0.002416118	0.134806946
33	-0.002575491	-0.002333948	0.134806946
34	-0.001852998	-0.002215249	0.134806946
35	-0.001091277	-0.002060764	0.134806946
36	-0.000295462	-0.001871832	0.134806946
37	0.000529367	-0.001650220	0.134806946
38	0.001378155	-0.001397873	0.134806946
39	0.002245816	-0.001116476	0.134806946
40	0.003127101	-0.000806639	0.134806946
41	0.004016361	-0.000466432	0.134806946
42	0.004907150	-0.000088961	0.134806946
43	0.005764685	0.000332570	0.134806946
1	0.005396771	0.000238470	0.136791904
2	0.004496622	0.000144035	0.136791904
3	0.003607100	0.000020858	0.136791904
4	0.002729831	-0.000112249	0.136791904
5	0.001868010	-0.000245304	0.136791904
6	0.001025774	-0.000373992	0.136791904
7	0.000207661	-0.000496880	0.136791904
8	-0.000581702	-0.000613836	0.136791904
9	-0.001337766	-0.000725209	0.136791904
10	-0.002056149	-0.000831458	0.136791904
11	-0.002732683	-0.000933015	0.136791904
12	-0.003363437	-0.001030247	0.136791904
13	-0.003944735	-0.001123478	0.136791904
14	-0.004473155	-0.001213032	0.136791904
15	-0.004945526	-0.001299308	0.136791904
16	-0.005358881	-0.001382929	0.136791904
17	-0.005710299	-0.001465127	0.136791904
18	-0.005996219	-0.001549174	0.136791904
19	-0.006210611	-0.001641273	0.136791904
20	-0.006345332	-0.001740147	0.136791904
21	-0.006396614	-0.001826080	0.136791904
22	-0.006401700	-0.001859365	0.136791904
23	-0.006398637	-0.001893797	0.136791904
24	-0.006350397	-0.001984440	0.136791904
25	-0.006215659	-0.002090590	0.136791904
26	-0.005997238	-0.002188878	0.136791904
27	-0.005703340	-0.002273994	0.136791904
28	-0.005339885	-0.002345895	0.136791904
29	-0.004909897	-0.002396408	0.136791904
30	-0.004417459	-0.002419405	0.136791904
31	-0.003867274	-0.002410926	0.136791904
32	-0.003264304	-0.002368698	0.136791904
33	-0.002613578	-0.002291726	0.136791904
34	-0.001920112	-0.002179983	0.136791904
35	-0.001188874	-0.002034190	0.136791904
36	-0.000424777	-0.001855638	0.136791904
37	0.000367315	-0.001646019	0.136791904
38	0.001182556	-0.001407177	0.136791904
39	0.002016064	-0.001140677	0.136791904
40	0.002862789	-0.000846978	0.136791904
41	0.003717272	-0.000523973	0.136791904
42	0.004573255	-0.000164556	0.136791904
43	0.005396771	0.000238470	0.136791904
1	0.005025685	0.000147160	0.138733126
2	0.004162892	0.000062701	0.138733126
3	0.003310586	-0.000051288	0.138733126
4	0.002470206	-0.000175971	0.138733126
5	0.001644738	-0.000301327	0.138733126
6	0.000838101	-0.000422959	0.138733126
7	0.000054610	-0.000539341	0.138733126
8	-0.000701320	-0.000650244	0.138733126
9	-0.001425349	-0.000755932	0.138733126
10	-0.002113290	-0.000856787	0.138733126
11	-0.002761161	-0.000953173	0.138733126
12	-0.003365207	-0.001045400	0.138733126
13	-0.003921915	-0.001133740	0.138733126
14	-0.004428019	-0.001218472	0.138733126
15	-0.004880493	-0.001299950	0.138733126
16	-0.005276510	-0.001378755	0.138733126
17	-0.005613294	-0.001456077	0.138733126
18	-0.005887444	-0.001535178	0.138733126
19	-0.006093306	-0.001621988	0.138733126
20	-0.006223374	-0.001715205	0.138733126
21	-0.006273650	-0.001796760	0.138733126
22	-0.006278830	-0.001828575	0.138733126
23	-0.006276029	-0.001861548	0.138733126
24	-0.006229606	-0.001948177	0.138733126
25	-0.006100376	-0.002049535	0.138733126
26	-0.005891392	-0.002143942	0.138733126
27	-0.005610111	-0.002225723	0.138733126
28	-0.005262235	-0.002295022	0.138733126
29	-0.004850654	-0.002344095	0.138733126
30	-0.004379246	-0.002367066	0.138733126
31	-0.003852489	-0.002360140	0.138733126
32	-0.003275115	-0.002321145	0.138733126
33	-0.002651922	-0.002249140	0.138733126
34	-0.001987695	-0.002144114	0.138733126
35	-0.001287175	-0.002006771	0.138733126
36	-0.000555053	-0.001838355	0.138733126
37	0.000204024	-0.001640485	0.138733126
38	0.000985425	-0.001414908	0.138733126
39	0.001784472	-0.001163063	0.138733126
40	0.002596311	-0.000885264	0.138733126
41	0.003415679	-0.000579223	0.138733126
42	0.004236502	-0.000237616	0.138733126
43	0.005025685	0.000147160	0.138733126
1	0.004656515	0.000059610	0.140609344
2	0.003830788	-0.000015174	0.140609344
3	0.003015427	-0.000120338	0.140609344
4	0.002211670	-0.000236986	0.140609344
5	0.001422295	-0.000355031	0.140609344
6	0.000650998	-0.000469982	0.140609344
7	-0.000098122	-0.000580209	0.140609344
8	-0.000820868	-0.000685386	0.140609344
9	-0.001513100	-0.000785688	0.140609344
10	-0.002170828	-0.000881425	0.140609344
11	-0.002790251	-0.000972896	0.140609344
12	-0.003367788	-0.001060358	0.140609344
13	-0.003900088	-0.001144035	0.140609344
14	-0.004384037	-0.001224165	0.140609344
15	-0.004816752	-0.001301062	0.140609344
16	-0.005195542	-0.001375270	0.140609344
17	-0.005517770	-0.001447947	0.140609344
18	-0.005780178	-0.001522367	0.140609344
19	-0.005977470	-0.001604178	0.140609344
20	-0.006102758	-0.001691986	0.140609344
21	-0.006151945	-0.001769239	0.140609344
22	-0.006157209	-0.001799597	0.140609344
23	-0.006154660	-0.001831119	0.140609344
24	-0.006109959	-0.001913715	0.140609344
25	-0.005986027	-0.002010098	0.140609344
26	-0.005786271	-0.002100355	0.140609344
27	-0.005517487	-0.002178750	0.140609344
28	-0.005185054	-0.002245378	0.140609344
29	-0.004791727	-0.002292898	0.140609344
30	-0.004341182	-0.002315684	0.140609344
31	-0.003837680	-0.002310108	0.140609344
32	-0.003285725	-0.002274103	0.140609344
33	-0.002689887	-0.002206788	0.140609344
34	-0.002054723	-0.002108171	0.140609344
35	-0.001384748	-0.001978943	0.140609344
36	-0.000684430	-0.001820306	0.140609344
37	0.000041799	-0.001633807	0.140609344
38	0.000789518	-0.001421097	0.140609344
39	0.001554255	-0.001183495	0.140609344
40	0.002331353	-0.000921165	0.140609344
41	0.003115737	-0.000631644	0.140609344
42	0.003901517	-0.000307391	0.140609344
43	0.004656515	0.000059610	0.140609344
1	0.004294628	-0.000023274	0.142400000
2	0.003505162	-0.000088791	0.142400000
3	0.002725956	-0.000185577	0.142400000
4	0.001958047	-0.000294644	0.142400000
5	0.001204000	-0.000405825	0.142400000
6	0.000467294	-0.000514521	0.142400000
7	-0.000248189	-0.000618993	0.142400000
8	-0.000938458	-0.000718815	0.142400000
9	-0.001599575	-0.000814079	0.142400000
10	-0.002227736	-0.000905022	0.142400000
11	-0.002819321	-0.000991883	0.142400000
12	-0.003370917	-0.001074866	0.142400000
13	-0.003879329	-0.001154156	0.142400000
14	-0.004341592	-0.001229950	0.142400000
15	-0.004754960	-0.001302529	0.142400000
16	-0.005116876	-0.001372402	0.142400000
17	-0.005424832	-0.001440702	0.142400000
18	-0.005675705	-0.001510738	0.142400000
19	-0.005864514	-0.001587893	0.142400000
20	-0.005984951	-0.001670636	0.142400000
21	-0.006032940	-0.001743752	0.142400000
22	-0.006038267	-0.001772686	0.142400000
23	-0.006035958	-0.001802788	0.142400000
24	-0.005992910	-0.001881414	0.142400000
25	-0.005874054	-0.001972780	0.142400000
26	-0.005683203	-0.002058705	0.142400000
27	-0.005426616	-0.002133693	0.142400000
28	-0.005109275	-0.002197615	0.142400000
29	-0.004733794	-0.002243495	0.142400000
30	-0.004303658	-0.002265949	0.142400000
31	-0.003822914	-0.002261517	0.142400000
32	-0.003295846	-0.002228239	0.142400000
33	-0.002726801	-0.002165294	0.142400000
34	-0.002120114	-0.002072716	0.142400000
35	-0.001480079	-0.001951184	0.142400000
36	-0.000810946	-0.001801860	0.142400000
37	-0.000116935	-0.001626224	0.142400000
38	0.000597740	-0.001425833	0.142400000
39	0.001328805	-0.001201887	0.142400000
40	0.002071797	-0.000954409	0.142400000
41	0.002821827	-0.000680762	0.142400000
42	0.003573182	-0.000373192	0.142400000
43	0.004294628	-0.000023274	0.142400000
1	0.003945550	-0.000100666	0.144085477
2	0.003191010	-0.000157425	0.144085477
3	0.002446642	-0.000246356	0.144085477
4	0.001713280	-0.000348361	0.144085477
5	0.000993280	-0.000453175	0.144085477
6	0.000289909	-0.000556086	0.144085477
7	-0.000393160	-0.000655243	0.144085477
8	-0.001052135	-0.000750124	0.144085477
9	-0.001683270	-0.000840737	0.144085477
10	-0.002282942	-0.000927249	0.144085477
11	-0.002847704	-0.001009843	0.144085477
12	-0.003374302	-0.001088678	0.144085477
13	-0.003859695	-0.001163897	0.144085477
14	-0.004301056	-0.001235664	0.144085477
15	-0.004695775	-0.001304227	0.144085477
16	-0.005041417	-0.001370066	0.144085477
17	-0.005335601	-0.001434289	0.144085477
18	-0.005575324	-0.001500259	0.144085477
19	-0.005755877	-0.001573134	0.144085477
20	-0.005871470	-0.001651231	0.144085477
21	-0.005918133	-0.001720464	0.144085477
22	-0.005923487	-0.001748029	0.144085477
23	-0.005921397	-0.001776762	0.144085477
24	-0.005879944	-0.001851564	0.144085477
25	-0.005765933	-0.001938020	0.144085477
26	-0.005583563	-0.002019550	0.144085477
27	-0.005338691	-0.002091149	0.144085477
28	-0.005035872	-0.002152370	0.144085477
29	-0.004677571	-0.002196552	0.144085477
30	-0.004267090	-0.002218548	0.144085477
31	-0.003808274	-0.002215057	0.144085477
32	-0.003305197	-0.002184228	0.144085477
33	-0.002761990	-0.002125300	0.144085477
34	-0.002182774	-0.002038333	0.144085477
35	-0.001571630	-0.001923997	0.144085477
36	-0.000932600	-0.001783419	0.144085477
37	-0.000269697	-0.001618012	0.144085477
38	0.000413063	-0.001429246	0.144085477
39	0.001111599	-0.001218208	0.144085477
40	0.001821633	-0.000984782	0.144085477
41	0.002538454	-0.000726167	0.144085477
42	0.003256519	-0.000434403	0.144085477
43	0.003945550	-0.000100666	0.144085477
1	0.003614831	-0.000171822	0.145647308
2	0.002893353	-0.000220429	0.145647308
3	0.002181974	-0.000302103	0.145647308
4	0.001481328	-0.000397619	0.145647308
5	0.000793573	-0.000496610	0.145647308
6	0.000121771	-0.000594244	0.145647308
7	-0.000530601	-0.000688563	0.145647308
8	-0.001159941	-0.000778948	0.145647308
9	-0.001762684	-0.000865328	0.145647308
10	-0.002335379	-0.000947806	0.145647308
11	-0.002874740	-0.001026512	0.145647308
12	-0.003377665	-0.001101562	0.145647308
13	-0.003841256	-0.001173064	0.145647308
14	-0.004262821	-0.001241148	0.145647308
15	-0.004639871	-0.001306034	0.145647308
16	-0.004970093	-0.001368173	0.145647308
17	-0.005251218	-0.001428649	0.145647308
18	-0.005480359	-0.001490885	0.145647308
19	-0.005653026	-0.001559882	0.145647308
20	-0.005763875	-0.001633802	0.145647308
21	-0.005809094	-0.001699477	0.145647308
22	-0.005814422	-0.001725757	0.145647308
23	-0.005812516	-0.001753192	0.145647308
24	-0.005772595	-0.001824383	0.145647308
25	-0.005663176	-0.001906183	0.145647308
26	-0.005488773	-0.001983400	0.145647308
27	-0.005254956	-0.002051677	0.145647308
28	-0.004965868	-0.002110246	0.145647308
29	-0.004623821	-0.002152710	0.145647308
30	-0.004231943	-0.002174146	0.145647308
31	-0.003793892	-0.002171405	0.145647308
32	-0.003313540	-0.002142737	0.145647308
33	-0.002794818	-0.002087444	0.145647308
34	-0.002241643	-0.002005609	0.145647308
35	-0.001657893	-0.001897899	0.145647308
36	-0.001047414	-0.001765403	0.145647308
37	-0.000414023	-0.001609477	0.145647308
38	0.000238451	-0.001431505	0.145647308
39	0.000906109	-0.001232470	0.145647308
40	0.001584851	-0.001012125	0.145647308
41	0.002270133	-0.000767512	0.145647308
42	0.002956569	-0.000490481	0.145647308
43	0.003614831	-0.000171822	0.145647308
1	0.003307972	-0.000236081	0.147068381
2	0.002618286	-0.000277036	0.147068381
3	0.001938656	-0.000351943	0.147068381
4	0.001269507	-0.000441437	0.147068381
5	0.000612797	-0.000535037	0.147068381
6	-0.000028609	-0.000627794	0.147068381
7	-0.000651427	-0.000717639	0.147068381
8	-0.001252237	-0.000803862	0.147068381
9	-0.001827648	-0.000886314	0.147068381
10	-0.002374374	-0.000965036	0.147068381
11	-0.002889286	-0.001040108	0.147068381
12	-0.003369427	-0.001111602	0.147068381
13	-0.003812038	-0.001179587	0.147068381
14	-0.004214555	-0.001244153	0.147068381
15	-0.004574614	-0.001305472	0.147068381
16	-0.004890023	-0.001363923	0.147068381
17	-0.005158660	-0.001420443	0.147068381
18	-0.005376788	-0.001481963	0.147068381
19	-0.005540970	-0.001549503	0.147068381
20	-0.005647055	-0.001619767	0.147068381
21	-0.005691370	-0.001681685	0.147068381
22	-0.005696814	-0.001706692	0.147068381
23	-0.005695014	-0.001732867	0.147068381
24	-0.005655812	-0.001800135	0.147068381
25	-0.005550523	-0.001877119	0.147068381
26	-0.005384471	-0.001951794	0.147068381
27	-0.005162105	-0.002019336	0.147068381
28	-0.004885983	-0.002074116	0.147068381
29	-0.004559437	-0.002113794	0.147068381
30	-0.004185411	-0.002133683	0.147068381
31	-0.003767350	-0.002130783	0.147068381
32	-0.003308917	-0.002103430	0.147068381
33	-0.002813833	-0.002050968	0.147068381
34	-0.002285808	-0.001973487	0.147068381
35	-0.001728525	-0.001871630	0.147068381
36	-0.001145631	-0.001746441	0.147068381
37	-0.000540758	-0.001599207	0.147068381
38	0.000082449	-0.001431222	0.147068381
39	0.000720266	-0.001243359	0.147068381
40	0.001368760	-0.001035243	0.147068381
41	0.002023544	-0.000803762	0.147068381
42	0.002679382	-0.000540577	0.147068381
43	0.003307972	-0.000236081	0.147068381
1	0.003030521	-0.000292858	0.148333126
2	0.002376536	-0.000325595	0.148333126
3	0.001732703	-0.000393410	0.148333126
4	0.001099127	-0.000476614	0.148333126
5	0.000477495	-0.000564556	0.148333126
6	-0.000129569	-0.000652144	0.148333126
7	-0.000719001	-0.000737193	0.148333126
8	-0.001287591	-0.000818896	0.148333126
9	-0.001832143	-0.000897027	0.148333126
10	-0.002349558	-0.000971560	0.148333126
11	-0.002836881	-0.001042513	0.148333126
12	-0.003291325	-0.001109900	0.148333126
13	-0.003710289	-0.001173719	0.148333126
14	-0.004091365	-0.001233973	0.148333126
15	-0.004432344	-0.001290691	0.148333126
16	-0.004731216	-0.001343982	0.148333126
17	-0.004986138	-0.001394160	0.148333126
18	-0.005192622	-0.001451911	0.148333126
19	-0.005344064	-0.001524251	0.148333126
20	-0.005434272	-0.001603629	0.148333126
21	-0.005465587	-0.001668674	0.148333126
22	-0.005468720	-0.001692732	0.148333126
23	-0.005467378	-0.001717568	0.148333126
24	-0.005439591	-0.001786123	0.148333126
25	-0.005351024	-0.001871680	0.148333126
26	-0.005198022	-0.001950303	0.148333126
27	-0.004986702	-0.002010594	0.148333126
28	-0.004724051	-0.002054770	0.148333126
29	-0.004414351	-0.002085528	0.148333126
30	-0.004060222	-0.002098604	0.148333126
31	-0.003664754	-0.002091188	0.148333126
32	-0.003231266	-0.002061654	0.148333126
33	-0.002763166	-0.002009304	0.148333126
34	-0.002263884	-0.001934139	0.148333126
35	-0.001736843	-0.001836688	0.148333126
36	-0.001185457	-0.001717865	0.148333126
37	-0.000613135	-0.001578812	0.148333126
38	-0.000023315	-0.001420676	0.148333126
39	0.000580476	-0.001244170	0.148333126
40	0.001194484	-0.001048745	0.148333126
41	0.001814482	-0.000831085	0.148333126
42	0.002435352	-0.000582578	0.148333126
43	0.003030521	-0.000292858	0.148333126
1	0.002787444	-0.000341641	0.149427688
2	0.002176702	-0.000365129	0.149427688
3	0.001576358	-0.000424949	0.149427688
4	0.000986046	-0.000501003	0.149427688
5	0.000407093	-0.000582445	0.149427688
6	-0.000158186	-0.000664025	0.149427688
7	-0.000707005	-0.000743430	0.149427688
8	-0.001236407	-0.000819754	0.149427688
9	-0.001743433	-0.000892687	0.149427688
10	-0.002225210	-0.000962130	0.149427688
11	-0.002678997	-0.001028035	0.149427688
12	-0.003102212	-0.001090343	0.149427688
13	-0.003492445	-0.001148971	0.149427688
14	-0.003847476	-0.001203805	0.149427688
15	-0.004165287	-0.001254705	0.149427688
16	-0.004444069	-0.001301495	0.149427688
17	-0.004680149	-0.001353702	0.149427688
18	-0.004866611	-0.001424804	0.149427688
19	-0.004997871	-0.001509405	0.149427688
20	-0.005069852	-0.001595074	0.149427688
21	-0.005092782	-0.001658481	0.149427688
22	-0.005095300	-0.001680945	0.149427688
23	-0.005094897	-0.001704127	0.149427688
24	-0.005076590	-0.001770761	0.149427688
25	-0.005006657	-0.001861578	0.149427688
26	-0.004872443	-0.001948750	0.149427688
27	-0.004678906	-0.002014976	0.149427688
28	-0.004433523	-0.002049907	0.149427688
29	-0.004143998	-0.002064870	0.149427688
30	-0.003813900	-0.002065094	0.149427688
31	-0.003445852	-0.002048089	0.149427688
32	-0.003042714	-0.002012295	0.149427688
33	-0.002607478	-0.001956930	0.149427688
34	-0.002143204	-0.001881828	0.149427688
35	-0.001652987	-0.001787316	0.149427688
36	-0.001139944	-0.001674083	0.149427688
37	-0.000607215	-0.001543047	0.149427688
38	-0.000057986	-0.001395124	0.149427688
39	0.000504445	-0.001230799	0.149427688
40	0.001076532	-0.001049288	0.149427688
41	0.001654216	-0.000847005	0.149427688
42	0.002232474	-0.000614982	0.149427688
43	0.002787444	-0.000341641	0.149427688
1	0.002582880	-0.000382002	0.150340073
2	0.002024503	-0.000395092	0.150340073
3	0.001476842	-0.000445759	0.150340073
4	0.000938946	-0.000513511	0.150340073
5	0.000411698	-0.000587318	0.150340073
6	-0.000102967	-0.000661771	0.150340073
7	-0.000602595	-0.000734431	0.150340073
8	-0.001084537	-0.000804291	0.150340073
9	-0.001546119	-0.000870960	0.150340073
10	-0.001984739	-0.000934275	0.150340073
11	-0.002397909	-0.000994127	0.150340073
12	-0.002783290	-0.001050401	0.150340073
13	-0.003138699	-0.001102952	0.150340073
14	-0.003462131	-0.001151599	0.150340073
15	-0.003751767	-0.001196119	0.150340073
16	-0.004003934	-0.001247165	0.150340073
17	-0.004213092	-0.001315673	0.150340073
18	-0.004374863	-0.001398325	0.150340073
19	-0.004484850	-0.001488425	0.150340073
20	-0.004542715	-0.001572412	0.150340073
21	-0.004561494	-0.001630967	0.150340073
22	-0.004564095	-0.001651389	0.150340073
23	-0.004564649	-0.001672528	0.150340073
24	-0.004553444	-0.001734633	0.150340073
25	-0.004500013	-0.001824457	0.150340073
26	-0.004385991	-0.001915318	0.150340073
27	-0.004213974	-0.001987199	0.150340073
28	-0.003992050	-0.002029632	0.150340073
29	-0.003728000	-0.002036501	0.150340073
30	-0.003427392	-0.002021047	0.150340073
31	-0.003092696	-0.001991887	0.150340073
32	-0.002726307	-0.001947676	0.150340073
33	-0.002330775	-0.001887635	0.150340073
34	-0.001908747	-0.001811475	0.150340073
35	-0.001462945	-0.001719321	0.150340073
36	-0.000996142	-0.001611621	0.150340073
37	-0.000511160	-0.001489030	0.150340073
38	-0.000010890	-0.001352194	0.150340073
39	0.000501642	-0.001201324	0.150340073
40	0.001023133	-0.001035351	0.150340073
41	0.001549714	-0.000850371	0.150340073
42	0.002076457	-0.000636985	0.150340073
43	0.002582880	-0.000382002	0.150340073
1	0.002420297	-0.000413609	0.151060285
2	0.001922053	-0.000415509	0.151060285
3	0.001434833	-0.000456040	0.151060285
4	0.000957045	-0.000514452	0.151060285
5	0.000489074	-0.000579580	0.151060285
6	0.000032429	-0.000645884	0.151060285
7	-0.000410814	-0.000710812	0.151060285
8	-0.000838353	-0.000773266	0.151060285
9	-0.001247839	-0.000832789	0.151060285
10	-0.001636975	-0.000889167	0.151060285
11	-0.002003562	-0.000942254	0.151060285
12	-0.002345531	-0.000991909	0.151060285
13	-0.002660950	-0.001037969	0.151060285
14	-0.002947868	-0.001081742	0.151060285
15	-0.003202307	-0.001134941	0.151060285
16	-0.003421096	-0.001200018	0.151060285
17	-0.003601076	-0.001275824	0.151060285
18	-0.003738895	-0.001359450	0.151060285
19	-0.003831816	-0.001444854	0.151060285
20	-0.003881210	-0.001520777	0.151060285
21	-0.003898524	-0.001572558	0.151060285
22	-0.003901489	-0.001590583	0.151060285
23	-0.003902881	-0.001609333	0.151060285
24	-0.003896505	-0.001665103	0.151060285
25	-0.003854742	-0.001748074	0.151060285
26	-0.003757670	-0.001833850	0.151060285
27	-0.003607092	-0.001903056	0.151060285
28	-0.003411161	-0.001947429	0.151060285
29	-0.003176842	-0.001963510	0.151060285
30	-0.002909686	-0.001949905	0.151060285
31	-0.002613550	-0.001911061	0.151060285
32	-0.002289491	-0.001859660	0.151060285
33	-0.001939557	-0.001795952	0.151060285
34	-0.001565995	-0.001719656	0.151060285
35	-0.001171143	-0.001630794	0.151060285
36	-0.000757406	-0.001529644	0.151060285
37	-0.000327260	-0.001416640	0.151060285
38	0.000116735	-0.001292178	0.151060285
39	0.000571864	-0.001156200	0.151060285
40	0.001035099	-0.001007349	0.151060285
41	0.001502793	-0.000841391	0.151060285
42	0.001970135	-0.000648491	0.151060285
43	0.002420297	-0.000413609	0.151060285
1	0.002297802	-0.000437444	0.151580434
2	0.001862251	-0.000427993	0.151580434
3	0.001438024	-0.000458045	0.151580434
4	0.001022876	-0.000506701	0.151580434
5	0.000616675	-0.000562711	0.151580434
6	0.000220493	-0.000620433	0.151580434
7	-0.000163989	-0.000677225	0.151580434
8	-0.000534827	-0.000731920	0.151580434
9	-0.000890008	-0.000784008	0.151580434
10	-0.001227552	-0.000833244	0.151580434
11	-0.001545557	-0.000879467	0.151580434
12	-0.001842162	-0.000923765	0.151580434
13	-0.002114380	-0.000972384	0.151580434
14	-0.002360114	-0.001026993	0.151580434
15	-0.002577208	-0.001088062	0.151580434
16	-0.002763435	-0.001155448	0.151580434
17	-0.002916474	-0.001228193	0.151580434
18	-0.003033991	-0.001304083	0.151580434
19	-0.003114235	-0.001378646	0.151580434
20	-0.003158454	-0.001443653	0.151580434
21	-0.003175244	-0.001487955	0.151580434
22	-0.003178528	-0.001503459	0.151580434
23	-0.003180487	-0.001519663	0.151580434
24	-0.003176919	-0.001568248	0.151580434
25	-0.003141754	-0.001640707	0.151580434
26	-0.003056568	-0.001714043	0.151580434
27	-0.002924874	-0.001772011	0.151580434
28	-0.002754563	-0.001809739	0.151580434
29	-0.002551279	-0.001826048	0.151580434
30	-0.002319080	-0.001820785	0.151580434
31	-0.002061160	-0.001794391	0.151580434
32	-0.001780157	-0.001747937	0.151580434
33	-0.001477991	-0.001684464	0.151580434
34	-0.001155318	-0.001610681	0.151580434
35	-0.000814002	-0.001527259	0.151580434
36	-0.000456090	-0.001434399	0.151580434
37	-0.000083706	-0.001332398	0.151580434
38	0.000300930	-0.001221467	0.151580434
39	0.000695423	-0.001101328	0.151580434
40	0.001097040	-0.000970372	0.151580434
41	0.001502374	-0.000824072	0.151580434
42	0.001906748	-0.000652225	0.151580434
43	0.002297802	-0.000437444	0.151580434
1	0.001862022	-0.000539098	0.152000000
2	0.001523241	-0.000497747	0.152000000
3	0.001198097	-0.000503750	0.152000000
4	0.000882421	-0.000532893	0.152000000
5	0.000573850	-0.000572209	0.152000000
6	0.000274413	-0.000615278	0.152000000
7	-0.000015780	-0.000659624	0.152000000
8	-0.000295312	-0.000704422	0.152000000
9	-0.000562608	-0.000749697	0.152000000
10	-0.000816053	-0.000795823	0.152000000
11	-0.001054045	-0.000843271	0.152000000
12	-0.001275018	-0.000892491	0.152000000
13	-0.001477441	-0.000943836	0.152000000
14	-0.001659819	-0.000997499	0.152000000
15	-0.001820684	-0.001053457	0.152000000
16	-0.001958577	-0.001111400	0.152000000
17	-0.002072035	-0.001170622	0.152000000
18	-0.002159605	-0.001229760	0.152000000
19	-0.002220126	-0.001286191	0.152000000
20	-0.002254138	-0.001334869	0.152000000
21	-0.002267196	-0.001368173	0.152000000
22	-0.002269688	-0.001379878	0.152000000
23	-0.002271057	-0.001392066	0.152000000
24	-0.002267140	-0.001428423	0.152000000
25	-0.002236553	-0.001480551	0.152000000
26	-0.002168027	-0.001530012	0.152000000
27	-0.002066611	-0.001567688	0.152000000
28	-0.001937790	-0.001592177	0.152000000
29	-0.001784929	-0.001603509	0.152000000
30	-0.001610382	-0.001601881	0.152000000
31	-0.001416064	-0.001587591	0.152000000
32	-0.001203674	-0.001561088	0.152000000
33	-0.000974792	-0.001522988	0.152000000
34	-0.000730925	-0.001474056	0.152000000
35	-0.000473539	-0.001415192	0.152000000
36	-0.000204096	-0.001347326	0.152000000
37	0.000075915	-0.001271347	0.152000000
38	0.000364919	-0.001187881	0.152000000
39	0.000661126	-0.001096790	0.152000000
40	0.000962184	-0.000996351	0.152000000
41	0.001265215	-0.000881072	0.152000000
42	0.001565170	-0.000738604	0.152000000
43	0.001862022	-0.000539098	0.152000000
