######## Panel parameters ########
n_blades=5

n_span_all= 22
n_points=21
######## End of parameters ########
1	0.026000000	-0.019473203	-0.014730766
2	0.026000000	-0.014826829	-0.011816730
3	0.026000000	-0.010065455	-0.009381462
4	0.026000000	-0.005551087	-0.007067007
5	0.026000000	-0.001521607	-0.004687077
6	0.026000000	0.001745665	-0.002094102
7	0.026000000	0.004099179	0.000577825
8	0.026000000	0.005498605	0.003075071
9	0.026000000	0.005914291	0.005117401
10	0.026000000	0.005545302	0.006332687
11	0.026000000	0.005293023	0.006681237
12	0.026000000	0.004978445	0.006985441
13	0.026000000	0.003832430	0.007592510
14	0.026000000	0.001715331	0.007717922
15	0.026000000	-0.001088485	0.006938864
16	0.026000000	-0.004245197	0.005166063
17	0.026000000	-0.007481668	0.002423422
18	0.026000000	-0.010622439	-0.001152639
19	0.026000000	-0.013643894	-0.005335038
20	0.026000000	-0.016638211	-0.009878379
21	0.026000000	-0.019473203	-0.014730766
1	0.032908571	-0.022339548	-0.013182397
2	0.032908571	-0.017335730	-0.010576923
3	0.032908571	-0.012381611	-0.008202098
4	0.032908571	-0.007748505	-0.005809910
5	0.032908571	-0.003580371	-0.003406474
6	0.032908571	-0.000052426	-0.000964695
7	0.032908571	0.002772541	0.001368971
8	0.032908571	0.004804622	0.003502067
9	0.032908571	0.005913676	0.005344888
10	0.032908571	0.006033892	0.006638179
11	0.032908571	0.005850477	0.007038250
12	0.032908571	0.005522077	0.007350489
13	0.032908571	0.004253558	0.007802346
14	0.032908571	0.002038023	0.007831153
15	0.032908571	-0.000917904	0.007169656
16	0.032908571	-0.004364710	0.005651568
17	0.032908571	-0.008035642	0.003205113
18	0.032908571	-0.011661948	-0.000159453
19	0.032908571	-0.015166339	-0.004221631
20	0.032908571	-0.018763009	-0.008585797
21	0.032908571	-0.022339548	-0.013182397
1	0.039817143	-0.025168238	-0.012369671
2	0.039817143	-0.019778848	-0.009758252
3	0.039817143	-0.014525648	-0.007227357
4	0.039817143	-0.009581962	-0.004734725
5	0.039817143	-0.005119950	-0.002246539
6	0.039817143	-0.001249710	0.000158235
7	0.039817143	0.001958142	0.002361726
8	0.039817143	0.004442737	0.004265976
9	0.039817143	0.006050045	0.005895106
10	0.039817143	0.006577725	0.007162905
11	0.039817143	0.006451977	0.007610490
12	0.039817143	0.006102238	0.007935623
13	0.039817143	0.004737129	0.008332461
14	0.039817143	0.002399034	0.008201608
15	0.039817143	-0.000676503	0.007307941
16	0.039817143	-0.004306215	0.005663547
17	0.039817143	-0.008311294	0.003272257
18	0.039817143	-0.012434934	0.000054053
19	0.039817143	-0.016519775	-0.003878524
20	0.039817143	-0.020843627	-0.008002378
21	0.039817143	-0.025168238	-0.012369671
1	0.046725714	-0.027736344	-0.011737469
2	0.046725714	-0.021923762	-0.009167205
3	0.046725714	-0.016327801	-0.006533040
4	0.046725714	-0.011063131	-0.003929521
5	0.046725714	-0.006283569	-0.001374060
6	0.046725714	-0.002099240	0.001046063
7	0.046725714	0.001396400	0.003242645
8	0.046725714	0.004161170	0.005083436
9	0.046725714	0.006096468	0.006555206
10	0.046725714	0.006990704	0.007714956
11	0.046725714	0.006948150	0.008198984
12	0.046725714	0.006570812	0.008528753
13	0.046725714	0.005105332	0.008840085
14	0.046725714	0.002655807	0.008537436
15	0.046725714	-0.000523254	0.007401380
16	0.046725714	-0.004295770	0.005553336
17	0.046725714	-0.008553400	0.003091777
18	0.046725714	-0.013112907	-0.000010721
19	0.046725714	-0.017817806	-0.003695701
20	0.046725714	-0.022781724	-0.007568320
21	0.046725714	-0.027736344	-0.011737469
1	0.053634286	-0.029452856	-0.010786697
2	0.053634286	-0.023340545	-0.008365353
3	0.053634286	-0.017493706	-0.005774513
4	0.053634286	-0.012003237	-0.003179158
5	0.053634286	-0.006998218	-0.000657105
6	0.053634286	-0.002608754	0.001733430
7	0.053634286	0.001051565	0.003929855
8	0.053634286	0.003951359	0.005770442
9	0.053634286	0.006060190	0.007141524
10	0.053634286	0.007185544	0.008168333
11	0.053634286	0.007217697	0.008660410
12	0.053634286	0.006824860	0.008993620
13	0.053634286	0.005303342	0.009271263
14	0.053634286	0.002779338	0.008934167
15	0.053634286	-0.000490302	0.007736482
16	0.053634286	-0.004365659	0.005798012
17	0.053634286	-0.008784735	0.003305109
18	0.053634286	-0.013625491	0.000315789
19	0.053634286	-0.018768288	-0.003083868
20	0.053634286	-0.024114345	-0.006769532
21	0.053634286	-0.029452856	-0.010786697
1	0.060542857	-0.030418758	-0.009447809
2	0.060542857	-0.024160076	-0.007212729
3	0.060542857	-0.018171305	-0.004780134
4	0.060542857	-0.012546664	-0.002322057
5	0.060542857	-0.007411983	0.000070881
6	0.060542857	-0.002905670	0.002354597
7	0.060542857	0.000851324	0.004476049
8	0.060542857	0.003826763	0.006264488
9	0.060542857	0.006007496	0.007571753
10	0.060542857	0.007206967	0.008540128
11	0.060542857	0.007267601	0.009032404
12	0.060542857	0.006878271	0.009377486
13	0.060542857	0.005346937	0.009693140
14	0.060542857	0.002787035	0.009428389
15	0.060542857	-0.000551200	0.008315762
16	0.060542857	-0.004515511	0.006455946
17	0.060542857	-0.009046379	0.004055355
18	0.060542857	-0.014034248	0.001195299
19	0.060542857	-0.019363534	-0.002031721
20	0.060542857	-0.024889202	-0.005571106
21	0.060542857	-0.030418758	-0.009447809
1	0.067451429	-0.031193163	-0.008032485
2	0.067451429	-0.024855257	-0.005982622
3	0.067451429	-0.018781993	-0.003726283
4	0.067451429	-0.013072876	-0.001433165
5	0.067451429	-0.007856677	0.000809664
6	0.067451429	-0.003273393	0.002962188
7	0.067451429	0.000554197	0.004974879
8	0.067451429	0.003588714	0.006677527
9	0.067451429	0.005812581	0.007922015
10	0.067451429	0.007043033	0.008856535
11	0.067451429	0.007117569	0.009347952
12	0.067451429	0.006737164	0.009704553
13	0.067451429	0.005212375	0.010065619
14	0.067451429	0.002640123	0.009877262
15	0.067451429	-0.000737450	0.008863736
16	0.067451429	-0.004764411	0.007119868
17	0.067451429	-0.009375074	0.004851168
18	0.067451429	-0.014457343	0.002136001
19	0.067451429	-0.019892760	-0.000936279
20	0.067451429	-0.025534529	-0.004315146
21	0.067451429	-0.031193163	-0.008032485
1	0.074360000	-0.031039440	-0.006366732
2	0.074360000	-0.024803533	-0.004528711
3	0.074360000	-0.018820413	-0.002482756
4	0.074360000	-0.013191635	-0.000391566
5	0.074360000	-0.008045146	0.001663384
6	0.074360000	-0.003518576	0.003646647
7	0.074360000	0.000267060	0.005512899
8	0.074360000	0.003271291	0.007096368
9	0.074360000	0.005472817	0.008253709
10	0.074360000	0.006696823	0.009134476
11	0.074360000	0.006781415	0.009612122
12	0.074360000	0.006419144	0.009969484
13	0.074360000	0.004940829	0.010360630
14	0.074360000	0.002426624	0.010243091
15	0.074360000	-0.000894408	0.009341205
16	0.074360000	-0.004867339	0.007742550
17	0.074360000	-0.009422974	0.005646546
18	0.074360000	-0.014450057	0.003127015
19	0.074360000	-0.019830817	0.000268233
20	0.074360000	-0.025420889	-0.002884005
21	0.074360000	-0.031039440	-0.006366732
1	0.081268571	-0.030503608	-0.004655556
2	0.081268571	-0.024455144	-0.003030698
3	0.081268571	-0.018645196	-0.001199907
4	0.081268571	-0.013175434	0.000682671
5	0.081268571	-0.008171018	0.002541659
6	0.081268571	-0.003765343	0.004346163
7	0.081268571	-0.000076007	0.006055324
8	0.081268571	0.002854266	0.007510190
9	0.081268571	0.005001494	0.008573462
10	0.081268571	0.006200699	0.009393348
11	0.081268571	0.006292883	0.009851436
12	0.081268571	0.005952076	0.010203810
13	0.081268571	0.004537453	0.010614766
14	0.081268571	0.002113437	0.010560432
15	0.081268571	-0.001105952	0.009769740
16	0.081268571	-0.004969257	0.008322734
17	0.081268571	-0.009405250	0.006410190
18	0.081268571	-0.014305116	0.004100743
19	0.081268571	-0.019553514	0.001472886
20	0.081268571	-0.025010421	-0.001432502
21	0.081268571	-0.030503608	-0.004655556
1	0.088177143	-0.029691127	-0.002953519
2	0.088177143	-0.023892087	-0.001533784
3	0.088177143	-0.018315884	0.000087053
4	0.088177143	-0.013062749	0.001764392
5	0.088177143	-0.008253609	0.003429176
6	0.088177143	-0.004016277	0.005054870
7	0.088177143	-0.000463695	0.006605028
8	0.088177143	0.002360172	0.007928745
9	0.088177143	0.004429337	0.008896110
10	0.088177143	0.005589568	0.009652105
11	0.088177143	0.005686794	0.010086793
12	0.088177143	0.005369381	0.010429786
13	0.088177143	0.004030007	0.010851734
14	0.088177143	0.001718702	0.010852261
15	0.088177143	-0.001366478	0.010168157
16	0.088177143	-0.005079211	0.008871694
17	0.088177143	-0.009347572	0.007143536
18	0.088177143	-0.014066416	0.005046877
19	0.088177143	-0.019124163	0.002654116
20	0.088177143	-0.024386554	0.000001350
21	0.088177143	-0.029691127	-0.002953519
1	0.095085714	-0.028589038	-0.001269631
2	0.095085714	-0.023097310	-0.000044137
3	0.095085714	-0.017811518	0.001374772
4	0.095085714	-0.012828976	0.002852985
5	0.095085714	-0.008265009	0.004327911
6	0.095085714	-0.004240588	0.005777111
7	0.095085714	-0.000862851	0.007168469
8	0.095085714	0.001823912	0.008360472
9	0.095085714	0.003792548	0.009231509
10	0.095085714	0.004900456	0.009921341
11	0.095085714	0.005000324	0.010329089
12	0.095085714	0.004707878	0.010658443
13	0.095085714	0.003454094	0.011082279
14	0.095085714	0.001276238	0.011128216
15	0.095085714	-0.001644249	0.010544176
16	0.095085714	-0.005167916	0.009394939
17	0.095085714	-0.009223475	0.007849556
18	0.095085714	-0.013710627	0.005965589
19	0.095085714	-0.018522834	0.003809114
20	0.095085714	-0.023532925	0.001411643
21	0.095085714	-0.028589038	-0.001269631
1	0.101994286	-0.027419017	0.000329393
2	0.101994286	-0.022248889	0.001380054
3	0.101994286	-0.017268242	0.002615356
4	0.101994286	-0.012570737	0.003911436
5	0.101994286	-0.008265632	0.005211788
6	0.101994286	-0.004466753	0.006497648
7	0.101994286	-0.001275133	0.007740910
8	0.101994286	0.001265163	0.008809694
9	0.101994286	0.003126435	0.009590603
10	0.101994286	0.004177466	0.010217319
11	0.101994286	0.004278370	0.010597789
12	0.101994286	0.004010212	0.010911884
13	0.101994286	0.002842560	0.011332097
14	0.101994286	0.000801715	0.011414785
15	0.101994286	-0.001946751	0.010920201
16	0.101994286	-0.005270838	0.009906384
17	0.101994286	-0.009100650	0.008530621
18	0.101994286	-0.013341119	0.006845098
19	0.101994286	-0.017891178	0.004909852
20	0.101994286	-0.022631061	0.002752195
21	0.101994286	-0.027419017	0.000329393
1	0.108902857	-0.026301344	0.001812353
2	0.108902857	-0.021439595	0.002711551
3	0.108902857	-0.016752219	0.003786476
4	0.108902857	-0.012329057	0.004922729
5	0.108902857	-0.008273435	0.006069270
6	0.108902857	-0.004692335	0.007210510
7	0.108902857	-0.001680915	0.008321901
8	0.108902857	0.000717280	0.009280744
9	0.108902857	0.002474405	0.009981220
10	0.108902857	0.003469764	0.010550780
11	0.108902857	0.003570796	0.010905572
12	0.108902857	0.003324892	0.011204471
13	0.108902857	0.002237848	0.011617926
14	0.108902857	0.000326869	0.011729550
15	0.108902857	-0.002256821	0.011311917
16	0.108902857	-0.005388560	0.010417369
17	0.108902857	-0.009000210	0.009192054
18	0.108902857	-0.013001812	0.007683277
19	0.108902857	-0.017297656	0.005945611
20	0.108902857	-0.021775072	0.004002682
21	0.108902857	-0.026301344	0.001812353
1	0.115811429	-0.025416840	0.003137481
2	0.115811429	-0.020811947	0.003911349
3	0.115811429	-0.016368872	0.004853425
4	0.115811429	-0.012174255	0.005857182
5	0.115811429	-0.008326472	0.006876121
6	0.115811429	-0.004926805	0.007897301
7	0.115811429	-0.002065527	0.008899182
8	0.115811429	0.000214196	0.009766894
9	0.115811429	0.001884502	0.010400669
10	0.115811429	0.002833474	0.010922703
11	0.115811429	0.002934695	0.011256105
12	0.115811429	0.002707403	0.011542425
13	0.115811429	0.001687474	0.011950331
14	0.115811429	-0.000115459	0.012085801
15	0.115811429	-0.002561970	0.011731657
16	0.115811429	-0.005533554	0.010935915
17	0.115811429	-0.008963545	0.009835337
18	0.115811429	-0.012766238	0.008473156
19	0.115811429	-0.016850388	0.006899411
20	0.115811429	-0.021109225	0.005134657
21	0.115811429	-0.025416840	0.003137481
1	0.122720000	-0.024955398	0.004289295
2	0.122720000	-0.020514579	0.004967777
3	0.122720000	-0.016226917	0.005809998
4	0.122720000	-0.012177280	0.006714735
5	0.122720000	-0.008460968	0.007638706
6	0.122720000	-0.005175599	0.008571050
7	0.122720000	-0.002408361	0.009492554
8	0.122720000	-0.000202658	0.010293910
9	0.122720000	0.001413415	0.010879068
10	0.122720000	0.002334157	0.011366980
11	0.122720000	0.002436919	0.011686082
12	0.122720000	0.002222725	0.011965051
13	0.122720000	0.001247539	0.012372510
14	0.122720000	-0.000485027	0.012528662
15	0.122720000	-0.002843753	0.012222783
16	0.122720000	-0.005714122	0.011500369
17	0.122720000	-0.009029995	0.010491576
18	0.122720000	-0.012708286	0.009236677
19	0.122720000	-0.016660486	0.007782467
20	0.122720000	-0.020783562	0.006147102
21	0.122720000	-0.024955398	0.004289295
1	0.128042064	-0.025010434	0.005010281
2	0.128042064	-0.020608058	0.005633916
3	0.128042064	-0.016355363	0.006420776
4	0.128042064	-0.012337489	0.007271793
5	0.128042064	-0.008649237	0.008145246
6	0.128042064	-0.005387344	0.009031532
7	0.128042064	-0.002638341	0.009912753
8	0.128042064	-0.000446571	0.010681718
9	0.128042064	0.001159293	0.011243105
10	0.128042064	0.002076055	0.011715638
11	0.128042064	0.002181592	0.012030244
12	0.128042064	0.001972924	0.012308911
13	0.128042064	0.001012310	0.012723226
14	0.128042064	-0.000700878	0.012896604
15	0.128042064	-0.003038830	0.012619093
16	0.128042064	-0.005887812	0.011935372
17	0.128042064	-0.009180924	0.010973210
18	0.128042064	-0.012835479	0.009771500
19	0.128042064	-0.016763363	0.008375591
20	0.128042064	-0.020862406	0.006802359
21	0.128042064	-0.025010434	0.005010281
1	0.133159604	-0.025370803	0.005647981
2	0.133159604	-0.020935948	0.006234994
3	0.133159604	-0.016650185	0.006987462
4	0.133159604	-0.012600010	0.007806270
5	0.133159604	-0.008881146	0.008650271
6	0.133159604	-0.005591012	0.009510839
7	0.133159604	-0.002816861	0.010370976
8	0.133159604	-0.000604463	0.011123716
9	0.133159604	0.001016516	0.011673140
10	0.133159604	0.001943517	0.012139497
11	0.133159604	0.002053077	0.012454887
12	0.133159604	0.001846005	0.012737386
13	0.133159604	0.000883507	0.013163448
14	0.133159604	-0.000838554	0.013353704
15	0.133159604	-0.003193365	0.013095935
16	0.133159604	-0.006066205	0.012434810
17	0.133159604	-0.009388554	0.011497877
18	0.133159604	-0.013076846	0.010323427
19	0.133159604	-0.017041997	0.008956229
20	0.133159604	-0.021181009	0.007412142
21	0.133159604	-0.025370803	0.005647981
1	0.137875956	-0.025781269	0.005825951
2	0.137875956	-0.021303721	0.006399757
3	0.137875956	-0.016975037	0.007138099
4	0.137875956	-0.012883450	0.007943223
5	0.137875956	-0.009125915	0.008774765
6	0.137875956	-0.005800724	0.009624477
7	0.137875956	-0.002995887	0.010475527
8	0.137875956	-0.000758104	0.011220095
9	0.137875956	0.000881405	0.011763677
10	0.137875956	0.001820478	0.012227396
11	0.137875956	0.001934024	0.012544462
12	0.137875956	0.001725584	0.012829769
13	0.137875956	0.000754787	0.013260657
14	0.137875956	-0.000982319	0.013457650
15	0.137875956	-0.003359628	0.013208928
16	0.137875956	-0.006261871	0.012557243
17	0.137875956	-0.009619370	0.011630477
18	0.137875956	-0.013347646	0.010466789
19	0.137875956	-0.017356514	0.009110596
20	0.137875956	-0.021542100	0.007577842
21	0.137875956	-0.025781269	0.005825951
1	0.142009873	-0.025430371	0.005535047
2	0.142009873	-0.021066399	0.006080864
3	0.142009873	-0.016847015	0.006787537
4	0.142009873	-0.012858516	0.007560394
5	0.142009873	-0.009195492	0.008360386
6	0.142009873	-0.005953661	0.009179372
7	0.142009873	-0.003218502	0.010000159
8	0.142009873	-0.001034738	0.010714663
9	0.142009873	0.000564961	0.011236941
10	0.142009873	0.001481150	0.011686010
11	0.142009873	0.001592056	0.011994685
12	0.142009873	0.001388549	0.012272118
13	0.142009873	0.000442908	0.012691319
14	0.142009873	-0.001248304	0.012887570
15	0.142009873	-0.003564469	0.012656260
16	0.142009873	-0.006392870	0.012031559
17	0.142009873	-0.009665351	0.011139783
18	0.142009873	-0.013299637	0.010018432
19	0.142009873	-0.017207668	0.008710196
20	0.142009873	-0.021288278	0.007230394
21	0.142009873	-0.025430371	0.005535047
1	0.145402491	-0.023655856	0.005234698
2	0.145402491	-0.019705964	0.005722620
3	0.145402491	-0.015885522	0.006352624
4	0.145402491	-0.012273824	0.007043134
5	0.145402491	-0.008956958	0.007760357
6	0.145402491	-0.006021515	0.008496522
7	0.145402491	-0.003544464	0.009234540
8	0.145402491	-0.001564850	0.009871677
9	0.145402491	-0.000115047	0.010338423
10	0.145402491	0.000714130	0.010744610
11	0.145402491	0.000812312	0.011024609
12	0.145402491	0.000626841	0.011274723
13	0.145402491	-0.000228973	0.011653692
14	0.145402491	-0.001758474	0.011837260
15	0.145402491	-0.003855160	0.011640606
16	0.145402491	-0.006415720	0.011083149
17	0.145402491	-0.009378047	0.010282425
18	0.145402491	-0.012667718	0.009273324
19	0.145402491	-0.016204858	0.008094131
20	0.145402491	-0.019898389	0.006760380
21	0.145402491	-0.023655856	0.005234698
1	0.147923434	-0.020755676	0.005127792
2	0.147923434	-0.017452541	0.005522352
3	0.147923434	-0.014259679	0.006044617
4	0.147923434	-0.011242022	0.006621013
5	0.147923434	-0.008470897	0.007220719
6	0.147923434	-0.006018624	0.007836885
7	0.147923434	-0.003949095	0.008453684
8	0.147923434	-0.002293581	0.008981150
9	0.147923434	-0.001081454	0.009368522
10	0.147923434	-0.000389595	0.009709358
11	0.147923434	-0.000310351	0.009944113
12	0.147923434	-0.000466572	0.010151983
13	0.147923434	-0.001181174	0.010468102
14	0.147923434	-0.002457368	0.010626580
15	0.147923434	-0.004208500	0.010473204
16	0.147923434	-0.006347157	0.010014002
17	0.147923434	-0.008821019	0.009349765
18	0.147923434	-0.011568058	0.008510870
19	0.147923434	-0.014521487	0.007529168
20	0.147923434	-0.017604795	0.006415586
21	0.147923434	-0.020755676	0.005127792
1	0.150000000	-0.017232040	0.005161173
2	0.150000000	-0.014711017	0.005419730
3	0.150000000	-0.012282746	0.005810874
4	0.150000000	-0.009990451	0.006254218
5	0.150000000	-0.007885777	0.006715866
6	0.150000000	-0.006023672	0.007190197
7	0.150000000	-0.004452323	0.007663727
8	0.150000000	-0.003194391	0.008065217
9	0.150000000	-0.002273655	0.008360954
10	0.150000000	-0.001749376	0.008622765
11	0.150000000	-0.001691424	0.008801884
12	0.150000000	-0.001811010	0.008958907
13	0.150000000	-0.002353184	0.009199057
14	0.150000000	-0.003320863	0.009324833
15	0.150000000	-0.004650446	0.009219801
16	0.150000000	-0.006275136	0.008881154
17	0.150000000	-0.008154668	0.008386752
18	0.150000000	-0.010242029	0.007760522
19	0.150000000	-0.012486344	0.007026186
20	0.150000000	-0.014827003	0.006182093
21	0.150000000	-0.017232040	0.005161173
